*
G04 Mass Parameters ***
*
G04 Image ***
*
%INF:\PSD_DATA\AUDIOMEGA\AUDIOMEGA0805.TOP*%
%ICAS*%
%MOIN*%
%IPPOS*%
%ASAXBY*%
G74*%FSLAN2X34Y34*%
*
G04 Aperture Definitions ***
*
%ADD10R,0.0600X0.0300*%
%ADD11R,0.0460X0.0700*%
%ADD12R,0.0300X0.0600*%
%ADD13R,0.0200X0.0300*%
%ADD14R,0.0780X0.0320*%
%ADD15R,0.1180X0.0820*%
%ADD16C,0.0820*%
%ADD17R,0.0390X0.0270*%
%ADD18R,0.0270X0.0390*%
%ADD19R,0.0760X0.1200*%
%ADD20R,0.0960X0.0480*%
%ADD21O,0.0200X0.0500*%
%ADD22R,0.0160X0.0500*%
%ADD23O,0.0500X0.0200*%
%ADD24R,0.0500X0.0160*%
%ADD25O,0.0500X0.0160*%
%ADD26R,0.0540X0.0360*%
%ADD27R,0.1600X0.0600*%
%ADD28C,0.0400*%
%ADD29C,0.0080*%
%ADD30C,0.0200*%
%ADD31C,0.0160*%
%ADD32C,0.0140*%
%ADD33C,0.0400*%
%ADD34C,0.0180*%
*
G04 Plot Data ***
*
G54D29*
G01X0001490Y0011226D02*
X0001795D01*
X0005933Y0011215D02*
Y0010960D01*
X0003702Y0013320D02*
X0004243D01*
X0003648Y0012162D02*
X0004110D01*
X0003811Y0012234D02*
X0004110D01*
X0005110Y0011615D02*
Y0011600D01*
X0006005Y0012000D02*
Y0011885D01*
X0003557Y0014000D02*
Y0013880D01*
X0002140Y0004458D02*
X0002235D01*
X0011477Y0014000D02*
Y0013203D01*
X0003629Y0001100D02*
Y0001000D01*
X0003557Y0001100D02*
Y0001000D01*
X0003125Y0001813D02*
Y0001800D01*
X0002477Y0002856D02*
Y0002844D01*
X0007040Y0001115D02*
Y0001079D01*
X0017370Y0006618D02*
X0017885D01*
X0015797Y0007400D02*
Y0007280D01*
X0017445Y0005322D02*
X0017885D01*
X0014953Y0007620D02*
X0015635D01*
X0014861Y0009720D02*
Y0009650D01*
X0017309Y0009138D02*
X0017885D01*
X0015215Y0012660D02*
X0015810D01*
X0005573Y0006120D02*
Y0003530D01*
X0017237Y0002316D02*
Y0002234D01*
X0015660Y0003800D02*
X0016226D01*
X0000785Y0008562D02*
X0000930D01*
X0016085Y0001151D02*
Y-0000150D01*
X0015910Y0002845D02*
Y0002625D01*
X0000785Y0009282D02*
X0000930D01*
X0013637Y0000675D02*
Y-0000150D01*
X0017381Y0002503D02*
Y0002047D01*
X0000785Y0008058D02*
X0000930D01*
X0003845Y0012257D02*
Y0011043D01*
X0004925Y0011600D02*
Y0011500D01*
X0001490Y0010362D02*
X0003215D01*
X0010253Y0002995D02*
Y0002915D01*
X0010397Y0002995D02*
Y0002915D01*
X0001490Y0010434D02*
X0003215D01*
X0002981Y0011077D02*
Y0009392D01*
X0004110Y0011500D02*
Y0011043D01*
X0000785Y0002658D02*
X0000930D01*
X0003215Y0011043D02*
Y0010555D01*
X0001490Y0009714D02*
X0003215D01*
Y0010059D02*
Y0009835D01*
X0000785Y0000570D02*
X0000977D01*
X0003053Y0011077D02*
Y0009450D01*
X0000785Y0000714D02*
X0000930D01*
X0001490Y0009498D02*
X0003215D01*
X0015149Y0010965D02*
Y0010605D01*
X0003065Y0008346D02*
X0003215D01*
X0000785Y0002442D02*
X0000930D01*
X0001490Y0009210D02*
X0002799D01*
X0003065Y0008202D02*
X0003215D01*
X0004997Y0009450D02*
Y0009184D01*
X0001490Y0008706D02*
X0002505D01*
X0003065Y0008418D02*
X0003215D01*
X0001490Y0007698D02*
X0002262D01*
X0003215Y0009567D02*
Y0009487D01*
X0001490Y0008634D02*
X0002505D01*
X0003485Y0006325D02*
Y0006225D01*
X0001490Y0008778D02*
X0002505D01*
X0001795Y0011077D02*
X0003375D01*
X0001795Y0012297D02*
Y0011077D01*
X0003375Y0012150D02*
Y0011077D01*
X0002140Y0004242D02*
X0002235D01*
X0002477Y0011077D02*
Y0007913D01*
X0002140Y0004674D02*
X0002166D01*
X0006110Y0010950D02*
Y0010475D01*
X0006035Y0010960D02*
Y0010475D01*
X0010037Y0002995D02*
Y0002915D01*
X0001847Y0012666D02*
X0002881D01*
X0010410Y0013250D02*
Y0013133D01*
X0015115Y0008650D02*
Y0008180D01*
X0013985Y0009650D02*
X0014485D01*
X0014501Y0009720D02*
Y0009650D01*
X0013985D02*
Y0008650D01*
X0013185Y0009650D02*
X0013885D01*
Y0008650D01*
X0013815Y0008400D02*
X0014235D01*
X0013185Y0009650D02*
Y0008650D01*
X0015285Y0009650D02*
X0015985D01*
Y0008650D01*
X0015285D02*
X0015985D01*
X0015285Y0009650D02*
Y0008650D01*
X0013885Y0009210D02*
X0013985D01*
X0015185Y0009650D02*
Y0008650D01*
X0014485Y0009650D02*
X0014685D01*
X0014555Y0008014D02*
X0014235Y0007696D01*
X0012485Y0004775D02*
Y0004675D01*
X0010253Y0005411D02*
Y0005255D01*
X0011735Y0004775D02*
X0011935D01*
X0011981D02*
Y0004675D01*
X0000785Y0004602D02*
X0000930D01*
X0006035Y0010794D02*
X0006110D01*
X0000785Y0008634D02*
X0000930D01*
X0003385Y0005971D02*
X0003375Y0005960D01*
X0001490Y0006186D02*
X0001580D01*
X0012535Y0003375D02*
X0012735D01*
X0013535D01*
X0011140Y0002675D02*
X0011735D01*
X0011935D01*
X0013305Y0005475D02*
X0013535D01*
X0012735Y0004675D02*
X0013535D01*
X0010935Y0003545D02*
Y0003475D01*
X0016610Y0013675D02*
X0017310D01*
Y0013242D02*
X0017885D01*
X0017310Y0012875D02*
Y0012675D01*
Y0013675D02*
Y0012875D01*
X0015810Y0013675D02*
X0016510D01*
X0014815Y0011635D02*
X0015310D01*
X0016510Y0012875D02*
Y0012675D01*
X0014910Y0013458D02*
X0015215D01*
X0004395Y0009915D02*
Y0009835D01*
X0002140Y0003594D02*
X0002276D01*
X0003530Y0002800D02*
X0004390D01*
Y0003675D02*
Y0002800D01*
X0007757Y0009450D02*
X0007875D01*
X0004630Y0002800D02*
X0005490D01*
X0004390Y0003738D02*
X0004630D01*
X0000785Y0009858D02*
X0000930D01*
X0005410Y0009915D02*
X0006110D01*
X0005410Y0008775D02*
X0006210D01*
X0007445Y0002900D02*
Y0002725D01*
X0006221Y0000235D02*
Y-0000150D01*
X0007040Y0001218D02*
X0007085D01*
X0005960Y0005700D02*
X0006760D01*
X0001490Y0003306D02*
X0001580D01*
X0000785Y0006474D02*
X0000930D01*
X0005960Y0004900D02*
X0006760D01*
X0007760Y0005700D02*
Y0005000D01*
X0006941D02*
Y0004900D01*
X0006760Y0005000D02*
X0006960D01*
X0007760D01*
X0003989Y0000775D02*
Y0000505D01*
X0000785Y0006546D02*
X0000930D01*
X0007760Y0004900D02*
Y0004830D01*
X0006437Y0006120D02*
Y0005700D01*
X0006293Y0005000D02*
Y0004900D01*
X0006653Y0006120D02*
Y0005700D01*
X0006760Y0004900D02*
X0006960D01*
X0007733Y0002900D02*
Y0002725D01*
X0000785Y0005610D02*
X0000930D01*
X0000785Y0004890D02*
X0000930D01*
X0005490Y0002874D02*
X0005680D01*
X0000785Y0004170D02*
X0000930D01*
X0017121Y0004314D02*
X0017885D01*
X0014125Y0003855D02*
X0014660D01*
X0014805Y0010605D02*
X0015310D01*
X0015293Y0004600D02*
Y0004500D01*
X0013709Y0005595D02*
Y0004645D01*
X0014125D02*
X0014660D01*
X0015660Y0004600D02*
X0016435D01*
X0017387Y0002514D02*
X0017885D01*
X0003385Y0006225D02*
Y0005971D01*
X0004390Y0005650D02*
Y0004775D01*
X0004630Y0005650D02*
X0005490D01*
X0004390Y0004098D02*
X0004630D01*
X0005490Y0005650D02*
Y0004775D01*
X0004390D02*
Y0004550D01*
Y0005394D02*
X0004630D01*
X0004390Y0005466D02*
X0004630D01*
X0005490Y0003900D02*
Y0003675D01*
X0004390Y0003450D02*
X0004630D01*
X0017445Y0006330D02*
X0017885D01*
X0014795Y0004600D02*
X0015435D01*
X0015660D01*
X0016435Y0004500D02*
Y0004235D01*
X0014795Y0004500D02*
X0015435D01*
X0014660Y0003800D02*
X0014880D01*
X0000785Y0009714D02*
X0000930D01*
X0005717Y0009915D02*
Y0009475D01*
X0006210Y0008775D02*
X0006410D01*
X0007210D01*
X0005357Y0002800D02*
Y0000818D01*
X0003845Y-0000055D02*
Y-0000150D01*
X0002117Y-0000055D02*
Y-0000150D01*
X0002189Y-0000055D02*
Y-0000150D01*
X0002261Y0001100D02*
Y0001000D01*
X0001689Y0000642D02*
X0001960D01*
X0004709Y0002800D02*
Y0002375D01*
X0002140Y0003378D02*
X0002226D01*
X0003785Y0000775D02*
X0004840D01*
X0003053Y0001100D02*
Y0001000D01*
X0002621Y-0000055D02*
Y-0000150D01*
X0004853Y0002800D02*
Y0000505D01*
X0011140Y0000354D02*
X0011735D01*
X0003680Y0002375D02*
Y0001800D01*
X0002140Y0003234D02*
X0002236D01*
X0002785Y0001100D02*
X0002960D01*
X0007040Y0001938D02*
X0007780D01*
X0007885Y0002725D02*
Y0002375D01*
X0005490Y0002970D02*
Y0002800D01*
X0006885Y0002035D02*
Y0002025D01*
X0007780D01*
X0006797Y0000235D02*
Y-0000150D01*
X0006365Y0000235D02*
Y-0000150D01*
X0004840Y0001218D02*
X0005680D01*
X0012125Y0001925D02*
Y0001825D01*
X0011765Y0002675D02*
Y0002625D01*
X0010935Y0003375D02*
Y0002915D01*
X0008940Y0001938D02*
X0009780D01*
X0004840Y0001434D02*
X0005680D01*
X0011549Y0002675D02*
Y0002625D01*
X0011140Y0001825D02*
X0011735D01*
X0012053Y0001925D02*
Y0001825D01*
X0012735Y0002625D02*
Y0001925D01*
X0009780Y0002035D02*
X0010935D01*
X0011735Y0001925D02*
X0011935D01*
X0012735D01*
X0013061Y0002675D02*
Y0001775D01*
X0000785Y0000210D02*
X0001329D01*
X0009780Y0001135D02*
X0010935D01*
X0013205Y0000675D02*
Y-0000150D01*
X0012735Y0000525D02*
Y-0000150D01*
X0011735Y0000525D02*
X0012735D01*
X0008940Y0002226D02*
X0009780D01*
X0011735Y0000625D02*
X0012735D01*
Y0000675D02*
Y0000625D01*
X0000785Y-0000150D02*
X0000985D01*
X0000785Y0014000D02*
Y-0000150D01*
Y0014000D02*
X0017885D01*
Y-0000150D01*
X0012629Y0001925D02*
Y0001825D01*
X0001757Y-0000055D02*
Y-0000150D01*
X0000821Y0014000D02*
Y-0000150D01*
X0001490Y0002802D02*
X0001580D01*
X0000785Y0012306D02*
X0000930D01*
X0000785Y0003306D02*
X0000930D01*
X0001037Y0000502D02*
Y-0000150D01*
X0000785Y0003234D02*
X0000930D01*
X0000893Y0014000D02*
Y-0000150D01*
X0000785Y0003162D02*
X0000930D01*
X0002909Y-0000055D02*
Y-0000150D01*
X0000785Y0003378D02*
X0000930D01*
X0001490Y0012309D02*
Y0000841D01*
X0001541Y0012360D02*
Y0000790D01*
X0003125Y-0000055D02*
Y-0000150D01*
X0002140Y0002082D02*
X0002287D01*
X0011382Y0000498D02*
X0011735D01*
X0004709Y0000775D02*
Y0000505D01*
X0004637Y0000775D02*
Y0000505D01*
X0001973Y-0000055D02*
Y-0000150D01*
X0002045Y-0000055D02*
Y-0000150D01*
X0004637Y-0000055D02*
Y-0000150D01*
X0001829Y-0000055D02*
Y-0000150D01*
X0003917Y0000775D02*
Y0000505D01*
X0004061Y-0000055D02*
Y-0000150D01*
X0001685Y-0000054D02*
Y-0000150D01*
X0004133Y-0000055D02*
Y-0000150D01*
X0001613Y-0000037D02*
Y-0000150D01*
X0001397Y0000142D02*
Y-0000150D01*
X0010930Y0004755D02*
Y0004605D01*
X0002909Y0001100D02*
Y0001000D01*
X0002140Y0003018D02*
X0002323D01*
X0002785Y0001000D02*
X0002960D01*
X0000785Y0000282D02*
X0001257D01*
X0001469Y0000070D02*
Y-0000150D01*
X0003989Y-0000055D02*
Y-0000150D01*
X0001960Y0001000D02*
Y0000505D01*
X0003341Y-0000055D02*
Y-0000150D01*
X0002477Y-0000055D02*
Y-0000150D01*
X0002765Y-0000055D02*
Y-0000150D01*
X0003485Y-0000055D02*
Y-0000150D01*
X0000785Y0002370D02*
X0000930D01*
X0003701Y0002800D02*
Y0002375D01*
X0003773Y0002800D02*
Y0002375D01*
X0001109Y0014000D02*
Y0012720D01*
X0003917Y0002800D02*
Y0002375D01*
X0003989Y0002800D02*
Y0002375D01*
X0001541Y0000002D02*
Y-0000150D01*
X0004133Y0002800D02*
Y0002375D01*
X0001795Y0012297D02*
X0003076D01*
X0000785Y0009570D02*
X0000930D01*
X0004277Y-0000055D02*
Y-0000150D01*
X0004630Y0003675D02*
Y0002800D01*
Y0004550D02*
Y0003900D01*
X0003099Y0001800D02*
X0003680D01*
X0004997Y0002800D02*
Y0000505D01*
X0004925Y-0000055D02*
Y-0000150D01*
X0004781Y-0000055D02*
Y-0000150D01*
X0007589Y0000780D02*
Y-0000150D01*
X0003347Y0003018D02*
X0003530D01*
X0005573Y0002970D02*
Y0000952D01*
X0005412Y0000873D02*
X0005044Y0000505D01*
X0008021Y0000775D02*
Y-0000150D01*
X0007445Y0000636D02*
Y-0000150D01*
X0006581Y0006120D02*
Y0005700D01*
X0004493Y0006221D02*
Y0002375D01*
X0007040Y0002725D02*
X0007885D01*
X0004840Y0001290D02*
X0005680D01*
X0005717Y0002035D02*
Y0002015D01*
X0005680Y0002915D02*
X0005960D01*
X0005610Y0000955D02*
X0005680D01*
X0005789Y0000235D02*
Y-0000150D01*
X0005410Y0009786D02*
X0006110D01*
X0015869Y0000935D02*
Y-0000150D01*
X0004840Y0002226D02*
X0005680D01*
X0004565Y-0000055D02*
Y-0000150D01*
X0000785Y0007122D02*
X0000930D01*
X0005861Y0000235D02*
Y-0000150D01*
X0000785Y0007770D02*
X0000930D01*
X0005069Y-0000055D02*
Y-0000150D01*
X0006077Y0000235D02*
Y-0000150D01*
X0006149Y0000235D02*
Y-0000150D01*
X0007780Y0001225D02*
Y0000775D01*
X0004840Y0001362D02*
X0005680D01*
X0007040Y0001925D02*
X0007780D01*
X0007040Y0001146D02*
X0007085D01*
X0000785Y0008130D02*
X0000930D01*
X0007596Y0000786D02*
X0007272Y0000463D01*
X0006581Y0000235D02*
Y-0000150D01*
X0007085Y0000376D02*
Y-0000150D01*
X0007229Y0000427D02*
Y-0000150D01*
X0007157Y0000391D02*
Y-0000150D01*
X0007373Y0000564D02*
Y-0000150D01*
X0005141Y-0000055D02*
Y-0000150D01*
X0007661Y0000882D02*
Y-0000150D01*
X0004840Y0002082D02*
X0005680D01*
X0005501Y0000170D02*
Y-0000150D01*
X0007877Y0000775D02*
Y-0000150D01*
X0007949Y0000775D02*
Y-0000150D01*
X0007517Y0000708D02*
Y-0000150D01*
X0005213Y-0000050D02*
Y-0000150D01*
X0008910Y0012415D02*
Y0012285D01*
X0006005Y0011215D02*
Y0010960D01*
X0007733Y0001225D02*
Y-0000150D01*
X0008309Y0000775D02*
Y-0000150D01*
X0005645Y0000314D02*
Y-0000150D01*
X0008957Y0002551D02*
Y-0000150D01*
X0008525Y0000775D02*
Y-0000150D01*
X0009029Y0002623D02*
Y-0000150D01*
X0008669Y0000775D02*
Y-0000150D01*
X0009101Y0002695D02*
Y-0000150D01*
X0008597Y0002995D02*
Y0002983D01*
X0008340Y0013085D02*
X0008910D01*
X0007760Y0005466D02*
X0008154D01*
X0007760Y0012685D02*
X0008330D01*
X0004385Y0005826D02*
X0007012D01*
X0015941Y0002845D02*
Y0002530D01*
X0010935Y0002035D02*
Y0002015D01*
X0016435Y0004674D02*
X0017885D01*
X0009821Y0000235D02*
Y-0000150D01*
X0009893Y0000235D02*
Y-0000150D01*
X0009965Y0000235D02*
Y-0000150D01*
X0007307Y0000498D02*
X0009780D01*
X0010935Y0001135D02*
Y0001125D01*
X0009533Y0004381D02*
Y-0000150D01*
X0011045Y0000235D02*
Y-0000150D01*
X0011117Y0000235D02*
Y-0000150D01*
X0010541Y0000235D02*
Y-0000150D01*
X0011935Y0001825D02*
X0012735D01*
X0010397Y0000235D02*
Y-0000150D01*
X0010325Y0001135D02*
Y0001115D01*
X0011140D02*
Y0001104D01*
X0011302Y0000426D02*
X0011735D01*
X0011140Y0000375D02*
Y0000235D01*
X0013133Y0000675D02*
Y-0000150D01*
X0011189Y0000380D02*
Y-0000150D01*
X0010901Y0000235D02*
Y-0000150D01*
X0011405Y0000521D02*
Y-0000150D01*
X0009965Y0002035D02*
Y0002015D01*
X0012735Y-0000006D02*
X0017885D01*
X0011765Y0000625D02*
Y0000525D01*
X0011837Y0000625D02*
Y0000525D01*
X0011909Y0000625D02*
Y0000525D01*
X0011981Y0000625D02*
Y0000525D01*
X0012053Y0000625D02*
Y0000525D01*
X0012125Y0000625D02*
Y0000525D01*
X0012197Y0000625D02*
Y0000525D01*
X0012269Y0000625D02*
Y0000525D01*
X0012341Y0000625D02*
Y0000525D01*
X0012413Y0000625D02*
Y0000525D01*
X0012485Y0000625D02*
Y0000525D01*
X0012557Y0000625D02*
Y0000525D01*
X0014190Y0012162D02*
X0015215D01*
X0011765Y0003475D02*
Y0003375D01*
X0011837Y0003475D02*
Y0003375D01*
X0012341Y0002675D02*
Y0002625D01*
X0013565Y0000675D02*
Y-0000150D01*
X0013885Y0008706D02*
X0013985D01*
X0012989Y0002675D02*
Y0001775D01*
X0010685Y0000235D02*
Y-0000150D01*
X0014357Y0003855D02*
Y0003845D01*
X0010757Y0000235D02*
Y-0000150D01*
X0011693Y0000675D02*
Y-0000150D01*
X0013535Y0003810D02*
X0013725D01*
X0012735Y0002586D02*
X0013628D01*
X0000785Y0007410D02*
X0000930D01*
X0017319Y0001146D02*
X0017885D01*
X0017298Y0003378D02*
X0017885D01*
X0012735Y0002514D02*
X0013700D01*
X0013725Y0003845D02*
Y0003267D01*
X0014789Y0000675D02*
Y-0000150D01*
X0015985Y0008778D02*
X0017885D01*
X0013410Y0013800D02*
Y0013395D01*
X0017215Y0002298D02*
X0017885D01*
X0017225Y0003306D02*
X0017885D01*
X0013853Y0000675D02*
Y-0000150D01*
X0017358Y0003090D02*
X0017885D01*
X0014357Y0000675D02*
Y-0000150D01*
X0015725Y0002625D02*
Y0002314D01*
X0005960Y0004900D02*
Y0004400D01*
X0015293Y0002437D02*
Y0001882D01*
X0015440Y0003625D02*
X0015910D01*
X0017401Y0001002D02*
X0017885D01*
X0015720Y0000786D02*
X0016225D01*
X0017237Y0000316D02*
Y-0000150D01*
X0014213Y0000675D02*
Y-0000150D01*
X0014717Y0000675D02*
Y-0000150D01*
X0012773Y0002675D02*
Y0001775D01*
X0015293Y0000675D02*
Y-0000150D01*
X0016013Y0003800D02*
Y0003405D01*
X0017309Y0004941D02*
Y0004159D01*
X0016301Y0000480D02*
Y-0000150D01*
X0016373Y0000377D02*
Y-0000150D01*
X0016445Y0000306D02*
Y-0000150D01*
X0016517Y0000254D02*
Y-0000150D01*
X0016589Y0000217D02*
Y-0000150D01*
X0016661Y0000190D02*
Y-0000150D01*
X0016733Y0000173D02*
Y-0000150D01*
X0016805Y0000166D02*
Y-0000150D01*
X0016877Y0000166D02*
Y-0000150D01*
X0016949Y0000176D02*
Y-0000150D01*
X0017093Y0000222D02*
Y-0000150D01*
X0017165Y0000262D02*
Y-0000150D01*
X0017381Y0007400D02*
Y0006597D01*
X0017438Y0001866D02*
X0017885D01*
X0017453Y0007400D02*
Y-0000150D01*
X0017597Y0007400D02*
Y-0000150D01*
X0017669Y0014000D02*
Y-0000150D01*
X0017741Y0014000D02*
Y-0000150D01*
X0017310Y0012810D02*
X0017885D01*
X0000785Y0013962D02*
X0017885D01*
X0014910Y0013060D02*
X0015105D01*
X0017310Y0013026D02*
X0017885D01*
X0015215Y0013460D02*
X0015810D01*
X0017021Y0000194D02*
Y-0000150D01*
X0017237Y0014000D02*
Y0013675D01*
X0017310Y0013602D02*
X0017885D01*
X0017093Y0004772D02*
Y0004328D01*
X0015653Y0014000D02*
Y0013460D01*
X0017331Y0010722D02*
X0017885D01*
X0017310Y0013314D02*
X0017885D01*
X0014141Y0014000D02*
Y0012927D01*
X0017392Y0011514D02*
X0017885D01*
X0017310Y0013098D02*
X0017885D01*
X0014910Y0013674D02*
X0017885D01*
X0017310Y0012738D02*
X0017885D01*
X0015105Y0012954D02*
X0015215D01*
X0015810Y0012790D02*
Y0012675D01*
X0016610Y0012875D02*
Y0012675D01*
X0006797Y0012800D02*
Y0012700D01*
X0007760Y0013098D02*
X0008910D01*
X0013781Y0014000D02*
Y0013800D01*
X0017310Y0012666D02*
X0017885D01*
X0017310Y0012882D02*
X0017885D01*
X0009862Y0005394D02*
X0010270D01*
X0015581Y0014000D02*
Y0013460D01*
X0017240Y0011875D02*
X0017310D01*
X0017283Y0011802D02*
X0017885D01*
X0014213Y0014000D02*
Y0012977D01*
X0017359Y0011658D02*
X0017885D01*
X0017310Y0012090D02*
X0017885D01*
X0017395Y0011442D02*
X0017885D01*
X0017390Y0011370D02*
X0017885D01*
X0017376Y0011298D02*
X0017885D01*
X0017353Y0011226D02*
X0017885D01*
X0017319Y0011154D02*
X0017885D01*
X0017272Y0011082D02*
X0017885D01*
X0017310Y0012522D02*
X0017885D01*
X0016517Y0014000D02*
Y0012005D01*
X0017380Y0011586D02*
X0017885D01*
X0017635Y0007914D02*
X0017885D01*
X0006077Y0009915D02*
Y0009475D01*
X0017389Y0010362D02*
X0017885D01*
X0017374Y0010290D02*
X0017885D01*
X0005506Y0008675D02*
X0006210D01*
X0015115Y0008562D02*
X0017885D01*
X0017314Y0010146D02*
X0017885D01*
X0017266Y0010074D02*
X0017885D01*
X0017162Y0009930D02*
X0017885D01*
X0013985Y0008650D02*
X0014485D01*
X0013421Y0003475D02*
Y0003375D01*
X0017237Y0004866D02*
Y0004234D01*
X0017391Y0004026D02*
X0017885D01*
X0017635Y0008058D02*
X0017885D01*
X0017364Y0009642D02*
X0017885D01*
X0017383Y0009570D02*
X0017885D01*
X0017393Y0009498D02*
X0017885D01*
X0017395Y0009426D02*
X0017885D01*
X0017388Y0009354D02*
X0017885D01*
X0017372Y0009282D02*
X0017885D01*
X0015985Y0009426D02*
X0016176D01*
X0017294Y0009786D02*
X0017885D01*
X0017335Y0009714D02*
X0017885D01*
X0014285Y0000675D02*
Y-0000150D01*
X0013815Y0008650D02*
X0013885D01*
X0015115D02*
X0015185D01*
X0013815Y0008634D02*
X0014555D01*
X0013997Y0008650D02*
Y0008400D01*
X0000785Y0012738D02*
X0001127D01*
X0017597Y0014000D02*
Y0008400D01*
X0017635Y0008346D02*
X0017885D01*
X0005187Y0008994D02*
X0005410D01*
X0017635Y0008130D02*
X0017885D01*
X0015115Y0008634D02*
X0017885D01*
X0002994Y0009405D02*
X0002589Y0009000D01*
X0015115Y0008418D02*
X0017885D01*
X0017635Y0007842D02*
X0017885D01*
X0014741Y0007410D02*
X0015635D01*
X0017635Y0007626D02*
X0017885D01*
X0014953Y0007620D02*
X0014610Y0007280D01*
X0002405Y0001917D02*
Y0001800D01*
X0017407Y0005538D02*
X0017885D01*
X0017021Y0006906D02*
X0017885D01*
X0017436Y0003882D02*
X0017885D01*
X0017351Y0003450D02*
X0017885D01*
X0017324Y0006690D02*
X0017885D01*
X0017404Y0005106D02*
X0017885D01*
X0017404Y0006546D02*
X0017885D01*
X0017427Y0006474D02*
X0017885D01*
X0017440Y0006402D02*
X0017885D01*
X0017371Y0005034D02*
X0017885D01*
X0017441Y0006258D02*
X0017885D01*
X0017269Y0005754D02*
X0017885D01*
X0017408Y0006114D02*
X0017885D01*
X0014795Y0004602D02*
X0017885D01*
X0002405Y0002917D02*
Y0002782D01*
X0000785Y0006618D02*
X0000930D01*
X0004630Y0004775D02*
Y0004550D01*
X0016661Y0004740D02*
Y0004359D01*
X0009317Y0005147D02*
Y-0000150D01*
X0016895Y0008850D02*
X0017885D01*
X0014069Y0005100D02*
Y0003845D01*
X0017374Y0005610D02*
X0017885D01*
X0017435Y0003666D02*
X0017885D01*
X0013535Y0005106D02*
X0013885D01*
X0017021Y0004744D02*
Y0004356D01*
X0017186Y0005826D02*
X0017885D01*
X0017325Y0004962D02*
X0017885D01*
X0013535D02*
X0014660D01*
X0010685Y0002995D02*
Y0002915D01*
X0015660Y0004500D02*
X0016435D01*
X0015653Y0004600D02*
Y0004500D01*
X0017261Y0006762D02*
X0017885D01*
X0016435Y0004458D02*
X0017885D01*
X0015435Y0004500D02*
X0015660D01*
X0017228Y0004242D02*
X0017885D01*
X0017300Y0004170D02*
X0017885D01*
X0017353Y0004098D02*
X0017885D01*
X0013995Y0004242D02*
X0014125D01*
X0004390Y0003810D02*
X0004630D01*
X0006210Y0008675D02*
X0006410D01*
X0017444Y0003810D02*
X0017885D01*
X0000785Y0004962D02*
X0000930D01*
X0004133Y0000775D02*
Y0000505D01*
X0013709Y0000675D02*
Y-0000150D01*
X0014395Y0003810D02*
X0014660D01*
X0015910Y0003450D02*
X0016114D01*
X0015797Y0000863D02*
Y-0000150D01*
X0004925Y0002800D02*
Y0000505D01*
X0017395Y0003018D02*
X0017885D01*
X0017813Y0014000D02*
Y-0000150D01*
X0003785Y0000775D02*
Y0000505D01*
X0011549Y0000665D02*
Y-0000150D01*
X0017444Y0002730D02*
X0017885D01*
X0017434Y0002658D02*
X0017885D01*
X0017415Y0002586D02*
X0017885D01*
X0017205Y0001290D02*
X0017885D01*
X0017421Y0002946D02*
X0017885D01*
X0017246Y0002226D02*
X0017885D01*
X0017313Y0002154D02*
X0017885D01*
X0006005Y0000235D02*
Y-0000150D01*
X0013349Y0002675D02*
Y0001775D01*
X0016229Y0001295D02*
Y0000845D01*
X0017423Y0001938D02*
X0017885D01*
X0017346Y0002442D02*
X0017885D01*
X0017443Y0001722D02*
X0017885D01*
X0017432Y0001650D02*
X0017885D01*
X0017412Y0001578D02*
X0017885D01*
X0017383Y0001506D02*
X0017885D01*
X0016224Y0001290D02*
X0016465D01*
X0017341Y0001434D02*
X0017885D01*
X0017284Y0001362D02*
X0017885D01*
X0014069Y0000675D02*
Y-0000150D01*
X0014501Y0000675D02*
Y-0000150D01*
X0016013Y0001079D02*
Y-0000150D01*
X0017237Y0003234D02*
X0017885D01*
X0017307Y0003162D02*
X0017885D01*
X0016157Y0001223D02*
Y-0000150D01*
X0012735D02*
X0017885D01*
X0017430Y0000642D02*
X0017885D01*
X0017410Y0000570D02*
X0017885D01*
X0017379Y0000498D02*
X0017885D01*
X0017335Y0000426D02*
X0017885D01*
X0017277Y0000354D02*
X0017885D01*
X0017065Y0000210D02*
X0017885D01*
X0012735Y0000138D02*
X0017885D01*
X0012735Y0000066D02*
X0017885D01*
X0002405Y-0000055D02*
Y-0000150D01*
X0005855Y0011802D02*
X0005865D01*
X0009461Y0012250D02*
Y0011830D01*
X0005410Y0009858D02*
X0006110D01*
Y0010950D02*
X0006335D01*
X0000785Y0010938D02*
X0000930D01*
X0004709Y0014000D02*
Y0013880D01*
X0007733Y0012000D02*
Y0011830D01*
X0000785Y0013674D02*
X0002063D01*
X0006655Y0011885D02*
Y0011830D01*
X0015077Y0009720D02*
Y0009650D01*
X0008021Y0012015D02*
Y0011830D01*
X0002423Y0013242D02*
X0003125D01*
X0014357Y0002270D02*
Y0001775D01*
X0014141Y0002270D02*
Y0001775D01*
X0014933Y0007600D02*
Y0007280D01*
X0015797Y0009720D02*
Y0009650D01*
X0016119Y0009720D02*
X0016204Y0009635D01*
X0015149Y0007620D02*
Y0007280D01*
X0015653Y0008650D02*
Y0008400D01*
X0017525Y0014000D02*
Y0008400D01*
X0014235Y0008058D02*
X0014555D01*
X0014213Y0002270D02*
Y0001775D01*
X0014789Y0007457D02*
Y0007280D01*
X0007308Y0013798D02*
X0007456Y0013650D01*
X0002261Y0014000D02*
Y0013851D01*
X0014235Y0007770D02*
X0014309D01*
X0015437Y0007620D02*
Y0007280D01*
X0016589Y0007400D02*
Y0006967D01*
X0015725Y0007400D02*
Y0007280D01*
X0008669Y0008801D02*
Y0008645D01*
X0016013Y0007400D02*
Y0007280D01*
X0010109Y0005555D02*
Y0005255D01*
X0007210Y0008675D02*
Y0008645D01*
X0003341Y0011077D02*
Y0011043D01*
X0004061Y0012288D02*
Y0011043D01*
X0001490Y0010218D02*
X0003215D01*
X0004637Y0006130D02*
Y0005650D01*
X0010541Y0009030D02*
Y0008015D01*
X0009965Y0009030D02*
Y0008015D01*
X0009821Y0009030D02*
Y0008015D01*
X0001490Y0003738D02*
X0001580D01*
X0010469Y0009030D02*
Y0008015D01*
X0013133Y0009702D02*
Y0008400D01*
X0012857Y0009426D02*
X0013185D01*
X0014573Y0009720D02*
Y0009650D01*
X0017237Y0011040D02*
Y0010859D01*
X0017165Y0010973D02*
Y0010927D01*
X0014805Y0011226D02*
X0014815D01*
X0015985Y0008850D02*
X0016675D01*
X0004395Y0009567D02*
Y0009487D01*
X0004781Y0009450D02*
Y0009400D01*
X0004637Y0011600D02*
Y0011500D01*
X0001490Y0010290D02*
X0003215D01*
X0003065Y0008634D02*
X0003215D01*
X0005855Y0010960D02*
X0006035D01*
X0000785Y0002802D02*
X0000930D01*
X0005475Y0008706D02*
X0008060D01*
X0004410Y0009915D02*
Y0009487D01*
X0004853Y0009450D02*
Y0009328D01*
X0015293Y0010965D02*
Y0010605D01*
X0009079Y0008418D02*
X0011339D01*
X0007445Y0009242D02*
Y0008645D01*
X0000785Y0002226D02*
X0000930D01*
X0005069Y0009450D02*
Y0009112D01*
X0005501Y0008775D02*
Y0008680D01*
X0004717Y0009450D02*
X0005410D01*
X0000785Y0001866D02*
X0000930D01*
X0009101Y0009030D02*
Y0008367D01*
X0008741Y0009030D02*
Y0008645D01*
X0017310Y0012450D02*
X0017885D01*
X0016510Y0012378D02*
X0016610D01*
X0017310Y0013530D02*
X0017885D01*
X0017237Y0011875D02*
Y0011859D01*
X0016510Y0013458D02*
X0016610D01*
X0016510Y0013530D02*
X0016610D01*
X0014357Y0008650D02*
Y0007817D01*
X0013277Y0000675D02*
Y-0000150D01*
X0013885Y0009354D02*
X0013985D01*
X0012483Y0009066D02*
X0013185D01*
X0014887Y0007554D02*
X0015635D01*
X0014789Y0002270D02*
Y0001775D01*
X0013815Y0008650D02*
Y0008400D01*
X0014069Y0008650D02*
Y0008400D01*
X0002237Y0004552D02*
X0002254Y0004535D01*
X0001490Y0005970D02*
X0001580D01*
X0003375Y0006834D02*
X0003385D01*
X0004277Y0006325D02*
Y0006225D01*
X0004205Y0006325D02*
Y0006225D01*
X0002909Y0007553D02*
Y0006845D01*
X0004385Y0006329D02*
X0004510Y0006204D01*
X0003375Y0005970D02*
X0003384D01*
X0013815Y0008562D02*
X0014555D01*
X0002693Y0007337D02*
Y0006845D01*
X0002621Y0007265D02*
Y0006845D01*
X0002549Y0007193D02*
Y0006845D01*
X0003375Y0006042D02*
X0003385D01*
X0002765Y0007409D02*
Y0006845D01*
X0003375Y0006114D02*
X0003385D01*
X0003413Y0006325D02*
Y0006225D01*
X0003375Y0006186D02*
X0003385D01*
X0003215Y0006878D02*
X0003385D01*
X0008237Y0005446D02*
Y0005255D01*
X0003341Y0014000D02*
Y0013880D01*
X0009976Y0004098D02*
X0009990D01*
X0006221Y0005000D02*
Y0004900D01*
X0000785Y0004674D02*
X0000930D01*
X0007760Y0005610D02*
X0007979D01*
X0007760Y0005106D02*
X0007990D01*
X0004277Y0000775D02*
Y0000505D01*
X0006653Y0005000D02*
Y0004900D01*
X0005490Y0004602D02*
X0005960D01*
X0002766Y0007410D02*
X0003215D01*
X0007760Y0004830D02*
X0007960D01*
X0008237Y0012015D02*
Y0011830D01*
X0013901Y0011370D02*
X0014815D01*
X0011117Y0014000D02*
Y0013314D01*
X0009610Y0012522D02*
X0009710D01*
X0009610Y0012666D02*
X0009710D01*
X0011981Y0014000D02*
Y0013352D01*
X0015635Y0008400D02*
X0017635D01*
Y0007400D01*
X0015635D02*
X0017635D01*
X0014235Y0007986D02*
X0014527D01*
X0012845Y0002675D02*
Y0001775D01*
X0008930Y0005255D02*
Y0004755D01*
X0006769Y0006120D02*
X0007005Y0005884D01*
X0007990Y0005255D02*
X0008930D01*
X0007760Y0005178D02*
X0007990D01*
X0008930Y0004755D02*
Y0004495D01*
X0009130Y0004026D02*
X0009990D01*
X0007040Y0002874D02*
X0008488D01*
X0007990Y0003122D02*
Y0002995D01*
X0008453Y0005445D02*
Y0005255D01*
X0009533Y0005897D02*
Y0005723D01*
X0005141Y0002800D02*
Y0000602D01*
X0005645Y0002970D02*
Y0000955D01*
X0008930Y0004255D02*
Y0004151D01*
X0008237Y0000775D02*
Y-0000150D01*
X0009990Y0002995D02*
X0010930D01*
Y0003495D02*
Y0002995D01*
X0007949Y0005640D02*
Y0004830D01*
X0009290Y0003738D02*
X0009990D01*
X0005789Y0006120D02*
Y0003530D01*
X0010757Y0005270D02*
Y0005255D01*
X0000785Y0006114D02*
X0000930D01*
X0010930Y0003545D02*
Y0003495D01*
X0001490Y0001218D02*
X0001953D01*
X0010930Y0005255D02*
Y0004755D01*
X0009990Y0005255D02*
X0010930D01*
X0009389Y0012250D02*
Y0011830D01*
X0010037Y0005627D02*
Y0005255D01*
X0001490Y0003666D02*
X0001580D01*
X0001490Y0004458D02*
X0001580D01*
X0001490Y0003882D02*
X0001580D01*
X0010685Y0005270D02*
Y0005255D01*
X0009749Y0012250D02*
Y0011830D01*
X0009533Y0012250D02*
Y0011830D01*
X0014213Y0008650D02*
Y0008400D01*
X0008165Y0012015D02*
Y0011830D01*
X0014141Y0008650D02*
Y0008400D01*
X0007949Y0012015D02*
Y0011830D01*
X0008453Y0008695D02*
Y0008645D01*
X0000785Y0013746D02*
X0002135D01*
X0007517Y0012000D02*
Y0011830D01*
X0008140Y0008695D02*
X0008440D01*
X0009029Y0009030D02*
Y0008482D01*
X0007743Y0009426D02*
X0007864D01*
X0008290Y0008645D02*
X0008740D01*
X0008885Y0009030D02*
Y0008615D01*
X0002405Y0011077D02*
Y0007841D01*
X0007229Y0009281D02*
Y0008645D01*
X0002333Y0011077D02*
Y0007769D01*
X0007301Y0009254D02*
Y0008645D01*
X0007877Y0005712D02*
Y0004830D01*
X0000785Y0010074D02*
X0000930D01*
X0007373Y0009241D02*
Y0008645D01*
X0009173Y0009030D02*
Y0008015D01*
X0001490Y0003018D02*
X0001580D01*
X0008525Y0005445D02*
Y0005255D01*
X0008093Y0005500D02*
Y0005255D01*
X0010325Y0009030D02*
Y0008015D01*
X0013925Y0009720D02*
Y0008400D01*
X0008741Y0000775D02*
Y-0000150D01*
X0000785Y0012234D02*
X0000930D01*
X0014933Y0010965D02*
Y0010605D01*
X0011052Y0009210D02*
X0011202D01*
X0010829Y0009036D02*
Y0008015D01*
X0015132Y0002298D02*
X0015709D01*
X0009389Y0009030D02*
Y0008015D01*
X0001490Y0002010D02*
X0001580D01*
X0011117Y0009275D02*
Y0008291D01*
X0011834Y0008346D02*
X0011910D01*
X0011485Y0008350D02*
X0011785D01*
X0015869Y0002625D02*
Y0002458D01*
X0011485Y0008980D02*
X0011785D01*
X0001490Y0004530D02*
X0001580D01*
X0001490Y0002154D02*
X0001580D01*
X0011485Y0008380D02*
X0011785D01*
X0012785Y0009354D02*
X0013185D01*
X0001490Y0007194D02*
X0001758D01*
X0010397Y0009030D02*
Y0008015D01*
X0011485Y0009010D02*
X0011785D01*
X0000785Y0007482D02*
X0000930D01*
X0004840Y0002375D02*
Y0000775D01*
X0000785Y0002082D02*
X0000930D01*
X0006941Y0008775D02*
Y0008675D01*
X0003680Y0002375D02*
X0004840D01*
X0007301Y0000492D02*
Y-0000150D01*
X0005680Y0000235D02*
X0007040D01*
X0004840Y0000858D02*
X0005397D01*
X0005680Y0001115D02*
X0007040D01*
X0007685Y0001002D02*
X0007780D01*
X0005680Y0001135D02*
X0007040D01*
X0005680Y0002015D02*
Y0001135D01*
Y0002015D02*
X0007040D01*
X0007373Y0002025D02*
Y0001925D01*
X0007085Y0002900D02*
Y0002725D01*
X0005680Y0002915D02*
Y0002035D01*
X0004390Y0003234D02*
X0004630D01*
X0008609Y0002995D02*
X0008464Y0002850D01*
X0007780Y0000775D02*
X0008940D01*
X0007040Y0001225D02*
Y0001135D01*
X0005680Y0002035D02*
X0006885D01*
X0011559Y0000675D02*
X0011347Y0000463D01*
X0009780Y0000235D02*
X0011140D01*
X0009780Y0001115D02*
Y0000235D01*
Y0001115D02*
X0011140D01*
X0011161Y0001125D02*
X0011140Y0001104D01*
X0011909Y0003475D02*
Y0003375D01*
X0009780Y0002015D02*
Y0001135D01*
X0011189Y0001925D02*
Y0001825D01*
X0009780Y0002015D02*
X0010935D01*
X0011189Y0002675D02*
Y0002625D01*
X0009780Y0002915D02*
Y0002035D01*
X0011333Y0002675D02*
Y0002625D01*
X0005717Y0011615D02*
Y0011485D01*
X0000785Y0008850D02*
X0000930D01*
X0010685Y0002035D02*
Y0002015D01*
X0004110Y0011500D02*
X0005110D01*
X0009173Y0012250D02*
Y0011830D01*
X0004110Y0011600D02*
X0005110D01*
X0002909Y0013320D02*
Y0012951D01*
X0005789Y0011615D02*
Y0011485D01*
X0009990Y0003495D02*
Y0002995D01*
X0000785Y0009642D02*
X0000930D01*
X0011261Y0000403D02*
Y-0000150D01*
X0010541Y0002035D02*
Y0002015D01*
X0006365Y0008775D02*
Y0008675D01*
X0005410Y0009915D02*
Y0009475D01*
X0007373Y0014000D02*
Y0013733D01*
X0005960Y0012400D02*
Y0012000D01*
X0004349Y0014000D02*
Y0013880D01*
X0005960Y0012000D02*
X0006760D01*
X0006365Y0014000D02*
Y0013880D01*
X0006068Y0012800D02*
X0006760D01*
X0007760Y0013500D02*
Y0012800D01*
X0006653Y0014000D02*
Y0013880D01*
X0006760Y0012800D02*
X0006960D01*
X0007760D01*
X0005855Y0011154D02*
X0006468D01*
X0006760Y0012000D02*
X0006960D01*
X0007760D01*
X0009710Y0013250D02*
X0010410D01*
X0012341Y0014000D02*
Y0013280D01*
X0009710Y0013250D02*
Y0012250D01*
X0008910Y0013250D02*
X0009610D01*
Y0012250D01*
Y0013242D02*
X0009710D01*
X0007157Y0008775D02*
Y0008675D01*
X0005855Y0011010D02*
X0006353D01*
X0005429Y0009915D02*
Y0009475D01*
X0005043Y0009138D02*
X0005410D01*
X0006797Y0012000D02*
Y0011830D01*
X0002045Y0014000D02*
Y0013656D01*
X0010901Y0005270D02*
Y0005255D01*
X0013279Y0005538D02*
X0013885D01*
X0010510Y0005270D02*
X0010935D01*
X0012485Y0003475D02*
Y0003375D01*
X0012845Y0004775D02*
Y0004675D01*
X0012341Y0003475D02*
Y0003375D01*
X0001490Y0003450D02*
X0001580D01*
X0003385Y0006325D02*
X0004385D01*
X0003375Y0006258D02*
X0004456D01*
X0001490Y0007770D02*
X0002334D01*
X0001490Y0004602D02*
X0001580D01*
X0004385Y0006225D02*
Y0005650D01*
X0001490Y0005754D02*
X0001580D01*
X0003385Y0006225D02*
X0004385D01*
X0016085Y0007400D02*
Y0007280D01*
X0014501Y0008650D02*
Y0007960D01*
X0013853Y0005595D02*
Y0004645D01*
X0014285Y0005100D02*
Y0004645D01*
X0017525Y0007400D02*
Y-0000150D01*
X0006365Y0006120D02*
Y0005700D01*
X0006725Y0005000D02*
Y0004900D01*
X0005960Y0005700D02*
Y0005000D01*
X0006760D01*
X0008260Y0005445D02*
X0009019D01*
X0007760Y0003329D02*
Y0002900D01*
X0005490Y0004674D02*
X0005960D01*
X0011935Y0003375D02*
X0012535D01*
X0009780Y0002915D02*
X0010935D01*
X0014141Y0000675D02*
Y-0000150D01*
X0011333Y0003475D02*
Y0003375D01*
X0011935Y0004675D02*
X0012535D01*
X0011935Y0004775D02*
X0012535D01*
X0011735Y0003475D02*
X0011935D01*
X0013349Y0005595D02*
Y0005475D01*
X0012125Y0003475D02*
Y0003375D01*
X0011935Y0003475D02*
X0012535D01*
X0013535Y0003855D02*
Y0003475D01*
X0012735Y0002442D02*
X0013772D01*
X0012557Y0003475D02*
Y0003375D01*
X0012535Y0002675D02*
X0012735D01*
X0013535D01*
X0014285Y0002270D02*
Y0001775D01*
X0013885Y0005100D02*
X0014660D01*
X0013349Y0003475D02*
Y0003375D01*
X0017418Y0003954D02*
X0017885D01*
X0013535Y0005394D02*
X0013885D01*
X0016358Y0007198D02*
X0016650Y0006906D01*
X0017309Y0005941D02*
Y0005709D01*
X0013349Y0000675D02*
Y-0000150D01*
X0017330Y0005682D02*
X0017885D01*
X0013535Y0005322D02*
X0013885D01*
X0014395Y0003666D02*
X0014880D01*
X0014645Y0000675D02*
Y-0000150D01*
X0000785Y0011946D02*
X0000930D01*
X0014410Y0003625D02*
X0014880D01*
X0016229Y0003705D02*
Y0003565D01*
X0000785Y0008490D02*
X0000930D01*
X0013535Y0005475D02*
Y0004775D01*
X0012341D02*
Y0004675D01*
X0012535Y0004775D02*
X0012735D01*
X0013535D01*
X0013421D02*
Y0004675D01*
X0013535D02*
Y0004645D01*
X0011981Y0003475D02*
Y0003375D01*
X0006221Y0011215D02*
Y0010950D01*
X0013973Y0011442D02*
X0014015D01*
X0014805D02*
X0014815D01*
X0016510Y0012675D02*
Y0012005D01*
X0017240Y0011875D02*
Y0011856D01*
X0016610Y0013675D02*
Y0012875D01*
X0014933Y0009720D02*
Y0009650D01*
X0015985Y0008922D02*
X0016480D01*
X0017091D02*
X0017885D01*
X0013410Y0013800D02*
X0014110D01*
X0014384Y0012378D02*
X0015215D01*
X0014210Y0013800D02*
X0014910D01*
X0014110Y0013602D02*
X0014210D01*
X0014910Y0013800D02*
Y0013060D01*
X0015437Y0014000D02*
Y0013460D01*
X0016510Y0013602D02*
X0016610D01*
X0017310Y0012675D02*
Y0011875D01*
X0014805Y0011658D02*
X0015310D01*
X0015941Y0014000D02*
Y0013675D01*
X0000785Y0009786D02*
X0000930D01*
X0005855Y0012285D02*
Y0011615D01*
X0003375Y0012090D02*
X0004110D01*
X0005110Y0011615D02*
X0005855D01*
X0003375Y0011370D02*
X0004110D01*
X0005855Y0011485D02*
Y0010960D01*
X0000785Y0009426D02*
X0000930D01*
X0005069Y0011600D02*
Y0011500D01*
X0006509Y0011215D02*
Y0011195D01*
X0005865Y0011885D02*
Y0011215D01*
Y0011885D02*
X0006655D01*
X0010181Y0014000D02*
Y0013250D01*
X0000785Y0013602D02*
X0001991D01*
X0004925Y0014000D02*
Y0013880D01*
X0000785Y0012954D02*
X0001343D01*
X0008340Y0012285D02*
X0008910D01*
X0010109Y0014000D02*
Y0013250D01*
X0008340Y0013085D02*
Y0012415D01*
X0008910D01*
X0008330Y0012685D02*
Y0012015D01*
X0000785Y0013458D02*
X0001847D01*
X0007760Y0012015D02*
X0008330D01*
X0005717Y0014000D02*
Y0013880D01*
X0001490Y0001002D02*
X0003680D01*
X0013881Y0011350D02*
X0014185D01*
X0009389Y0014000D02*
Y0013250D01*
X0012750Y0013395D02*
X0013410D01*
X0001037Y0014000D02*
Y0012648D01*
X0015365Y0004600D02*
Y0004500D01*
X0014125Y0004645D02*
Y0003855D01*
X0013061Y0000675D02*
Y-0000150D01*
X0013995Y0004645D02*
Y0003855D01*
X0013493Y0003475D02*
Y0003375D01*
X0012197Y0003475D02*
Y0003375D01*
X0013725Y0003845D02*
X0014395D01*
Y0003486D01*
X0012735Y0002370D02*
X0013844D01*
X0014805Y0012035D02*
Y0011365D01*
X0014015D02*
X0014805D01*
X0001490Y0004026D02*
X0001580D01*
X0014185Y0011298D02*
X0014815D01*
X0015310Y0010965D02*
Y0010605D01*
X0005501Y0006120D02*
Y0003530D01*
X0014815Y0011635D02*
Y0010965D01*
X0017289Y0010794D02*
X0017885D01*
X0006365Y0012000D02*
Y0011885D01*
X0015215Y0012660D02*
Y0011990D01*
X0012557Y0004775D02*
Y0004675D01*
X0016510Y0012666D02*
X0016610D01*
X0015869Y0014000D02*
Y0013675D01*
X0015215Y0013460D02*
Y0012790D01*
X0017310Y0012018D02*
X0017885D01*
X0015105Y0013060D02*
Y0012390D01*
X0004493Y-0000055D02*
Y-0000150D01*
X0017361Y0010650D02*
X0017885D01*
X0004110Y0012250D02*
Y0011600D01*
X0004205Y0000775D02*
Y0000505D01*
X0006581Y0005000D02*
Y0004900D01*
X0005490Y0004458D02*
X0005960D01*
X0002505Y0008800D02*
Y0007941D01*
X0002478Y0007122D02*
X0003215D01*
X0002550Y0007194D02*
X0003215D01*
X0002622Y0007266D02*
X0003215D01*
X0005861Y0002970D02*
Y0002915D01*
X0003341Y0006878D02*
Y0006845D01*
X0002694Y0007338D02*
X0003215D01*
X0003035Y0007698D02*
X0003215D01*
X0003065Y0007842D02*
X0003215D01*
X0006509Y0006120D02*
Y0005700D01*
X0009650Y0006014D02*
X0010310Y0005354D01*
X0006725Y0006120D02*
Y0005700D01*
X0010469Y0005273D02*
Y0005255D01*
X0009646Y0005610D02*
X0010054D01*
X0009893Y0005771D02*
Y0005363D01*
X0004925Y0006120D02*
Y0005650D01*
X0008165Y0005461D02*
Y0005255D01*
X0011333Y0000449D02*
Y-0000150D01*
X0008597Y0005445D02*
Y0005255D01*
X0009173Y0005291D02*
Y0003983D01*
X0008597Y0000775D02*
Y-0000150D01*
X0007762Y0005720D02*
X0007869D01*
X0008453Y0000775D02*
Y-0000150D01*
X0009790Y0005466D02*
X0010198D01*
X0009458Y0005826D02*
X0009838D01*
X0013637Y0003855D02*
Y0003300D01*
X0001490Y0003594D02*
X0001580D01*
X0012413Y0004775D02*
Y0004675D01*
X0012989Y0004775D02*
Y0004675D01*
X0013205Y0004775D02*
Y0004675D01*
X0013133Y0004775D02*
Y0004675D01*
X0013349Y0004775D02*
Y0004675D01*
X0000785Y0010290D02*
X0000930D01*
X0013277Y0004775D02*
Y0004675D01*
X0013535Y0004645D02*
X0013995D01*
X0010181Y0005483D02*
Y0005255D01*
X0002837Y0013320D02*
Y0012297D01*
X0014861Y0010965D02*
Y0010605D01*
X0010613Y0005270D02*
Y0005255D01*
X0009245Y0009030D02*
Y0008015D01*
X0010541Y0005270D02*
Y0005255D01*
X0009574Y0005682D02*
X0009982D01*
X0016229Y0000705D02*
Y-0000150D01*
X0016373Y0014000D02*
Y0013675D01*
X0016301Y0014000D02*
Y0013675D01*
X0015509Y0014000D02*
Y0013460D01*
X0016445Y0014000D02*
Y0013675D01*
X0015725Y0009720D02*
Y0009650D01*
X0015215Y0012790D02*
X0015810D01*
X0014861Y0014000D02*
Y0013800D01*
X0014645Y0009720D02*
Y0009650D01*
X0016229Y0014000D02*
Y0013675D01*
X0016157Y0014000D02*
Y0013675D01*
X0005789Y0002970D02*
Y0002915D01*
X0004390Y0005034D02*
X0004630D01*
X0004390Y0005106D02*
X0004630D01*
X0004390Y0005178D02*
X0004630D01*
X0004390Y0005250D02*
X0004630D01*
X0004390Y0004890D02*
X0004630D01*
X0004925Y0009450D02*
Y0009256D01*
X0000785Y0001578D02*
X0000930D01*
X0002189Y0014000D02*
Y0013800D01*
X0003989Y0012362D02*
Y0011043D01*
X0000785Y0013386D02*
X0001775D01*
X0003215Y0007863D02*
Y0007598D01*
Y0007371D01*
X0000785Y0002514D02*
X0000930D01*
X0001901Y0014000D02*
Y0013512D01*
X0008237Y0008695D02*
Y0008645D01*
X0000785Y0009930D02*
X0000930D01*
X0004385Y0005898D02*
X0006991D01*
X0005213Y0009450D02*
Y0008968D01*
X0008309Y0005445D02*
Y0005255D01*
X0007760Y0005394D02*
X0009070D01*
X0001775Y0012594D02*
X0002895D01*
X0005789Y0009915D02*
Y0009475D01*
X0005501Y0011615D02*
Y0011485D01*
X0003485Y0012140D02*
Y0011043D01*
X0010325Y0002995D02*
Y0002915D01*
X0005878Y0012306D02*
X0005960D01*
X0005861Y0012290D02*
Y0010960D01*
X0002981Y0014000D02*
Y0013880D01*
X0006365Y0012800D02*
Y0012700D01*
X0005645Y0014000D02*
Y0013880D01*
X0006437Y0014000D02*
Y0013880D01*
X0005933Y0014000D02*
Y0013880D01*
X0006149Y0014000D02*
Y0013880D01*
X0007495Y0013602D02*
X0013410D01*
X0005501Y0014000D02*
Y0013880D01*
X0007301Y0014000D02*
Y0013805D01*
X0006797Y0014000D02*
Y0013880D01*
X0007760Y0013314D02*
X0010653D01*
X0005429Y0014000D02*
Y0013880D01*
X0006869Y0012800D02*
Y0012700D01*
X0006293Y0012800D02*
Y0012700D01*
X0005855Y0012090D02*
X0005960D01*
X0015221Y0007620D02*
Y0007280D01*
X0015077Y0007620D02*
Y0007280D01*
X0015115Y0008202D02*
X0015635D01*
X0000785Y0001434D02*
X0000930D01*
X0014501Y0014000D02*
Y0013800D01*
X0014429Y0014000D02*
Y0013800D01*
X0014357Y0014000D02*
Y0013800D01*
X0001109Y0000430D02*
Y-0000150D01*
X0016589Y0014000D02*
Y0012027D01*
X0014357Y0012351D02*
Y0012035D01*
X0014910Y0013314D02*
X0015215D01*
X0000965Y0000589D02*
Y-0000150D01*
X0014110Y0013386D02*
X0014210D01*
X0014110Y0013530D02*
X0014210D01*
X0007536Y0013500D02*
X0007760D01*
X0014910Y0013530D02*
X0015810D01*
X0014910Y0013242D02*
X0015215D01*
X0010469Y0000235D02*
Y-0000150D01*
X0011559Y0000675D02*
X0011735D01*
Y0000625D01*
X0010973Y0001125D02*
Y0001115D01*
X0010469Y0001135D02*
Y0001115D01*
X0010397Y0001135D02*
Y0001115D01*
X0011935Y0002625D02*
X0012735D01*
X0011477Y0000593D02*
Y-0000150D01*
X0004840Y0001506D02*
X0005680D01*
X0010935Y0001125D02*
X0011161D01*
X0010973Y0000235D02*
Y-0000150D01*
X0011735Y0000525D02*
Y-0000150D01*
X0011045Y0001125D02*
Y0001115D01*
X0009029Y0005435D02*
Y0004115D01*
X0010109Y0000235D02*
Y-0000150D01*
X0010253Y0001135D02*
Y0001115D01*
X0009610Y0012378D02*
X0009710D01*
X0008330Y0012306D02*
X0008910D01*
X0009610Y0012594D02*
X0009710D01*
X0008885Y0014000D02*
Y0013085D01*
X0008330Y0012450D02*
X0008340D01*
X0008330Y0012522D02*
X0008340D01*
X0010935Y0003375D02*
X0011735D01*
X0009893Y0004098D02*
Y0002915D01*
X0012413Y0003475D02*
Y0003375D01*
X0010930Y0003450D02*
X0013725D01*
X0008957Y0005445D02*
Y0004145D01*
X0014660Y0005100D02*
Y0004645D01*
X0013277Y0003475D02*
Y0003375D01*
X0000785Y0011802D02*
X0000930D01*
X0017263Y0004890D02*
X0017885D01*
X0015298Y0002442D02*
X0015853D01*
X0013535Y0002679D02*
X0013860Y0002354D01*
X0014880Y0003800D02*
Y0003625D01*
X0012735Y0002010D02*
X0015421D01*
X0015440Y0003800D02*
Y0003625D01*
X0015226Y0002370D02*
X0015781D01*
X0014060Y0002270D02*
X0015010D01*
X0015910Y0002845D02*
X0016185D01*
X0005213Y0006120D02*
Y0005650D01*
X0017445Y0001794D02*
X0017885D01*
X0013535Y0003305D02*
X0013585D01*
X0014815Y0010965D02*
X0015310D01*
X0014805Y0011235D02*
Y0010605D01*
X0013535Y0004818D02*
X0014660D01*
X0001541Y0014000D02*
Y0013152D01*
X0006581Y0014000D02*
Y0013880D01*
X0009780Y0012250D02*
Y0011925D01*
X0012485Y0014000D02*
Y0013280D01*
X0009610Y0012306D02*
X0009710D01*
X0015358Y0002502D02*
X0015210Y0002354D01*
X0013925Y0000675D02*
Y-0000150D01*
X0017310Y0012378D02*
X0017885D01*
X0000785Y0012090D02*
X0000930D01*
X0000785Y0011874D02*
X0000930D01*
X0015581Y0000691D02*
Y-0000150D01*
X0001490Y0011082D02*
X0004110D01*
X0000785Y0011586D02*
X0000930D01*
X0004205Y0013320D02*
Y0013304D01*
X0003053Y0013320D02*
Y0013181D01*
X0004061Y0013320D02*
Y0013211D01*
X0003989Y0013320D02*
Y0013137D01*
X0004853Y0011600D02*
Y0011500D01*
X0004565Y0014000D02*
Y0013880D01*
X0012735Y0002298D02*
X0013938D01*
X0004421Y0000775D02*
Y0000505D01*
X0015365Y0002509D02*
Y0001954D01*
X0014395Y0003486D02*
X0014410Y0003471D01*
X0013535Y0003594D02*
X0013725D01*
X0013535Y0003666D02*
X0013725D01*
X0013535Y0003738D02*
X0013725D01*
X0009990Y0003755D02*
Y0003495D01*
X0013535Y0003855D02*
X0013995D01*
X0011893Y0009030D02*
X0012345D01*
X0012425Y0008922D02*
X0013185D01*
X0012773Y0009342D02*
Y0008400D01*
X0001490Y0002226D02*
X0001580D01*
X0014410Y0003625D02*
Y0003471D01*
X0013061Y0009630D02*
Y0008400D01*
X0017165Y0004812D02*
Y0004288D01*
X0017381Y0011320D02*
Y0010580D01*
X0017346Y0009210D02*
X0017885D01*
X0015985Y0009138D02*
X0016261D01*
X0015985Y0009210D02*
X0016224D01*
X0015985Y0009282D02*
X0016199D01*
X0015985Y0009354D02*
X0016183D01*
X0014717Y0009720D02*
Y0009650D01*
X0013853Y0009720D02*
Y0009650D01*
X0017309Y0011138D02*
Y0010762D01*
X0000785Y0013818D02*
X0002209D01*
X0016510Y0012018D02*
X0016563D01*
X0016510Y0012162D02*
X0016610D01*
X0016085Y0014000D02*
Y0013675D01*
X0016013Y0014000D02*
Y0013675D01*
X0002140Y0004314D02*
X0002226D01*
X0002140Y0004386D02*
X0002226D01*
X0002155Y0004775D02*
Y0004750D01*
X0002140Y0004746D02*
X0002155D01*
X0001490Y0005034D02*
X0001580D01*
X0002140Y0004530D02*
X0002252D01*
X0001490Y0004890D02*
X0001580D01*
X0001490Y0004962D02*
X0001580D01*
X0001490Y0005106D02*
X0001580D01*
X0002140Y0004098D02*
X0002280D01*
X0001490Y0005178D02*
X0001580D01*
X0013997Y0000675D02*
Y-0000150D01*
X0011062Y0008248D02*
X0010829Y0008015D01*
X0000785Y0010866D02*
X0000930D01*
X0015910Y0003625D02*
Y0003405D01*
X0001757Y0014000D02*
Y0013368D01*
X0000785Y0012378D02*
X0000930D01*
X0000785Y0010650D02*
X0000930D01*
X0006110Y0009915D02*
Y0009475D01*
X0003197Y0014000D02*
Y0013880D01*
X0000785Y0001722D02*
X0000930D01*
X0003065Y0008130D02*
X0003215D01*
X0005429Y0006120D02*
Y0005650D01*
X0004781Y0006120D02*
Y0005650D01*
Y0014000D02*
Y0013880D01*
X0008813Y0005445D02*
Y0005255D01*
X0007013Y0005820D02*
Y0005700D01*
X0009461Y0005828D02*
Y0005795D01*
X0004421Y0006293D02*
Y0002375D01*
X0006869Y0006020D02*
Y0005700D01*
X0007805Y0012015D02*
Y0011830D01*
X0008669Y0005445D02*
Y0005255D01*
X0011328Y0013170D02*
X0011443D01*
X0013421Y0014000D02*
Y0013800D01*
X0003413Y-0000055D02*
Y-0000150D01*
X0012187Y0013280D02*
X0012750D01*
X0011246Y0013242D02*
X0011525D01*
X0011118Y0013314D02*
X0011653D01*
X0012197Y0014000D02*
Y0013280D01*
X0011405Y0014000D02*
Y0013126D01*
X0009130Y0012234D02*
X0009780D01*
X0016229Y0007400D02*
Y0007271D01*
X0017441Y0005250D02*
X0017885D01*
X0016445Y0004856D02*
Y0004244D01*
X0013885Y0005595D02*
Y0005100D01*
X0009290Y0003234D02*
X0009990D01*
X0000785Y-0000078D02*
X0011735D01*
X0000785Y0010506D02*
X0000930D01*
X0012622Y0008400D02*
X0013255D01*
X0001490Y0007266D02*
X0001830D01*
X0009021Y0008490D02*
X0011253D01*
X0001490Y0008274D02*
X0002505D01*
X0008957Y0009030D02*
Y0008564D01*
X0006941Y0012000D02*
Y0011830D01*
X0006068Y0012700D02*
X0006760D01*
X0007517Y0012800D02*
Y0012700D01*
X0007373Y0012000D02*
Y0011830D01*
X0006869Y0012000D02*
Y0011830D01*
X0007445Y0012800D02*
Y0012700D01*
X0007373Y0012800D02*
Y0012700D01*
X0007877Y0012015D02*
Y0011830D01*
X0007085Y0012000D02*
Y0011830D01*
X0001703Y0012522D02*
X0002919D01*
X0000785Y0011658D02*
X0000930D01*
X0002117Y0014000D02*
Y0013728D01*
X0000785Y0013530D02*
X0001919D01*
X0010901Y0009062D02*
Y0008087D01*
X0006725Y0012000D02*
Y0011830D01*
X0009442Y0005814D02*
X0009906Y0005350D01*
X0014805Y0010938D02*
X0015310D01*
X0015215Y0011990D02*
X0015310D01*
X0012773Y0004775D02*
Y0004675D01*
X0013997Y0011466D02*
Y0011350D01*
X0010935Y0005270D02*
Y0004775D01*
X0014190Y0012090D02*
X0015215D01*
X0014805Y0010722D02*
X0015310D01*
X0015077Y0012390D02*
Y0011635D01*
X0015005Y0012390D02*
Y0011635D01*
X0000785Y0011010D02*
X0000930D01*
X0009677Y0014000D02*
Y0011830D01*
X0012929Y0009498D02*
X0013185D01*
X0008381Y0008695D02*
Y0008645D01*
X0007733Y0009411D02*
Y0008645D01*
X0009317Y0009030D02*
Y0008015D01*
X0008997Y0008514D02*
X0009031Y0008480D01*
X0007210Y0008645D02*
X0007840D01*
X0004385Y0006042D02*
X0006847D01*
X0012735Y0002082D02*
X0015493D01*
X0010613Y0009030D02*
Y0008015D01*
X0010757Y0009030D02*
Y0008015D01*
X0009893Y0009030D02*
Y0008015D01*
X0009533Y0009030D02*
Y0008015D01*
X0013565Y0002649D02*
Y0001775D01*
X0011187Y0009345D02*
X0011014Y0009171D01*
X0010973Y0009117D02*
Y0008159D01*
X0013997Y0002277D02*
Y0001775D01*
X0015293Y0007620D02*
Y0007280D01*
X0017381Y0006053D02*
Y0005597D01*
X0014717Y0007386D02*
Y0007280D01*
X0009130Y0012018D02*
X0009780D01*
X0011621Y0014000D02*
Y0013300D01*
X0009610Y0012810D02*
X0009710D01*
X0009610Y0013170D02*
X0009710D01*
X0009054Y0004098D02*
X0009894D01*
X0011693Y0004775D02*
Y0004675D01*
X0010325Y0005340D02*
Y0005255D01*
X0013277Y0005595D02*
Y0005541D01*
X0009990Y0005255D02*
Y0005150D01*
X0012629Y0004775D02*
Y0004675D01*
X0012269Y0014000D02*
Y0013280D01*
X0013421Y0005595D02*
Y0005475D01*
X0012845Y0009414D02*
Y0008400D01*
X0005865Y0011215D02*
X0006529D01*
X0006035Y0010506D02*
X0006110D01*
X0006365Y0011215D02*
Y0011035D01*
X0007589Y0012000D02*
Y0011830D01*
X0007229Y0012000D02*
Y0011830D01*
X0006035Y0010578D02*
X0006110D01*
X0006035Y0010650D02*
X0006110D01*
X0006035Y0010722D02*
X0006110D01*
X0008959Y0008562D02*
X0011209D01*
X0008521Y0008706D02*
X0011186D01*
X0014669Y0007338D02*
X0017885D01*
X0008597Y0008739D02*
Y0008645D01*
X0001490Y0007482D02*
X0002046D01*
X0005960Y0003700D02*
X0006314D01*
X0000785Y0003666D02*
X0000930D01*
X0001685Y0012504D02*
Y0007121D01*
X0001490Y0006978D02*
X0001591D01*
X0012628Y0008706D02*
X0013185D01*
X0008525Y0008707D02*
Y0008645D01*
X0001490Y0007410D02*
X0001974D01*
X0000785Y0003738D02*
X0000930D01*
X0008838Y0008634D02*
X0011189D01*
X0001490Y0007914D02*
X0002478D01*
X0009115Y0008058D02*
X0010872D01*
X0008165Y0008695D02*
Y0008645D01*
X0009115Y0008280D02*
Y0008015D01*
X0000785Y0010146D02*
X0000930D01*
X0000785Y0010002D02*
X0000930D01*
X0002909Y0011077D02*
Y0009320D01*
X0001490Y0002442D02*
X0001580D01*
X0001490Y0002514D02*
X0001580D01*
X0001490Y0004746D02*
X0001580D01*
X0012531Y0008850D02*
X0013185D01*
X0011909Y0008359D02*
Y0008345D01*
X0008813Y0009030D02*
Y0008640D01*
X0001490Y0008058D02*
X0002505D01*
X0012413Y0009038D02*
Y0008927D01*
X0012591Y0008778D02*
X0013185D01*
X0012648Y0008634D02*
X0013255D01*
X0002693Y0011077D02*
Y0009104D01*
X0012485Y0009067D02*
Y0008887D01*
X0001490Y0002370D02*
X0001580D01*
X0012053Y0009030D02*
Y0008960D01*
X0001490Y0004314D02*
X0001580D01*
X0012341Y0009030D02*
Y0008950D01*
X0001490Y0008202D02*
X0002505D01*
X0017635Y0007770D02*
X0017885D01*
X0012655Y0008562D02*
X0013255D01*
X0009461Y0009030D02*
Y0008015D01*
X0012269Y0009030D02*
Y0008960D01*
X0001490Y0002298D02*
X0001580D01*
X0003215Y0008834D02*
Y0008583D01*
X0011981Y0009030D02*
Y0008960D01*
X0001490Y0003810D02*
X0001580D01*
X0012629Y0008418D02*
Y0008400D01*
X0001490Y0002946D02*
X0001580D01*
X0000785Y0008418D02*
X0000930D01*
X0001490Y0003954D02*
X0001580D01*
X0001490Y0002586D02*
X0001580D01*
X0012125Y0009030D02*
Y0008960D01*
X0007990Y0002995D02*
X0008609D01*
X0009115Y0008130D02*
X0010944D01*
X0010109Y0009030D02*
Y0008015D01*
X0016085Y0002845D02*
Y0002674D01*
X0009605Y0009030D02*
Y0008015D01*
X0009677Y0009030D02*
Y0008015D01*
X0002261Y0011077D02*
Y0007697D01*
X0009115Y0008202D02*
X0011016D01*
X0010037Y0009030D02*
Y0008015D01*
X0009115Y0008274D02*
X0011092D01*
X0009749Y0009030D02*
Y0008015D01*
X0011140Y0002658D02*
X0013556D01*
X0013205Y0009720D02*
Y0009650D01*
X0014240Y0012234D02*
X0015215D01*
X0011045Y0009203D02*
Y0008231D01*
X0005855Y0012162D02*
X0005960D01*
X0006509Y0014000D02*
Y0013880D01*
X0003125Y0014000D02*
Y0013880D01*
X0007661Y0014000D02*
Y0013500D01*
X0009101Y0014000D02*
Y0013250D01*
X0000785Y0013242D02*
X0001631D01*
X0006725Y0012800D02*
Y0012700D01*
X0007229Y0014000D02*
Y0013853D01*
X0005141Y0014000D02*
Y0013880D01*
X0007445Y0014000D02*
Y0013661D01*
X0006960Y0012700D02*
X0007760D01*
X0001469Y0014000D02*
Y0013080D01*
X0002385Y0013880D02*
X0007110D01*
X0005410Y0009475D02*
X0006110D01*
X0005944Y0012378D02*
X0005960D01*
X0001490Y0011154D02*
X0001795D01*
X0000785Y0011226D02*
X0000930D01*
X0000785Y0011298D02*
X0000930D01*
X0000785Y0011370D02*
X0000930D01*
X0002501Y0013320D02*
X0001490Y0012309D01*
X0002693Y0014000D02*
Y0013880D01*
X0000785Y0013314D02*
X0001703D01*
X0002187Y0013798D02*
X0001014Y0012625D01*
X0002261Y-0000055D02*
Y-0000150D01*
X0000930Y0012425D02*
Y0000725D01*
X0001325Y0014000D02*
Y0012936D01*
X0002140Y0002874D02*
X0002454D01*
X0000785Y0000498D02*
X0001041D01*
X0001901Y-0000055D02*
Y-0000150D01*
X0001490Y0001650D02*
X0001585D01*
X0002156Y0001800D02*
X0002571D01*
X0001490Y0000841D02*
X0001826Y0000505D01*
X0003269Y-0000055D02*
Y-0000150D01*
X0000785Y0001290D02*
X0000930D01*
X0001012Y0000527D02*
X0001510Y0000029D01*
X0003785Y0000714D02*
X0005253D01*
X0001710Y-0000055D02*
X0005160D01*
X0000785Y0000138D02*
X0001401D01*
X0000785Y0003090D02*
X0000930D01*
X0003785Y0000642D02*
X0005181D01*
X0005717Y0000235D02*
Y-0000150D01*
X0002693Y-0000055D02*
Y-0000150D01*
X0005789Y0001135D02*
Y0001115D01*
X0005680Y0000349D02*
X0005360Y0000029D01*
X0004565Y0000775D02*
Y0000505D01*
X0001490Y0001146D02*
X0001960D01*
X0004493Y0000775D02*
Y0000505D01*
X0005318Y-0000006D02*
X0011735D01*
X0005717Y0001135D02*
Y0001115D01*
X0006437Y0001135D02*
Y0001115D01*
X0003785Y0000498D02*
X0005037D01*
X0003785Y0000570D02*
X0005109D01*
X0008992Y0002586D02*
X0009780D01*
X0009284Y0003810D02*
X0009990D01*
X0000785Y0005322D02*
X0000930D01*
X0000785Y0005250D02*
X0000930D01*
X0001490Y0004386D02*
X0001580D01*
X0009290Y0003594D02*
X0009990D01*
X0009101Y0005363D02*
Y0004055D01*
X0005285Y-0000025D02*
Y-0000150D01*
X0009083Y0004073D02*
X0009206Y0003950D01*
X0009290Y0003522D02*
X0009990D01*
X0000785Y0003954D02*
X0000930D01*
X0008940Y0001650D02*
X0009780D01*
X0007805Y0000775D02*
Y-0000150D01*
X0009290Y0003162D02*
X0009990D01*
X0007885Y0002375D02*
X0008380D01*
X0007040Y0002802D02*
X0008425D01*
X0009290Y0003750D02*
Y0003000D01*
X0000785Y0006978D02*
X0000930D01*
X0008940Y0001578D02*
X0009780D01*
X0007885Y0002514D02*
X0008380D01*
X0007760Y0003018D02*
X0007990D01*
X0007760Y0002946D02*
X0008560D01*
X0009208Y0002802D02*
X0009780D01*
X0005213Y0002800D02*
Y0000674D01*
X0007885Y0002586D02*
X0008380D01*
X0007885Y0002442D02*
X0008380D01*
X0007379Y0000570D02*
X0009780D01*
X0006941Y0000235D02*
Y-0000150D01*
X0004997Y-0000055D02*
Y-0000150D01*
X0008380Y0002650D02*
Y0002375D01*
X0008940Y0001434D02*
X0009780D01*
X0004840Y0001578D02*
X0005680D01*
X0004840Y0001650D02*
X0005680D01*
X0007885Y0002658D02*
X0008380D01*
X0000785Y0007266D02*
X0000930D01*
X0008940Y0001002D02*
X0009780D01*
X0005680Y0001115D02*
Y0000955D01*
X0007040Y0002730D02*
X0008392D01*
X0000785Y0002154D02*
X0000930D01*
X0000785Y0004026D02*
X0000930D01*
X0000785Y0005682D02*
X0000930D01*
X0000785Y0005466D02*
X0000930D01*
X0017174Y0004818D02*
X0017885D01*
X0000785Y0006258D02*
X0000930D01*
X0007760Y0004890D02*
X0007990D01*
X0000785Y0005178D02*
X0000930D01*
X0000785Y0005106D02*
X0000930D01*
X0000785Y0005754D02*
X0000930D01*
X0000785Y0005538D02*
X0000930D01*
X0008940Y0002534D02*
Y0002375D01*
X0009821Y0005843D02*
Y0005435D01*
X0000785Y0006330D02*
X0000930D01*
X0014110Y0012954D02*
X0014174D01*
X0017231Y0010866D02*
X0017885D01*
X0003701Y-0000055D02*
Y-0000150D01*
X0002621Y0014000D02*
Y0013880D01*
X0004205Y-0000055D02*
Y-0000150D01*
X0013709Y0014000D02*
Y0013800D01*
X0013637Y0014000D02*
Y0013800D01*
X0001490Y0000858D02*
X0001960D01*
X0014396Y0012390D02*
X0014190Y0012184D01*
X0000965Y0014000D02*
Y0012560D01*
X0014285Y0012279D02*
Y0012035D01*
X0013925Y0014000D02*
Y0013800D01*
X0001490Y0000930D02*
X0001960D01*
X0016013Y0002845D02*
Y0002602D01*
X0013493Y0014000D02*
Y0013800D01*
X0006293Y0008775D02*
Y0008675D01*
X0006077Y0008775D02*
Y0008675D01*
X0006005Y0008775D02*
Y0008675D01*
X0005933Y0008775D02*
Y0008675D01*
X0003197Y0011077D02*
Y0009487D01*
X0005861Y0008775D02*
Y0008675D01*
X0004776Y0009405D02*
X0005506Y0008675D01*
X0005789Y0008775D02*
Y0008675D01*
X0005717Y0008775D02*
Y0008675D01*
X0003413Y0012144D02*
Y0011043D01*
X0001490Y0008562D02*
X0002505D01*
X0003065Y0008684D02*
Y0007825D01*
X0003125Y0008744D02*
Y0006845D01*
X0001490Y0009570D02*
X0003215D01*
X0008021Y0002995D02*
Y0002375D01*
X0007805Y0003284D02*
Y0002725D01*
X0000785Y0005034D02*
X0000930D01*
X0000785Y0004746D02*
X0000930D01*
X0007949Y0003146D02*
Y0002375D01*
X0007760Y0003090D02*
X0007990D01*
X0000785Y0004098D02*
X0000930D01*
X0000785Y0005826D02*
X0000930D01*
X0005680Y0000349D02*
Y0000235D01*
X0005357Y0000026D02*
Y-0000150D01*
X0007760Y0003234D02*
X0007855D01*
X0007760Y0003306D02*
X0007783D01*
X0003845Y0000775D02*
Y0000505D01*
X0007157Y0002900D02*
Y0002725D01*
X0008940Y0001575D02*
Y0000775D01*
X0006221Y0003700D02*
Y0003600D01*
X0005960D02*
X0006224D01*
X0000785Y0005394D02*
X0000930D01*
X0006293Y0003700D02*
Y0003679D01*
X0007301Y0002900D02*
Y0002725D01*
X0012053Y0003475D02*
Y0003375D01*
X0017444Y0003738D02*
X0017885D01*
X0000785Y0006906D02*
X0000930D01*
X0006314Y0003700D02*
X0006262Y0003648D01*
X0005490Y0004242D02*
X0005960D01*
X0000785Y0005970D02*
X0000930D01*
X0007451Y0000642D02*
X0009780D01*
X0000785Y0007698D02*
X0000930D01*
X0007677Y0000930D02*
X0007780D01*
X0017418Y0003594D02*
X0017885D01*
X0013995Y0004026D02*
X0014125D01*
X0007649Y0000858D02*
X0007780D01*
X0017635Y0008274D02*
X0017885D01*
X0003215Y0009835D02*
Y0009567D01*
X0004853Y-0000055D02*
Y-0000150D01*
X0000785Y0010218D02*
X0000930D01*
X0008309Y0008695D02*
Y0008645D01*
X0001490Y0008346D02*
X0002505D01*
X0003053Y-0000055D02*
Y-0000150D01*
X0000785Y0002010D02*
X0000930D01*
X0005331Y0008850D02*
X0005410D01*
X0005259Y0008922D02*
X0005410D01*
X0002621Y0011077D02*
Y0009032D01*
X0001490Y0009066D02*
X0002655D01*
X0007517Y0009256D02*
Y0008645D01*
X0003485Y0001100D02*
Y0001000D01*
X0002140Y0004775D02*
Y0001816D01*
X0008940Y0001290D02*
X0009780D01*
X0001662Y0001502D02*
X0001910Y0001254D01*
X0001490Y0001794D02*
X0001580D01*
X0016008Y0001074D02*
X0016303D01*
X0000785Y0009354D02*
X0000930D01*
X0012701Y0000625D02*
Y0000525D01*
X0015149Y0000675D02*
Y-0000150D01*
X0005285Y0006120D02*
Y0005650D01*
X0002140Y0003090D02*
X0002283D01*
X0000785Y0011514D02*
X0000930D01*
X0015910Y0003405D02*
X0016069D01*
X0017194Y0000282D02*
X0017885D01*
X0013277Y0002675D02*
Y0001775D01*
X0013421Y0002675D02*
Y0001775D01*
X0013709Y0002505D02*
Y0001775D01*
X0016517Y0004804D02*
Y0004295D01*
X0014069Y0002270D02*
Y0001775D01*
X0017390Y0003522D02*
X0017885D01*
X0016949Y0004726D02*
Y0004374D01*
X0016877Y0004716D02*
Y0004383D01*
X0015910Y0003594D02*
X0016253D01*
X0007085Y0001124D02*
X0007040Y0001079D01*
X0000785Y0007338D02*
X0000930D01*
X0005933Y0000235D02*
Y-0000150D01*
X0007040Y0000375D02*
X0007060D01*
X0006005Y0001135D02*
Y0001115D01*
X0005933Y0001135D02*
Y0001115D01*
X0007013Y0000235D02*
Y-0000150D01*
X0007685Y0001225D02*
X0007780D01*
X0000785Y0008202D02*
X0000930D01*
X0000785Y0007842D02*
X0000930D01*
X0000785Y0007626D02*
X0000930D01*
X0007085Y0001225D02*
Y0001124D01*
X0007227Y0000426D02*
X0009780D01*
X0005861Y0001135D02*
Y0001115D01*
X0007040Y0001225D02*
X0007085D01*
X0004840Y0001722D02*
X0005680D01*
X0004840Y0001794D02*
X0005680D01*
X0007685Y0001225D02*
Y0001000D01*
X0005490Y0002946D02*
X0005960D01*
X0004390Y0003018D02*
X0004630D01*
X0004390Y0003090D02*
X0004630D01*
X0005490Y0004550D02*
Y0003900D01*
X0004390Y0003162D02*
X0004630D01*
X0005490Y0003530D02*
X0005960D01*
X0007595Y0000786D02*
X0007780D01*
X0000785Y0007194D02*
X0000930D01*
X0017445Y0000786D02*
X0017885D01*
X0005490Y0002970D02*
X0005960D01*
X0004390Y0003306D02*
X0004630D01*
X0017208Y0011010D02*
X0017885D01*
X0014795Y0004600D02*
Y0004500D01*
X0015581Y0004600D02*
Y0004500D01*
X0013205Y0003475D02*
Y0003375D01*
X0007085Y0008775D02*
Y0008675D01*
X0005645Y0008775D02*
Y0008675D01*
X0012641Y0009210D02*
X0013185D01*
X0002960Y0001100D02*
X0003680D01*
X0004637Y0002800D02*
Y0002375D01*
X0003413Y0001100D02*
Y0001000D01*
X0002960D02*
X0003680D01*
X0003341Y0001100D02*
Y0001000D01*
X0003269Y0001100D02*
Y0001000D01*
X0008930Y0004314D02*
X0009600D01*
X0009257Y0003882D02*
X0009990D01*
Y0003995D02*
Y0003755D01*
X0005933Y0002970D02*
Y0002915D01*
X0007990Y0005255D02*
Y0004828D01*
X0009512Y0004402D02*
X0009735Y0004179D01*
X0007760Y0005538D02*
X0008051D01*
X0009990Y0005150D02*
Y0004755D01*
X0009202Y0003954D02*
X0009990D01*
X0008930Y0004674D02*
X0009430D01*
X0009990Y0004755D02*
Y0004716D01*
X0009935Y0004095D02*
X0009990D01*
X0009821Y0002035D02*
Y0002015D01*
X0008940Y0002154D02*
X0009780D01*
X0010901Y0001135D02*
Y0001115D01*
X0010829Y0001135D02*
Y0001115D01*
X0010757Y0001135D02*
Y0001115D01*
X0010685Y0001135D02*
Y0001115D01*
X0010613Y0001135D02*
Y0001115D01*
X0010541Y0001135D02*
Y0001115D01*
X0012701Y0001925D02*
Y0001825D01*
X0011477Y0002675D02*
Y0002625D01*
X0011117Y0001125D02*
Y0001115D01*
X0007040Y0000354D02*
X0009780D01*
X0008940Y0001218D02*
X0009780D01*
X0003629Y-0000055D02*
Y-0000150D01*
X0004390Y0002874D02*
X0004630D01*
X0004390Y0003882D02*
X0004630D01*
X0013995Y0004098D02*
X0014125D01*
X0003375Y0006845D02*
Y0005960D01*
X0004630Y0005650D02*
Y0004775D01*
X0015509Y0004600D02*
Y0004500D01*
X0015437Y0004600D02*
Y0004500D01*
X0013061Y0003475D02*
Y0003375D01*
X0005933Y0009915D02*
Y0009475D01*
X0003375Y0011442D02*
X0004110D01*
X0014910Y0013746D02*
X0017885D01*
X0010469Y0002995D02*
Y0002915D01*
X0007157Y0014000D02*
Y0013876D01*
X0005645Y0011615D02*
Y0011485D01*
X0003215Y0010555D02*
Y0010323D01*
X0003375Y0011298D02*
X0004110D01*
X0016610Y0012675D02*
Y0012034D01*
X0007661Y0012000D02*
Y0011830D01*
X0017309Y0014000D02*
Y0011762D01*
X0015310Y0011990D02*
Y0011635D01*
X0016510Y0012234D02*
X0016610D01*
X0014789Y0014000D02*
Y0013800D01*
X0013997Y0014000D02*
Y0013800D01*
X0014137Y0012923D02*
X0014110Y0012896D01*
X0017310Y0013386D02*
X0017885D01*
X0004390Y0003378D02*
X0004630D01*
X0003217Y0002874D02*
X0003530D01*
X0003377Y0003070D02*
X0003530D01*
X0002140Y0002802D02*
X0002426D01*
X0004390Y0003666D02*
X0004630D01*
X0010325Y0000235D02*
Y-0000150D01*
X0014645Y0002270D02*
Y0001775D01*
X0013781Y0002433D02*
Y0001775D01*
X0012989Y0000675D02*
Y-0000150D01*
X0000785Y0008706D02*
X0000930D01*
X0003375Y0011226D02*
X0004110D01*
X0010757Y0002035D02*
Y0002015D01*
X0014110Y0013314D02*
X0014210D01*
X0014110Y0013242D02*
X0014210D01*
X0014110Y0013170D02*
X0014210D01*
X0017310Y0013458D02*
X0017885D01*
X0016510Y0012594D02*
X0016610D01*
X0017635Y0007482D02*
X0017885D01*
X0014110Y0013746D02*
X0014210D01*
X0000785Y0013890D02*
X0017885D01*
X0014285Y0014000D02*
Y0013800D01*
X0006149Y0011215D02*
Y0010950D01*
X0005573Y0011615D02*
Y0011485D01*
X0007760Y0012018D02*
X0008340D01*
X0007013Y0012800D02*
Y0012700D01*
X0007360Y0013746D02*
X0013410D01*
X0006581Y0012000D02*
Y0011885D01*
X0012197Y0004775D02*
Y0004675D01*
X0012125Y0004775D02*
Y0004675D01*
X0011909Y0004775D02*
Y0004675D01*
X0011405Y0002675D02*
Y0002625D01*
X0008940Y0001722D02*
X0009780D01*
X0011140Y0002675D02*
Y0002625D01*
X0010901Y0002035D02*
Y0002015D01*
X0017362Y0002082D02*
X0017885D01*
X0015440Y0003738D02*
X0016226D01*
X0017381Y0003503D02*
Y0003047D01*
X0016435Y0004314D02*
X0016550D01*
X0014933Y0014000D02*
Y0013060D01*
X0014805Y0010794D02*
X0015310D01*
X0000785Y0011442D02*
X0000930D01*
X0015077Y0002278D02*
Y0001775D01*
X0015910Y0003522D02*
X0016186D01*
X0012845Y0003475D02*
Y0003375D01*
X0016157Y0003800D02*
Y0003493D01*
X0009710Y0012250D02*
X0009780D01*
X0007157Y0012000D02*
Y0011830D01*
X0009130Y0011946D02*
X0009780D01*
X0001685Y0014000D02*
Y0013296D01*
X0003773Y0014000D02*
Y0013880D01*
X0000785Y0012810D02*
X0001199D01*
X0005855Y0011946D02*
X0008340D01*
X0009130Y0011874D02*
X0009785D01*
X0012989Y0003475D02*
Y0003375D01*
X0013133Y0003475D02*
Y0003375D01*
X0001973Y0014000D02*
Y0013584D01*
X0013205Y0002675D02*
Y0001775D01*
X0013421Y0000675D02*
Y-0000150D01*
X0000785Y0007986D02*
X0000930D01*
X0008940Y0001794D02*
X0009780D01*
X0012735Y0000675D02*
X0015485D01*
X0015581Y0002625D02*
Y0002170D01*
X0015365Y0000675D02*
Y-0000150D01*
X0013493Y0002675D02*
Y0001775D01*
X0016301Y0001367D02*
Y0001070D01*
X0015221Y0000675D02*
Y-0000150D01*
X0007805Y0009450D02*
Y0008645D01*
X0000785Y0007554D02*
X0000930D01*
X0016346Y0001411D02*
X0015697Y0000763D01*
X0012735Y0000210D02*
X0016605D01*
X0015864Y0000930D02*
X0016245D01*
X0000785Y0008994D02*
X0000930D01*
X0015633Y0000714D02*
X0016228D01*
X0015437Y0000675D02*
Y-0000150D01*
X0010181Y0009030D02*
Y0008015D01*
X0011189Y0008631D02*
Y0008321D01*
X0011260Y0008330D02*
X0011377D01*
X0013815Y0008490D02*
X0014555D01*
X0013205Y0008650D02*
Y0008400D01*
X0001490Y0007986D02*
X0002505D01*
X0013421Y0009720D02*
Y0009650D01*
X0001490Y0002082D02*
X0001580D01*
X0015077Y0000675D02*
Y-0000150D01*
X0013781Y0000675D02*
Y-0000150D01*
X0012701Y0009270D02*
Y0008400D01*
X0012557Y0009126D02*
Y0008822D01*
X0012649Y0008490D02*
X0013255D01*
X0013001Y0009570D02*
X0013185D01*
X0004630Y0003900D02*
Y0003675D01*
X0004390Y0003954D02*
X0004630D01*
X0005573Y0000242D02*
Y-0000150D01*
X0000785Y0002730D02*
X0000930D01*
X0004390Y0004026D02*
X0004630D01*
X0004781Y0002800D02*
Y0002375D01*
X0003197Y0001100D02*
Y0001000D01*
X0003125Y0001100D02*
Y0001000D01*
X0001960D02*
X0002785D01*
X0002981Y-0000055D02*
Y-0000150D01*
X0000785Y0000066D02*
X0001473D01*
X0003197Y-0000055D02*
Y-0000150D01*
X0002981Y0001100D02*
Y0001000D01*
X0005490Y0004775D02*
Y0004550D01*
X0017382Y0010578D02*
X0017885D01*
X0004390Y0003594D02*
X0004630D01*
X0004390Y0004550D02*
Y0003900D01*
X0015115Y0008650D02*
Y0008180D01*
X0015581Y0008650D02*
Y0008180D01*
X0014805Y0011010D02*
X0014815D01*
X0015437Y0009720D02*
Y0009650D01*
X0015581Y0009720D02*
Y0009650D01*
X0015509Y0008650D02*
Y0008180D01*
X0015437Y0008650D02*
Y0008180D01*
X0014235Y0007914D02*
X0014454D01*
X0012735Y0001825D02*
Y0001775D01*
X0014861Y0002270D02*
Y0001775D01*
X0015509Y0009720D02*
Y0009650D01*
X0015149Y0008650D02*
Y0008180D01*
X0014235Y0008202D02*
X0014555D01*
X0015509Y0007620D02*
Y0007280D01*
X0015293Y0008650D02*
Y0008180D01*
X0014235Y0008130D02*
X0014555D01*
X0009130Y0012250D02*
Y0011830D01*
X0015365Y0007620D02*
Y0007280D01*
X0017393Y0010506D02*
X0017885D01*
X0014555Y0008650D02*
Y0008014D01*
X0014429Y0008650D02*
Y0007889D01*
X0015581Y0007620D02*
Y0007280D01*
X0014285Y0008650D02*
Y0007746D01*
X0016227Y0002815D02*
X0015186Y0001775D01*
X0009245Y0005219D02*
Y0003902D01*
X0016434Y0007122D02*
X0017885D01*
X0013853Y0002361D02*
Y0001775D01*
X0000785Y0010434D02*
X0000930D01*
X0013637Y0002577D02*
Y0001775D01*
X0014190Y0012184D02*
Y0012035D01*
X0015077Y0014000D02*
Y0013060D01*
X0015005Y0014000D02*
Y0013060D01*
X0017327Y0011730D02*
X0017885D01*
X0013853Y0014000D02*
Y0013800D01*
X0000785Y0000858D02*
X0000930D01*
X0014717Y0014000D02*
Y0013800D01*
X0001253Y0000286D02*
Y-0000150D01*
X0014645Y0014000D02*
Y0013800D01*
X0014573Y0014000D02*
Y0013800D01*
X0010935Y0004675D02*
Y0004605D01*
X0014015Y0011484D02*
X0013881Y0011350D01*
X0017240Y0011874D02*
X0017885D01*
X0000785Y0001218D02*
X0000930D01*
X0012535Y0004675D02*
X0012735D01*
X0017151Y0010938D02*
X0017885D01*
X0013349Y0009720D02*
Y0009650D01*
X0000785Y0006186D02*
X0000930D01*
X0005490Y0005106D02*
X0005960D01*
X0006077Y0006120D02*
Y0005700D01*
X0005357Y0006120D02*
Y0005650D01*
X0006529Y0011215D02*
X0006414Y0011100D01*
X0008330Y0012378D02*
X0008910D01*
X0006797Y0006092D02*
Y0005700D01*
X0013236Y0005595D02*
X0013885D01*
X0006869Y0005000D02*
Y0004900D01*
X0007013Y0005000D02*
Y0004900D01*
X0007085Y0005000D02*
Y0004900D01*
X0007157Y0005000D02*
Y0004900D01*
X0007229Y0005000D02*
Y0004900D01*
X0007301Y0005000D02*
Y0004900D01*
X0007373Y0005000D02*
Y0004900D01*
X0007445Y0005000D02*
Y0004900D01*
X0007517Y0005000D02*
Y0004900D01*
X0007589Y0005000D02*
Y0004900D01*
X0007661Y0005000D02*
Y0004900D01*
X0006149Y0005000D02*
Y0004900D01*
X0005490Y0004890D02*
X0005960D01*
X0005490Y0004818D02*
X0005960D01*
X0005490Y0004746D02*
X0005960D01*
X0005490Y0004386D02*
X0005960D01*
X0005490Y0004314D02*
X0005960D01*
X0005490Y0004170D02*
X0005960D01*
X0005490Y0004098D02*
X0005960D01*
X0005490Y0004026D02*
X0005960D01*
X0005490Y0003954D02*
X0005960D01*
X0016435Y0004386D02*
X0017885D01*
X0005490Y0003882D02*
X0005960D01*
X0005490Y0003810D02*
X0005960D01*
X0006437Y0000235D02*
Y-0000150D01*
X0005717Y0002970D02*
Y0002915D01*
X0005490Y0004530D02*
X0005960D01*
X0006797Y0005000D02*
Y0004900D01*
X0006437Y0005000D02*
Y0004900D01*
X0006365Y0005000D02*
Y0004900D01*
X0006005Y0005000D02*
Y0004900D01*
X0006077Y0005000D02*
Y0004900D01*
X0006509Y0005000D02*
Y0004900D01*
X0005490Y0003738D02*
X0005960D01*
X0005490Y0003594D02*
X0005960D01*
X0006869Y0000235D02*
Y-0000150D01*
X0005490Y0003666D02*
X0006280D01*
X0006005Y0003700D02*
Y0003600D01*
X0006077Y0003700D02*
Y0003600D01*
X0006149Y0003700D02*
Y0003600D01*
X0000785Y0003810D02*
X0000930D01*
X0000785Y0003594D02*
X0000930D01*
X0000785Y0003882D02*
X0000930D01*
X0000785Y0006834D02*
X0000930D01*
X0006005Y0006120D02*
Y0005700D01*
X0008165Y0000775D02*
Y-0000150D01*
X0015725Y0004600D02*
Y0004500D01*
X0015797Y0004600D02*
Y0004500D01*
X0015869Y0004600D02*
Y0004500D01*
X0015941Y0004600D02*
Y0004500D01*
X0016013Y0004600D02*
Y0004500D01*
X0016085Y0004600D02*
Y0004500D01*
X0016157Y0004600D02*
Y0004500D01*
X0016229Y0004600D02*
Y0004500D01*
X0016301Y0004600D02*
Y0004500D01*
X0016373Y0004600D02*
Y0004500D01*
X0016510Y0012738D02*
X0016610D01*
X0013709Y0009720D02*
Y0009650D01*
X0014285Y0003855D02*
Y0003845D01*
X0013535Y0005178D02*
X0013885D01*
X0017271Y0005898D02*
X0017885D01*
X0005490Y0005034D02*
X0005960D01*
X0004390Y0003522D02*
X0004630D01*
X0004390Y0002946D02*
X0004630D01*
X0002477Y0003856D02*
Y0003844D01*
X0004390Y0004602D02*
X0004630D01*
X0016589Y0004767D02*
Y0004333D01*
X0004385Y0005682D02*
X0005960D01*
X0015005Y0007620D02*
Y0007280D01*
X0003629Y0006325D02*
Y0006225D01*
X0003773Y0006325D02*
Y0006225D01*
X0003845Y0006325D02*
Y0006225D01*
X0003917Y0006325D02*
Y0006225D01*
X0003989Y0006325D02*
Y0006225D01*
X0004061Y0006325D02*
Y0006225D01*
X0004133Y0006325D02*
Y0006225D01*
X0004390Y0005610D02*
X0004630D01*
X0004390Y0005538D02*
X0004630D01*
X0004390Y0003900D02*
Y0003675D01*
Y0004674D02*
X0004630D01*
X0004349Y-0000055D02*
Y-0000150D01*
X0003773Y-0000055D02*
Y-0000150D01*
X0004997Y0014000D02*
Y0013880D01*
X0006149Y0006120D02*
Y0005700D01*
X0010757Y0002995D02*
Y0002915D01*
X0004493Y0014000D02*
Y0013880D01*
X0007286Y0013818D02*
X0017885D01*
X0004390Y0004962D02*
X0004630D01*
X0004390Y0005322D02*
X0004630D01*
X0003557Y-0000055D02*
Y-0000150D01*
X0004390Y0004818D02*
X0004630D01*
X0017027Y0004746D02*
X0017885D01*
X0004390D02*
X0004630D01*
X0004390Y0004530D02*
X0004630D01*
X0004390Y0004458D02*
X0004630D01*
X0004390Y0004386D02*
X0004630D01*
X0004390Y0004314D02*
X0004630D01*
X0004390Y0004242D02*
X0004630D01*
X0014141Y0005100D02*
Y0004645D01*
X0015635Y0008400D02*
Y0008180D01*
X0017310Y0012306D02*
X0017885D01*
X0013885Y0008778D02*
X0013985D01*
X0016506Y0007050D02*
X0017885D01*
X0017429Y0005466D02*
X0017885D01*
X0017441Y0005394D02*
X0017885D01*
X0013535Y0005250D02*
X0013885D01*
X0007589Y0002900D02*
Y0002725D01*
X0008093Y0000775D02*
Y-0000150D01*
X0013535Y0005034D02*
X0014660D01*
X0004390Y0004170D02*
X0004630D01*
X0017291Y0002370D02*
X0017885D01*
X0014789Y0004600D02*
Y0004500D01*
X0014861Y0004600D02*
Y0004500D01*
X0014933Y0004600D02*
Y0004500D01*
X0015005Y0004600D02*
Y0004500D01*
X0015077Y0004600D02*
Y0004500D01*
X0015149Y0004600D02*
Y0004500D01*
X0015221Y0004600D02*
Y0004500D01*
X0013925Y0003855D02*
Y0003845D01*
X0000785Y0003522D02*
X0000930D01*
X0014660Y0003855D02*
Y0003800D01*
X0007661Y0002900D02*
Y0002725D01*
X0017376Y0006042D02*
X0017885D01*
X0013995Y0004458D02*
X0014125D01*
X0013995Y0004386D02*
X0014125D01*
X0011621Y0002675D02*
Y0002625D01*
X0013995Y0004314D02*
X0014125D01*
X0000785Y0002874D02*
X0000930D01*
X0005403Y0008778D02*
X0007933D01*
X0015653Y0009720D02*
Y0009650D01*
X0004753Y0009426D02*
X0005410D01*
X0004827Y0009354D02*
X0005410D01*
X0004899Y0009282D02*
X0005410D01*
X0004971Y0009210D02*
X0005410D01*
X0005285Y0009450D02*
Y0008896D01*
X0005429Y0008775D02*
Y0008752D01*
X0005573Y0008775D02*
Y0008675D01*
X0016301Y0007400D02*
Y0007242D01*
X0004637Y0014000D02*
Y0013880D01*
X0000785Y0013026D02*
X0001415D01*
X0014485Y0008650D02*
X0014555D01*
X0003197Y0013320D02*
Y0013288D01*
X0005410Y0009714D02*
X0006110D01*
X0009893Y0014000D02*
Y0013250D01*
X0009749Y0014000D02*
Y0013250D01*
X0015077Y0010965D02*
Y0010605D01*
X0005960Y0004200D02*
Y0003700D01*
X0006149Y0008775D02*
Y0008675D01*
X0006221Y0008775D02*
Y0008675D01*
X0006437Y0008775D02*
Y0008675D01*
X0006509Y0008775D02*
Y0008675D01*
X0006581Y0008775D02*
Y0008675D01*
X0006653Y0008775D02*
Y0008675D01*
X0006725Y0008775D02*
Y0008675D01*
X0006797Y0008775D02*
Y0008675D01*
X0006869Y0008775D02*
Y0008675D01*
X0001960Y0001100D02*
X0002785D01*
X0002140Y0002154D02*
X0002258D01*
X0002140Y0001866D02*
X0002464D01*
X0002140Y0001938D02*
X0002385D01*
X0002140Y0002010D02*
X0002329D01*
X0002140Y0002226D02*
X0002238D01*
X0002333Y0002003D02*
Y0001800D01*
X0003269Y0001921D02*
Y0001800D01*
Y0002921D02*
Y0002778D01*
X0002505Y0007941D02*
X0001664Y0007100D01*
X0003557Y0002800D02*
Y0001800D01*
X0003629Y0002800D02*
Y0001800D01*
X0000785Y0000426D02*
X0001113D01*
X0001826Y0000505D02*
X0001960D01*
X0000785Y0001002D02*
X0000930D01*
X0000785Y0000930D02*
X0000930D01*
X0001545Y0000786D02*
X0001960D01*
X0001617Y0000714D02*
X0001960D01*
X0004781Y0000775D02*
Y0000505D01*
X0000785Y0004818D02*
X0000930D01*
X0000785Y0002298D02*
X0000930D01*
X0001761Y0000570D02*
X0001960D01*
X0001973Y0001100D02*
Y0001000D01*
X0000785Y0001650D02*
X0000930D01*
X0002045Y0001100D02*
Y0001000D01*
X0002117Y0001100D02*
Y0001000D01*
X0002189Y0001100D02*
Y0001000D01*
X0002333Y0001100D02*
Y0001000D01*
X0002405Y0001100D02*
Y0001000D01*
X0002477Y0001100D02*
Y0001000D01*
X0002549Y0001100D02*
Y0001000D01*
X0002621Y0001100D02*
Y0001000D01*
X0002693Y0001100D02*
Y0001000D01*
X0002765Y0001100D02*
Y0001000D01*
X0001490Y0001722D02*
X0001580D01*
X0002140Y0003162D02*
X0002255D01*
X0002495Y0013314D02*
X0003253D01*
X0003917Y-0000055D02*
Y-0000150D01*
X0001685Y0001479D02*
Y0000646D01*
X0001613Y0001568D02*
Y0000718D01*
X0002140Y0004602D02*
X0002197D01*
X0004840Y0001002D02*
X0005680D01*
X0002261Y0002143D02*
Y0001800D01*
X0003197Y0001859D02*
Y0001800D01*
Y0002859D02*
Y0002841D01*
X0002477Y0001856D02*
Y0001800D01*
X0002549Y0001811D02*
Y0001800D01*
X0003680Y0001100D02*
Y0001000D01*
X0002837Y0001100D02*
Y0001000D01*
X0009290Y0003018D02*
X0009990D01*
X0003312Y0002730D02*
X0005680D01*
X0003362Y0002658D02*
X0005680D01*
X0003398Y0002586D02*
X0005680D01*
X0003423Y0002514D02*
X0005680D01*
X0003438Y0002442D02*
X0005680D01*
X0003445Y0002370D02*
X0005680D01*
X0004840Y0002298D02*
X0005680D01*
X0003245Y0002802D02*
X0005680D01*
X0006509Y0000235D02*
Y-0000150D01*
X0004385Y0005754D02*
X0007033D01*
X0000785Y0006402D02*
X0000930D01*
X0009285Y0002946D02*
X0010935D01*
X0007040Y0002900D02*
Y0002725D01*
X0007760Y0003162D02*
X0007928D01*
X0007229Y0002900D02*
Y0002725D01*
X0007760Y0003329D02*
X0007910Y0003179D01*
X0007373Y0002900D02*
Y0002725D01*
X0005429Y0000098D02*
Y-0000150D01*
X0007517Y0002900D02*
Y0002725D01*
X0008940Y0002082D02*
X0009780D01*
X0002549Y-0000055D02*
Y-0000150D01*
X0000785Y0003018D02*
X0000930D01*
X0007013Y0002025D02*
Y0002015D01*
X0004840Y0001146D02*
X0005680D01*
X0007040Y0002015D02*
Y0001925D01*
X0008940Y0002298D02*
X0009780D01*
X0007780Y0002025D02*
Y0001925D01*
X0007685Y0001218D02*
X0007780D01*
X0006941Y0002025D02*
Y0002015D01*
X0007085Y0002025D02*
Y0001925D01*
X0007157Y0002025D02*
Y0001925D01*
X0007229Y0002025D02*
Y0001925D01*
X0007301Y0002025D02*
Y0001925D01*
X0009208Y0002802D02*
X0008940Y0002534D01*
X0007445Y0002025D02*
Y0001925D01*
X0007517Y0002025D02*
Y0001925D01*
X0007589Y0002025D02*
Y0001925D01*
X0007661Y0002025D02*
Y0001925D01*
X0007733Y0002025D02*
Y0001925D01*
X0007685Y0001146D02*
X0007780D01*
X0011981Y0002675D02*
Y0002625D01*
X0012053Y0002675D02*
Y0002625D01*
X0009064Y0002658D02*
X0009780D01*
X0011140Y0001925D02*
Y0001825D01*
X0008940Y0001866D02*
X0009780D01*
X0010181Y0002035D02*
Y0002015D01*
X0010109Y0002035D02*
Y0002015D01*
X0011735Y0002625D02*
X0011935D01*
X0011261Y0001925D02*
Y0001825D01*
X0011333Y0001925D02*
Y0001825D01*
X0011405Y0001925D02*
Y0001825D01*
X0011477Y0001925D02*
Y0001825D01*
X0011549Y0001925D02*
Y0001825D01*
X0011621Y0001925D02*
Y0001825D01*
X0011837Y0001925D02*
Y0001825D01*
X0017445Y0002802D02*
X0017885D01*
X0010829Y0002035D02*
Y0002015D01*
X0009260Y0002874D02*
X0009780D01*
X0009136Y0002730D02*
X0009780D01*
X0008940Y0002514D02*
X0009780D01*
X0005429Y0002800D02*
Y0000888D01*
X0008940Y0002442D02*
X0009780D01*
X0008940Y0002370D02*
X0009780D01*
X0007685Y0001074D02*
X0007780D01*
X0010037Y0000235D02*
Y-0000150D01*
X0011909Y0001925D02*
Y0001825D01*
X0017437Y0002874D02*
X0017885D01*
X0012629Y0002675D02*
Y0002625D01*
X0011837Y0002675D02*
Y0002625D01*
X0011909Y0002675D02*
Y0002625D01*
X0012125Y0002675D02*
Y0002625D01*
X0012197Y0002675D02*
Y0002625D01*
X0007760Y0012015D02*
Y0012000D01*
X0012701Y0002675D02*
Y0002625D01*
X0011693Y0002675D02*
Y0002625D01*
X0017398Y0002010D02*
X0017885D01*
X0010037Y0002035D02*
Y0002015D01*
X0008940Y0002010D02*
X0009780D01*
X0012917Y0000675D02*
Y-0000150D01*
X0000985D02*
X0011735D01*
X0017442Y0000714D02*
X0017885D01*
X0011454Y0000570D02*
X0016261D01*
X0004709Y-0000055D02*
Y-0000150D01*
X0005541Y0000210D02*
X0011735D01*
X0005469Y0000138D02*
X0011735D01*
X0005397Y0000066D02*
X0011735D01*
X0009461Y0004472D02*
Y-0000150D01*
X0017381Y0000503D02*
Y-0000150D01*
X0004349Y0000775D02*
Y0000505D01*
X0008940Y0001506D02*
X0009780D01*
X0011140Y0000282D02*
X0011735D01*
X0011140Y0001925D02*
X0011735D01*
X0011261Y0002675D02*
Y0002625D01*
X0011693Y0001925D02*
Y0001825D01*
X0005501Y0002970D02*
Y0000933D01*
X0011765Y0001925D02*
Y0001825D01*
X0011981Y0001925D02*
Y0001825D01*
X0009389Y0005075D02*
Y-0000150D01*
X0011735Y0001825D02*
X0011935D01*
X0012197Y0001925D02*
Y0001825D01*
X0012269Y0001925D02*
Y0001825D01*
X0012341Y0001925D02*
Y0001825D01*
X0012413Y0001925D02*
Y0001825D01*
X0012485Y0001925D02*
Y0001825D01*
X0012557Y0001925D02*
Y0001825D01*
X0012629Y0000625D02*
Y0000525D01*
X0010901Y0002995D02*
Y0002915D01*
X0004840Y0002154D02*
X0005680D01*
X0000785Y0009138D02*
X0000930D01*
X0009893Y0002035D02*
Y0002015D01*
X0013493Y0004775D02*
Y0004675D01*
X0008930Y0005106D02*
X0009358D01*
X0011935Y0002675D02*
X0012535D01*
X0008930Y0004890D02*
X0009430D01*
X0009130Y0012250D02*
X0009610D01*
X0000785Y0013098D02*
X0001487D01*
X0015509Y0000676D02*
Y-0000150D01*
X0006221Y0012800D02*
Y0012700D01*
X0014805Y0011946D02*
X0015310D01*
X0003269Y0011077D02*
Y0011043D01*
X0001490Y0009930D02*
X0003215D01*
X0008930Y0004818D02*
X0009430D01*
X0012735Y-0000078D02*
X0017885D01*
X0000785Y0003450D02*
X0000930D01*
X0000785Y0006690D02*
X0000930D01*
X0008021Y0005568D02*
Y0005255D01*
X0017171Y0006834D02*
X0017885D01*
X0001325Y0000214D02*
Y-0000150D01*
X0001181Y0014000D02*
Y0012792D01*
X0000785Y0007050D02*
X0000930D01*
X0017310Y0011946D02*
X0017885D01*
X0005410Y0009498D02*
X0006110D01*
X0005410Y0009570D02*
X0006110D01*
X0005410Y0009642D02*
X0006110D01*
X0011837Y0004775D02*
Y0004675D01*
X0012269Y0004775D02*
Y0004675D01*
X0017427Y0005178D02*
X0017885D01*
X0005490Y0004962D02*
X0007990D01*
X0002837Y-0000055D02*
Y-0000150D01*
X0012735Y0001794D02*
X0015205D01*
X0009290Y0003450D02*
X0009990D01*
X0007760Y0005034D02*
X0007990D01*
X0008930Y0004746D02*
X0009430D01*
X0008741Y0005445D02*
Y0005255D01*
X0011140Y0002625D02*
X0011735D01*
X0008930Y0004495D02*
Y0004255D01*
X0010829Y0005270D02*
Y0005255D01*
X0008930Y0004458D02*
X0009469D01*
X0009821Y0004119D02*
Y0002915D01*
X0015797Y0002625D02*
Y0002386D01*
X0009290Y0003666D02*
X0009990D01*
X0000785Y0006762D02*
X0000930D01*
X0008930Y0004170D02*
X0009744D01*
X0009965Y0005699D02*
Y0005265D01*
X0009972Y0005250D02*
X0010935D01*
X0008930Y0004530D02*
X0009439D01*
X0000785Y0011730D02*
X0000930D01*
X0008930Y0004242D02*
X0009672D01*
X0009965Y0004095D02*
Y0002915D01*
X0008930Y0004602D02*
X0009430D01*
X0013185Y0008650D02*
X0013255D01*
X0007760Y0005250D02*
X0009214D01*
X0009019Y0005445D02*
X0009430Y0005034D01*
X0008885Y0000775D02*
Y-0000150D01*
X0009534Y0005898D02*
X0009766D01*
X0008885Y0005445D02*
Y0005255D01*
X0015437Y0002625D02*
Y0002026D01*
X0009990Y0004095D02*
Y0003995D01*
X0009502Y0005754D02*
X0009910D01*
X0009650Y0006014D02*
X0009490Y0005854D01*
X0009430Y0005034D02*
Y0004600D01*
X0009245Y0002848D02*
Y-0000150D01*
X0007805Y0005720D02*
Y0004830D01*
X0009931Y0005322D02*
X0010348D01*
X0007752Y0005700D02*
X0007760D01*
Y0005322D02*
X0009142D01*
X0009605Y0005969D02*
Y0005651D01*
X0004385Y0006114D02*
X0006775D01*
X0005141Y0006120D02*
Y0005650D01*
X0007210Y0009291D02*
Y0008775D01*
X0005861Y0006120D02*
Y0003530D01*
X0003701Y0006325D02*
Y0006225D01*
X0004349Y0006325D02*
Y0006225D01*
X0004565Y0006160D02*
Y0002375D01*
X0004385Y0005970D02*
X0006919D01*
X0003375Y0006474D02*
X0003385D01*
X0006941Y0005948D02*
Y0005700D01*
X0003375Y0006402D02*
X0003385D01*
X0016362Y0007194D02*
X0017885D01*
X0004385Y0006186D02*
X0004530D01*
X0003375Y0006618D02*
X0003385D01*
X0007210Y0009282D02*
X0007227D01*
X0007013Y0008775D02*
Y0008675D01*
X0007760Y0013170D02*
X0008910D01*
X0007760Y0013242D02*
X0008910D01*
X0007157Y0012800D02*
Y0012700D01*
X0009461Y0014000D02*
Y0013250D01*
X0011261Y0014000D02*
Y0013230D01*
X0010325Y0014000D02*
Y0013250D01*
X0010037Y0014000D02*
Y0013250D01*
X0009965Y0014000D02*
Y0013250D01*
X0004853Y0006120D02*
Y0005650D01*
X0007584Y0009282D02*
X0007841D01*
X0009821Y0014000D02*
Y0013250D01*
X0009749Y0005915D02*
Y0005507D01*
X0007869Y0005720D02*
X0008060Y0005529D01*
X0007733Y0005000D02*
Y0004900D01*
X0009677Y0005987D02*
Y0005579D01*
X0006769Y0006120D02*
X0007005Y0005884D01*
X0005933Y0006120D02*
Y0003530D01*
X0006960Y0005700D02*
X0007059D01*
X0003375Y0006330D02*
X0004384D01*
X0005069Y0006120D02*
Y0005650D01*
X0004710Y0006120D02*
X0006769D01*
X0003375Y0006546D02*
X0003385D01*
X0004709Y0006120D02*
Y0005650D01*
X0004997Y0006120D02*
Y0005650D01*
X0003375Y0006762D02*
X0003385D01*
X0003375Y0006690D02*
X0003385D01*
X0010935Y0004675D02*
X0011735D01*
X0008940Y0001362D02*
X0009780D01*
X0001490Y0001290D02*
X0001874D01*
X0001757Y0001407D02*
Y0000574D01*
X0001490Y0001362D02*
X0001802D01*
X0001490Y0001434D02*
X0001730D01*
X0002140Y0001816D02*
X0002156Y0001800D01*
X0001490Y0003378D02*
X0001580D01*
X0001490Y0002874D02*
X0001580D01*
X0001490Y0001578D02*
X0001608D01*
X0001490Y0001506D02*
X0001658D01*
X0001901Y0001263D02*
Y0000505D01*
X0001829Y0001335D02*
Y0000505D01*
X0001960Y0001213D02*
Y0001100D01*
X0003053Y0007744D02*
Y0006845D01*
X0005490Y0003675D02*
Y0003530D01*
X0001580Y0006900D02*
Y0001700D01*
X0001490Y0007626D02*
X0002190D01*
X0002334Y0006978D02*
X0003215D01*
X0003060Y0007770D02*
X0003215D01*
X0001490Y0006042D02*
X0001580D01*
X0002983Y0007627D02*
X0002201Y0006845D01*
X0001490Y0006114D02*
X0001580D01*
X0001490Y0004674D02*
X0001580D01*
X0001490Y0007842D02*
X0002406D01*
X0003087Y0008706D02*
X0003215D01*
X0001613Y0012432D02*
Y0007032D01*
X0002910Y0007554D02*
X0003215D01*
X0001490Y0007050D02*
X0001624D01*
X0001490Y0008850D02*
X0002510D01*
X0001490Y0009138D02*
X0002727D01*
X0001490Y0009354D02*
X0002943D01*
X0003065Y0008490D02*
X0003215D01*
X0001490Y0007554D02*
X0002118D01*
X0002982Y0007626D02*
X0003215D01*
X0002140Y0002946D02*
X0002378D01*
X0001490Y0008130D02*
X0002505D01*
X0003215Y0008834D02*
X0003065Y0008684D01*
Y0008058D02*
X0003215D01*
X0003192Y0009487D02*
X0003215D01*
X0003125Y0011077D02*
Y0009479D01*
X0003065Y0008562D02*
X0003215D01*
X0001490Y0003234D02*
X0001580D01*
X0011915Y0008350D02*
X0011894Y0008330D01*
X0012197Y0009030D02*
Y0008960D01*
X0013255Y0008650D02*
Y0008400D01*
X0012629Y0009198D02*
Y0008702D01*
X0001490Y0002658D02*
X0001580D01*
X0008731Y0008922D02*
X0011308D01*
X0017190Y0008994D02*
X0017885D01*
X0011909Y0009030D02*
Y0008960D01*
X0002981Y0007625D02*
Y0006845D01*
X0001490Y0008994D02*
X0002583D01*
X0003197Y0008816D02*
Y0006845D01*
X0002765Y0011077D02*
Y0009176D01*
X0001490Y0002730D02*
X0001580D01*
X0001490Y0008490D02*
X0002505D01*
X0008740Y0008994D02*
X0013185D01*
X0001490Y0004242D02*
X0001580D01*
X0011893Y0008960D02*
X0012225D01*
X0009115Y0008015D02*
X0010829D01*
X0001757Y0012576D02*
Y0007193D01*
X0008740Y0008645D02*
X0008760D01*
X0014501Y0012390D02*
Y0012035D01*
X0014573Y0012390D02*
Y0012035D01*
X0014645Y0012390D02*
Y0012035D01*
X0014717Y0012390D02*
Y0012035D01*
X0014789Y0012390D02*
Y0012035D01*
X0014429Y0009720D02*
Y0009650D01*
X0012569Y0009138D02*
X0013185D01*
X0014190Y0012035D02*
X0014805D01*
X0014185Y0011350D02*
Y0011235D01*
X0015653Y0000726D02*
Y-0000150D01*
X0014069Y0011365D02*
Y0011350D01*
X0014213Y0011365D02*
Y0011235D01*
X0014285Y0011365D02*
Y0011235D01*
X0014357Y0011365D02*
Y0011235D01*
X0014429Y0011365D02*
Y0011235D01*
X0014501Y0011365D02*
Y0011235D01*
X0014573Y0011365D02*
Y0011235D01*
X0014645Y0011365D02*
Y0011235D01*
X0014717Y0011365D02*
Y0011235D01*
X0014141Y0011365D02*
Y0011350D01*
X0014185Y0011235D02*
X0014805D01*
X0009605Y0014000D02*
Y0011830D01*
X0015221Y0011990D02*
Y0011635D01*
X0015293Y0011990D02*
Y0011635D01*
X0014805Y0011802D02*
X0015310D01*
X0014805Y0011874D02*
X0015310D01*
X0013565Y0009720D02*
Y0009650D01*
X0013493Y0009720D02*
Y0009650D01*
X0014861Y0012390D02*
Y0011635D01*
X0014933Y0012390D02*
Y0011635D01*
X0014805Y0011730D02*
X0015310D01*
X0014805Y0011586D02*
X0014815D01*
X0014805Y0011514D02*
X0014815D01*
X0014805Y0010650D02*
X0015310D01*
X0014805Y0011154D02*
X0014815D01*
X0014805Y0011082D02*
X0014815D01*
X0014015Y0011484D02*
Y0011365D01*
X0016510Y0012090D02*
X0016610D01*
X0015221Y0012790D02*
Y0012660D01*
X0015293Y0012790D02*
Y0012660D01*
X0015365Y0012790D02*
Y0012660D01*
X0015725Y0012790D02*
Y0012660D01*
X0015797Y0012790D02*
Y0012660D01*
X0015437Y0012790D02*
Y0012660D01*
X0015509Y0012790D02*
Y0012660D01*
X0015581Y0012790D02*
Y0012660D01*
X0015653Y0012790D02*
Y0012660D01*
X0014789Y0011365D02*
Y0011235D01*
X0015810Y0012675D02*
Y0012660D01*
X0015105Y0012594D02*
X0015215D01*
X0015105Y0012522D02*
X0015215D01*
X0015105Y0012450D02*
X0015215D01*
X0014312Y0012306D02*
X0015215D01*
X0015149Y0014000D02*
Y0011635D01*
X0015221Y0014000D02*
Y0013460D01*
X0015293Y0014000D02*
Y0013460D01*
X0015365Y0014000D02*
Y0013460D01*
X0015725Y0014000D02*
Y0013460D01*
X0015810Y0013675D02*
Y0013460D01*
X0014910Y0013170D02*
X0015215D01*
X0014910Y0013098D02*
X0015215D01*
X0014110D02*
X0014210D01*
X0014110Y0013026D02*
X0014210D01*
X0014110Y0013800D02*
Y0012896D01*
X0005861Y0014000D02*
Y0013880D01*
X0010181Y0000235D02*
Y-0000150D01*
X0014396Y0012390D02*
X0015105D01*
X0000785Y0001506D02*
X0000930D01*
X0001559Y0012378D02*
X0003002D01*
X0003917Y0013320D02*
Y0013181D01*
Y0014000D02*
Y0013880D01*
X0003845Y0013320D02*
Y0013242D01*
Y0014000D02*
Y0013880D01*
X0003413Y0014000D02*
Y0013880D01*
X0003485Y0014000D02*
Y0013880D01*
X0004133Y0013320D02*
Y0013265D01*
X0002981Y0013320D02*
Y0013093D01*
X0000785Y0012522D02*
X0000948D01*
X0002549Y0014000D02*
Y0013880D01*
Y0013320D02*
Y0012297D01*
X0003269Y0014000D02*
Y0013880D01*
X0003629Y0014000D02*
Y0013880D01*
X0003701Y0014000D02*
Y0013880D01*
X0004421Y0014000D02*
Y0013880D01*
X0000785Y0013170D02*
X0001559D01*
X0000785Y0012666D02*
X0001055D01*
X0003969Y0012378D02*
X0003977D01*
X0003718Y0013314D02*
X0004228D01*
X0003846Y0013242D02*
X0004100D01*
X0003903Y0012306D02*
X0004042D01*
X0003773Y0013320D02*
Y0013288D01*
X0005213Y0014000D02*
Y0013880D01*
X0005285Y0014000D02*
Y0013880D01*
X0002405Y0014000D02*
Y0013880D01*
X0004565Y0011600D02*
Y0011500D01*
X0003928Y0013170D02*
X0004018D01*
X0002351D02*
X0003043D01*
X0002279Y0013098D02*
X0002984D01*
X0002207Y0013026D02*
X0002941D01*
X0002135Y0012954D02*
X0002910D01*
X0002063Y0012882D02*
X0002890D01*
X0001991Y0012810D02*
X0002878D01*
X0002501Y0013320D02*
X0003268D01*
X0004205Y0011600D02*
Y0011500D01*
X0001397Y0014000D02*
Y0013008D01*
X0003375Y0011658D02*
X0004110D01*
X0013349Y0014000D02*
Y0013395D01*
X0011909Y0014000D02*
Y0013359D01*
X0011526Y0000642D02*
X0011735D01*
X0010253Y0014000D02*
Y0013250D01*
X0010397Y0014000D02*
Y0013250D01*
X0010469Y0014000D02*
Y0013196D01*
X0010541Y0014000D02*
Y0013254D01*
X0011189Y0014000D02*
Y0013279D01*
X0007760Y0013386D02*
X0012750D01*
X0012053Y0014000D02*
Y0013336D01*
X0010410Y0013242D02*
X0010525D01*
X0010410Y0013170D02*
X0010443D01*
X0009610Y0013098D02*
X0009710D01*
X0009610Y0013026D02*
X0009710D01*
X0009610Y0012954D02*
X0009710D01*
X0006653Y0000235D02*
Y-0000150D01*
X0000785Y0001074D02*
X0000930D01*
X0001490Y0004098D02*
X0001580D01*
X0002140Y0002730D02*
X0002358D01*
X0002140Y0002658D02*
X0002309D01*
X0002140Y0002586D02*
X0002273D01*
X0002140Y0002514D02*
X0002248D01*
X0002140Y0002442D02*
X0002232D01*
X0002140Y0002370D02*
X0002225D01*
X0002140Y0002298D02*
X0002227D01*
X0002261Y0003143D02*
Y0002556D01*
X0002333Y0003003D02*
Y0002696D01*
X0003341Y0003009D02*
Y0002691D01*
X0003530Y0003070D02*
Y0002800D01*
X0001490Y0009858D02*
X0003215D01*
X0002140Y0003666D02*
X0002313D01*
X0002140Y0003882D02*
X0002444D01*
X0002140Y0003810D02*
X0002435D01*
X0002140Y0003954D02*
X0002371D01*
X0002140Y0003522D02*
X0002250D01*
X0006293Y0000235D02*
Y-0000150D01*
X0006725Y0014000D02*
Y0013880D01*
X0004061Y0014000D02*
Y0013880D01*
X0005069Y0014000D02*
Y0013880D01*
X0002261Y0004143D02*
Y0003556D01*
X0013151Y0009720D02*
X0016119D01*
X0002333Y0004003D02*
Y0003696D01*
X0002405Y0003917D02*
Y0003782D01*
X0001490Y0004170D02*
X0001580D01*
X0002140D02*
X0002252D01*
X0002189Y0004616D02*
Y0001800D01*
X0001253Y0014000D02*
Y0012864D01*
X0001490Y0001938D02*
X0001580D01*
X0002140Y0003306D02*
X0002227D01*
X0001490Y0003162D02*
X0001580D01*
X0015910Y0002730D02*
X0016141D01*
X0012917Y0003475D02*
Y0003375D01*
X0013637Y0005595D02*
Y0004645D01*
X0016435Y0004818D02*
X0016496D01*
X0016435Y0004746D02*
X0016643D01*
X0017237Y0005866D02*
Y0005784D01*
X0016373Y0007400D02*
Y0007183D01*
X0016445Y0007400D02*
Y0007111D01*
X0016517Y0007400D02*
Y0007039D01*
X0010541Y0002995D02*
Y0002915D01*
X0011735Y0004675D02*
X0011935D01*
X0016157Y0007400D02*
Y0007280D01*
X0015941Y0007400D02*
Y0007280D01*
X0016578Y0006978D02*
X0017885D01*
X0003557Y0006325D02*
Y0006225D01*
X0016435Y0004864D02*
Y0004600D01*
X0016661Y0007400D02*
Y0006909D01*
X0016733Y0007400D02*
Y0006926D01*
X0016805Y0007400D02*
Y0006934D01*
X0016877Y0007400D02*
Y0006933D01*
X0016949Y0007400D02*
Y0006924D01*
X0017021Y0007400D02*
Y0006906D01*
X0017093Y0007400D02*
Y0006878D01*
X0017165Y0007400D02*
Y0006838D01*
X0017237Y0007400D02*
Y0006784D01*
X0017309Y0007400D02*
Y0006709D01*
X0016013Y0009720D02*
Y0008400D01*
X0016157Y0009682D02*
Y0008400D01*
X0017165Y0009973D02*
Y0009927D01*
X0017237Y0010040D02*
Y0009859D01*
X0017309Y0010138D02*
Y0009762D01*
X0017381Y0010320D02*
Y0009580D01*
X0015985Y0009570D02*
X0016187D01*
X0015985Y0009498D02*
X0016177D01*
X0015985Y0009066D02*
X0016311D01*
X0015985Y0008994D02*
X0016380D01*
X0014805Y0010866D02*
X0015310D01*
X0015005Y0009720D02*
Y0009650D01*
X0008093Y0012015D02*
Y0011830D01*
X0001490Y0007122D02*
X0001686D01*
X0017259Y0009066D02*
X0017885D01*
X0017349Y0010218D02*
X0017885D01*
X0016510Y0012522D02*
X0016610D01*
X0016510Y0012306D02*
X0016610D01*
X0014805Y0012018D02*
X0015215D01*
X0015005Y0010965D02*
Y0010605D01*
X0005645Y0006120D02*
Y0003530D01*
X0016435Y0004242D02*
X0016443D01*
X0013995Y0003954D02*
X0014125D01*
X0016805Y0004716D02*
Y0004384D01*
X0017237Y0003316D02*
Y0003234D01*
X0017309Y0003391D02*
Y0003159D01*
X0002765Y0014000D02*
Y0013880D01*
X0014573Y0000675D02*
Y-0000150D01*
X0013535Y0003522D02*
X0013725D01*
X0016254Y0003590D02*
X0016069Y0003405D01*
X0015725Y0000791D02*
Y-0000150D01*
X0017425Y0000930D02*
X0017885D01*
X0016085Y0003800D02*
Y0003421D01*
X0015941Y0003800D02*
Y0003405D01*
X0000785Y0010362D02*
X0000930D01*
X0015005Y0002270D02*
Y0001775D01*
X0015430Y0002625D02*
X0015910D01*
X0015509D02*
Y0002098D01*
X0012735Y0001775D02*
X0015186D01*
X0016373Y0001377D02*
Y0001173D01*
X0016445Y0001306D02*
Y0001244D01*
X0017237Y0001316D02*
Y0001234D01*
X0017309Y0001391D02*
Y0001159D01*
X0017381Y0001503D02*
Y0001047D01*
X0016152Y0001218D02*
X0016416D01*
X0016080Y0001146D02*
X0016351D01*
X0014933Y0002270D02*
Y0001775D01*
X0015936Y0001002D02*
X0016269D01*
X0012917Y0002675D02*
Y0001775D01*
X0015792Y0000858D02*
X0016231D01*
X0000785Y0009066D02*
X0000930D01*
X0012735Y0000642D02*
X0016240D01*
X0008813Y0000775D02*
Y-0000150D01*
X0012735Y0000498D02*
X0016292D01*
X0012735Y0000426D02*
X0016335D01*
X0012735Y0000354D02*
X0016394D01*
X0012735Y0000282D02*
X0016476D01*
X0014795Y0004530D02*
X0017885D01*
X0013133Y0002675D02*
Y0001775D01*
X0015221Y0002365D02*
Y0001810D01*
X0000785Y0009210D02*
X0000930D01*
X0006005Y0014000D02*
Y0013880D01*
X0003292Y0002946D02*
X0003530D01*
X0014645Y0007314D02*
Y0007280D01*
X0004205Y0014000D02*
Y0013880D01*
X0017381Y0005053D02*
Y0004047D01*
X0017429Y0006186D02*
X0017885D01*
X0016733Y0004723D02*
Y0004376D01*
X0000785Y0011154D02*
X0000930D01*
X0017309Y0002391D02*
Y0002159D01*
X0014429Y0000675D02*
Y-0000150D01*
X0015910Y0002802D02*
X0016213D01*
X0012735Y0002226D02*
X0015637D01*
X0012735Y0002154D02*
X0015565D01*
X0015369Y0002514D02*
X0015925D01*
X0015941Y0001007D02*
Y-0000150D01*
X0010829Y0000235D02*
Y-0000150D01*
X0016157Y0002845D02*
Y0002746D01*
X0012735Y0001938D02*
X0015349D01*
X0011140Y0001866D02*
X0015277D01*
X0015149Y0002307D02*
Y0001775D01*
X0000785Y0007914D02*
X0000930D01*
X0015910Y0002658D02*
X0016069D01*
X0016296Y0001362D02*
X0016386D01*
X0017309Y0000391D02*
Y-0000150D01*
X0000785Y0012594D02*
X0000987D01*
X0001490Y0010938D02*
X0003215D01*
X0001490Y0010866D02*
X0003215D01*
X0001490Y0011010D02*
X0003215D01*
X0001490Y0010794D02*
X0003215D01*
X0001490Y0010722D02*
X0003215D01*
X0001490Y0010650D02*
X0003215D01*
Y0010323D02*
Y0010059D01*
X0010469Y0002035D02*
Y0002015D01*
X0001490Y0008922D02*
X0002533D01*
X0004395Y0009835D02*
Y0009567D01*
X0001490Y0010074D02*
X0003215D01*
X0001490Y0010002D02*
X0003215D01*
X0001490Y0012306D02*
X0003067D01*
X0001490Y0009786D02*
X0003215D01*
X0002549Y0011077D02*
Y0008951D01*
X0001490Y0009642D02*
X0003215D01*
X0005115Y0009066D02*
X0005410D01*
X0003065Y0007986D02*
X0003215D01*
Y0008355D02*
Y0008091D01*
X0000785Y0001938D02*
X0000930D01*
X0001490Y0009426D02*
X0003018D01*
X0001490Y0009282D02*
X0002871D01*
X0003159Y0008778D02*
X0003215D01*
Y0007371D02*
Y0006878D01*
X0017635Y0008202D02*
X0017885D01*
X0002838Y0007482D02*
X0003215D01*
X0017635Y0007698D02*
X0017885D01*
X0002140Y0003738D02*
X0002364D01*
X0002406Y0007050D02*
X0003215D01*
Y0008091D02*
Y0007863D01*
X0000785Y0000354D02*
X0001185D01*
X0000785Y0002586D02*
X0000930D01*
X0002333Y-0000055D02*
Y-0000150D01*
X0001490Y0010146D02*
X0003215D01*
X0001490Y0010578D02*
X0003215D01*
X0003917Y0012319D02*
Y0011043D01*
X0003629Y0012157D02*
Y0011043D01*
X0003701Y0012179D02*
Y0011043D01*
X0003773Y0012212D02*
Y0011043D01*
X0003065Y0008274D02*
X0003215D01*
Y0008583D02*
Y0008355D01*
X0001919Y0012738D02*
X0002875D01*
X0001829Y0012648D02*
Y0012297D01*
X0001901Y0012720D02*
Y0012297D01*
X0001973Y0012792D02*
Y0012297D01*
X0002333Y0014000D02*
Y0013875D01*
X0002045Y0012864D02*
Y0012297D01*
X0002117Y0012936D02*
Y0012297D01*
X0002189Y0013008D02*
Y0012297D01*
X0002261Y0013080D02*
Y0012297D01*
X0002333Y0013152D02*
Y0012297D01*
X0002405Y0013224D02*
Y0012297D01*
X0002477Y0013296D02*
Y0012297D01*
Y0014000D02*
Y0013880D01*
X0002621Y0013320D02*
Y0012297D01*
X0002693Y0013320D02*
Y0012297D01*
X0003557Y0012144D02*
Y0011043D01*
X0002909Y0012549D02*
Y0012297D01*
X0002981Y0012406D02*
Y0012297D01*
X0003053Y0012319D02*
Y0012297D01*
X0004277Y0014000D02*
Y0013880D01*
X0003125Y0013320D02*
Y0013242D01*
X0002765Y0013320D02*
Y0012297D01*
X0001631Y0012450D02*
X0002954D01*
X0001490Y0012234D02*
X0001795D01*
X0001490Y0012162D02*
X0001795D01*
X0001490Y0012090D02*
X0001795D01*
X0001490Y0012018D02*
X0001795D01*
X0001490Y0011946D02*
X0001795D01*
X0001490Y0011874D02*
X0001795D01*
X0001490Y0011802D02*
X0001795D01*
X0001490Y0011730D02*
X0001795D01*
X0001490Y0011658D02*
X0001795D01*
X0001490Y0011586D02*
X0001795D01*
X0001490Y0011514D02*
X0001795D01*
X0001490Y0011442D02*
X0001795D01*
X0001490Y0011370D02*
X0001795D01*
X0001490Y0011298D02*
X0001795D01*
X0003385Y0006878D02*
Y0006325D01*
X0001490Y0006762D02*
X0001580D01*
X0001829Y0011077D02*
Y0007265D01*
X0001901Y0011077D02*
Y0007337D01*
X0001973Y0011077D02*
Y0007409D01*
X0001490Y0001866D02*
X0001580D01*
X0002262Y0006906D02*
X0003215D01*
X0001490Y0005682D02*
X0001580D01*
X0001490Y0006834D02*
X0001580D01*
X0002140Y0003450D02*
X0002233D01*
X0001490Y0006618D02*
X0001580D01*
X0001490Y0006546D02*
X0001580D01*
X0001490Y0006474D02*
X0001580D01*
X0001490Y0006402D02*
X0001580D01*
X0001490Y0006330D02*
X0001580D01*
X0001490Y0006258D02*
X0001580D01*
X0015653Y0002625D02*
Y0002242D01*
X0005855Y0011226D02*
X0005865D01*
X0000785Y0012450D02*
X0000931D01*
X0000785Y0008778D02*
X0000930D01*
X0004781Y0011600D02*
Y0011500D01*
X0007733Y0012800D02*
Y0012700D01*
X0010908Y0009066D02*
X0011311D01*
X0010613Y0002035D02*
Y0002015D01*
X0000785Y0009498D02*
X0000930D01*
X0006077Y0011215D02*
Y0010475D01*
X0005717Y0006120D02*
Y0003530D01*
X0009533Y0014000D02*
Y0013250D01*
X0010613Y0014000D02*
Y0013296D01*
X0010685Y0014000D02*
Y0013326D01*
X0010757Y0014000D02*
Y0013346D01*
X0010829Y0014000D02*
Y0013357D01*
X0010901Y0014000D02*
Y0013360D01*
X0010973Y0014000D02*
Y0013353D01*
X0011045Y0014000D02*
Y0013338D01*
X0003269Y0006878D02*
Y0006845D01*
X0009610Y0012738D02*
X0009710D01*
X0009610Y0012450D02*
X0009710D01*
X0009130Y0012162D02*
X0009780D01*
X0000785D02*
X0000930D01*
X0000785Y0010722D02*
X0000930D01*
X0006437Y0011215D02*
Y0011123D01*
X0002837Y0014000D02*
Y0013880D01*
X0009130Y0011830D02*
X0009797D01*
X0017310Y0013170D02*
X0017885D01*
X0000785Y0010578D02*
X0000930D01*
X0004133Y0011600D02*
Y0011500D01*
X0001490Y0004818D02*
X0001580D01*
X0001613Y0014000D02*
Y0013224D01*
X0017310Y0012954D02*
X0017885D01*
X0012701Y0014000D02*
Y0013280D01*
X0012125Y0014000D02*
Y0013311D01*
X0011693Y0014000D02*
Y0013329D01*
X0011765Y0014000D02*
Y0013348D01*
X0011837Y0014000D02*
Y0013358D01*
X0011549Y0014000D02*
Y0013259D01*
X0009610Y0012882D02*
X0009710D01*
X0000785Y0001362D02*
X0000930D01*
X0016085Y0009720D02*
Y0008400D01*
X0015221Y0010965D02*
Y0010605D01*
X0014069Y0009720D02*
Y0009650D01*
X0014110Y0013458D02*
X0014210D01*
X0014141Y0009720D02*
Y0009650D01*
X0014685D02*
X0015185D01*
X0012773Y0000675D02*
Y-0000150D01*
X0012845Y0000675D02*
Y-0000150D01*
X0013997Y0009720D02*
Y0009650D01*
X0014357Y0009720D02*
Y0009650D01*
X0013535Y0005466D02*
X0013885D01*
X0017199Y0010002D02*
X0017885D01*
X0014789Y0009720D02*
Y0009650D01*
X0004997Y0011600D02*
Y0011500D01*
X0012989Y0009558D02*
Y0008400D01*
X0013151Y0009720D02*
X0012545Y0009114D01*
X0013145Y0009714D02*
X0016125D01*
X0012713Y0009282D02*
X0013185D01*
X0010991Y0009138D02*
X0011239D01*
X0005357Y0009450D02*
Y0008824D01*
X0011902Y0008956D02*
X0012145Y0008952D01*
X0013781Y0009720D02*
Y0009650D01*
X0015869Y0009720D02*
Y0009650D01*
X0013925Y0011394D02*
Y0011350D01*
X0017310Y0012162D02*
X0017885D01*
X0015293Y0009720D02*
Y0009650D01*
X0015941Y0009720D02*
Y0009650D01*
X0015149Y0009720D02*
Y0009650D01*
X0015365Y0009720D02*
Y0009650D01*
X0015185Y0009642D02*
X0015285D01*
X0015185Y0009570D02*
X0015285D01*
X0015185Y0009498D02*
X0015285D01*
X0015185Y0009426D02*
X0015285D01*
X0015185Y0009354D02*
X0015285D01*
X0015185Y0009282D02*
X0015285D01*
X0015185Y0009210D02*
X0015285D01*
X0015185Y0009138D02*
X0015285D01*
X0015185Y0009066D02*
X0015285D01*
X0015185Y0008994D02*
X0015285D01*
X0015185Y0008922D02*
X0015285D01*
X0015185Y0008850D02*
X0015285D01*
X0015185Y0008778D02*
X0015285D01*
X0015185Y0008706D02*
X0015285D01*
X0017255Y0001218D02*
X0017885D01*
X0014213Y0009720D02*
Y0009650D01*
X0014285Y0009720D02*
Y0009650D01*
X0015221Y0009720D02*
Y0008180D01*
X0013709Y0003855D02*
Y0003276D01*
X0014555Y0008650D02*
Y0008014D01*
X0013885Y0009642D02*
X0013985D01*
X0013885Y0009570D02*
X0013985D01*
X0013885Y0009498D02*
X0013985D01*
X0013885Y0009426D02*
X0013985D01*
X0013885Y0009282D02*
X0013985D01*
X0015115Y0008180D02*
X0015635D01*
X0013885Y0009138D02*
X0013985D01*
X0013885Y0009066D02*
X0013985D01*
X0013885Y0008994D02*
X0013985D01*
X0013885Y0008922D02*
X0013985D01*
X0013885Y0008850D02*
X0013985D01*
X0009718Y0005538D02*
X0010126D01*
X0009677Y0004237D02*
Y-0000150D01*
X0010930Y0004746D02*
X0014660D01*
X0017635Y0007554D02*
X0017885D01*
X0008930Y0005178D02*
X0009286D01*
X0008930Y0005034D02*
X0009430D01*
X0000785Y0010794D02*
X0000930D01*
X0010613Y0000235D02*
Y-0000150D01*
X0000785Y0001794D02*
X0000930D01*
X0010253Y0000235D02*
Y-0000150D01*
X0010397Y0005294D02*
Y0005255D01*
X0000785Y0008922D02*
X0000930D01*
X0011333Y0008421D02*
Y0008330D01*
X0010253Y0009030D02*
Y0008015D01*
X0008930Y0004962D02*
X0009430D01*
X0008930Y0004386D02*
X0009528D01*
X0010930Y0004674D02*
X0014660D01*
X0013781Y0005595D02*
Y0004645D01*
X0017331Y0005970D02*
X0017885D01*
X0002837Y0007481D02*
Y0006845D01*
X0003065Y0007914D02*
X0003215D01*
X0001490Y0005898D02*
X0001580D01*
X0002117Y0011077D02*
Y0007553D01*
X0002189Y0011077D02*
Y0007625D01*
X0002261Y0006905D02*
Y0006845D01*
X0002333Y0006977D02*
Y0006845D01*
X0002405Y0007049D02*
Y0006845D01*
X0002201D02*
X0003375D01*
X0002045Y0011077D02*
Y0007481D01*
X0002477Y0007121D02*
Y0006845D01*
X0001490Y0005538D02*
X0001580D01*
X0001490Y0006906D02*
X0001580D01*
X0001490Y0005826D02*
X0001580D01*
X0001490Y0005610D02*
X0001580D01*
X0001490Y0005466D02*
X0001580D01*
X0001490Y0005394D02*
X0001580D01*
X0001490Y0006690D02*
X0001580D01*
X0001490Y0005322D02*
X0001580D01*
X0001490Y0005250D02*
X0001580D01*
X0002140Y0004775D02*
X0002155D01*
X0002140Y0004026D02*
X0002318D01*
X0010930Y0003378D02*
X0013725D01*
X0009290D02*
X0009990D01*
X0009173Y0002767D02*
Y-0000150D01*
X0009290Y0003306D02*
X0009990D01*
X0009290Y0003090D02*
X0009990D01*
X0017439Y0000858D02*
X0017885D01*
X0005960Y0003600D02*
Y0003530D01*
X0006725Y0000235D02*
Y-0000150D01*
X0012701Y0003475D02*
Y0003375D01*
X0012557Y0002675D02*
Y0002625D01*
X0010973Y0003475D02*
Y0003375D01*
X0011045Y0003475D02*
Y0003375D01*
X0011117Y0003475D02*
Y0003375D01*
X0011189Y0003475D02*
Y0003375D01*
X0011261Y0003475D02*
Y0003375D01*
X0011405Y0003475D02*
Y0003375D01*
X0011477Y0003475D02*
Y0003375D01*
X0011549Y0003475D02*
Y0003375D01*
X0011621Y0003475D02*
Y0003375D01*
X0011693Y0003475D02*
Y0003375D01*
X0013995Y0004170D02*
X0014125D01*
X0013535Y0004890D02*
X0014660D01*
X0012701Y0004775D02*
Y0004675D01*
X0011765Y0004775D02*
Y0004675D01*
X0010973Y0004775D02*
Y0004675D01*
X0011045Y0004775D02*
Y0004675D01*
X0011117Y0004775D02*
Y0004675D01*
X0011189Y0004775D02*
Y0004675D01*
X0011261Y0004775D02*
Y0004675D01*
X0011333Y0004775D02*
Y0004675D01*
X0011405Y0004775D02*
Y0004675D01*
X0011477Y0004775D02*
Y0004675D01*
X0011549Y0004775D02*
Y0004675D01*
X0011621Y0004775D02*
Y0004675D01*
X0000785Y0005898D02*
X0000930D01*
X0010829Y0002995D02*
Y0002915D01*
X0017381Y0014000D02*
Y0011580D01*
X0016661Y0014000D02*
Y0013675D01*
X0016733Y0014000D02*
Y0013675D01*
X0016805Y0014000D02*
Y0013675D01*
X0016877Y0014000D02*
Y0013675D01*
X0016949Y0014000D02*
Y0013675D01*
X0017021Y0014000D02*
Y0013675D01*
X0017093Y0014000D02*
Y0013675D01*
X0017165Y0014000D02*
Y0013675D01*
X0016510Y0013386D02*
X0016610D01*
X0016510Y0013314D02*
X0016610D01*
X0016510Y0013242D02*
X0016610D01*
X0016510Y0013170D02*
X0016610D01*
X0016510Y0013098D02*
X0016610D01*
X0016510Y0013026D02*
X0016610D01*
X0016510Y0012954D02*
X0016610D01*
X0016510Y0012882D02*
X0016610D01*
X0015105Y0012738D02*
X0015810D01*
X0016510Y0012810D02*
X0016610D01*
X0017310Y0012594D02*
X0017885D01*
X0014069Y0014000D02*
Y0013800D01*
X0014910Y0013602D02*
X0015810D01*
X0015105Y0012882D02*
X0015215D01*
X0001490Y0008418D02*
X0002505D01*
X0012269Y0002675D02*
Y0002625D01*
X0015105Y0012810D02*
X0015215D01*
X0006869Y0014000D02*
Y0013880D01*
X0014910Y0013386D02*
X0015215D01*
X0015810Y0012790D02*
Y0012675D01*
X0015797Y0014000D02*
Y0013460D01*
X0015105Y0013026D02*
X0015215D01*
X0003413Y0002155D02*
Y0001800D01*
X0003341Y0002009D02*
Y0001800D01*
X0003413Y0003070D02*
Y0002545D01*
X0000785Y0008274D02*
X0000930D01*
X0003485Y0003070D02*
Y0001800D01*
X0017395Y0010434D02*
X0017885D01*
X0015869Y0007400D02*
Y0007280D01*
X0005501Y0009915D02*
Y0009475D01*
X0005573Y0009915D02*
Y0009475D01*
X0005645Y0009915D02*
Y0009475D01*
X0005861Y0009915D02*
Y0009475D01*
X0015115Y0008490D02*
X0017885D01*
X0005410Y0009475D02*
Y0009450D01*
X0006410Y0008675D02*
X0007210D01*
X0000785Y-0000006D02*
X0001552D01*
X0000785Y0004242D02*
X0000930D01*
X0000785Y0004314D02*
X0000930D01*
X0000785Y0004386D02*
X0000930D01*
X0000785Y0004458D02*
X0000930D01*
X0000785Y0004530D02*
X0000930D01*
X0007040Y0002900D02*
X0007760D01*
X0000785Y0006042D02*
X0000930D01*
X0005960Y0004400D02*
Y0004200D01*
X0000785Y0008346D02*
X0000930D01*
X0014357Y0005100D02*
Y0004645D01*
X0005490Y0005610D02*
X0005960D01*
X0005490Y0005538D02*
X0005960D01*
X0005490Y0005466D02*
X0005960D01*
X0005490Y0005394D02*
X0005960D01*
X0005490Y0005322D02*
X0005960D01*
X0005490Y0005250D02*
X0005960D01*
X0005490Y0005178D02*
X0005960D01*
X0004061Y0000775D02*
Y0000505D01*
X0016229Y0009199D02*
Y0008400D01*
X0015725Y0008650D02*
Y0008400D01*
X0015797Y0008650D02*
Y0008400D01*
X0015985Y0009642D02*
X0016197D01*
X0012917Y0009486D02*
Y0008400D01*
X0015869Y0008650D02*
Y0008400D01*
X0015941Y0008650D02*
Y0008400D01*
X0016301Y0009079D02*
Y0008400D01*
X0016373Y0009000D02*
Y0008400D01*
X0016445Y0008943D02*
Y0008400D01*
X0016517Y0008902D02*
Y0008400D01*
X0016589Y0008872D02*
Y0008400D01*
X0016661Y0008853D02*
Y0008400D01*
X0016733Y0008842D02*
Y0008400D01*
X0016805Y0008840D02*
Y0008400D01*
X0016877Y0008847D02*
Y0008400D01*
X0016949Y0008862D02*
Y0008400D01*
X0017021Y0008887D02*
Y0008400D01*
X0017093Y0008923D02*
Y0008400D01*
X0017165Y0008973D02*
Y0008400D01*
X0017237Y0009040D02*
Y0008400D01*
X0017309Y0009138D02*
Y0008400D01*
X0017381Y0009320D02*
Y0008400D01*
X0016248Y0007266D02*
X0017885D01*
X0017453Y0014000D02*
Y0008400D01*
X0001490Y0003522D02*
X0001580D01*
X0014235Y0008346D02*
X0014555D01*
X0014235Y0008274D02*
X0014555D01*
X0015653Y0007400D02*
Y0007280D01*
X0015115Y0008274D02*
X0015635D01*
X0015365Y0008650D02*
Y0008180D01*
X0015115Y0008346D02*
X0015635D01*
Y0007620D02*
Y0007400D01*
X0013815Y0008418D02*
X0014555D01*
X0014610Y0007280D02*
X0016160D01*
X0014235Y0007842D02*
X0014382D01*
X0014235Y0008400D02*
Y0007696D01*
X0013853Y0008650D02*
Y0008400D01*
X0001490Y0007338D02*
X0001902D01*
X0005855Y0011082D02*
X0006397D01*
X0000785D02*
X0000930D01*
X0009130Y0012090D02*
X0009780D01*
X0007685Y0009354D02*
X0007843D01*
X0007210Y0009138D02*
X0007876D01*
X0007210Y0009066D02*
X0007849D01*
X0007210Y0008994D02*
X0007840D01*
X0007210Y0008922D02*
X0007849D01*
X0007210Y0008850D02*
X0007878D01*
X0005141Y0009450D02*
Y0009040D01*
X0007210Y0009210D02*
X0007857D01*
X0007877Y0009166D02*
Y0009139D01*
X0008381Y0005445D02*
Y0005255D01*
X0007840Y0008645D02*
X0008290D01*
X0007877Y0008851D02*
Y0008645D01*
X0009107Y0008346D02*
X0011436D01*
X0007949Y0008763D02*
Y0008645D01*
X0008021Y0008719D02*
Y0008645D01*
X0008093Y0008699D02*
Y0008645D01*
X0010613Y0002995D02*
Y0002915D01*
X0010181Y0002995D02*
Y0002915D01*
X0009606Y0005970D02*
X0009694D01*
X0010685Y0009030D02*
Y0008015D01*
X0011261Y0008480D02*
Y0008330D01*
X0011405Y0008391D02*
Y0008339D01*
X0011477Y0008380D02*
Y0008350D01*
X0011549Y0008380D02*
Y0008350D01*
X0011621Y0008380D02*
Y0008350D01*
X0011693Y0008380D02*
Y0008350D01*
X0011765Y0008380D02*
Y0008350D01*
X0011837Y0008384D02*
Y0008345D01*
X0002837Y0011077D02*
Y0009248D01*
X0011189Y0009261D02*
Y0008729D01*
X0011261Y0009110D02*
Y0008879D01*
X0011333Y0009051D02*
Y0008938D01*
X0011405Y0009021D02*
Y0008969D01*
X0011477Y0009010D02*
Y0008980D01*
X0011549Y0009010D02*
Y0008980D01*
X0011621Y0009010D02*
Y0008980D01*
X0011693Y0009010D02*
Y0008980D01*
X0011765Y0009010D02*
Y0008980D01*
X0011837Y0009014D02*
Y0008975D01*
X0001490Y0003090D02*
X0001580D01*
X0008703Y0008850D02*
X0011238D01*
X0008647Y0008778D02*
X0011202D01*
X0012629Y0008418D02*
X0013255D01*
X0008738Y0009030D02*
X0010770D01*
X0011124Y0009282D02*
X0011186D01*
X0013073Y0009642D02*
X0013185D01*
X0003443Y0002298D02*
X0003680D01*
X0003432Y0002226D02*
X0003680D01*
X0003413Y0002154D02*
X0003680D01*
X0003383Y0002082D02*
X0003680D01*
X0003342Y0002010D02*
X0003680D01*
X0003285Y0001938D02*
X0003680D01*
X0003206Y0001866D02*
X0003680D01*
X0000785Y0000786D02*
X0000930D01*
X0003845Y0002800D02*
Y0002375D01*
X0004061Y0002800D02*
Y0002375D01*
X0004205Y0002800D02*
Y0002375D01*
X0004277Y0002800D02*
Y0002375D01*
X0004349Y0002800D02*
Y0002375D01*
X0000785Y0002946D02*
X0000930D01*
X0001181Y0000358D02*
Y-0000150D01*
X0001490Y0001074D02*
X0003680D01*
X0003785Y0000505D02*
X0005044D01*
X0005613Y0000282D02*
X0005680D01*
X0000785Y0001146D02*
X0000930D01*
X0006941Y0001135D02*
Y0001115D01*
X0007013Y0001135D02*
Y0001115D01*
X0004840Y0001866D02*
X0005680D01*
X0008381Y0000775D02*
Y-0000150D01*
X0005285Y0002800D02*
Y0000746D01*
X0004840Y0000930D02*
X0005495D01*
X0006221Y0001135D02*
Y0001115D01*
X0004840Y0001074D02*
X0005680D01*
X0006293Y0001135D02*
Y0001115D01*
X0006365Y0001135D02*
Y0001115D01*
X0006077Y0001135D02*
Y0001115D01*
X0006149Y0001135D02*
Y0001115D01*
X0006509Y0001135D02*
Y0001115D01*
X0006581Y0001135D02*
Y0001115D01*
X0006653Y0001135D02*
Y0001115D01*
X0006725Y0001135D02*
Y0001115D01*
X0006797Y0001135D02*
Y0001115D01*
X0006869Y0001135D02*
Y0001115D01*
X0004840Y0002010D02*
X0007780D01*
X0004840Y0001938D02*
X0005680D01*
X0006221Y0002035D02*
Y0002015D01*
X0006293Y0002035D02*
Y0002015D01*
X0006365Y0002035D02*
Y0002015D01*
X0006437Y0002035D02*
Y0002015D01*
X0005789Y0002035D02*
Y0002015D01*
X0005861Y0002035D02*
Y0002015D01*
X0005933Y0002035D02*
Y0002015D01*
X0006005Y0002035D02*
Y0002015D01*
X0006077Y0002035D02*
Y0002015D01*
X0006149Y0002035D02*
Y0002015D01*
X0006509Y0002035D02*
Y0002015D01*
X0006581Y0002035D02*
Y0002015D01*
X0006653Y0002035D02*
Y0002015D01*
X0006725Y0002035D02*
Y0002015D01*
X0006797Y0002035D02*
Y0002015D01*
X0006869Y0002035D02*
Y0002015D01*
X0005960Y0002970D02*
Y0002915D01*
X0004840Y0000786D02*
X0005325D01*
X0000785Y0000642D02*
X0000943D01*
X0005069Y0002800D02*
Y0000530D01*
X0007877Y0003212D02*
Y0002725D01*
X0008093Y0002995D02*
Y0002375D01*
X0008165Y0002995D02*
Y0002375D01*
X0008237Y0002995D02*
Y0002375D01*
X0008309Y0002995D02*
Y0002375D01*
X0008940D02*
Y0001575D01*
X0008381Y0002995D02*
Y0002673D01*
X0008453Y0002995D02*
Y0002838D01*
X0008525Y0002995D02*
Y0002911D01*
X0004421Y-0000055D02*
Y-0000150D01*
X0009821Y0001135D02*
Y0001115D01*
X0009893Y0001135D02*
Y0001115D01*
X0009965Y0001135D02*
Y0001115D01*
X0010037Y0001135D02*
Y0001115D01*
X0010109Y0001135D02*
Y0001115D01*
X0010181Y0001135D02*
Y0001115D01*
X0008940Y0001146D02*
X0009780D01*
X0008940Y0000930D02*
X0009780D01*
X0008940Y0000858D02*
X0009780D01*
X0007040Y0000375D02*
Y0000235D01*
X0008940Y0000786D02*
X0009780D01*
X0008940Y0001074D02*
X0009780D01*
X0007040Y0000282D02*
X0009780D01*
X0007523Y0000714D02*
X0009780D01*
X0010253Y0002035D02*
Y0002015D01*
X0010325Y0002035D02*
Y0002015D01*
X0010397Y0002035D02*
Y0002015D01*
X0005110Y0011485D02*
X0005855D01*
X0004421Y0011600D02*
Y0011500D01*
X0004493Y0011600D02*
Y0011500D01*
X0004277Y0011600D02*
Y0011500D01*
X0004349Y0011600D02*
Y0011500D01*
X0004709Y0011600D02*
Y0011500D01*
X0014814Y0007482D02*
X0015635D01*
X0010109Y0002995D02*
Y0002915D01*
X0007661Y0009332D02*
Y0008645D01*
X0014429Y0002270D02*
Y0001775D01*
X0007589Y0009285D02*
Y0008645D01*
X0014501Y0002270D02*
Y0001775D01*
X0014573Y0002270D02*
Y0001775D01*
X0015985Y0008706D02*
X0017885D01*
X0017239Y0009858D02*
X0017885D01*
X0017635Y0007986D02*
X0017885D01*
X0006005Y0009915D02*
Y0009475D01*
X0014717Y0002270D02*
Y0001775D01*
X0017635Y0007410D02*
X0017885D01*
X0004395Y0009858D02*
X0004410D01*
X0004395Y0009786D02*
X0004410D01*
X0004395Y0009714D02*
X0004410D01*
X0004395Y0009642D02*
X0004410D01*
X0004395Y0009570D02*
X0004410D01*
X0004395Y0009498D02*
X0004410D01*
X0004395Y0009915D02*
X0004410D01*
X0005410Y0009450D02*
Y0008775D01*
X0008309Y0014000D02*
Y0012685D01*
X0007013Y0014000D02*
Y0013880D01*
X0007085Y0014000D02*
Y0013880D01*
X0006293Y0014000D02*
Y0013880D01*
X0003053Y0014000D02*
Y0013880D01*
X0003989Y0014000D02*
Y0013880D01*
X0017310Y0012234D02*
X0017885D01*
X0002909Y0014000D02*
Y0013880D01*
X0006941Y0014000D02*
Y0013880D01*
X0007517Y0014000D02*
Y0013561D01*
X0005357Y0014000D02*
Y0013880D01*
X0007528Y0013530D02*
X0013410D01*
X0006077Y0014000D02*
Y0013880D01*
X0006221Y0014000D02*
Y0013880D01*
X0005573Y0014000D02*
Y0013880D01*
X0005789Y0014000D02*
Y0013880D01*
X0004133Y0014000D02*
Y0013880D01*
X0007432Y0013674D02*
X0013410D01*
X0007229Y0012800D02*
Y0012700D01*
X0007301Y0012800D02*
Y0012700D01*
X0007013Y0012000D02*
Y0011830D01*
X0006581Y0012800D02*
Y0012700D01*
X0007301Y0012000D02*
Y0011830D01*
X0006653Y0012000D02*
Y0011830D01*
X0007445Y0012000D02*
Y0011830D01*
X0000785Y0012018D02*
X0000930D01*
X0009317Y0012250D02*
Y0011830D01*
X0006035Y0010938D02*
X0006110D01*
X0013493Y0005595D02*
Y0005475D01*
Y0000675D02*
Y-0000150D01*
X0013925Y0002305D02*
Y0001775D01*
X0006035Y0010866D02*
X0006110D01*
X0012629Y0003475D02*
Y0003375D01*
X0012053Y0004775D02*
Y0004675D01*
X0006760Y0005700D02*
X0006960D01*
Y0004900D02*
X0007760D01*
X0006293Y0006120D02*
Y0005700D01*
X0006221Y0006120D02*
Y0005700D01*
X0010935Y0003475D02*
X0011735D01*
X0012413Y0002675D02*
Y0002625D01*
X0012485Y0002675D02*
Y0002625D01*
X0011735Y0003375D02*
X0011935D01*
X0014395Y0003594D02*
X0014410D01*
X0014395Y0003522D02*
X0014410D01*
X0014429Y0003855D02*
Y0003625D01*
X0014501Y0003855D02*
Y0003625D01*
X0014573Y0003855D02*
Y0003625D01*
X0014645Y0003855D02*
Y0003625D01*
X0014717Y0003800D02*
Y0003625D01*
X0014789Y0003800D02*
Y0003625D01*
X0014861Y0003800D02*
Y0003625D01*
X0015440Y0003666D02*
X0016235D01*
X0017367Y0001074D02*
X0017885D01*
X0009749Y0004166D02*
Y-0000150D01*
X0012773Y0003475D02*
Y0003375D01*
X0011621Y0000675D02*
Y-0000150D01*
X0015440Y0003800D02*
X0015660D01*
X0014395Y0003738D02*
X0014880D01*
X0015416Y0002586D02*
X0015997D01*
X0015509Y0003800D02*
Y0003625D01*
X0015581Y0003800D02*
Y0003625D01*
X0015725Y0003800D02*
Y0003625D01*
X0015797Y0003800D02*
Y0003625D01*
X0015869Y0003800D02*
Y0003625D01*
X0014861Y0000675D02*
Y-0000150D01*
X0015653Y0003800D02*
Y0003625D01*
X0014933Y0000675D02*
Y-0000150D01*
X0015005Y0000675D02*
Y-0000150D01*
X0006035Y0010475D02*
X0006110D01*
X0016510Y0012450D02*
X0016610D01*
X0016510Y0013675D02*
Y0012875D01*
X0015105Y0012666D02*
X0015810D01*
X0003375Y0011874D02*
X0004110D01*
X0003375Y0011802D02*
X0004110D01*
X0003375Y0011730D02*
X0004110D01*
X0003375Y0012018D02*
X0004110D01*
X0003375Y0011946D02*
X0004110D01*
X0009605Y0004309D02*
Y-0000150D01*
X0004395Y0009487D02*
X0004410D01*
X0005141Y0011615D02*
Y0011485D01*
X0005213Y0011615D02*
Y0011485D01*
X0005285Y0011615D02*
Y0011485D01*
X0005357Y0011615D02*
Y0011485D01*
X0003215Y0011043D02*
X0004110D01*
X0003375Y0011154D02*
X0004110D01*
X0001490Y0010506D02*
X0003215D01*
X0005110Y0011500D02*
Y0011485D01*
X0006653Y0012800D02*
Y0012700D01*
X0006941Y0012800D02*
Y0012700D01*
X0006221Y0012000D02*
Y0011885D01*
X0006293Y0012000D02*
Y0011885D01*
X0005855Y0012018D02*
X0005960D01*
X0006077Y0012000D02*
Y0011885D01*
X0006149Y0012000D02*
Y0011885D01*
X0006437Y0012000D02*
Y0011885D01*
X0003375Y0011586D02*
X0005865D01*
X0003375Y0011514D02*
X0005865D01*
X0005855Y0011442D02*
X0005865D01*
X0005855Y0011370D02*
X0005865D01*
X0005855Y0011298D02*
X0005865D01*
X0005429Y0011615D02*
Y0011485D01*
X0005855Y0011874D02*
X0005865D01*
X0000785Y0012882D02*
X0001271D01*
X0008340Y0012285D02*
Y0011830D01*
X0005933Y0012365D02*
Y0011885D01*
X0006760Y0012700D02*
X0006960D01*
X0008381Y0012415D02*
Y0012285D01*
X0008453Y0012415D02*
Y0012285D01*
X0008525Y0012415D02*
Y0012285D01*
X0008597Y0012415D02*
Y0012285D01*
X0008669Y0012415D02*
Y0012285D01*
X0008741Y0012415D02*
Y0012285D01*
X0008813Y0012415D02*
Y0012285D01*
X0008885Y0012415D02*
Y0012285D01*
X0007760Y0005682D02*
X0007907D01*
X0009245Y0014000D02*
Y0013250D01*
X0009173Y0014000D02*
Y0013250D01*
X0008330Y0012234D02*
X0008340D01*
X0008330Y0012162D02*
X0008340D01*
X0008330Y0012090D02*
X0008340D01*
X0005855Y0011730D02*
X0005865D01*
X0008309Y0012015D02*
Y0011830D01*
X0006655D02*
X0008340D01*
X0006655Y0011874D02*
X0008340D01*
X0009245Y0012250D02*
Y0011830D01*
X0001829Y0014000D02*
Y0013440D01*
X0009029Y0014000D02*
Y0013250D01*
X0008381Y0014000D02*
Y0013085D01*
X0008453Y0014000D02*
Y0013085D01*
X0008525Y0014000D02*
Y0013085D01*
X0008597Y0014000D02*
Y0013085D01*
X0008669Y0014000D02*
Y0013085D01*
X0008741Y0014000D02*
Y0013085D01*
X0008813Y0014000D02*
Y0013085D01*
X0007589Y0014000D02*
Y0013500D01*
X0009317Y0014000D02*
Y0013250D01*
X0008957Y0014000D02*
Y0013250D01*
X0007085Y0012800D02*
Y0012700D01*
X0007760Y0013026D02*
X0008340D01*
X0007760Y0012954D02*
X0008340D01*
X0007760Y0012882D02*
X0008340D01*
X0006070Y0012738D02*
X0008340D01*
X0008330Y0012666D02*
X0008340D01*
X0008330Y0012594D02*
X0008340D01*
X0008910Y0013250D02*
Y0013085D01*
X0006509Y0012000D02*
Y0011885D01*
X0007760Y0012810D02*
X0008340D01*
X0007589Y0012800D02*
Y0012700D01*
X0007733Y0014000D02*
Y0013500D01*
X0007805Y0014000D02*
Y0012685D01*
X0007877Y0014000D02*
Y0012685D01*
X0007949Y0014000D02*
Y0012685D01*
X0008021Y0014000D02*
Y0012685D01*
X0008093Y0014000D02*
Y0012685D01*
X0008165Y0014000D02*
Y0012685D01*
X0008237Y0014000D02*
Y0012685D01*
X0007661Y0012800D02*
Y0012700D01*
X0005855Y0012234D02*
X0005960D01*
X0006509Y0012800D02*
Y0012700D01*
X0006437Y0012800D02*
Y0012700D01*
X0006149Y0012800D02*
Y0012700D01*
X0006077Y0012800D02*
Y0012700D01*
X0005855Y0011658D02*
X0005865D01*
X0007760Y0012700D02*
Y0012685D01*
X0013565Y0014000D02*
Y0013800D01*
X0012773Y0014000D02*
Y0013395D01*
X0012845Y0014000D02*
Y0013395D01*
X0012917Y0014000D02*
Y0013395D01*
X0012989Y0014000D02*
Y0013395D01*
X0013061Y0014000D02*
Y0013395D01*
X0013133Y0014000D02*
Y0013395D01*
X0013205Y0014000D02*
Y0013395D01*
X0013277Y0014000D02*
Y0013395D01*
X0007760Y0013458D02*
X0013410D01*
X0012118Y0013314D02*
X0012750D01*
Y0013395D02*
Y0013280D01*
X0012413Y0014000D02*
Y0013280D01*
X0012629Y0014000D02*
Y0013280D01*
X0012557Y0014000D02*
Y0013280D01*
X0011333Y0014000D02*
Y0013164D01*
X0014429Y0005100D02*
Y0004645D01*
X0014501Y0005100D02*
Y0004645D01*
X0014645Y0005100D02*
Y0004645D01*
X0014213Y0005100D02*
Y0004645D01*
X0013995Y0004602D02*
X0014125D01*
X0004853Y0014000D02*
Y0013880D01*
X0014861Y0007529D02*
Y0007280D01*
X0013637Y0009720D02*
Y0009650D01*
X0013061Y0004775D02*
Y0004675D01*
X0006293Y0011215D02*
Y0010950D01*
X0013565Y0005595D02*
Y0004645D01*
X0010935Y0004775D02*
X0011735D01*
X0012917D02*
Y0004675D01*
X0012269Y0003475D02*
Y0003375D01*
X0012535Y0003475D02*
X0012735D01*
X0013535D01*
Y0003306D02*
X0013725D01*
X0013565Y0003855D02*
Y0003305D01*
X0013535Y0003375D02*
Y0003305D01*
X0013995Y0004530D02*
X0014125D01*
X0013781Y0003855D02*
Y0003845D01*
X0013853Y0003855D02*
Y0003845D01*
X0013925Y0005100D02*
Y0004645D01*
X0013997Y0005100D02*
Y0003845D01*
X0014573Y0005100D02*
Y0004645D01*
X0014141Y0003855D02*
Y0003845D01*
X0014213Y0003855D02*
Y0003845D01*
X0013995Y0003882D02*
X0014125D01*
X0013277Y0009720D02*
Y0009650D01*
X0014210Y0013800D02*
Y0012975D01*
X0014110Y0013674D02*
X0014210D01*
X0014213Y0012207D02*
Y0012035D01*
X0014429Y0012390D02*
Y0012035D01*
G01X0003485Y0012140D02*
G03X0003973Y0012383I0000000J0000610D01*
G01X0002486Y0002850D02*
G03X0002225Y0002350I0000349J0000500D01*
G01X0003973Y0013116D02*
G03X0003702Y0013320I0000488J0000366D01*
G01X0002486Y0003850D02*
G03X0002225Y0003350I0000349J0000500D01*
G01X0016835Y0004715D02*
G03X0017445Y0005325I0000000J0000610D01*
G01X0017185Y0005825D02*
G03X0017445Y0006325I0000350J0000500D01*
G03X0016835Y0006935I0000610J0000000D01*
G01X0016785Y0008840D02*
G03X0017395Y0009450I0000000J0000610D01*
G01X0016175D02*
G03X0016785Y0008840I0000610J0000000D01*
G01X0017135Y0009950D02*
G03X0017395Y0010450I0000350J0000500D01*
G01X0017135Y0010950D02*
G03X0017395Y0011450I0000350J0000500D01*
G01X0017185Y0003275D02*
G03X0017445Y0003775I0000350J0000500D01*
G03X0016835Y0004385I0000610J0000000D01*
G01X0017185Y0002275D02*
G03X0017445Y0002775I0000350J0000500D01*
G01X0016835Y0000165D02*
G03X0017445Y0000775I0000000J0000610D01*
G01X0016225D02*
G03X0016835Y0000165I0000610J0000000D01*
G01X0016486Y0001275D02*
G03X0016225Y0000775I0000349J0000500D01*
G01X0017185Y0001275D02*
G03X0017445Y0001775I0000350J0000500D01*
G01X0003268Y0013320D02*
G03X0002875Y0012750I0000217J0000570D01*
G01X0011885Y0013360D02*
G03X0011385Y0013099I0000000J0000610D01*
G03X0010885Y0013360I0000500J0000349D01*
G01X0016835Y0004385D02*
G03X0016435Y0004235I0000000J0000610D01*
G01X0002225Y0002350D02*
G03X0002571Y0001800I0000610J0000000D01*
G01X0002983Y0007627D02*
G03X0003065Y0007825I0000198J0000198D01*
G01X0003375Y0012150D02*
G03X0003485Y0012140I0000110J0000600D01*
G01X0010885Y0013360D02*
G03X0010410Y0013133I0000000J0000610D01*
G01X0008462Y0002848D02*
G03X0008380Y0002650I0000198J0000198D01*
G01X0011140Y0000375D02*
G03X0011347Y0000463I0000005J0000300D01*
G01X0015010Y0002270D02*
G03X0015208Y0002352I0000000J0000280D01*
G01X0016346Y0001411D02*
G03X0016486Y0001275I0000489J0000364D01*
G01X0017445Y0000775D02*
G03X0017185Y0001275I0000610J0000000D01*
G01X0017395Y0009450D02*
G03X0017135Y0009950I0000610J0000000D01*
G01X0016435Y0004864D02*
G03X0016835Y0004715I0000400J0000461D01*
G01X0016226Y0003800D02*
G03X0016225Y0003775I0000609J0000025D01*
G01X0009780Y0011925D02*
G03X0009797Y0011830I0000280J0000000D01*
G01X0015358Y0002502D02*
G03X0015430Y0002625I0000198J0000198D01*
G01X0006412Y0011098D02*
G03X0006335Y0010950I0000198J0000198D01*
G01X0016835Y0006935D02*
G03X0016650Y0006906I0000000J0000610D01*
G01X0003192Y0009487D02*
G03X0002994Y0009405I0000000J0000280D01*
G01X0007990Y0004828D02*
G03X0007960Y0004830I0000030J0000278D01*
G01X0007990Y0004828D02*
G03X0007960Y0004830I0000030J0000278D01*
G01X0008740Y0008995D02*
G03X0008738Y0009030I0000300J0000000D01*
G01X0007840Y0009310D02*
G03X0007885Y0009152I0000300J0000000D01*
G01X0007840Y0008995D02*
G03X0008140Y0008695I0000300J0000000D01*
G01X0007885Y0009152D02*
G03X0007841Y0008995I0000255J0000157D01*
G01X0008440Y0008695D02*
G03X0008740Y0008995I0000000J0000300D01*
G01X0011485Y0008350D02*
G03X0011377Y0008330I0000000J0000300D01*
G01X0011185Y0008680D02*
G03X0011485Y0008380I0000300J0000000D01*
Y0008980D02*
G03X0011185Y0008680I0000000J0000300D01*
Y0009310D02*
G03X0011485Y0009010I0000300J0000000D01*
G01X0011187Y0009345D02*
G03X0011185Y0009310I0000298J0000035D01*
G01X0007875Y0009450D02*
G03X0007840Y0009310I0000265J0000140D01*
G01X0009290Y0003750D02*
G03X0009208Y0003948I0000280J0000000D01*
G01X0010312Y0005352D02*
G03X0010510Y0005270I0000198J0000198D01*
G01X0007005Y0005884D02*
G03X0007059Y0005700I0000400J0000016D01*
G01X0014210Y0012975D02*
G03X0014137Y0012923I0000125J0000250D01*
G01X0006070Y0012750D02*
G03X0006068Y0012800I0000610J0000000D01*
G01X0013862Y0002352D02*
G03X0014060Y0002270I0000198J0000198D01*
G01X0015358Y0002502D02*
G03X0015430Y0002625I0000198J0000198D01*
G01X0015010Y0002270D02*
G03X0015208Y0002352I0000000J0000280D01*
G01X0013725Y0003267D02*
G03X0013585Y0003305I0000140J0000242D01*
G01X0017395Y0011450D02*
G03X0017240Y0011856I0000610J0000000D01*
G01X0013725Y0003267D02*
G03X0013585Y0003305I0000140J0000242D01*
G01X0012345Y0009030D02*
G03X0012543Y0009112I0000000J0000280D01*
G01X0016204Y0009635D02*
G03X0016175Y0009450I0000581J0000185D01*
G01X0016530Y0012004D02*
G03X0016510Y0012005I0000020J0000279D01*
G01X0002155Y0004750D02*
G03X0002237Y0004552I0000280J0000000D01*
G01X0016358Y0007198D02*
G03X0016160Y0007280I0000198J0000198D01*
G01X0010312Y0005352D02*
G03X0010510Y0005270I0000198J0000198D01*
G01X0013305Y0005475D02*
G03X0013236Y0005595I0000270J0000075D01*
G01X0006412Y0011098D02*
G03X0006335Y0010950I0000198J0000198D01*
G01X0008997Y0008514D02*
G03X0008760Y0008645I0000237J0000149D01*
G01X0009115Y0008280D02*
G03X0009033Y0008478I0000280J0000000D01*
G01X0001580Y0001700D02*
G03X0001662Y0001502I0000280J0000000D01*
G01X0012272Y0008959D02*
G03X0012238Y0008959I0000047J0000279D01*
G01X0011260Y0008330D02*
G03X0011062Y0008248I0000000J0000280D01*
G01X0007536Y0013500D02*
G03X0007458Y0013648I0000276J0000050D01*
G01X0006068Y0012700D02*
G03X0006070Y0012750I0000608J0000050D01*
G01X0002385Y0013880D02*
G03X0002187Y0013798I0000000J0000280D01*
G01X0007308D02*
G03X0007110Y0013880I0000198J0000198D01*
G01X0000930Y0000725D02*
G03X0001012Y0000527I0000280J0000000D01*
Y0012623D02*
G03X0000930Y0012425I0000198J0000198D01*
G01X0005160Y-0000055D02*
G03X0005358Y0000027I0000000J0000280D01*
G01X0001512D02*
G03X0001710Y-0000055I0000198J0000198D01*
G01X0005610Y0000955D02*
G03X0005412Y0000873I0000000J0000280D01*
G01X0007912Y0003177D02*
G03X0007990Y0003122I0000198J0000198D01*
G01X0009208Y0002802D02*
G03X0009290Y0003000I0000198J0000198D01*
Y0003750D02*
G03X0009208Y0003948I0000280J0000000D01*
G01X0008462Y0002848D02*
G03X0008380Y0002650I0000198J0000198D01*
G01X0009083Y0004073D02*
G03X0008930Y0004151I0000198J0000198D01*
G01X0004776Y0009405D02*
G03X0004717Y0009450I0000198J0000198D01*
G01X0004776Y0009405D02*
G03X0004717Y0009450I0000198J0000198D01*
G01X0007912Y0003177D02*
G03X0007990Y0003122I0000198J0000198D01*
G01X0006262Y0003648D02*
G03X0006224Y0003600I0000198J0000198D01*
G01X0003099Y0001800D02*
G03X0003445Y0002350I0000264J0000550D01*
G01X0007597Y0000788D02*
G03X0007685Y0001000I0000212J0000212D01*
G01X0007060Y0000375D02*
G03X0007272Y0000463I0000000J0000300D01*
G01X0002225Y0004350D02*
G03X0002486Y0003850I0000610J0000000D01*
G01X0006262Y0003648D02*
G03X0006224Y0003600I0000198J0000198D01*
G01X0017395Y0010450D02*
G03X0017135Y0010950I0000610J0000000D01*
G01X0007210Y0009291D02*
G03X0007405Y0009240I0000195J0000349D01*
G01X0014210Y0012975D02*
G03X0014137Y0012923I0000125J0000250D01*
G01X0016610Y0012034D02*
G03X0016531Y0012004I0000175J0000584D01*
G01X0016185Y0002845D02*
G03X0016230Y0002848I0000000J0000280D01*
G01X0016225Y0003775D02*
G03X0016254Y0003590I0000610J0000000D01*
G01X0015485Y0000675D02*
G03X0015697Y0000763I0000000J0000300D01*
G01X0017445Y0002775D02*
G03X0017185Y0003275I0000610J0000000D01*
G01X0012187Y0013280D02*
G03X0011885Y0013360I0000302J0000530D01*
G01X0013305Y0005475D02*
G03X0013236Y0005595I0000270J0000075D01*
G01X0002225Y0003350D02*
G03X0002486Y0002850I0000610J0000000D01*
G01X0003445Y0002350D02*
G03X0003185Y0002850I0000610J0000000D01*
G01X0007405Y0009240D02*
G03X0007757Y0009450I0000000J0000400D01*
G01X0009737Y0004177D02*
G03X0009935Y0004095I0000198J0000198D01*
G01X0011893Y0008330D02*
G03X0011785Y0008350I0000108J0000280D01*
G01X0009990Y0005150D02*
G03X0009908Y0005348I0000280J0000000D01*
G01X0009430Y0004600D02*
G03X0009512Y0004402I0000280J0000000D01*
G01X0009442Y0005814D02*
G03X0009488Y0005852I0000152J0000236D01*
G01X0004512Y0006202D02*
G03X0004710Y0006120I0000198J0000198D01*
G01X0008062Y0005527D02*
G03X0008260Y0005445I0000198J0000198D01*
G01X0007752Y0005700D02*
G03X0007762Y0005720I0000347J0000200D01*
G01X0001912Y0001252D02*
G03X0001960Y0001213I0000198J0000198D01*
G01X0001662Y0007098D02*
G03X0001580Y0006900I0000198J0000198D01*
G01X0001912Y0001252D02*
G03X0001960Y0001213I0000198J0000198D01*
G01X0001580Y0001700D02*
G03X0001662Y0001502I0000280J0000000D01*
G01X0002587Y0008998D02*
G03X0002505Y0008800I0000198J0000198D01*
G01X0002983Y0007627D02*
G03X0003065Y0007825I0000198J0000198D01*
G01X0003192Y0009487D02*
G03X0002994Y0009405I0000000J0000280D01*
G01X0012622Y0008400D02*
G03X0012655Y0008560I0000367J0000160D01*
G03X0012255Y0008960I0000400J0000000D01*
G01X0012272Y0008959D02*
G03X0012238Y0008959I0000047J0000279D01*
G01X0011785Y0008380D02*
G03X0011883Y0008396I0000000J0000300D01*
G01X0009115Y0008280D02*
G03X0009033Y0008478I0000280J0000000D01*
G01X0011893Y0008960D02*
G03X0011785Y0008980I0000108J0000280D01*
G01X0001012Y0012623D02*
G03X0000930Y0012425I0000198J0000198D01*
G01X0007536Y0013500D02*
G03X0007458Y0013648I0000276J0000050D01*
G01X0001512Y0000027D02*
G03X0001710Y-0000055I0000198J0000198D01*
G01X0003185Y0002850D02*
G03X0003377Y0003070I0000350J0000500D01*
G01X0002254Y0004535D02*
G03X0002225Y0004350I0000581J0000185D01*
G01X0016230Y0002848D02*
G03X0016227Y0002815I0000605J0000073D01*
G01X0017445Y0005325D02*
G03X0017185Y0005825I0000610J0000000D01*
G01X0016185Y0002845D02*
G03X0016230Y0002848I0000000J0000280D01*
G01X0017445Y0001775D02*
G03X0017185Y0002275I0000610J0000000D01*
G01X0007308Y0013798D02*
G03X0007110Y0013880I0000198J0000198D01*
G01X0002875Y0012750D02*
G03X0003076Y0012297I0000610J0000000D01*
G01X0011890Y0008396D02*
G03X0011915Y0008350I0000365J0000164D01*
G01X0009083Y0004073D02*
G03X0008930Y0004151I0000198J0000198D01*
G01X0004243Y0013320D02*
G03X0003973Y0013116I0000217J0000570D01*
G01X0011785Y0009010D02*
G03X0011893Y0009030I0000000J0000300D01*
G01X0011260Y0008330D02*
G03X0011062Y0008248I0000000J0000280D01*
G01X0010770Y0009030D02*
G03X0011014Y0009171I0000000J0000280D01*
G01X0005610Y0000955D02*
G03X0005412Y0000873I0000000J0000280D01*
G01X0009430Y0004600D02*
G03X0009512Y0004402I0000280J0000000D01*
G01X0007597Y0000788D02*
G03X0007685Y0001000I0000212J0000212D01*
G01X0005855Y0012285D02*
G03X0005960Y0012400I0000395J0000465D01*
G01X0003973Y0012383D02*
G03X0004110Y0012250I0000487J0000367D01*
G54D30*
G01X0011435Y0003025D02*
X0012235D01*
X0010460Y0002775D02*
Y0002475D01*
X0002460Y0001450D02*
X0003285D01*
X0012235Y0001475D02*
X0015310D01*
X0016610Y0002775D01*
X0016835D01*
X0006360Y0000675D02*
X0007060D01*
X0007385Y0001000D01*
Y0001575D01*
X0003285Y0001450D02*
X0004435D01*
X0010460Y0001575D02*
X0010560Y0001475D01*
X0011435D01*
X0005060Y0004225D02*
Y0003350D01*
X0011435Y0001475D02*
X0012235D01*
Y0000975D02*
X0015485D01*
X0016285Y0001775D01*
X0016835D01*
X0005060Y0005100D02*
Y0004225D01*
X0003260Y0001425D02*
X0003285Y0001450D01*
X0005060Y0005125D02*
Y0005100D01*
X0010460Y0000675D02*
X0011135D01*
X0011435Y0000975D01*
X0012235D01*
X0012675Y0000175D02*
X0012235D01*
X0010870Y0003375D02*
X0010460D01*
X0010050D02*
X0010460D01*
Y0003055D02*
Y0003375D01*
X0005740Y0002475D02*
X0006360D01*
X0009840D02*
X0010460D01*
Y0002855D02*
Y0002475D01*
X0005350Y0009800D02*
X0004910D01*
X0004470D02*
X0004910D01*
Y0009510D02*
Y0009800D01*
X0012235Y0004835D02*
Y0005125D01*
X0006020Y0005350D02*
X0006460D01*
Y0005060D02*
Y0005350D01*
Y0005640D02*
Y0005350D01*
X0012235Y0003315D02*
Y0003025D01*
Y0002735D02*
Y0003025D01*
X0005795Y0011950D02*
X0005460D01*
Y0011675D02*
Y0011950D01*
X0009070D02*
X0008735D01*
X0008400D02*
X0008735D01*
Y0012225D02*
Y0011950D01*
X0014460Y0004585D02*
Y0004250D01*
Y0003915D02*
Y0004250D01*
X0014185D02*
X0014460D01*
X0014745Y0011700D02*
X0014410D01*
Y0011975D02*
Y0011700D01*
Y0011425D02*
Y0011700D01*
X0015275Y0012325D02*
X0015610D01*
Y0012600D02*
Y0012325D01*
X0003874Y0013139D02*
X0003485Y0012750D01*
X0003874Y0012361D02*
X0003485Y0012750D01*
X0003096Y0013139D02*
X0003485Y0012750D01*
X0003224Y0002739D02*
X0002835Y0002350D01*
X0002446Y0001961D02*
X0002835Y0002350D01*
X0003224Y0001961D02*
X0002835Y0002350D01*
X0002446Y0002739D02*
X0002835Y0002350D01*
X0017224Y0001164D02*
X0016835Y0000775D01*
X0016446Y0000386D02*
X0016835Y0000775D01*
X0017224Y0000386D02*
X0016835Y0000775D01*
X0016446Y0001164D02*
X0016835Y0000775D01*
X0004335Y0009699D02*
X0003805D01*
X0003275D02*
X0003805D01*
X0014335Y0008710D02*
Y0009150D01*
Y0009590D02*
Y0009150D01*
X0014045D02*
X0014335D01*
X0015635Y0008710D02*
Y0009150D01*
Y0009590D02*
Y0009150D01*
X0015345D02*
X0015635D01*
X0015925D02*
X0015635D01*
X0011435Y0004835D02*
Y0005125D01*
X0010995Y0003025D02*
X0011435D01*
Y0003315D02*
Y0003025D01*
Y0002735D02*
Y0003025D01*
X0005470Y0009125D02*
X0005910D01*
Y0008835D02*
Y0009125D01*
Y0009415D02*
Y0009125D01*
X0007700Y0003250D02*
X0007260D01*
Y0002960D02*
Y0003250D01*
X0007700Y0005350D02*
X0007260D01*
Y0005060D02*
Y0005350D01*
X0015935Y0004440D02*
Y0004150D01*
Y0003860D02*
Y0004150D01*
X0007150Y0009125D02*
X0006710D01*
Y0008835D02*
Y0009125D01*
X0003725Y0000650D02*
X0003285D01*
Y0000940D02*
Y0000650D01*
X0002020D02*
X0002460D01*
Y0000940D02*
Y0000650D01*
X0007385Y0002085D02*
Y0002375D01*
Y0002665D02*
Y0002375D01*
X0011435Y0001985D02*
Y0002275D01*
Y0002565D02*
Y0002275D01*
X0012675D02*
X0012235D01*
Y0001985D02*
Y0002275D01*
Y0002565D02*
Y0002275D01*
X0011795Y0000175D02*
X0012235D01*
Y0000465D02*
Y0000175D01*
G54D31*
G01X0006610Y0009800D02*
X0007410D01*
X0011435Y0004325D02*
X0012235D01*
X0010460Y0004375D02*
X0010510Y0004325D01*
X0011435D01*
X0010460Y0004375D02*
X0009935D01*
X0009710Y0004600D01*
Y0005150D01*
X0009135Y0005725D01*
X0008260D01*
X0007985Y0006000D01*
X0007285D01*
X0006885Y0006400D01*
X0004710D01*
X0004435Y0006675D01*
X0003885D01*
X0007410Y0009800D02*
X0007585D01*
X0007425Y0009640D01*
X0007405D01*
Y0005900D02*
X0007300Y0006000D01*
X0007285D01*
X0006885Y0006400D01*
X0004710D01*
X0004435Y0006675D01*
X0003885D01*
X0011435Y0005125D02*
X0012235D01*
X0011435Y0003025D02*
Y0002275D01*
X0002460Y0000650D02*
X0003285D01*
X0010460Y0003375D02*
Y0002775D01*
X0004910Y0009800D02*
X0004809Y0009699D01*
X0003805D01*
X0002460Y0001450D02*
X0002110D01*
X0001860Y0001700D01*
Y0006900D01*
X0002785Y0007825D01*
Y0008800D01*
X0003192Y0009207D01*
X0003805D01*
X0012255Y0008560D02*
Y0008650D01*
X0012225Y0008680D01*
X0011635D01*
X0008290Y0008365D02*
X0008760D01*
Y0008355D01*
X0008835Y0008280D01*
Y0007750D01*
X0008820Y0007735D01*
X0008290D01*
X0011635Y0008680D02*
X0012144Y0008673D01*
X0012260Y0008548D01*
Y0008300D01*
X0012010Y0008050D01*
X0011635D01*
X0008290Y0007735D02*
X0010945D01*
X0011260Y0008050D01*
X0011635D01*
X0012215Y0011595D02*
X0012345Y0011725D01*
X0013260D01*
X0013485Y0011950D01*
Y0012200D01*
X0007260Y0013150D02*
Y0013450D01*
X0007110Y0013600D01*
X0002385D01*
X0001210Y0012425D01*
Y0000725D01*
X0001710Y0000225D01*
X0005160D01*
X0005610Y0000675D01*
X0006360D01*
X0008460Y0003875D02*
X0008885D01*
X0009010Y0003750D01*
Y0003000D01*
X0008660Y0002650D01*
Y0001575D01*
X0007385D01*
X0008460Y0003875D02*
X0008160D01*
X0007985Y0004050D01*
X0007260D01*
X0013485Y0012200D02*
Y0012550D01*
X0013760Y0012825D01*
Y0013300D01*
X0005910Y0008325D02*
X0005460D01*
X0004578Y0009207D01*
X0003805D01*
X0008460Y0003375D02*
X0008110D01*
X0007835Y0003650D01*
X0006660D01*
X0006460Y0003450D01*
Y0003250D01*
X0008290Y0008365D02*
X0006750D01*
X0006710Y0008325D01*
X0005060Y0003350D02*
X0005160Y0003250D01*
X0006460D01*
X0015935Y0005450D02*
Y0004950D01*
X0005910Y0008325D02*
X0006710D01*
X0011435Y0002275D02*
X0011935D01*
X0010460Y0003875D02*
X0010510Y0003825D01*
X0011435D01*
X0015160Y0005450D02*
Y0004950D01*
X0005460Y0011150D02*
Y0010610D01*
X0005735D01*
X0015810Y0011725D02*
X0016510D01*
X0016785Y0011450D01*
X0002835Y0003350D02*
X0003960D01*
X0004910Y0010600D02*
X0004920Y0010610D01*
X0005735D01*
X0016960Y0012375D02*
Y0011625D01*
X0016785Y0011450D01*
X0007260Y0012350D02*
X0007935D01*
X0012235Y0003825D02*
X0013035D01*
X0016835Y0003775D02*
X0016185Y0003125D01*
X0015560D01*
X0010885Y0011090D02*
X0010320D01*
X0009860Y0011550D01*
X0006260D01*
X0015160Y0005450D02*
X0015935D01*
X0011635Y0007735D02*
X0012370D01*
X0012535Y0007900D01*
X0013235D01*
X0003960Y0004225D02*
Y0003350D01*
X0014835Y0009150D02*
Y0007902D01*
X0014838Y0007900D01*
X0014258Y0007325D01*
X0012185D01*
X0012085Y0007420D01*
X0011635D01*
X0014710Y0012725D02*
X0014335D01*
X0013910Y0012300D01*
Y0011775D01*
X0013560Y0011425D01*
X0012685D01*
X0011585Y0010325D01*
X0011065D01*
Y0010195D01*
X0014385Y0006250D02*
X0010960D01*
X0010750Y0006460D01*
Y0006850D01*
X0006460Y0004550D02*
Y0004050D01*
X0003805Y0007238D02*
X0004372D01*
X0004860Y0006750D01*
X0007135D01*
X0007485Y0006400D01*
X0008185D01*
X0008535Y0006050D01*
X0009290D01*
X0009490Y0006250D01*
Y0006850D01*
X0013035Y0004325D02*
X0013660D01*
Y0004250D01*
X0011560Y0011090D02*
Y0010900D01*
X0011360Y0010700D01*
X0010879D01*
X0010750Y0010575D01*
Y0010195D01*
X0015610Y0013125D02*
X0016160D01*
Y0012375D01*
X0003960Y0005100D02*
Y0004225D01*
X0003805Y0008223D02*
X0004487D01*
X0005260Y0007450D01*
X0007435D01*
X0007810Y0007075D01*
X0008635D01*
X0008860Y0006850D01*
X0004610Y0011150D02*
X0005460D01*
X0006460Y0013150D02*
X0005860D01*
X0005460Y0012750D01*
X0006460Y0012350D02*
X0007260D01*
X0014385Y0006250D02*
X0015160D01*
X0014710Y0012725D02*
X0014585D01*
Y0013275D01*
X0014560Y0013300D01*
X0008735Y0012750D02*
X0009260D01*
X0011435Y0003825D02*
X0012235D01*
X0014385Y0005450D02*
X0015160D01*
Y0004150D02*
Y0002700D01*
X0015010Y0002550D01*
X0014060D01*
X0013585Y0003025D01*
X0013035D01*
X0016860Y0003775D02*
X0016835D01*
X0010060Y0012750D02*
Y0011925D01*
X0010435Y0011550D01*
X0011410D01*
X0011560Y0011400D01*
Y0011090D01*
X0004460Y0012750D02*
X0004610Y0012600D01*
Y0011950D01*
X0014760Y0003125D02*
X0014360D01*
X0014060Y0003425D01*
Y0003450D01*
X0011635Y0009310D02*
X0012345D01*
X0013035Y0010000D01*
X0016235D01*
X0016785Y0009450D01*
X0016160Y0013175D02*
Y0012375D01*
X0002435Y0005275D02*
Y0004750D01*
X0002835Y0004350D01*
X0010435Y0010195D02*
Y0011080D01*
X0010445Y0011090D01*
X0010885D01*
X0003805Y0007731D02*
X0004429D01*
X0005060Y0007100D01*
X0007285D01*
X0007660Y0006725D01*
X0008335D01*
X0008685Y0006375D01*
X0009060D01*
X0009175Y0006490D01*
Y0006850D01*
X0013085Y0013000D02*
X0012135D01*
X0011885Y0012750D01*
X0016835Y0005325D02*
X0016285Y0005875D01*
X0010735D01*
X0010120Y0006490D01*
Y0006850D01*
X0011635Y0008060D02*
Y0008050D01*
X0007410Y0010600D02*
X0007885D01*
X0008135Y0010850D01*
X0009285D01*
X0009490Y0010645D01*
Y0010195D01*
X0015810Y0010925D02*
Y0011125D01*
X0015635Y0011300D01*
X0015210D01*
X0013035Y0010850D02*
Y0010825D01*
X0012760D01*
X0011960Y0010025D01*
X0011485D01*
X0010770Y0009310D02*
X0008290D01*
X0010435Y0006850D02*
Y0007250D01*
X0010560Y0007375D01*
X0011110D01*
X0011485Y0007000D02*
X0016160D01*
X0016835Y0006325D01*
X0010885Y0012750D02*
Y0012010D01*
X0009805Y0006850D02*
Y0006255D01*
X0010510Y0005550D01*
X0012885D01*
X0013035Y0005400D01*
Y0005125D01*
X0006610Y0010600D02*
Y0010900D01*
X0006910Y0011200D01*
X0009535D01*
X0009805Y0010930D01*
Y0010195D01*
X0014835Y0009150D02*
Y0007900D01*
X0016635D01*
X0015935Y0006250D02*
Y0006500D01*
X0015760Y0006675D01*
X0011240D01*
X0011065Y0006850D01*
X0003805Y0010195D02*
X0008290D01*
X0008785Y0009700D02*
X0009960D01*
X0010120Y0009860D01*
Y0010195D01*
X0011635Y0009625D02*
X0012135D01*
X0012835Y0010325D01*
X0016660D01*
X0016785Y0010450D01*
X0003805Y0008715D02*
X0004545D01*
X0005460Y0007800D01*
X0007610D01*
X0007987Y0007420D01*
X0008290D01*
X0016960Y0013175D02*
Y0012375D01*
X0013535Y0009150D02*
Y0008200D01*
X0013235Y0007900D01*
X0003235Y0005275D02*
Y0005425D01*
X0003685Y0005875D01*
X0003885D01*
X0008460Y0004375D02*
X0008135D01*
X0007960Y0004550D01*
X0007260D01*
X0014410Y0010900D02*
X0013885D01*
X0013835Y0010850D01*
X0011560Y0012010D02*
X0011635Y0012075D01*
X0012420D01*
X0012535Y0012200D01*
X0012685D01*
G54D32*
G01X0011485Y0010025D02*
X0010770Y0009310D01*
X0011110Y0007375D02*
X0011485Y0007000D01*
X0008290Y0010195D02*
X0008785Y0009700D01*
G54D34*
G01X0015935Y0004150D02*
Y0004550D01*
X0014460D01*
Y0004250D01*
Y0004725D01*
X0012235D01*
Y0005125D01*
G54D10*
X0004610Y0011950D03*
Y0011150D03*
X0004910Y0009800D03*
Y0010600D03*
X0006460Y0013150D03*
Y0012350D03*
X0007260D03*
Y0013150D03*
X0007410Y0010600D03*
Y0009800D03*
X0006610Y0010600D03*
Y0009800D03*
X0012235Y0004325D03*
Y0005125D03*
X0003885Y0005875D03*
Y0006675D03*
X0014385Y0005450D03*
Y0006250D03*
X0006460Y0004550D03*
Y0005350D03*
X0012235Y0003825D03*
Y0003025D03*
X0013035D03*
Y0003825D03*
X0015160Y0005450D03*
Y0006250D03*
X0015935Y0005450D03*
Y0006250D03*
X0013035Y0004325D03*
Y0005125D03*
X0015810Y0010925D03*
Y0011725D03*
X0011435Y0004325D03*
Y0005125D03*
Y0003825D03*
Y0003025D03*
X0005910Y0008325D03*
Y0009125D03*
X0007260Y0004050D03*
Y0003250D03*
Y0004550D03*
Y0005350D03*
X0006460Y0003250D03*
Y0004050D03*
X0015935Y0004950D03*
Y0004150D03*
X0015160D03*
Y0004950D03*
X0006710Y0008325D03*
Y0009125D03*
X0003285Y0001450D03*
Y0000650D03*
X0002460Y0001450D03*
Y0000650D03*
X0007385Y0001575D03*
Y0002375D03*
X0011435Y0001475D03*
Y0002275D03*
X0012235Y0001475D03*
Y0002275D03*
Y0000975D03*
Y0000175D03*
G54D11*
X0005060Y0003350D03*
X0003960D03*
X0005060Y0005100D03*
X0003960D03*
X0005060Y0004225D03*
X0003960D03*
G54D12*
X0009260Y0012750D03*
X0010060D03*
X0015560Y0003125D03*
X0014760D03*
X0013835Y0010850D03*
X0013035D03*
X0014560Y0013300D03*
X0013760D03*
X0016160Y0012375D03*
X0016960D03*
X0013535Y0009150D03*
X0014335D03*
X0014835D03*
X0015635D03*
X0002435Y0005275D03*
X0003235D03*
X0016160Y0013175D03*
X0016960D03*
G54D13*
X0005735Y0009690D03*
Y0010610D03*
X0010885Y0011090D03*
Y0012010D03*
X0011560D03*
Y0011090D03*
G54D14*
X0003805Y0007238D03*
Y0007731D03*
Y0008223D03*
Y0008715D03*
Y0009207D03*
Y0009699D03*
Y0010195D03*
Y0010683D03*
G54D15*
X0002585Y0006235D03*
Y0011687D03*
G54D16*
X0003485Y0012750D03*
X0004460D03*
X0005460D03*
X0002835Y0004350D03*
X0011885Y0012750D03*
X0010885D03*
X0002835Y0002350D03*
Y0003350D03*
X0016835Y0005325D03*
Y0006325D03*
X0016785Y0009450D03*
Y0010450D03*
Y0011450D03*
X0016835Y0003775D03*
Y0002775D03*
Y0000775D03*
Y0001775D03*
G54D17*
X0006260Y0011550D03*
X0005460Y0011150D03*
Y0011950D03*
X0007935Y0012350D03*
X0008735Y0012750D03*
Y0011950D03*
X0015210Y0011300D03*
X0014410Y0010900D03*
Y0011700D03*
X0014710Y0012725D03*
X0015610Y0013125D03*
Y0012325D03*
G54D18*
X0013085Y0013000D03*
X0013485Y0012200D03*
X0012685D03*
X0014060Y0003450D03*
X0013660Y0004250D03*
X0014460D03*
G54D19*
X0004260Y0001575D03*
X0008360D03*
G54D20*
X0006360Y0002475D03*
Y0001575D03*
Y0000675D03*
X0010460Y0002475D03*
Y0001575D03*
Y0000675D03*
G54D21*
X0011065Y0006850D03*
X0010435D03*
X0010120D03*
X0009805D03*
X0009490D03*
X0009175D03*
X0008860D03*
Y0010195D03*
X0009175D03*
X0009490D03*
X0009805D03*
X0010120D03*
X0010750D03*
X0011065D03*
G54D22*
X0010750Y0006850D03*
X0010435Y0010195D03*
G54D23*
X0011635Y0009310D03*
Y0008995D03*
Y0008680D03*
Y0008365D03*
Y0008050D03*
Y0007735D03*
Y0007420D03*
X0008290D03*
Y0007735D03*
Y0008050D03*
Y0008680D03*
Y0008995D03*
Y0009310D03*
Y0009625D03*
G54D24*
Y0008365D03*
G54D25*
X0011635Y0009625D03*
G54D26*
X0010460Y0004875D03*
Y0004375D03*
Y0003875D03*
Y0003375D03*
X0008460D03*
Y0003875D03*
Y0004375D03*
Y0004875D03*
G54D27*
X0013235Y0007900D03*
X0016635D03*
G54D28*
X0012215Y0011595D03*
G54D33*
X0007405Y0009640D03*
Y0005900D03*
X0012255Y0008560D03*
M02*
