G75*
G71*
%OFA0B0*%
%FSLAX24Y24*%
%IPPOS*%
%LPD*%
%AMOC8*
5,1,8,0,0,1.08239X$1,22.5*
%
%ADD10C,1.3080*%
%ADD11C,1.6002*%
%ADD12C,1.6764*%
%ADD13C,1.4224*%
%ADD14O,3.0160X1.5080*%
%ADD15C,2.5400*%
%ADD16C,0.3048*%
%ADD17C,1.0160*%
%ADD18C,1.2064*%
%ADD19C,0.6096*%
D10*
X064520Y146193D03*
X064520Y171593D03*
X086745Y171593D03*
X112145Y171593D03*
X137545Y171593D03*
X143895Y196995D03*
X118495Y196995D03*
X181995Y235094D03*
X181995Y260494D03*
X181995Y285894D03*
X220095Y298594D03*
X245495Y298594D03*
X270895Y298594D03*
X201045Y317644D03*
X175645Y317644D03*
X153420Y317644D03*
X128020Y317644D03*
X102620Y317644D03*
X112145Y292244D03*
X112145Y266844D03*
X188345Y203344D03*
X188345Y177944D03*
X188345Y152544D03*
X296295Y158894D03*
X321695Y158894D03*
X347095Y158894D03*
X372495Y158894D03*
X397895Y158894D03*
X423295Y158894D03*
X448695Y158894D03*
X474095Y158894D03*
X499495Y158894D03*
X524895Y158894D03*
X550295Y158894D03*
X575695Y158894D03*
X601095Y158894D03*
X626495Y158894D03*
X651895Y158894D03*
X651895Y133494D03*
X651895Y108094D03*
X702695Y196994D03*
X728095Y196994D03*
X753495Y196994D03*
X778895Y196994D03*
X778895Y273194D03*
X753495Y273194D03*
X728095Y273194D03*
X702695Y273194D03*
X626495Y235094D03*
X601095Y235094D03*
X575695Y235094D03*
X550295Y235094D03*
X524895Y235094D03*
X499495Y235094D03*
X474095Y235094D03*
X448695Y235094D03*
X423295Y235094D03*
X397895Y235094D03*
X372495Y235094D03*
X347095Y235094D03*
X321695Y235094D03*
X296295Y235094D03*
X353445Y311294D03*
X353445Y336694D03*
X353445Y362094D03*
X475365Y273194D03*
X523625Y273194D03*
D11*
X423295Y323994D03*
X397895Y323994D03*
X518545Y400194D03*
X543945Y400194D03*
X518545Y444644D03*
X518545Y470044D03*
D12*
X575695Y482744D03*
X575695Y450994D03*
X575695Y419244D03*
X575695Y374794D03*
X709045Y146194D03*
X709045Y120794D03*
X632845Y069994D03*
X607445Y069994D03*
X582045Y069994D03*
X556645Y069994D03*
X531245Y069994D03*
X505845Y069994D03*
X480445Y069994D03*
X429645Y069994D03*
X404245Y069994D03*
X378845Y069994D03*
X353445Y069994D03*
X328045Y069994D03*
X302646Y076344D03*
X277246Y076344D03*
X251845Y076344D03*
X226445Y076344D03*
X302646Y101744D03*
X328045Y095394D03*
X353445Y095394D03*
X378845Y095394D03*
X404245Y095394D03*
X429645Y095394D03*
X397895Y133494D03*
X372495Y133494D03*
X347095Y133494D03*
X064521Y114444D03*
X064521Y082694D03*
X064521Y209694D03*
X064521Y235094D03*
X064521Y260494D03*
X064520Y304944D03*
X064520Y336694D03*
X753496Y063644D03*
X778896Y063644D03*
X810645Y063644D03*
X810645Y089044D03*
D13*
X763020Y090632D03*
X737620Y090632D03*
X620145Y114444D03*
X588395Y108094D03*
X562995Y108094D03*
X531245Y108093D03*
X505845Y108093D03*
X486795Y136669D03*
X461395Y136669D03*
X315345Y130319D03*
X239145Y130319D03*
X232795Y165244D03*
X232795Y190644D03*
X239145Y228744D03*
X213745Y228744D03*
X213745Y260494D03*
X239145Y260494D03*
X277245Y266844D03*
X302645Y266844D03*
X296295Y311294D03*
X296295Y336694D03*
X382020Y285894D03*
X382020Y260494D03*
X461395Y311294D03*
X486795Y311294D03*
X512195Y311294D03*
X537595Y311294D03*
X562995Y311294D03*
X588395Y311294D03*
X612207Y311294D03*
X637607Y311294D03*
X661420Y317644D03*
X683645Y327169D03*
X683645Y301769D03*
X661420Y292244D03*
X620145Y285894D03*
X594745Y285894D03*
X569345Y285894D03*
X569345Y260494D03*
X594745Y260494D03*
X620145Y260494D03*
X667770Y257319D03*
X667770Y231919D03*
X667770Y206519D03*
X683646Y173182D03*
X709046Y173182D03*
X620145Y139844D03*
X810645Y196994D03*
X810645Y222394D03*
X810645Y247794D03*
X810645Y273194D03*
X810645Y292244D03*
X778895Y301769D03*
X753495Y301769D03*
X731269Y301770D03*
X705869Y301770D03*
X721745Y328757D03*
X747145Y328757D03*
X772545Y328757D03*
X810645Y317644D03*
X810645Y343044D03*
X632845Y339869D03*
X607445Y339869D03*
X575695Y339869D03*
X550295Y339869D03*
X524895Y339869D03*
X486795Y336694D03*
X455045Y336694D03*
X455045Y362094D03*
X423295Y362095D03*
X397895Y362095D03*
X486795Y362094D03*
X162945Y171594D03*
X162945Y146194D03*
X143895Y222394D03*
X118495Y222394D03*
X099445Y222394D03*
X099445Y247794D03*
X137545Y260493D03*
X137545Y285893D03*
D14*
X480445Y419244D03*
X480445Y444644D03*
X480445Y470044D03*
D15*
X747145Y143019D03*
X797945Y143019D03*
D16*
X172406Y056531D02*
X050283Y056531D01*
X050283Y350356D01*
X292010Y350356D01*
X295283Y353629D01*
X295283Y358258D01*
X295283Y495356D01*
X589108Y495356D01*
X589108Y353629D01*
X592381Y350356D01*
X597010Y350356D01*
X604891Y350356D01*
X601403Y348912D01*
X598402Y345911D01*
X596778Y341991D01*
X596778Y337746D01*
X598402Y333826D01*
X601403Y330825D01*
X605323Y329201D01*
X609568Y329201D01*
X613488Y330825D01*
X616489Y333826D01*
X618113Y337746D01*
X618113Y341991D01*
X616489Y345911D01*
X613488Y348912D01*
X610000Y350356D01*
X630291Y350356D01*
X626803Y348912D01*
X623802Y345911D01*
X622178Y341991D01*
X622178Y337746D01*
X623802Y333826D01*
X626803Y330825D01*
X630723Y329201D01*
X634968Y329201D01*
X638888Y330825D01*
X641889Y333826D01*
X643513Y337746D01*
X643513Y341991D01*
X641889Y345911D01*
X638888Y348912D01*
X635400Y350356D01*
X802154Y350356D01*
X801171Y349374D01*
X799470Y345267D01*
X799470Y343520D01*
X810163Y343520D01*
X810163Y342566D01*
X799470Y342566D01*
X799470Y340820D01*
X801171Y336713D01*
X804315Y333569D01*
X808422Y331868D01*
X810169Y331868D01*
X810169Y342561D01*
X811123Y342561D01*
X811123Y331868D01*
X812869Y331868D01*
X816976Y333569D01*
X820120Y336713D01*
X821821Y340820D01*
X821821Y342566D01*
X811128Y342566D01*
X811128Y343520D01*
X821821Y343520D01*
X821821Y345267D01*
X820120Y349374D01*
X819137Y350356D01*
X824108Y350356D01*
X824108Y056531D01*
X821133Y056531D01*
X821196Y056593D01*
X823091Y061168D01*
X823091Y062666D01*
X811628Y062666D01*
X811628Y064620D01*
X823091Y064620D01*
X823091Y066119D01*
X821196Y070694D01*
X817696Y074194D01*
X813121Y076089D01*
X811623Y076089D01*
X811623Y064626D01*
X809669Y064626D01*
X809669Y076089D01*
X808170Y076089D01*
X803595Y074194D01*
X800095Y070694D01*
X798200Y066119D01*
X798200Y064620D01*
X809663Y064620D01*
X809663Y062666D01*
X798200Y062666D01*
X798200Y061168D01*
X800095Y056593D01*
X800158Y056531D01*
X788666Y056531D01*
X789017Y056881D01*
X790834Y061269D01*
X790834Y066018D01*
X789017Y070406D01*
X785659Y073764D01*
X781271Y075581D01*
X776522Y075581D01*
X772134Y073764D01*
X768776Y070406D01*
X766959Y066018D01*
X766959Y061269D01*
X768776Y056881D01*
X769127Y056531D01*
X763266Y056531D01*
X763617Y056881D01*
X765434Y061269D01*
X765434Y066018D01*
X763617Y070406D01*
X760259Y073764D01*
X755871Y075581D01*
X751122Y075581D01*
X746734Y073764D01*
X743376Y070406D01*
X741559Y066018D01*
X741559Y061269D01*
X743376Y056881D01*
X743727Y056531D01*
X707585Y056531D01*
X709058Y057140D01*
X714849Y062931D01*
X717983Y070498D01*
X717983Y078689D01*
X714849Y086256D01*
X709058Y092047D01*
X701491Y095181D01*
X693300Y095181D01*
X685733Y092047D01*
X679942Y086256D01*
X676808Y078689D01*
X676808Y070498D01*
X679942Y062931D01*
X685733Y057140D01*
X687206Y056531D01*
X192785Y056531D01*
X194258Y057140D01*
X200049Y062931D01*
X203183Y070498D01*
X203183Y078689D01*
X200049Y086256D01*
X194258Y092047D01*
X186691Y095181D01*
X178500Y095181D01*
X170933Y092047D01*
X165142Y086256D01*
X162008Y078689D01*
X162008Y070498D01*
X165142Y062931D01*
X170933Y057140D01*
X172406Y056531D01*
X171180Y057038D02*
X050283Y057038D01*
X050283Y060085D02*
X167988Y060085D01*
X165059Y063132D02*
X050283Y063132D01*
X050283Y066179D02*
X163797Y066179D01*
X162535Y069226D02*
X050283Y069226D01*
X050283Y072273D02*
X058484Y072273D01*
X057759Y072573D02*
X054401Y075931D01*
X052584Y080319D01*
X052584Y085068D01*
X054401Y089456D01*
X057759Y092814D01*
X062147Y094631D01*
X066896Y094631D01*
X071284Y092814D01*
X074642Y089456D01*
X076459Y085068D01*
X076459Y080319D01*
X074642Y075931D01*
X071284Y072573D01*
X066896Y070756D01*
X062147Y070756D01*
X057759Y072573D01*
X055012Y075320D02*
X050283Y075320D01*
X050283Y078367D02*
X053393Y078367D01*
X052584Y081414D02*
X050283Y081414D01*
X050283Y084461D02*
X052584Y084461D01*
X053594Y087508D02*
X050283Y087508D01*
X050283Y090555D02*
X055500Y090555D01*
X059661Y093602D02*
X050283Y093602D01*
X050283Y096649D02*
X239568Y096649D01*
X242615Y099696D02*
X050283Y099696D01*
X050283Y102743D02*
X061575Y102743D01*
X062147Y102506D02*
X057759Y104323D01*
X054401Y107681D01*
X052584Y112069D01*
X052584Y116818D01*
X054401Y121206D01*
X057759Y124564D01*
X062147Y126381D01*
X066896Y126381D01*
X071284Y124564D01*
X074642Y121206D01*
X076459Y116818D01*
X076459Y112069D01*
X074642Y107681D01*
X071284Y104323D01*
X066896Y102506D01*
X062147Y102506D01*
X067469Y102743D02*
X245662Y102743D01*
X246766Y103847D02*
X246766Y122854D01*
X245188Y121275D01*
X241268Y119651D01*
X237023Y119651D01*
X233103Y121275D01*
X230102Y124276D01*
X228478Y128196D01*
X228478Y132441D01*
X230102Y136361D01*
X233103Y139362D01*
X237023Y140986D01*
X241268Y140986D01*
X245188Y139362D01*
X246766Y137783D01*
X246766Y169490D01*
X235881Y180375D01*
X234918Y179976D01*
X230673Y179976D01*
X226753Y181600D01*
X223752Y184601D01*
X222128Y188521D01*
X222128Y192766D01*
X223752Y196686D01*
X226753Y199687D01*
X230673Y201311D01*
X234918Y201311D01*
X238838Y199687D01*
X241839Y196686D01*
X243463Y192766D01*
X243463Y188521D01*
X243064Y187558D01*
X256925Y173697D01*
X256925Y169490D01*
X256925Y110856D01*
X259114Y113046D01*
X262638Y114506D01*
X266453Y114506D01*
X269977Y113046D01*
X272673Y110350D01*
X272819Y109998D01*
X273555Y109998D01*
X280103Y116546D01*
X280103Y116547D01*
X283079Y119523D01*
X361899Y119523D01*
X364875Y116547D01*
X364875Y116546D01*
X374788Y106634D01*
X376471Y107331D01*
X381220Y107331D01*
X385608Y105514D01*
X388966Y102156D01*
X390783Y097768D01*
X390783Y093019D01*
X388966Y088631D01*
X385608Y085273D01*
X381220Y083456D01*
X376471Y083456D01*
X372083Y085273D01*
X368725Y088631D01*
X366908Y093019D01*
X366908Y097768D01*
X367605Y099451D01*
X357693Y109364D01*
X311908Y109364D01*
X312767Y108506D01*
X314584Y104118D01*
X314584Y099369D01*
X312767Y094981D01*
X309409Y091623D01*
X305021Y089806D01*
X300272Y089806D01*
X295884Y091623D01*
X292526Y094981D01*
X290709Y099369D01*
X290709Y104118D01*
X292526Y108506D01*
X293385Y109364D01*
X287285Y109364D01*
X280737Y102816D01*
X280737Y102815D01*
X277761Y099839D01*
X272819Y099839D01*
X272673Y099487D01*
X269977Y096791D01*
X266453Y095331D01*
X262638Y095331D01*
X259114Y096791D01*
X256595Y099311D01*
X253949Y096664D01*
X237685Y080401D01*
X238383Y078718D01*
X238383Y073969D01*
X236566Y069581D01*
X233208Y066223D01*
X228820Y064406D01*
X224071Y064406D01*
X219683Y066223D01*
X216325Y069581D01*
X214508Y073969D01*
X214508Y078718D01*
X216325Y083106D01*
X219683Y086464D01*
X224071Y088281D01*
X228820Y088281D01*
X230503Y087583D01*
X246766Y103847D01*
X246766Y105790D02*
X072751Y105790D01*
X075121Y108837D02*
X246766Y108837D01*
X246766Y111884D02*
X166490Y111884D01*
X164853Y111206D02*
X161038Y111206D01*
X157514Y112666D01*
X154818Y115362D01*
X153358Y118886D01*
X153358Y122701D01*
X154818Y126225D01*
X157514Y128921D01*
X157866Y129067D01*
X157866Y136751D01*
X156903Y137150D01*
X153902Y140151D01*
X152278Y144071D01*
X152278Y148316D01*
X153902Y152236D01*
X156903Y155237D01*
X160823Y156861D01*
X165068Y156861D01*
X168988Y155237D01*
X171989Y152236D01*
X173613Y148316D01*
X173613Y144071D01*
X171989Y140151D01*
X168988Y137150D01*
X168025Y136751D01*
X168025Y129067D01*
X168377Y128921D01*
X171073Y126225D01*
X172533Y122701D01*
X172533Y118886D01*
X171073Y115362D01*
X168377Y112666D01*
X164853Y111206D01*
X159402Y111884D02*
X076383Y111884D01*
X076459Y114931D02*
X155249Y114931D01*
X153735Y117978D02*
X075978Y117978D01*
X074716Y121025D02*
X153358Y121025D01*
X153926Y124072D02*
X071776Y124072D01*
X066923Y136260D02*
X157866Y136260D01*
X157866Y133213D02*
X050283Y133213D01*
X050283Y136260D02*
X062119Y136260D01*
X062512Y136097D02*
X058802Y137634D01*
X055962Y140474D01*
X054425Y144184D01*
X054425Y148201D01*
X055962Y151911D01*
X058802Y154751D01*
X062512Y156288D01*
X066529Y156288D01*
X070239Y154751D01*
X073079Y151911D01*
X074616Y148201D01*
X074616Y144184D01*
X073079Y140474D01*
X070239Y137634D01*
X066529Y136097D01*
X062512Y136097D01*
X057129Y139307D02*
X050283Y139307D01*
X050283Y142354D02*
X055184Y142354D01*
X054425Y145401D02*
X050283Y145401D01*
X050283Y148448D02*
X054527Y148448D01*
X055789Y151495D02*
X050283Y151495D01*
X050283Y154542D02*
X058593Y154542D01*
X062512Y161497D02*
X058802Y163034D01*
X055962Y165874D01*
X054425Y169584D01*
X054425Y173601D01*
X055962Y177311D01*
X058802Y180151D01*
X062512Y181688D01*
X066529Y181688D01*
X070239Y180151D01*
X073079Y177311D01*
X074616Y173601D01*
X074616Y169584D01*
X073079Y165874D01*
X070239Y163034D01*
X066529Y161497D01*
X062512Y161497D01*
X058153Y163683D02*
X050283Y163683D01*
X050283Y160636D02*
X182161Y160636D01*
X182627Y161102D02*
X186337Y162639D01*
X190354Y162639D01*
X194064Y161102D01*
X196904Y158262D01*
X198441Y154552D01*
X198441Y150535D01*
X196904Y146825D01*
X194064Y143985D01*
X190354Y142448D01*
X186337Y142448D01*
X182627Y143985D01*
X179787Y146825D01*
X178250Y150535D01*
X178250Y154552D01*
X179787Y158262D01*
X182627Y161102D01*
X179508Y157589D02*
X050283Y157589D01*
X050283Y166730D02*
X055608Y166730D01*
X054425Y169777D02*
X050283Y169777D01*
X050283Y172824D02*
X054425Y172824D01*
X055365Y175871D02*
X050283Y175871D01*
X050283Y178918D02*
X057569Y178918D01*
X050283Y181965D02*
X134878Y181965D01*
X135436Y182196D02*
X137069Y182196D01*
X137069Y172075D01*
X138023Y172075D01*
X138023Y182196D01*
X139655Y182196D01*
X143552Y180582D01*
X146535Y177599D01*
X148149Y173702D01*
X148149Y172069D01*
X138028Y172069D01*
X138028Y171115D01*
X148149Y171115D01*
X148149Y169483D01*
X146535Y165586D01*
X143552Y162603D01*
X139655Y160989D01*
X138023Y160989D01*
X138023Y171110D01*
X137069Y171110D01*
X137069Y160989D01*
X135436Y160989D01*
X131539Y162603D01*
X128556Y165586D01*
X126942Y169483D01*
X126942Y171115D01*
X137063Y171115D01*
X137063Y172069D01*
X126942Y172069D01*
X126942Y173702D01*
X128556Y177599D01*
X131539Y180582D01*
X135436Y182196D01*
X137069Y181965D02*
X138023Y181965D01*
X140212Y181965D02*
X160108Y181965D01*
X160823Y182261D02*
X165068Y182261D01*
X168988Y180637D01*
X171989Y177636D01*
X173613Y173716D01*
X173613Y169471D01*
X171989Y165551D01*
X168988Y162550D01*
X165068Y160926D01*
X160823Y160926D01*
X156903Y162550D01*
X153902Y165551D01*
X152278Y169471D01*
X152278Y173716D01*
X153902Y177636D01*
X156903Y180637D01*
X160823Y182261D01*
X165782Y181965D02*
X179083Y181965D01*
X179787Y183662D02*
X182627Y186502D01*
X186337Y188039D01*
X190354Y188039D01*
X194064Y186502D01*
X196904Y183662D01*
X198441Y179952D01*
X198441Y175935D01*
X196904Y172225D01*
X194064Y169385D01*
X190354Y167848D01*
X186337Y167848D01*
X182627Y169385D01*
X179787Y172225D01*
X178250Y175935D01*
X178250Y179952D01*
X179787Y183662D01*
X181137Y185012D02*
X050283Y185012D01*
X050283Y188059D02*
X113687Y188059D01*
X112777Y188436D02*
X109937Y191276D01*
X108400Y194986D01*
X108400Y199003D01*
X109937Y202713D01*
X112777Y205553D01*
X116487Y207090D01*
X120504Y207090D01*
X124214Y205553D01*
X127054Y202713D01*
X128591Y199003D01*
X128591Y194986D01*
X127054Y191276D01*
X124214Y188436D01*
X120504Y186899D01*
X116487Y186899D01*
X112777Y188436D01*
X110107Y191106D02*
X050283Y191106D01*
X050283Y194153D02*
X108746Y194153D01*
X108400Y197200D02*
X050283Y197200D01*
X050283Y200247D02*
X056367Y200247D01*
X057471Y199143D02*
X053971Y202643D01*
X052076Y207218D01*
X052076Y208716D01*
X063539Y208716D01*
X063539Y210670D01*
X052076Y210670D01*
X052076Y212169D01*
X053971Y216744D01*
X057471Y220244D01*
X062046Y222139D01*
X063545Y222139D01*
X063545Y210676D01*
X065499Y210676D01*
X065499Y222139D01*
X066997Y222139D01*
X071572Y220244D01*
X075072Y216744D01*
X076967Y212169D01*
X076967Y210670D01*
X065504Y210670D01*
X065504Y208716D01*
X076967Y208716D01*
X076967Y207218D01*
X075072Y202643D01*
X071572Y199143D01*
X066997Y197248D01*
X065499Y197248D01*
X065499Y208711D01*
X063545Y208711D01*
X063545Y197248D01*
X062046Y197248D01*
X057471Y199143D01*
X053702Y203294D02*
X050283Y203294D01*
X050283Y206341D02*
X052440Y206341D01*
X050283Y209388D02*
X063539Y209388D01*
X064521Y209694D02*
X143895Y209694D01*
X143895Y222394D01*
X169295Y222394D01*
X169295Y235094D01*
X169295Y247794D01*
X201045Y247794D01*
X201045Y203344D01*
X188345Y203344D01*
X187863Y203294D02*
X152592Y203294D01*
X152885Y203001D02*
X154499Y199104D01*
X154499Y197471D01*
X144378Y197471D01*
X144378Y196517D01*
X154499Y196517D01*
X154499Y194885D01*
X152885Y190988D01*
X149902Y188005D01*
X146005Y186391D01*
X144373Y186391D01*
X144373Y196512D01*
X143419Y196512D01*
X143419Y186391D01*
X141786Y186391D01*
X137889Y188005D01*
X134906Y190988D01*
X133292Y194885D01*
X133292Y196517D01*
X143413Y196517D01*
X143413Y197471D01*
X133292Y197471D01*
X133292Y199104D01*
X134906Y203001D01*
X137889Y205984D01*
X141786Y207598D01*
X143419Y207598D01*
X143419Y197477D01*
X144373Y197477D01*
X144373Y207598D01*
X146005Y207598D01*
X149902Y205984D01*
X152885Y203001D01*
X154025Y200247D02*
X178151Y200247D01*
X177742Y201234D02*
X177742Y202866D01*
X187863Y202866D01*
X187863Y203820D01*
X177742Y203820D01*
X177742Y205453D01*
X179356Y209350D01*
X182339Y212333D01*
X186236Y213947D01*
X187869Y213947D01*
X187869Y203826D01*
X188823Y203826D01*
X188823Y213947D01*
X190455Y213947D01*
X194352Y212333D01*
X197335Y209350D01*
X198949Y205453D01*
X198949Y203820D01*
X188828Y203820D01*
X188828Y202866D01*
X198949Y202866D01*
X198949Y201234D01*
X197335Y197337D01*
X194352Y194354D01*
X190455Y192740D01*
X188823Y192740D01*
X188823Y202861D01*
X187869Y202861D01*
X187869Y192740D01*
X186236Y192740D01*
X182339Y194354D01*
X179356Y197337D01*
X177742Y201234D01*
X179493Y197200D02*
X144378Y197200D01*
X143895Y196995D02*
X143895Y184294D01*
X137545Y184294D01*
X137545Y171593D01*
X137069Y172824D02*
X138023Y172824D01*
X138023Y169777D02*
X137069Y169777D01*
X137069Y166730D02*
X138023Y166730D01*
X138023Y163683D02*
X137069Y163683D01*
X130459Y163683D02*
X118513Y163683D01*
X117864Y163034D02*
X114154Y161497D01*
X110137Y161497D01*
X106427Y163034D01*
X103587Y165874D01*
X102050Y169584D01*
X102050Y173601D01*
X103587Y177311D01*
X106427Y180151D01*
X110137Y181688D01*
X114154Y181688D01*
X117864Y180151D01*
X120704Y177311D01*
X122241Y173601D01*
X122241Y169584D01*
X120704Y165874D01*
X117864Y163034D01*
X121059Y166730D02*
X128083Y166730D01*
X126942Y169777D02*
X122241Y169777D01*
X122241Y172824D02*
X126942Y172824D01*
X127840Y175871D02*
X121300Y175871D01*
X119097Y178918D02*
X129875Y178918D01*
X137069Y178918D02*
X138023Y178918D01*
X138023Y175871D02*
X137069Y175871D01*
X145216Y178918D02*
X155184Y178918D01*
X153170Y175871D02*
X147250Y175871D01*
X148149Y172824D02*
X152278Y172824D01*
X152278Y169777D02*
X148149Y169777D01*
X147009Y166730D02*
X153414Y166730D01*
X155770Y163683D02*
X144632Y163683D01*
X156208Y154542D02*
X070448Y154542D01*
X073251Y151495D02*
X153595Y151495D01*
X152332Y148448D02*
X074513Y148448D01*
X074616Y145401D02*
X152278Y145401D01*
X152990Y142354D02*
X073858Y142354D01*
X071912Y139307D02*
X154746Y139307D01*
X162945Y146194D02*
X162945Y120794D01*
X172533Y121025D02*
X233707Y121025D01*
X230306Y124072D02*
X171964Y124072D01*
X170179Y127119D02*
X228925Y127119D01*
X228478Y130166D02*
X168025Y130166D01*
X168025Y133213D02*
X228797Y133213D01*
X230060Y136260D02*
X168025Y136260D01*
X171145Y139307D02*
X233048Y139307D01*
X245242Y139307D02*
X246766Y139307D01*
X246766Y142354D02*
X172902Y142354D01*
X173613Y145401D02*
X181211Y145401D01*
X179115Y148448D02*
X173558Y148448D01*
X172295Y151495D02*
X178250Y151495D01*
X178250Y154542D02*
X169683Y154542D01*
X170121Y163683D02*
X222128Y163683D01*
X222128Y163121D02*
X222128Y167366D01*
X223752Y171286D01*
X226753Y174287D01*
X230673Y175911D01*
X234918Y175911D01*
X238838Y174287D01*
X241839Y171286D01*
X243463Y167366D01*
X243463Y163121D01*
X241839Y159201D01*
X238838Y156200D01*
X234918Y154576D01*
X230673Y154576D01*
X226753Y156200D01*
X223752Y159201D01*
X222128Y163121D01*
X223158Y160636D02*
X194530Y160636D01*
X197182Y157589D02*
X225364Y157589D01*
X222128Y166730D02*
X172478Y166730D01*
X173613Y169777D02*
X182235Y169777D01*
X179539Y172824D02*
X173613Y172824D01*
X172720Y175871D02*
X178277Y175871D01*
X178250Y178918D02*
X170707Y178918D01*
X152934Y191106D02*
X222128Y191106D01*
X222320Y188059D02*
X149956Y188059D01*
X144373Y188059D02*
X143419Y188059D01*
X143419Y191106D02*
X144373Y191106D01*
X144373Y194153D02*
X143419Y194153D01*
X143895Y196994D02*
X143894Y196995D01*
X143894Y209695D01*
X143895Y209694D01*
X143419Y211218D02*
X141672Y211218D01*
X137565Y212919D01*
X134421Y216063D01*
X132720Y220170D01*
X132720Y221916D01*
X143413Y221916D01*
X143413Y222870D01*
X132720Y222870D01*
X132720Y224617D01*
X134421Y228724D01*
X137565Y231868D01*
X141672Y233569D01*
X143419Y233569D01*
X143419Y222876D01*
X144373Y222876D01*
X144373Y233569D01*
X146119Y233569D01*
X150226Y231868D01*
X153370Y228724D01*
X155071Y224617D01*
X155071Y222870D01*
X144378Y222870D01*
X144378Y221916D01*
X155071Y221916D01*
X155071Y220170D01*
X153370Y216063D01*
X150226Y212919D01*
X146119Y211218D01*
X144373Y211218D01*
X144373Y221911D01*
X143419Y221911D01*
X143419Y211218D01*
X143419Y212435D02*
X144373Y212435D01*
X144373Y215482D02*
X143419Y215482D01*
X143419Y218529D02*
X144373Y218529D01*
X144373Y221576D02*
X143419Y221576D01*
X143419Y224623D02*
X144373Y224623D01*
X144373Y227670D02*
X143419Y227670D01*
X143419Y230717D02*
X144373Y230717D01*
X151377Y230717D02*
X172331Y230717D01*
X173006Y229087D02*
X171392Y232984D01*
X171392Y234616D01*
X181513Y234616D01*
X181513Y235570D01*
X171392Y235570D01*
X171392Y237203D01*
X173006Y241100D01*
X175989Y244083D01*
X179886Y245697D01*
X181519Y245697D01*
X181519Y235576D01*
X182473Y235576D01*
X182473Y245697D01*
X184105Y245697D01*
X188002Y244083D01*
X190985Y241100D01*
X192599Y237203D01*
X192599Y235570D01*
X182478Y235570D01*
X182478Y234616D01*
X192599Y234616D01*
X192599Y232984D01*
X190985Y229087D01*
X188002Y226104D01*
X184105Y224490D01*
X182473Y224490D01*
X182473Y234611D01*
X181519Y234611D01*
X181519Y224490D01*
X179886Y224490D01*
X175989Y226104D01*
X173006Y229087D01*
X174423Y227670D02*
X153806Y227670D01*
X155068Y224623D02*
X179565Y224623D01*
X181519Y224623D02*
X182473Y224623D01*
X184427Y224623D02*
X203906Y224623D01*
X204702Y222701D02*
X203078Y226621D01*
X203078Y230866D01*
X204702Y234786D01*
X207703Y237787D01*
X211623Y239411D01*
X215868Y239411D01*
X219788Y237787D01*
X222789Y234786D01*
X224413Y230866D01*
X224413Y226621D01*
X222789Y222701D01*
X219788Y219700D01*
X215868Y218076D01*
X211623Y218076D01*
X207703Y219700D01*
X204702Y222701D01*
X205827Y221576D02*
X155071Y221576D01*
X154392Y218529D02*
X210530Y218529D01*
X216962Y218529D02*
X235930Y218529D01*
X237023Y218076D02*
X233103Y219700D01*
X230102Y222701D01*
X228478Y226621D01*
X228478Y230866D01*
X230102Y234786D01*
X233103Y237787D01*
X237023Y239411D01*
X241268Y239411D01*
X245188Y237787D01*
X248189Y234786D01*
X249813Y230866D01*
X249813Y226621D01*
X248189Y222701D01*
X245188Y219700D01*
X241268Y218076D01*
X237023Y218076D01*
X242362Y218529D02*
X360671Y218529D01*
X363718Y215482D02*
X152789Y215482D01*
X149058Y212435D02*
X182585Y212435D01*
X179394Y209388D02*
X065504Y209388D01*
X065499Y212435D02*
X063545Y212435D01*
X063545Y215482D02*
X065499Y215482D01*
X065499Y218529D02*
X063545Y218529D01*
X063545Y221576D02*
X065499Y221576D01*
X066896Y223156D02*
X062147Y223156D01*
X057759Y224973D01*
X054401Y228331D01*
X052584Y232719D01*
X052584Y237468D01*
X054401Y241856D01*
X057759Y245214D01*
X062147Y247031D01*
X066896Y247031D01*
X071284Y245214D01*
X074642Y241856D01*
X076459Y237468D01*
X076459Y232719D01*
X074642Y228331D01*
X071284Y224973D01*
X066896Y223156D01*
X068356Y221576D02*
X088778Y221576D01*
X088778Y220271D02*
X088778Y224516D01*
X090402Y228436D01*
X093403Y231437D01*
X097323Y233061D01*
X101568Y233061D01*
X105488Y231437D01*
X108489Y228436D01*
X108971Y227272D01*
X109452Y228436D01*
X112453Y231437D01*
X116373Y233061D01*
X120618Y233061D01*
X124538Y231437D01*
X127539Y228436D01*
X129163Y224516D01*
X129163Y220271D01*
X127539Y216351D01*
X124538Y213350D01*
X120618Y211726D01*
X116373Y211726D01*
X112453Y213350D01*
X109452Y216351D01*
X108971Y217515D01*
X108489Y216351D01*
X105488Y213350D01*
X101568Y211726D01*
X097323Y211726D01*
X093403Y213350D01*
X090402Y216351D01*
X088778Y220271D01*
X089500Y218529D02*
X073287Y218529D01*
X075594Y215482D02*
X091271Y215482D01*
X095612Y212435D02*
X076856Y212435D01*
X076604Y206341D02*
X114679Y206341D01*
X110518Y203294D02*
X075342Y203294D01*
X072676Y200247D02*
X108915Y200247D01*
X122311Y206341D02*
X138750Y206341D01*
X143419Y206341D02*
X144373Y206341D01*
X144373Y203294D02*
X143419Y203294D01*
X143419Y200247D02*
X144373Y200247D01*
X143413Y197200D02*
X128591Y197200D01*
X128246Y194153D02*
X133596Y194153D01*
X134858Y191106D02*
X126884Y191106D01*
X123304Y188059D02*
X137835Y188059D01*
X143895Y196994D02*
X143895Y196995D01*
X133765Y200247D02*
X128075Y200247D01*
X126473Y203294D02*
X135199Y203294D01*
X138734Y212435D02*
X122330Y212435D01*
X126670Y215482D02*
X135002Y215482D01*
X133400Y218529D02*
X128442Y218529D01*
X129163Y221576D02*
X132720Y221576D01*
X132722Y224623D02*
X129118Y224623D01*
X127856Y227670D02*
X133984Y227670D01*
X136414Y230717D02*
X125258Y230717D01*
X111733Y230717D02*
X106208Y230717D01*
X108806Y227670D02*
X109135Y227670D01*
X105488Y238750D02*
X101568Y237126D01*
X097323Y237126D01*
X093403Y238750D01*
X090402Y241751D01*
X088778Y245671D01*
X088778Y249916D01*
X090402Y253836D01*
X093403Y256837D01*
X097323Y258461D01*
X101568Y258461D01*
X105488Y256837D01*
X108489Y253836D01*
X110113Y249916D01*
X110113Y245671D01*
X108489Y241751D01*
X105488Y238750D01*
X106596Y239858D02*
X172491Y239858D01*
X171392Y236811D02*
X076459Y236811D01*
X076459Y233764D02*
X171392Y233764D01*
X169295Y235094D02*
X181995Y235094D01*
X181519Y233764D02*
X182473Y233764D01*
X182473Y230717D02*
X181519Y230717D01*
X181519Y227670D02*
X182473Y227670D01*
X189568Y227670D02*
X203078Y227670D01*
X203078Y230717D02*
X191661Y230717D01*
X192599Y233764D02*
X204278Y233764D01*
X206727Y236811D02*
X192599Y236811D01*
X191499Y239858D02*
X287341Y239858D01*
X287737Y240812D02*
X286200Y237102D01*
X286200Y233085D01*
X287737Y229375D01*
X290577Y226535D01*
X294287Y224998D01*
X298304Y224998D01*
X302014Y226535D01*
X304854Y229375D01*
X306391Y233085D01*
X306391Y237102D01*
X304854Y240812D01*
X302014Y243652D01*
X298304Y245189D01*
X294287Y245189D01*
X290577Y243652D01*
X287737Y240812D01*
X289830Y242905D02*
X189180Y242905D01*
X182473Y242905D02*
X181519Y242905D01*
X181519Y239858D02*
X182473Y239858D01*
X182473Y236811D02*
X181519Y236811D01*
X174811Y242905D02*
X108968Y242905D01*
X110113Y245952D02*
X351160Y245952D01*
X351160Y244337D02*
X351160Y263267D01*
X350314Y264113D01*
X349241Y264558D01*
X325272Y264558D01*
X318922Y258208D01*
X311769Y258208D01*
X309095Y258208D01*
X308688Y257800D01*
X304768Y256176D01*
X300523Y256176D01*
X296603Y257800D01*
X293602Y260801D01*
X291978Y264721D01*
X291978Y268966D01*
X293602Y272886D01*
X296603Y275887D01*
X300523Y277511D01*
X304768Y277511D01*
X308688Y275887D01*
X309095Y275479D01*
X311769Y275479D01*
X313060Y276770D01*
X318119Y281829D01*
X349241Y281829D01*
X351538Y282781D01*
X355353Y282781D01*
X358877Y281321D01*
X361573Y278625D01*
X362526Y276325D01*
X368431Y270420D01*
X368431Y263267D01*
X368431Y254397D01*
X373032Y254397D01*
X372977Y254451D01*
X371353Y258371D01*
X371353Y262616D01*
X372977Y266536D01*
X375978Y269537D01*
X379898Y271161D01*
X384143Y271161D01*
X388063Y269537D01*
X391064Y266536D01*
X392688Y262616D01*
X392688Y258371D01*
X391064Y254451D01*
X388063Y251450D01*
X385563Y250415D01*
X387931Y248047D01*
X391799Y244179D01*
X391799Y243273D01*
X392177Y243652D01*
X395887Y245189D01*
X399904Y245189D01*
X403614Y243652D01*
X406454Y240812D01*
X407991Y237102D01*
X407991Y233085D01*
X406454Y229375D01*
X403614Y226535D01*
X399904Y224998D01*
X395887Y224998D01*
X392177Y226535D01*
X391799Y226914D01*
X391799Y226008D01*
X381131Y215340D01*
X381131Y182148D01*
X382083Y179851D01*
X382083Y176036D01*
X380623Y172512D01*
X377927Y169816D01*
X375216Y168693D01*
X378214Y167452D01*
X381054Y164612D01*
X382591Y160902D01*
X382591Y156885D01*
X381054Y153175D01*
X378214Y150335D01*
X374504Y148798D01*
X370487Y148798D01*
X366777Y150335D01*
X363937Y153175D01*
X362400Y156885D01*
X362400Y160902D01*
X363937Y164612D01*
X366777Y167452D01*
X369775Y168693D01*
X367064Y169816D01*
X364368Y172512D01*
X362908Y176036D01*
X362908Y179851D01*
X363860Y182148D01*
X363860Y215340D01*
X357060Y222140D01*
X353192Y226008D01*
X353192Y226914D01*
X352814Y226535D01*
X349104Y224998D01*
X345087Y224998D01*
X341377Y226535D01*
X338537Y229375D01*
X337000Y233085D01*
X337000Y237102D01*
X338537Y240812D01*
X341377Y243652D01*
X345087Y245189D01*
X349104Y245189D01*
X351160Y244337D01*
X351160Y248999D02*
X110113Y248999D01*
X109230Y252046D02*
X130906Y252046D01*
X131503Y251449D02*
X128502Y254450D01*
X126878Y258370D01*
X126878Y262615D01*
X128502Y266535D01*
X131503Y269536D01*
X135423Y271160D01*
X139668Y271160D01*
X143588Y269536D01*
X146589Y266535D01*
X148213Y262615D01*
X148213Y258370D01*
X146589Y254450D01*
X143588Y251449D01*
X139668Y249825D01*
X135423Y249825D01*
X131503Y251449D01*
X128236Y255093D02*
X107232Y255093D01*
X106777Y258140D02*
X102342Y258140D01*
X103587Y261125D02*
X102050Y264835D01*
X102050Y268852D01*
X103587Y272562D01*
X106427Y275402D01*
X110137Y276939D01*
X114154Y276939D01*
X117864Y275402D01*
X120704Y272562D01*
X122241Y268852D01*
X122241Y264835D01*
X120704Y261125D01*
X117864Y258285D01*
X114154Y256748D01*
X110137Y256748D01*
X106427Y258285D01*
X103587Y261125D01*
X103562Y261187D02*
X076459Y261187D01*
X076459Y262868D02*
X076459Y258119D01*
X074642Y253731D01*
X071284Y250373D01*
X066896Y248556D01*
X062147Y248556D01*
X057759Y250373D01*
X054401Y253731D01*
X052584Y258119D01*
X052584Y262868D01*
X054401Y267256D01*
X057759Y270614D01*
X062147Y272431D01*
X066896Y272431D01*
X071284Y270614D01*
X074642Y267256D01*
X076459Y262868D01*
X075893Y264234D02*
X102299Y264234D01*
X102050Y267281D02*
X074617Y267281D01*
X071570Y270328D02*
X102661Y270328D01*
X104400Y273375D02*
X050283Y273375D01*
X050283Y276422D02*
X108889Y276422D01*
X110137Y282148D02*
X106427Y283685D01*
X103587Y286525D01*
X102050Y290235D01*
X102050Y294252D01*
X103587Y297962D01*
X106427Y300802D01*
X110137Y302339D01*
X114154Y302339D01*
X117864Y300802D01*
X120704Y297962D01*
X122241Y294252D01*
X122241Y290235D01*
X120704Y286525D01*
X117864Y283685D01*
X114154Y282148D01*
X110137Y282148D01*
X109249Y282516D02*
X050283Y282516D01*
X050283Y279469D02*
X128883Y279469D01*
X128502Y279850D02*
X126878Y283770D01*
X126878Y288015D01*
X128502Y291935D01*
X131503Y294936D01*
X135423Y296560D01*
X139668Y296560D01*
X143588Y294936D01*
X146589Y291935D01*
X148213Y288015D01*
X148213Y283770D01*
X146589Y279850D01*
X143588Y276849D01*
X139668Y275225D01*
X135423Y275225D01*
X131503Y276849D01*
X128502Y279850D01*
X127398Y282516D02*
X115043Y282516D01*
X119742Y285563D02*
X126878Y285563D01*
X127124Y288610D02*
X121568Y288610D01*
X122241Y291657D02*
X128386Y291657D01*
X131271Y294704D02*
X122053Y294704D01*
X120791Y297751D02*
X209492Y297751D01*
X209492Y298116D02*
X219613Y298116D01*
X219613Y299070D01*
X209492Y299070D01*
X209492Y300703D01*
X211106Y304600D01*
X214089Y307583D01*
X217986Y309197D01*
X219619Y309197D01*
X219619Y299076D01*
X220573Y299076D01*
X220573Y309197D01*
X222205Y309197D01*
X226102Y307583D01*
X229085Y304600D01*
X230699Y300703D01*
X230699Y299070D01*
X220578Y299070D01*
X220578Y298116D01*
X230699Y298116D01*
X230699Y296484D01*
X229085Y292587D01*
X226102Y289604D01*
X222205Y287990D01*
X220573Y287990D01*
X220573Y298111D01*
X219619Y298111D01*
X219619Y287990D01*
X217986Y287990D01*
X214089Y289604D01*
X211106Y292587D01*
X209492Y296484D01*
X209492Y298116D01*
X209531Y300798D02*
X117868Y300798D01*
X122302Y309085D02*
X126012Y307548D01*
X130029Y307548D01*
X133739Y309085D01*
X136579Y311925D01*
X138116Y315635D01*
X138116Y319652D01*
X136579Y323362D01*
X133739Y326202D01*
X130029Y327739D01*
X126012Y327739D01*
X122302Y326202D01*
X119462Y323362D01*
X117925Y319652D01*
X117925Y315635D01*
X119462Y311925D01*
X122302Y309085D01*
X121448Y309939D02*
X109193Y309939D01*
X108339Y309085D02*
X104629Y307548D01*
X100612Y307548D01*
X096902Y309085D01*
X094062Y311925D01*
X092525Y315635D01*
X092525Y319652D01*
X094062Y323362D01*
X096902Y326202D01*
X100612Y327739D01*
X104629Y327739D01*
X108339Y326202D01*
X111179Y323362D01*
X112716Y319652D01*
X112716Y315635D01*
X111179Y311925D01*
X108339Y309085D01*
X111619Y312986D02*
X119023Y312986D01*
X117925Y316033D02*
X112716Y316033D01*
X112716Y319080D02*
X117925Y319080D01*
X118950Y322127D02*
X111690Y322127D01*
X109367Y325174D02*
X121274Y325174D01*
X134767Y325174D02*
X146674Y325174D01*
X147702Y326202D02*
X151412Y327739D01*
X155429Y327739D01*
X159139Y326202D01*
X161979Y323362D01*
X163516Y319652D01*
X163516Y315635D01*
X161979Y311925D01*
X159139Y309085D01*
X155429Y307548D01*
X151412Y307548D01*
X147702Y309085D01*
X144862Y311925D01*
X143325Y315635D01*
X143325Y319652D01*
X144862Y323362D01*
X147702Y326202D01*
X144350Y322127D02*
X137090Y322127D01*
X138116Y319080D02*
X143325Y319080D01*
X143325Y316033D02*
X138116Y316033D01*
X137019Y312986D02*
X144423Y312986D01*
X146848Y309939D02*
X134593Y309939D01*
X143820Y294704D02*
X176885Y294704D01*
X176277Y294452D02*
X179987Y295989D01*
X184004Y295989D01*
X187714Y294452D01*
X190554Y291612D01*
X192091Y287902D01*
X192091Y283885D01*
X190554Y280175D01*
X187714Y277335D01*
X184004Y275798D01*
X179987Y275798D01*
X176277Y277335D01*
X173437Y280175D01*
X171900Y283885D01*
X171900Y287902D01*
X173437Y291612D01*
X176277Y294452D01*
X173482Y291657D02*
X146704Y291657D01*
X147966Y288610D02*
X172193Y288610D01*
X171900Y285563D02*
X148213Y285563D01*
X147694Y282516D02*
X172468Y282516D01*
X174143Y279469D02*
X146208Y279469D01*
X142558Y276422D02*
X178481Y276422D01*
X179987Y270589D02*
X184004Y270589D01*
X187714Y269052D01*
X190554Y266212D01*
X192091Y262502D01*
X192091Y258485D01*
X190554Y254775D01*
X187714Y251935D01*
X184004Y250398D01*
X179987Y250398D01*
X176277Y251935D01*
X173437Y254775D01*
X171900Y258485D01*
X171900Y262502D01*
X173437Y266212D01*
X176277Y269052D01*
X179987Y270589D01*
X179357Y270328D02*
X141676Y270328D01*
X145843Y267281D02*
X174506Y267281D01*
X172617Y264234D02*
X147542Y264234D01*
X148213Y261187D02*
X171900Y261187D01*
X172043Y258140D02*
X148118Y258140D01*
X146856Y255093D02*
X173306Y255093D01*
X176166Y252046D02*
X144185Y252046D01*
X126974Y258140D02*
X117514Y258140D01*
X120730Y261187D02*
X126878Y261187D01*
X127548Y264234D02*
X121993Y264234D01*
X122241Y267281D02*
X129248Y267281D01*
X133414Y270328D02*
X121629Y270328D01*
X119891Y273375D02*
X268691Y273375D01*
X268202Y272886D02*
X271203Y275887D01*
X275123Y277511D01*
X279368Y277511D01*
X283288Y275887D01*
X286289Y272886D01*
X287913Y268966D01*
X287913Y264721D01*
X286289Y260801D01*
X283288Y257800D01*
X279368Y256176D01*
X275123Y256176D01*
X271203Y257800D01*
X268202Y260801D01*
X266578Y264721D01*
X266578Y268966D01*
X268202Y272886D01*
X267142Y270328D02*
X243278Y270328D01*
X245188Y269537D02*
X248189Y266536D01*
X249813Y262616D01*
X249813Y258371D01*
X248189Y254451D01*
X245188Y251450D01*
X241268Y249826D01*
X237023Y249826D01*
X233103Y251450D01*
X230102Y254451D01*
X228478Y258371D01*
X228478Y262616D01*
X230102Y266536D01*
X233103Y269537D01*
X237023Y271161D01*
X241268Y271161D01*
X245188Y269537D01*
X247444Y267281D02*
X266578Y267281D01*
X266780Y264234D02*
X249142Y264234D01*
X249813Y261187D02*
X268043Y261187D01*
X270863Y258140D02*
X249718Y258140D01*
X248455Y255093D02*
X351160Y255093D01*
X351160Y252046D02*
X245784Y252046D01*
X232507Y252046D02*
X220384Y252046D01*
X219788Y251450D02*
X222789Y254451D01*
X224413Y258371D01*
X224413Y262616D01*
X222789Y266536D01*
X219788Y269537D01*
X215868Y271161D01*
X211623Y271161D01*
X207703Y269537D01*
X204702Y266536D01*
X203078Y262616D01*
X203078Y258371D01*
X204702Y254451D01*
X207703Y251450D01*
X211623Y249826D01*
X215868Y249826D01*
X219788Y251450D01*
X223055Y255093D02*
X229837Y255093D01*
X228574Y258140D02*
X224318Y258140D01*
X224413Y261187D02*
X228478Y261187D01*
X229148Y264234D02*
X223742Y264234D01*
X222044Y267281D02*
X230847Y267281D01*
X235012Y270328D02*
X217878Y270328D01*
X209612Y270328D02*
X184634Y270328D01*
X189485Y267281D02*
X205447Y267281D01*
X203748Y264234D02*
X191373Y264234D01*
X192091Y261187D02*
X203078Y261187D01*
X203174Y258140D02*
X191949Y258140D01*
X190686Y255093D02*
X204437Y255093D01*
X207107Y252046D02*
X187825Y252046D01*
X201045Y247794D02*
X201045Y279544D01*
X220095Y279544D01*
X220095Y298594D01*
X219619Y297751D02*
X220573Y297751D01*
X220573Y294704D02*
X219619Y294704D01*
X219619Y291657D02*
X220573Y291657D01*
X220573Y288610D02*
X219619Y288610D01*
X216490Y288610D02*
X191797Y288610D01*
X192091Y285563D02*
X371353Y285563D01*
X371353Y283771D02*
X371353Y288016D01*
X372977Y291936D01*
X375978Y294937D01*
X379898Y296561D01*
X384143Y296561D01*
X388063Y294937D01*
X391064Y291936D01*
X392688Y288016D01*
X392688Y283771D01*
X391064Y279851D01*
X388063Y276850D01*
X384143Y275226D01*
X379898Y275226D01*
X375978Y276850D01*
X372977Y279851D01*
X371353Y283771D01*
X371873Y282516D02*
X355992Y282516D01*
X350898Y282516D02*
X191524Y282516D01*
X189848Y279469D02*
X315759Y279469D01*
X312712Y276422D02*
X307396Y276422D01*
X297894Y276422D02*
X281996Y276422D01*
X283595Y279544D02*
X220095Y279544D01*
X223702Y288610D02*
X243217Y288610D01*
X243487Y288498D02*
X239777Y290035D01*
X236937Y292875D01*
X235400Y296585D01*
X235400Y300602D01*
X236937Y304312D01*
X239777Y307152D01*
X243487Y308689D01*
X247504Y308689D01*
X251214Y307152D01*
X254054Y304312D01*
X255591Y300602D01*
X255591Y296585D01*
X254054Y292875D01*
X251214Y290035D01*
X247504Y288498D01*
X243487Y288498D01*
X247775Y288610D02*
X268617Y288610D01*
X268887Y288498D02*
X265177Y290035D01*
X262337Y292875D01*
X260800Y296585D01*
X260800Y300602D01*
X262337Y304312D01*
X265177Y307152D01*
X268887Y308689D01*
X272904Y308689D01*
X276614Y307152D01*
X279454Y304312D01*
X280991Y300602D01*
X280991Y296585D01*
X279454Y292875D01*
X276614Y290035D01*
X272904Y288498D01*
X268887Y288498D01*
X273175Y288610D02*
X371599Y288610D01*
X372861Y291657D02*
X278236Y291657D01*
X280212Y294704D02*
X375745Y294704D01*
X388296Y294704D02*
X563070Y294704D01*
X563303Y294937D02*
X567223Y296561D01*
X571468Y296561D01*
X575388Y294937D01*
X578389Y291936D01*
X580013Y288016D01*
X580013Y283771D01*
X578389Y279851D01*
X575388Y276850D01*
X571468Y275226D01*
X567223Y275226D01*
X563303Y276850D01*
X560302Y279851D01*
X558678Y283771D01*
X558678Y288016D01*
X560302Y291936D01*
X563303Y294937D01*
X560186Y291657D02*
X391179Y291657D01*
X392441Y288610D02*
X558924Y288610D01*
X558678Y285563D02*
X392688Y285563D01*
X392169Y282516D02*
X471491Y282516D01*
X469647Y281752D02*
X473357Y283289D01*
X477374Y283289D01*
X481084Y281752D01*
X483924Y278912D01*
X485461Y275202D01*
X485461Y271185D01*
X483924Y267475D01*
X481084Y264635D01*
X477374Y263098D01*
X473357Y263098D01*
X469647Y264635D01*
X466807Y267475D01*
X465270Y271185D01*
X465270Y275202D01*
X466807Y278912D01*
X469647Y281752D01*
X467364Y279469D02*
X390682Y279469D01*
X387030Y276422D02*
X465775Y276422D01*
X465270Y273375D02*
X365476Y273375D01*
X368431Y270328D02*
X377887Y270328D01*
X373722Y267281D02*
X368431Y267281D01*
X368431Y264234D02*
X372023Y264234D01*
X371353Y261187D02*
X368431Y261187D01*
X368431Y258140D02*
X371449Y258140D01*
X372712Y255093D02*
X368431Y255093D01*
X351160Y258140D02*
X309028Y258140D01*
X321901Y261187D02*
X351160Y261187D01*
X350023Y264234D02*
X324948Y264234D01*
X296263Y258140D02*
X283628Y258140D01*
X286449Y261187D02*
X293443Y261187D01*
X292180Y264234D02*
X287712Y264234D01*
X287913Y267281D02*
X291978Y267281D01*
X292542Y270328D02*
X287348Y270328D01*
X285800Y273375D02*
X294091Y273375D01*
X283595Y279544D02*
X283595Y323994D01*
X353445Y323994D01*
X353445Y336694D01*
X385195Y336694D01*
X385195Y343044D01*
X423295Y343044D01*
X423295Y362095D01*
X422813Y361738D02*
X408563Y361738D01*
X408563Y359972D02*
X408563Y364217D01*
X406939Y368137D01*
X403938Y371138D01*
X400018Y372762D01*
X395773Y372762D01*
X391853Y371138D01*
X388852Y368137D01*
X387228Y364217D01*
X387228Y359972D01*
X388852Y356052D01*
X391853Y353051D01*
X395773Y351427D01*
X400018Y351427D01*
X403938Y353051D01*
X406939Y356052D01*
X408563Y359972D01*
X408033Y358691D02*
X412609Y358691D01*
X412120Y359871D02*
X412120Y361617D01*
X422813Y361617D01*
X422813Y362571D01*
X412120Y362571D01*
X412120Y364318D01*
X413821Y368425D01*
X416965Y371569D01*
X421072Y373270D01*
X422819Y373270D01*
X422819Y362577D01*
X423773Y362577D01*
X423773Y373270D01*
X425519Y373270D01*
X429626Y371569D01*
X432770Y368425D01*
X434471Y364318D01*
X434471Y362571D01*
X423778Y362571D01*
X423778Y361617D01*
X434471Y361617D01*
X434471Y359871D01*
X432770Y355764D01*
X429626Y352620D01*
X425519Y350919D01*
X423773Y350919D01*
X423773Y361612D01*
X422819Y361612D01*
X422819Y350919D01*
X421072Y350919D01*
X416965Y352620D01*
X413821Y355764D01*
X412120Y359871D01*
X413941Y355644D02*
X406531Y355644D01*
X402843Y352597D02*
X417021Y352597D01*
X422819Y352597D02*
X423773Y352597D01*
X423773Y355644D02*
X422819Y355644D01*
X422819Y358691D02*
X423773Y358691D01*
X423778Y361738D02*
X444378Y361738D01*
X444378Y359971D02*
X444378Y364216D01*
X446002Y368136D01*
X449003Y371137D01*
X452923Y372761D01*
X457168Y372761D01*
X461088Y371137D01*
X464089Y368136D01*
X465713Y364216D01*
X465713Y359971D01*
X464089Y356051D01*
X461088Y353050D01*
X457168Y351426D01*
X452923Y351426D01*
X449003Y353050D01*
X446002Y356051D01*
X444378Y359971D01*
X444909Y358691D02*
X433983Y358691D01*
X432650Y355644D02*
X446409Y355644D01*
X450097Y352597D02*
X429571Y352597D01*
X423295Y343044D02*
X423295Y323994D01*
X423295Y285894D01*
X435995Y285894D01*
X486795Y285894D01*
X486795Y311294D01*
X512195Y311294D01*
X524895Y311294D01*
X524895Y339869D01*
X537595Y339869D01*
X537595Y355744D01*
X543945Y355744D01*
X543945Y400194D01*
X543945Y419244D01*
X543945Y444644D01*
X518545Y444644D01*
X480445Y444644D01*
X479463Y444007D02*
X361358Y444007D01*
X361358Y443199D02*
X361358Y443198D01*
X361095Y440320D01*
X361095Y440319D01*
X360572Y437477D01*
X360572Y437476D01*
X359792Y434693D01*
X359792Y434692D01*
X358762Y431992D01*
X358762Y431991D01*
X357491Y429395D01*
X357491Y429394D01*
X355988Y426925D01*
X355988Y426924D01*
X354268Y424602D01*
X354268Y424601D01*
X352343Y422445D01*
X352343Y422444D01*
X352342Y422444D01*
X350231Y420471D01*
X350230Y420471D01*
X347947Y418698D01*
X347946Y418698D01*
X345512Y417140D01*
X345511Y417140D01*
X342944Y415810D01*
X340267Y414719D01*
X337502Y413876D01*
X334671Y413287D01*
X331799Y412959D01*
X328909Y412893D01*
X326025Y413091D01*
X323171Y413549D01*
X320370Y414266D01*
X317646Y415234D01*
X315021Y416446D01*
X315021Y416447D01*
X312519Y417891D01*
X310157Y419558D01*
X310156Y419558D01*
X307956Y421433D01*
X307955Y421433D01*
X307955Y421434D01*
X305935Y423500D01*
X305935Y423501D01*
X304110Y425743D01*
X304110Y425744D01*
X302497Y428142D01*
X302497Y428143D01*
X301109Y430678D01*
X301109Y430679D01*
X299958Y433329D01*
X299958Y433330D01*
X299052Y436075D01*
X299052Y436076D01*
X298399Y438891D01*
X298399Y438892D01*
X298006Y441755D01*
X298006Y441756D01*
X297874Y444644D01*
X298006Y447531D01*
X298006Y447532D01*
X298399Y450395D01*
X298399Y450396D01*
X299052Y453211D01*
X299052Y453212D01*
X299958Y455957D01*
X299958Y455958D01*
X301109Y458608D01*
X301109Y458609D01*
X302497Y461144D01*
X302497Y461145D01*
X304110Y463543D01*
X304110Y463544D01*
X305935Y465786D01*
X305935Y465787D01*
X305936Y465787D01*
X307955Y467854D01*
X307956Y467854D01*
X310156Y469729D01*
X310157Y469729D01*
X312519Y471396D01*
X315022Y472841D01*
X317647Y474053D01*
X320371Y475021D01*
X323172Y475738D01*
X326026Y476196D01*
X328910Y476394D01*
X331800Y476328D01*
X334672Y476000D01*
X337503Y475411D01*
X340268Y474568D01*
X342944Y473477D01*
X345511Y472147D01*
X345512Y472147D01*
X347946Y470589D01*
X347947Y470589D01*
X350230Y468816D01*
X350231Y468816D01*
X352343Y466843D01*
X352343Y466842D01*
X354268Y464686D01*
X354268Y464685D01*
X355988Y462363D01*
X355988Y462362D01*
X357491Y459893D01*
X357491Y459892D01*
X358762Y457296D01*
X358762Y457295D01*
X359792Y454595D01*
X359792Y454594D01*
X360572Y451811D01*
X360572Y451810D01*
X361095Y448968D01*
X361095Y448967D01*
X361358Y446089D01*
X361358Y446088D01*
X361358Y443199D01*
X361154Y440960D02*
X461302Y440960D01*
X461302Y439837D02*
X461302Y443666D01*
X479463Y443666D01*
X479463Y445620D01*
X461302Y445620D01*
X461302Y449450D01*
X468099Y456247D01*
X479469Y456247D01*
X479469Y445626D01*
X481423Y445626D01*
X481423Y456247D01*
X492792Y456247D01*
X499589Y449450D01*
X499589Y445620D01*
X481428Y445620D01*
X481428Y443666D01*
X499589Y443666D01*
X499589Y439837D01*
X492792Y433040D01*
X481423Y433040D01*
X481423Y443661D01*
X479469Y443661D01*
X479469Y433040D01*
X468099Y433040D01*
X461302Y439837D01*
X463226Y437913D02*
X360653Y437913D01*
X359841Y434866D02*
X466273Y434866D01*
X468310Y430339D02*
X492581Y430339D01*
X499081Y423839D01*
X499081Y414648D01*
X492581Y408148D01*
X468310Y408148D01*
X461810Y414648D01*
X461810Y423839D01*
X468310Y430339D01*
X466743Y428772D02*
X357113Y428772D01*
X358678Y431819D02*
X589108Y431819D01*
X589108Y434866D02*
X525830Y434866D01*
X525380Y434416D02*
X520946Y432579D01*
X519023Y432579D01*
X519023Y444161D01*
X518069Y444161D01*
X518069Y432579D01*
X516145Y432579D01*
X511711Y434416D01*
X508318Y437809D01*
X506481Y442243D01*
X506481Y444166D01*
X518063Y444166D01*
X518063Y445120D01*
X506481Y445120D01*
X506481Y447044D01*
X508318Y451478D01*
X511711Y454871D01*
X516145Y456708D01*
X518069Y456708D01*
X518069Y445126D01*
X519023Y445126D01*
X519023Y456708D01*
X520946Y456708D01*
X525380Y454871D01*
X528773Y451478D01*
X530610Y447044D01*
X530610Y445120D01*
X519028Y445120D01*
X519028Y444166D01*
X530610Y444166D01*
X530610Y442243D01*
X528773Y437809D01*
X525380Y434416D01*
X528817Y437913D02*
X589108Y437913D01*
X589108Y440960D02*
X582545Y440960D01*
X582458Y440873D02*
X578070Y439056D01*
X573321Y439056D01*
X568933Y440873D01*
X565575Y444231D01*
X563758Y448619D01*
X563758Y453368D01*
X565575Y457756D01*
X568933Y461114D01*
X573321Y462931D01*
X578070Y462931D01*
X582458Y461114D01*
X585816Y457756D01*
X587633Y453368D01*
X587633Y448619D01*
X585816Y444231D01*
X582458Y440873D01*
X585592Y444007D02*
X589108Y444007D01*
X589108Y447054D02*
X586985Y447054D01*
X587633Y450101D02*
X589108Y450101D01*
X589108Y453148D02*
X587633Y453148D01*
X586462Y456195D02*
X589108Y456195D01*
X589108Y459242D02*
X584330Y459242D01*
X579620Y462289D02*
X589108Y462289D01*
X589108Y465336D02*
X529105Y465336D01*
X528343Y463497D02*
X530102Y467744D01*
X530102Y472343D01*
X528343Y476590D01*
X525092Y479841D01*
X520845Y481600D01*
X516246Y481600D01*
X511999Y479841D01*
X508748Y476590D01*
X506989Y472343D01*
X506989Y467744D01*
X508748Y463497D01*
X511999Y460246D01*
X516246Y458487D01*
X520845Y458487D01*
X525092Y460246D01*
X528343Y463497D01*
X527135Y462289D02*
X571770Y462289D01*
X567061Y459242D02*
X522668Y459242D01*
X522184Y456195D02*
X564928Y456195D01*
X563758Y453148D02*
X527103Y453148D01*
X529343Y450101D02*
X563758Y450101D01*
X564407Y447054D02*
X530605Y447054D01*
X530610Y444007D02*
X565799Y444007D01*
X568846Y440960D02*
X530079Y440960D01*
X519023Y440960D02*
X518069Y440960D01*
X518069Y437913D02*
X519023Y437913D01*
X519023Y434866D02*
X518069Y434866D01*
X511261Y434866D02*
X494618Y434866D01*
X497665Y437913D02*
X508275Y437913D01*
X507013Y440960D02*
X499589Y440960D01*
X499589Y447054D02*
X506485Y447054D01*
X506481Y444007D02*
X481428Y444007D01*
X481423Y447054D02*
X479469Y447054D01*
X479469Y450101D02*
X481423Y450101D01*
X481423Y453148D02*
X479469Y453148D01*
X479469Y456195D02*
X481423Y456195D01*
X492581Y458948D02*
X468310Y458948D01*
X461810Y465448D01*
X461810Y474639D01*
X468310Y481139D01*
X492581Y481139D01*
X499081Y474639D01*
X499081Y465448D01*
X492581Y458948D01*
X492875Y459242D02*
X514424Y459242D01*
X514906Y456195D02*
X492844Y456195D01*
X495891Y453148D02*
X509988Y453148D01*
X507747Y450101D02*
X498938Y450101D01*
X495922Y462289D02*
X509956Y462289D01*
X507987Y465336D02*
X498969Y465336D01*
X499081Y468383D02*
X506989Y468383D01*
X506989Y471430D02*
X499081Y471430D01*
X499081Y474477D02*
X507872Y474477D01*
X509682Y477524D02*
X496196Y477524D01*
X493149Y480571D02*
X513761Y480571D01*
X523329Y480571D02*
X563758Y480571D01*
X563758Y480369D02*
X563758Y485118D01*
X565575Y489506D01*
X568933Y492864D01*
X573321Y494681D01*
X578070Y494681D01*
X582458Y492864D01*
X585816Y489506D01*
X587633Y485118D01*
X587633Y480369D01*
X585816Y475981D01*
X582458Y472623D01*
X578070Y470806D01*
X573321Y470806D01*
X568933Y472623D01*
X565575Y475981D01*
X563758Y480369D01*
X564937Y477524D02*
X527409Y477524D01*
X529218Y474477D02*
X567079Y474477D01*
X571815Y471430D02*
X530102Y471430D01*
X530102Y468383D02*
X589108Y468383D01*
X589108Y471430D02*
X579577Y471430D01*
X584312Y474477D02*
X589108Y474477D01*
X589108Y477524D02*
X586455Y477524D01*
X587633Y480571D02*
X589108Y480571D01*
X589108Y483618D02*
X587633Y483618D01*
X586992Y486665D02*
X589108Y486665D01*
X589108Y489712D02*
X585610Y489712D01*
X582563Y492759D02*
X589108Y492759D01*
X568828Y492759D02*
X295283Y492759D01*
X295283Y489712D02*
X565781Y489712D01*
X564398Y486665D02*
X295283Y486665D01*
X295283Y483618D02*
X563758Y483618D01*
X519023Y456195D02*
X518069Y456195D01*
X518069Y453148D02*
X519023Y453148D01*
X519023Y450101D02*
X518069Y450101D01*
X518069Y447054D02*
X519023Y447054D01*
X519023Y444007D02*
X518069Y444007D01*
X494148Y428772D02*
X567623Y428772D01*
X568645Y429794D02*
X573220Y431689D01*
X574719Y431689D01*
X574719Y420226D01*
X576673Y420226D01*
X576673Y431689D01*
X578171Y431689D01*
X582746Y429794D01*
X586246Y426294D01*
X588141Y421719D01*
X588141Y420220D01*
X576678Y420220D01*
X576678Y418266D01*
X588141Y418266D01*
X588141Y416768D01*
X586246Y412193D01*
X582746Y408693D01*
X578171Y406798D01*
X576673Y406798D01*
X576673Y418261D01*
X574719Y418261D01*
X574719Y406798D01*
X573220Y406798D01*
X568645Y408693D01*
X565145Y412193D01*
X563250Y416768D01*
X563250Y418266D01*
X574713Y418266D01*
X574713Y420220D01*
X563250Y420220D01*
X563250Y421719D01*
X565145Y426294D01*
X568645Y429794D01*
X564909Y425725D02*
X497195Y425725D01*
X499081Y422678D02*
X563647Y422678D01*
X563327Y416584D02*
X499081Y416584D01*
X499081Y419631D02*
X574713Y419631D01*
X575695Y419244D02*
X543945Y419244D01*
X544423Y412258D02*
X546346Y412258D01*
X550780Y410421D01*
X554173Y407028D01*
X556010Y402594D01*
X556010Y400670D01*
X544428Y400670D01*
X544428Y399716D01*
X556010Y399716D01*
X556010Y397793D01*
X554173Y393359D01*
X550780Y389966D01*
X546346Y388129D01*
X544423Y388129D01*
X544423Y399711D01*
X543469Y399711D01*
X543469Y388129D01*
X541545Y388129D01*
X537111Y389966D01*
X533718Y393359D01*
X531881Y397793D01*
X531881Y399716D01*
X543463Y399716D01*
X543463Y400670D01*
X531881Y400670D01*
X531881Y402594D01*
X533718Y407028D01*
X537111Y410421D01*
X541545Y412258D01*
X543469Y412258D01*
X543469Y400676D01*
X544423Y400676D01*
X544423Y412258D01*
X544423Y410490D02*
X543469Y410490D01*
X543469Y407443D02*
X544423Y407443D01*
X544423Y404396D02*
X543469Y404396D01*
X543469Y401349D02*
X544423Y401349D01*
X544423Y398302D02*
X543469Y398302D01*
X543469Y395255D02*
X544423Y395255D01*
X544423Y392208D02*
X543469Y392208D01*
X543469Y389161D02*
X544423Y389161D01*
X548837Y389161D02*
X589108Y389161D01*
X589108Y392208D02*
X553022Y392208D01*
X554959Y395255D02*
X589108Y395255D01*
X589108Y398302D02*
X556010Y398302D01*
X556010Y401349D02*
X589108Y401349D01*
X589108Y404396D02*
X555263Y404396D01*
X553758Y407443D02*
X571663Y407443D01*
X574719Y407443D02*
X576673Y407443D01*
X576673Y410490D02*
X574719Y410490D01*
X574719Y413537D02*
X576673Y413537D01*
X576673Y416584D02*
X574719Y416584D01*
X576678Y419631D02*
X589108Y419631D01*
X589108Y416584D02*
X588065Y416584D01*
X589108Y413537D02*
X586803Y413537D01*
X584543Y410490D02*
X589108Y410490D01*
X589108Y407443D02*
X579729Y407443D01*
X566848Y410490D02*
X550613Y410490D01*
X537277Y410490D02*
X523887Y410490D01*
X525092Y409991D02*
X528343Y406740D01*
X530102Y402493D01*
X530102Y397894D01*
X528343Y393647D01*
X525092Y390396D01*
X520845Y388637D01*
X516246Y388637D01*
X511999Y390396D01*
X508748Y393647D01*
X506989Y397894D01*
X506989Y402493D01*
X508748Y406740D01*
X511999Y409991D01*
X516246Y411750D01*
X520845Y411750D01*
X525092Y409991D01*
X527640Y407443D02*
X534133Y407443D01*
X532627Y404396D02*
X529313Y404396D01*
X530102Y401349D02*
X531881Y401349D01*
X531881Y398302D02*
X530102Y398302D01*
X529009Y395255D02*
X532933Y395255D01*
X534869Y392208D02*
X526904Y392208D01*
X522111Y389161D02*
X539055Y389161D01*
X514981Y389161D02*
X295283Y389161D01*
X295283Y392208D02*
X510187Y392208D01*
X508083Y395255D02*
X295283Y395255D01*
X295283Y398302D02*
X506989Y398302D01*
X506989Y401349D02*
X295283Y401349D01*
X295283Y404396D02*
X507777Y404396D01*
X509451Y407443D02*
X295283Y407443D01*
X295283Y410490D02*
X465968Y410490D01*
X462921Y413537D02*
X335873Y413537D01*
X344438Y416584D02*
X461810Y416584D01*
X461810Y419631D02*
X349149Y419631D01*
X352552Y422678D02*
X461810Y422678D01*
X463696Y425725D02*
X355100Y425725D01*
X361269Y447054D02*
X461302Y447054D01*
X461953Y450101D02*
X360886Y450101D01*
X360197Y453148D02*
X465000Y453148D01*
X468047Y456195D02*
X359181Y456195D01*
X357809Y459242D02*
X468016Y459242D01*
X464969Y462289D02*
X356032Y462289D01*
X353687Y465336D02*
X461922Y465336D01*
X461810Y468383D02*
X350694Y468383D01*
X346632Y471430D02*
X461810Y471430D01*
X461810Y474477D02*
X340491Y474477D01*
X318840Y474477D02*
X295283Y474477D01*
X295283Y471430D02*
X312577Y471430D01*
X308576Y468383D02*
X295283Y468383D01*
X295283Y465336D02*
X305568Y465336D01*
X303266Y462289D02*
X295283Y462289D01*
X295283Y459242D02*
X301455Y459242D01*
X300060Y456195D02*
X295283Y456195D01*
X295283Y453148D02*
X299037Y453148D01*
X298358Y450101D02*
X295283Y450101D01*
X295283Y447054D02*
X297984Y447054D01*
X297904Y444007D02*
X295283Y444007D01*
X295283Y440960D02*
X298116Y440960D01*
X298626Y437913D02*
X295283Y437913D01*
X295283Y434866D02*
X299452Y434866D01*
X300614Y431819D02*
X295283Y431819D01*
X295283Y428772D02*
X302153Y428772D01*
X304125Y425725D02*
X295283Y425725D01*
X295283Y422678D02*
X306739Y422678D01*
X310071Y419631D02*
X295283Y419631D01*
X295283Y416584D02*
X314784Y416584D01*
X323246Y413537D02*
X295283Y413537D01*
X295283Y386114D02*
X571830Y386114D01*
X573321Y386731D02*
X578070Y386731D01*
X582458Y384914D01*
X585816Y381556D01*
X587633Y377168D01*
X587633Y372419D01*
X585816Y368031D01*
X582458Y364673D01*
X578070Y362856D01*
X573321Y362856D01*
X568933Y364673D01*
X565575Y368031D01*
X563758Y372419D01*
X563758Y377168D01*
X565575Y381556D01*
X568933Y384914D01*
X573321Y386731D01*
X579560Y386114D02*
X589108Y386114D01*
X589108Y383067D02*
X584305Y383067D01*
X586452Y380020D02*
X589108Y380020D01*
X589108Y376973D02*
X587633Y376973D01*
X587633Y373926D02*
X589108Y373926D01*
X589108Y370879D02*
X586996Y370879D01*
X585617Y367832D02*
X589108Y367832D01*
X589108Y364785D02*
X582570Y364785D01*
X589108Y361738D02*
X497463Y361738D01*
X497463Y359971D02*
X497463Y364216D01*
X495839Y368136D01*
X492838Y371137D01*
X488918Y372761D01*
X484673Y372761D01*
X480753Y371137D01*
X477752Y368136D01*
X476128Y364216D01*
X476128Y359971D01*
X477752Y356051D01*
X480753Y353050D01*
X484673Y351426D01*
X488918Y351426D01*
X492838Y353050D01*
X495839Y356051D01*
X497463Y359971D01*
X496933Y358691D02*
X589108Y358691D01*
X589108Y355644D02*
X495432Y355644D01*
X491745Y352597D02*
X590140Y352597D01*
X584147Y346503D02*
X598994Y346503D01*
X597384Y343456D02*
X585756Y343456D01*
X586363Y341991D02*
X584739Y345911D01*
X581738Y348912D01*
X577818Y350536D01*
X573573Y350536D01*
X569653Y348912D01*
X566652Y345911D01*
X565028Y341991D01*
X565028Y337746D01*
X566652Y333826D01*
X569653Y330825D01*
X573573Y329201D01*
X577818Y329201D01*
X581738Y330825D01*
X584739Y333826D01*
X586363Y337746D01*
X586363Y341991D01*
X586363Y340409D02*
X596778Y340409D01*
X596938Y337362D02*
X586204Y337362D01*
X584942Y334315D02*
X598200Y334315D01*
X600960Y331268D02*
X582181Y331268D01*
X586273Y321961D02*
X590518Y321961D01*
X594438Y320337D01*
X597439Y317336D01*
X599063Y313416D01*
X599063Y309171D01*
X597439Y305251D01*
X594438Y302250D01*
X590518Y300626D01*
X586273Y300626D01*
X582353Y302250D01*
X579352Y305251D01*
X577728Y309171D01*
X577728Y313416D01*
X579352Y317336D01*
X582353Y320337D01*
X586273Y321961D01*
X581096Y319080D02*
X570295Y319080D01*
X569038Y320337D02*
X572039Y317336D01*
X573663Y313416D01*
X573663Y309171D01*
X572039Y305251D01*
X569038Y302250D01*
X565118Y300626D01*
X560873Y300626D01*
X556953Y302250D01*
X553952Y305251D01*
X552328Y309171D01*
X552328Y313416D01*
X553952Y317336D01*
X556953Y320337D01*
X560873Y321961D01*
X565118Y321961D01*
X569038Y320337D01*
X572578Y316033D02*
X578812Y316033D01*
X577728Y312986D02*
X573663Y312986D01*
X573663Y309939D02*
X577728Y309939D01*
X578673Y306892D02*
X572719Y306892D01*
X570633Y303845D02*
X580758Y303845D01*
X585858Y300798D02*
X565534Y300798D01*
X560458Y300798D02*
X540134Y300798D01*
X539718Y300626D02*
X535473Y300626D01*
X531553Y302250D01*
X528552Y305251D01*
X526928Y309171D01*
X526928Y313416D01*
X528552Y317336D01*
X531553Y320337D01*
X535473Y321961D01*
X539718Y321961D01*
X543638Y320337D01*
X546639Y317336D01*
X548263Y313416D01*
X548263Y309171D01*
X546639Y305251D01*
X543638Y302250D01*
X539718Y300626D01*
X535058Y300798D02*
X516061Y300798D01*
X514419Y300118D02*
X518526Y301819D01*
X521670Y304963D01*
X523371Y309070D01*
X523371Y310816D01*
X512678Y310816D01*
X512678Y311770D01*
X523371Y311770D01*
X523371Y313517D01*
X521670Y317624D01*
X518526Y320768D01*
X514419Y322469D01*
X512673Y322469D01*
X512673Y311776D01*
X511719Y311776D01*
X511719Y322469D01*
X509972Y322469D01*
X505865Y320768D01*
X502721Y317624D01*
X501020Y313517D01*
X501020Y311770D01*
X511713Y311770D01*
X511713Y310816D01*
X501020Y310816D01*
X501020Y309070D01*
X502721Y304963D01*
X505865Y301819D01*
X509972Y300118D01*
X511719Y300118D01*
X511719Y310811D01*
X512673Y310811D01*
X512673Y300118D01*
X514419Y300118D01*
X512673Y300798D02*
X511719Y300798D01*
X511719Y303845D02*
X512673Y303845D01*
X512673Y306892D02*
X511719Y306892D01*
X511719Y309939D02*
X512673Y309939D01*
X512673Y312986D02*
X511719Y312986D01*
X511719Y316033D02*
X512673Y316033D01*
X512673Y319080D02*
X511719Y319080D01*
X511719Y322127D02*
X512673Y322127D01*
X515244Y322127D02*
X651181Y322127D01*
X651946Y323974D02*
X655090Y327118D01*
X659197Y328819D01*
X660944Y328819D01*
X660944Y318126D01*
X661898Y318126D01*
X661898Y328819D01*
X663644Y328819D01*
X667751Y327118D01*
X670895Y323974D01*
X672596Y319867D01*
X672596Y318120D01*
X661903Y318120D01*
X661903Y317166D01*
X672596Y317166D01*
X672596Y315420D01*
X670895Y311313D01*
X667751Y308169D01*
X663644Y306468D01*
X661898Y306468D01*
X661898Y317161D01*
X660944Y317161D01*
X660944Y306468D01*
X659197Y306468D01*
X655090Y308169D01*
X651946Y311313D01*
X650245Y315420D01*
X650245Y317166D01*
X660938Y317166D01*
X660938Y318120D01*
X650245Y318120D01*
X650245Y319867D01*
X651946Y323974D01*
X653146Y325174D02*
X435360Y325174D01*
X435360Y324470D02*
X423778Y324470D01*
X423778Y323516D01*
X435360Y323516D01*
X435360Y321593D01*
X433523Y317159D01*
X430130Y313766D01*
X425696Y311929D01*
X423773Y311929D01*
X423773Y323511D01*
X422819Y323511D01*
X422819Y311929D01*
X420895Y311929D01*
X416461Y313766D01*
X413068Y317159D01*
X411231Y321593D01*
X411231Y323516D01*
X422813Y323516D01*
X422813Y324470D01*
X411231Y324470D01*
X411231Y326394D01*
X413068Y330828D01*
X416461Y334221D01*
X420895Y336058D01*
X422819Y336058D01*
X422819Y324476D01*
X423773Y324476D01*
X423773Y336058D01*
X425696Y336058D01*
X430130Y334221D01*
X433523Y330828D01*
X435360Y326394D01*
X435360Y324470D01*
X435360Y322127D02*
X483746Y322127D01*
X484572Y322469D02*
X486319Y322469D01*
X486319Y311776D01*
X487273Y311776D01*
X487273Y322469D01*
X489019Y322469D01*
X493126Y320768D01*
X496270Y317624D01*
X497971Y313517D01*
X497971Y311770D01*
X487278Y311770D01*
X487278Y310816D01*
X497971Y310816D01*
X497971Y309070D01*
X496270Y304963D01*
X493126Y301819D01*
X489019Y300118D01*
X487273Y300118D01*
X487273Y310811D01*
X486319Y310811D01*
X486319Y300118D01*
X484572Y300118D01*
X480465Y301819D01*
X477321Y304963D01*
X475620Y309070D01*
X475620Y310816D01*
X486313Y310816D01*
X486313Y311770D01*
X475620Y311770D01*
X475620Y313517D01*
X477321Y317624D01*
X480465Y320768D01*
X484572Y322469D01*
X486319Y322127D02*
X487273Y322127D01*
X489844Y322127D02*
X509146Y322127D01*
X504177Y319080D02*
X494814Y319080D01*
X496928Y316033D02*
X502062Y316033D01*
X501020Y312986D02*
X497971Y312986D01*
X497971Y309939D02*
X501020Y309939D01*
X501923Y306892D02*
X497069Y306892D01*
X495152Y303845D02*
X503839Y303845D01*
X508331Y300798D02*
X490661Y300798D01*
X487273Y300798D02*
X486319Y300798D01*
X486319Y303845D02*
X487273Y303845D01*
X487273Y306892D02*
X486319Y306892D01*
X486319Y309939D02*
X487273Y309939D01*
X487273Y312986D02*
X486319Y312986D01*
X486319Y316033D02*
X487273Y316033D01*
X487273Y319080D02*
X486319Y319080D01*
X484673Y326026D02*
X480753Y327650D01*
X477752Y330651D01*
X476128Y334571D01*
X476128Y338816D01*
X477752Y342736D01*
X480753Y345737D01*
X484673Y347361D01*
X488918Y347361D01*
X492838Y345737D01*
X495839Y342736D01*
X497463Y338816D01*
X497463Y334571D01*
X495839Y330651D01*
X492838Y327650D01*
X488918Y326026D01*
X484673Y326026D01*
X480182Y328221D02*
X461659Y328221D01*
X461088Y327650D02*
X464089Y330651D01*
X465713Y334571D01*
X465713Y338816D01*
X464089Y342736D01*
X461088Y345737D01*
X457168Y347361D01*
X452923Y347361D01*
X449003Y345737D01*
X446002Y342736D01*
X444378Y338816D01*
X444378Y334571D01*
X446002Y330651D01*
X449003Y327650D01*
X452923Y326026D01*
X457168Y326026D01*
X461088Y327650D01*
X464345Y331268D02*
X477497Y331268D01*
X476235Y334315D02*
X465607Y334315D01*
X465713Y337362D02*
X476128Y337362D01*
X476787Y340409D02*
X465053Y340409D01*
X463369Y343456D02*
X478472Y343456D01*
X482601Y346503D02*
X459239Y346503D01*
X459995Y352597D02*
X481847Y352597D01*
X478159Y355644D02*
X463682Y355644D01*
X465183Y358691D02*
X476659Y358691D01*
X476128Y361738D02*
X465713Y361738D01*
X465477Y364785D02*
X476363Y364785D01*
X477626Y367832D02*
X464214Y367832D01*
X461346Y370879D02*
X480495Y370879D01*
X493096Y370879D02*
X564396Y370879D01*
X563758Y373926D02*
X295283Y373926D01*
X295283Y370879D02*
X348274Y370879D01*
X347727Y370652D02*
X351437Y372189D01*
X355454Y372189D01*
X359164Y370652D01*
X362004Y367812D01*
X363541Y364102D01*
X363541Y360085D01*
X362004Y356375D01*
X359164Y353535D01*
X355454Y351998D01*
X351437Y351998D01*
X347727Y353535D01*
X344887Y356375D01*
X343350Y360085D01*
X343350Y364102D01*
X344887Y367812D01*
X347727Y370652D01*
X344907Y367832D02*
X295283Y367832D01*
X295283Y364785D02*
X343632Y364785D01*
X343350Y361738D02*
X295283Y361738D01*
X295283Y358691D02*
X343928Y358691D01*
X345618Y355644D02*
X295283Y355644D01*
X294251Y352597D02*
X349992Y352597D01*
X351336Y347297D02*
X352969Y347297D01*
X352969Y337176D01*
X353923Y337176D01*
X353923Y347297D01*
X355555Y347297D01*
X359452Y345683D01*
X362435Y342700D01*
X364049Y338803D01*
X364049Y337170D01*
X353928Y337170D01*
X353928Y336216D01*
X364049Y336216D01*
X364049Y334584D01*
X362435Y330687D01*
X359452Y327704D01*
X355555Y326090D01*
X353923Y326090D01*
X353923Y336211D01*
X352969Y336211D01*
X352969Y326090D01*
X351336Y326090D01*
X347439Y327704D01*
X344456Y330687D01*
X342842Y334584D01*
X342842Y336216D01*
X352963Y336216D01*
X352963Y337170D01*
X342842Y337170D01*
X342842Y338803D01*
X344456Y342700D01*
X347439Y345683D01*
X351336Y347297D01*
X352969Y346503D02*
X353923Y346503D01*
X353923Y343456D02*
X352969Y343456D01*
X352969Y340409D02*
X353923Y340409D01*
X353923Y337362D02*
X352969Y337362D01*
X352969Y334315D02*
X353923Y334315D01*
X353923Y331268D02*
X352969Y331268D01*
X352969Y328221D02*
X353923Y328221D01*
X359969Y328221D02*
X387137Y328221D01*
X386339Y326293D02*
X388098Y330540D01*
X391349Y333791D01*
X395596Y335550D01*
X400195Y335550D01*
X404442Y333791D01*
X407693Y330540D01*
X409452Y326293D01*
X409452Y321694D01*
X407693Y317447D01*
X404442Y314196D01*
X400195Y312437D01*
X395596Y312437D01*
X391349Y314196D01*
X388098Y317447D01*
X386339Y321694D01*
X386339Y326293D01*
X386339Y325174D02*
X207792Y325174D01*
X206764Y326202D02*
X209604Y323362D01*
X211141Y319652D01*
X211141Y315635D01*
X209604Y311925D01*
X206764Y309085D01*
X203054Y307548D01*
X199037Y307548D01*
X195327Y309085D01*
X192487Y311925D01*
X190950Y315635D01*
X190950Y319652D01*
X192487Y323362D01*
X195327Y326202D01*
X199037Y327739D01*
X203054Y327739D01*
X206764Y326202D01*
X210115Y322127D02*
X386339Y322127D01*
X387422Y319080D02*
X359936Y319080D01*
X359164Y319852D02*
X362004Y317012D01*
X363541Y313302D01*
X363541Y309285D01*
X362004Y305575D01*
X359164Y302735D01*
X355454Y301198D01*
X351437Y301198D01*
X347727Y302735D01*
X344887Y305575D01*
X343350Y309285D01*
X343350Y313302D01*
X344887Y317012D01*
X347727Y319852D01*
X351437Y321389D01*
X355454Y321389D01*
X359164Y319852D01*
X362409Y316033D02*
X389512Y316033D01*
X394271Y312986D02*
X363541Y312986D01*
X363541Y309939D02*
X450728Y309939D01*
X450728Y309171D02*
X450728Y313416D01*
X452352Y317336D01*
X455353Y320337D01*
X459273Y321961D01*
X463518Y321961D01*
X467438Y320337D01*
X470439Y317336D01*
X472063Y313416D01*
X472063Y309171D01*
X470439Y305251D01*
X467438Y302250D01*
X463518Y300626D01*
X459273Y300626D01*
X455353Y302250D01*
X452352Y305251D01*
X450728Y309171D01*
X451673Y306892D02*
X362550Y306892D01*
X360274Y303845D02*
X453758Y303845D01*
X458858Y300798D02*
X298834Y300798D01*
X298418Y300626D02*
X294173Y300626D01*
X290253Y302250D01*
X287252Y305251D01*
X285628Y309171D01*
X285628Y313416D01*
X287252Y317336D01*
X290253Y320337D01*
X294173Y321961D01*
X298418Y321961D01*
X302338Y320337D01*
X305339Y317336D01*
X306963Y313416D01*
X306963Y309171D01*
X305339Y305251D01*
X302338Y302250D01*
X298418Y300626D01*
X293758Y300798D02*
X280909Y300798D01*
X280991Y297751D02*
X652155Y297751D01*
X652377Y298286D02*
X655378Y301287D01*
X659298Y302911D01*
X663543Y302911D01*
X667463Y301287D01*
X670464Y298286D01*
X672088Y294366D01*
X672088Y290121D01*
X670464Y286201D01*
X667463Y283200D01*
X663543Y281576D01*
X659298Y281576D01*
X655378Y283200D01*
X652377Y286201D01*
X650753Y290121D01*
X650753Y294366D01*
X652377Y298286D01*
X654889Y300798D02*
X640146Y300798D01*
X639730Y300626D02*
X635485Y300626D01*
X631565Y302250D01*
X628564Y305251D01*
X626940Y309171D01*
X626940Y313416D01*
X628564Y317336D01*
X631565Y320337D01*
X635485Y321961D01*
X639730Y321961D01*
X643650Y320337D01*
X646651Y317336D01*
X648275Y313416D01*
X648275Y309171D01*
X646651Y305251D01*
X643650Y302250D01*
X639730Y300626D01*
X635070Y300798D02*
X614746Y300798D01*
X614330Y300626D02*
X610085Y300626D01*
X606165Y302250D01*
X603164Y305251D01*
X601540Y309171D01*
X601540Y313416D01*
X603164Y317336D01*
X606165Y320337D01*
X610085Y321961D01*
X614330Y321961D01*
X618250Y320337D01*
X621251Y317336D01*
X622875Y313416D01*
X622875Y309171D01*
X621251Y305251D01*
X618250Y302250D01*
X614330Y300626D01*
X609670Y300798D02*
X590934Y300798D01*
X592623Y296561D02*
X596868Y296561D01*
X600788Y294937D01*
X603789Y291936D01*
X605413Y288016D01*
X605413Y283771D01*
X603789Y279851D01*
X600788Y276850D01*
X596868Y275226D01*
X592623Y275226D01*
X588703Y276850D01*
X585702Y279851D01*
X584078Y283771D01*
X584078Y288016D01*
X585702Y291936D01*
X588703Y294937D01*
X592623Y296561D01*
X588470Y294704D02*
X575621Y294704D01*
X578504Y291657D02*
X585586Y291657D01*
X584324Y288610D02*
X579766Y288610D01*
X580013Y285563D02*
X584078Y285563D01*
X584598Y282516D02*
X579494Y282516D01*
X578007Y279469D02*
X586084Y279469D01*
X589737Y276422D02*
X574355Y276422D01*
X571468Y271161D02*
X575388Y269537D01*
X578389Y266536D01*
X580013Y262616D01*
X580013Y258371D01*
X578389Y254451D01*
X575388Y251450D01*
X571468Y249826D01*
X567223Y249826D01*
X563303Y251450D01*
X560302Y254451D01*
X558678Y258371D01*
X558678Y262616D01*
X560302Y266536D01*
X563303Y269537D01*
X567223Y271161D01*
X571468Y271161D01*
X573478Y270328D02*
X590612Y270328D01*
X588703Y269537D02*
X592623Y271161D01*
X596868Y271161D01*
X600788Y269537D01*
X603789Y266536D01*
X605413Y262616D01*
X605413Y258371D01*
X603789Y254451D01*
X600788Y251450D01*
X596868Y249826D01*
X592623Y249826D01*
X588703Y251450D01*
X585702Y254451D01*
X584078Y258371D01*
X584078Y262616D01*
X585702Y266536D01*
X588703Y269537D01*
X586447Y267281D02*
X577644Y267281D01*
X579342Y264234D02*
X584748Y264234D01*
X584078Y261187D02*
X580013Y261187D01*
X579918Y258140D02*
X584174Y258140D01*
X585437Y255093D02*
X578655Y255093D01*
X575984Y252046D02*
X588107Y252046D01*
X581414Y243652D02*
X584254Y240812D01*
X585791Y237102D01*
X585791Y233085D01*
X584254Y229375D01*
X581414Y226535D01*
X577704Y224998D01*
X573687Y224998D01*
X569977Y226535D01*
X567137Y229375D01*
X565600Y233085D01*
X565600Y237102D01*
X567137Y240812D01*
X569977Y243652D01*
X573687Y245189D01*
X577704Y245189D01*
X581414Y243652D01*
X582161Y242905D02*
X594630Y242905D01*
X595377Y243652D02*
X599087Y245189D01*
X603104Y245189D01*
X606814Y243652D01*
X609654Y240812D01*
X611191Y237102D01*
X611191Y233085D01*
X609654Y229375D01*
X606814Y226535D01*
X603104Y224998D01*
X599087Y224998D01*
X595377Y226535D01*
X592537Y229375D01*
X591000Y233085D01*
X591000Y237102D01*
X592537Y240812D01*
X595377Y243652D01*
X592141Y239858D02*
X584649Y239858D01*
X585791Y236811D02*
X591000Y236811D01*
X591000Y233764D02*
X585791Y233764D01*
X584810Y230717D02*
X591982Y230717D01*
X594242Y227670D02*
X582549Y227670D01*
X568842Y227670D02*
X557149Y227670D01*
X556014Y226535D02*
X552304Y224998D01*
X548287Y224998D01*
X544577Y226535D01*
X541737Y229375D01*
X540200Y233085D01*
X540200Y237102D01*
X541737Y240812D01*
X544577Y243652D01*
X548287Y245189D01*
X552304Y245189D01*
X556014Y243652D01*
X558854Y240812D01*
X560391Y237102D01*
X560391Y233085D01*
X558854Y229375D01*
X556014Y226535D01*
X559410Y230717D02*
X566582Y230717D01*
X565600Y233764D02*
X560391Y233764D01*
X560391Y236811D02*
X565600Y236811D01*
X566741Y239858D02*
X559249Y239858D01*
X556761Y242905D02*
X569230Y242905D01*
X562707Y252046D02*
X388659Y252046D01*
X386979Y248999D02*
X661004Y248999D01*
X661728Y248275D02*
X658727Y251276D01*
X657103Y255196D01*
X657103Y259441D01*
X658727Y263361D01*
X661728Y266362D01*
X665648Y267986D01*
X669893Y267986D01*
X673813Y266362D01*
X676814Y263361D01*
X678438Y259441D01*
X678438Y255196D01*
X676814Y251276D01*
X673813Y248275D01*
X669893Y246651D01*
X665648Y246651D01*
X661728Y248275D01*
X658408Y252046D02*
X626784Y252046D01*
X626188Y251450D02*
X622268Y249826D01*
X618023Y249826D01*
X614103Y251450D01*
X611102Y254451D01*
X609478Y258371D01*
X609478Y262616D01*
X611102Y266536D01*
X614103Y269537D01*
X618023Y271161D01*
X622268Y271161D01*
X626188Y269537D01*
X629189Y266536D01*
X630813Y262616D01*
X630813Y258371D01*
X629189Y254451D01*
X626188Y251450D01*
X629455Y255093D02*
X657146Y255093D01*
X657103Y258140D02*
X630718Y258140D01*
X630813Y261187D02*
X657826Y261187D01*
X659600Y264234D02*
X630142Y264234D01*
X628444Y267281D02*
X663946Y267281D01*
X671594Y267281D02*
X694331Y267281D01*
X694137Y267475D02*
X692600Y271185D01*
X692600Y275202D01*
X694137Y278912D01*
X696977Y281752D01*
X700687Y283289D01*
X704704Y283289D01*
X708414Y281752D01*
X711254Y278912D01*
X712791Y275202D01*
X712791Y271185D01*
X711254Y267475D01*
X708414Y264635D01*
X704704Y263098D01*
X700687Y263098D01*
X696977Y264635D01*
X694137Y267475D01*
X692956Y270328D02*
X624278Y270328D01*
X622268Y275226D02*
X626188Y276850D01*
X629189Y279851D01*
X630813Y283771D01*
X630813Y288016D01*
X629189Y291936D01*
X626188Y294937D01*
X622268Y296561D01*
X618023Y296561D01*
X614103Y294937D01*
X611102Y291936D01*
X609478Y288016D01*
X609478Y283771D01*
X611102Y279851D01*
X614103Y276850D01*
X618023Y275226D01*
X622268Y275226D01*
X625155Y276422D02*
X693105Y276422D01*
X692600Y273375D02*
X533721Y273375D01*
X533721Y275202D02*
X532184Y278912D01*
X529344Y281752D01*
X525634Y283289D01*
X521617Y283289D01*
X517907Y281752D01*
X515067Y278912D01*
X513530Y275202D01*
X513530Y271185D01*
X515067Y267475D01*
X517907Y264635D01*
X521617Y263098D01*
X525634Y263098D01*
X529344Y264635D01*
X532184Y267475D01*
X533721Y271185D01*
X533721Y275202D01*
X533215Y276422D02*
X564337Y276422D01*
X560684Y279469D02*
X531627Y279469D01*
X527499Y282516D02*
X559198Y282516D01*
X565212Y270328D02*
X533366Y270328D01*
X531990Y267281D02*
X561047Y267281D01*
X559348Y264234D02*
X528377Y264234D01*
X518875Y264234D02*
X480117Y264234D01*
X483730Y267281D02*
X515261Y267281D01*
X513886Y270328D02*
X485106Y270328D01*
X485461Y273375D02*
X513530Y273375D01*
X514035Y276422D02*
X484955Y276422D01*
X483367Y279469D02*
X515624Y279469D01*
X519751Y282516D02*
X479239Y282516D01*
X465626Y270328D02*
X386153Y270328D01*
X390319Y267281D02*
X467001Y267281D01*
X470615Y264234D02*
X392017Y264234D01*
X392688Y261187D02*
X558678Y261187D01*
X558774Y258140D02*
X392593Y258140D01*
X391330Y255093D02*
X560037Y255093D01*
X543830Y242905D02*
X531361Y242905D01*
X530614Y243652D02*
X533454Y240812D01*
X534991Y237102D01*
X534991Y233085D01*
X533454Y229375D01*
X530614Y226535D01*
X526904Y224998D01*
X522887Y224998D01*
X519177Y226535D01*
X516337Y229375D01*
X514800Y233085D01*
X514800Y237102D01*
X516337Y240812D01*
X519177Y243652D01*
X522887Y245189D01*
X526904Y245189D01*
X530614Y243652D01*
X533849Y239858D02*
X541341Y239858D01*
X540200Y236811D02*
X534991Y236811D01*
X534991Y233764D02*
X540200Y233764D01*
X541182Y230717D02*
X534010Y230717D01*
X531749Y227670D02*
X543442Y227670D01*
X518042Y227670D02*
X506349Y227670D01*
X505214Y226535D02*
X501504Y224998D01*
X497487Y224998D01*
X493777Y226535D01*
X490937Y229375D01*
X489400Y233085D01*
X489400Y237102D01*
X490937Y240812D01*
X493777Y243652D01*
X497487Y245189D01*
X501504Y245189D01*
X505214Y243652D01*
X508054Y240812D01*
X509591Y237102D01*
X509591Y233085D01*
X508054Y229375D01*
X505214Y226535D01*
X508610Y230717D02*
X515782Y230717D01*
X514800Y233764D02*
X509591Y233764D01*
X509591Y236811D02*
X514800Y236811D01*
X515941Y239858D02*
X508449Y239858D01*
X505961Y242905D02*
X518430Y242905D01*
X493030Y242905D02*
X481280Y242905D01*
X480102Y244083D02*
X483085Y241100D01*
X484699Y237203D01*
X484699Y235570D01*
X474578Y235570D01*
X474578Y234616D01*
X484699Y234616D01*
X484699Y232984D01*
X483085Y229087D01*
X480102Y226104D01*
X476205Y224490D01*
X474573Y224490D01*
X474573Y234611D01*
X473619Y234611D01*
X473619Y224490D01*
X471986Y224490D01*
X471173Y224827D01*
X503072Y192929D01*
X508131Y187870D01*
X508131Y164426D01*
X509591Y160902D01*
X509591Y156885D01*
X508054Y153175D01*
X505214Y150335D01*
X501504Y148798D01*
X497487Y148798D01*
X493777Y150335D01*
X490937Y153175D01*
X489400Y156885D01*
X489400Y160902D01*
X490860Y164426D01*
X490860Y180717D01*
X446503Y225075D01*
X442977Y226535D01*
X440137Y229375D01*
X438600Y233085D01*
X438600Y237102D01*
X440137Y240812D01*
X442977Y243652D01*
X446687Y245189D01*
X450704Y245189D01*
X454414Y243652D01*
X457254Y240812D01*
X458714Y237286D01*
X463829Y232171D01*
X463492Y232984D01*
X463492Y234616D01*
X473613Y234616D01*
X473613Y235570D01*
X463492Y235570D01*
X463492Y237203D01*
X465106Y241100D01*
X468089Y244083D01*
X471986Y245697D01*
X473619Y245697D01*
X473619Y235576D01*
X474573Y235576D01*
X474573Y245697D01*
X476205Y245697D01*
X480102Y244083D01*
X483599Y239858D02*
X490541Y239858D01*
X489400Y236811D02*
X484699Y236811D01*
X484699Y233764D02*
X489400Y233764D01*
X490382Y230717D02*
X483761Y230717D01*
X481668Y227670D02*
X492642Y227670D01*
X476527Y224623D02*
X659261Y224623D01*
X658296Y225588D02*
X656595Y229695D01*
X656595Y231441D01*
X667288Y231441D01*
X667288Y232395D01*
X656595Y232395D01*
X656595Y234142D01*
X658296Y238249D01*
X661440Y241393D01*
X665547Y243094D01*
X667294Y243094D01*
X667294Y232401D01*
X668248Y232401D01*
X668248Y243094D01*
X669994Y243094D01*
X674101Y241393D01*
X677245Y238249D01*
X678946Y234142D01*
X678946Y232395D01*
X668253Y232395D01*
X668253Y231441D01*
X678946Y231441D01*
X678946Y229695D01*
X677245Y225588D01*
X674101Y222444D01*
X669994Y220743D01*
X668248Y220743D01*
X668248Y231436D01*
X667294Y231436D01*
X667294Y220743D01*
X665547Y220743D01*
X661440Y222444D01*
X658296Y225588D01*
X657434Y227670D02*
X633349Y227670D01*
X632214Y226535D02*
X635054Y229375D01*
X636591Y233085D01*
X636591Y237102D01*
X635054Y240812D01*
X632214Y243652D01*
X628504Y245189D01*
X624487Y245189D01*
X620777Y243652D01*
X617937Y240812D01*
X616400Y237102D01*
X616400Y233085D01*
X617937Y229375D01*
X620777Y226535D01*
X624487Y224998D01*
X628504Y224998D01*
X632214Y226535D01*
X635610Y230717D02*
X656595Y230717D01*
X656595Y233764D02*
X636591Y233764D01*
X636591Y236811D02*
X657700Y236811D01*
X659905Y239858D02*
X635449Y239858D01*
X632961Y242905D02*
X665090Y242905D01*
X667294Y242905D02*
X668248Y242905D01*
X670450Y242905D02*
X801124Y242905D01*
X801602Y241751D02*
X799978Y245671D01*
X799978Y249916D01*
X801602Y253836D01*
X804603Y256837D01*
X808523Y258461D01*
X812768Y258461D01*
X816688Y256837D01*
X819689Y253836D01*
X821313Y249916D01*
X821313Y245671D01*
X819689Y241751D01*
X816688Y238750D01*
X812768Y237126D01*
X808523Y237126D01*
X804603Y238750D01*
X801602Y241751D01*
X803495Y239858D02*
X675636Y239858D01*
X677840Y236811D02*
X824108Y236811D01*
X824108Y239858D02*
X817796Y239858D01*
X820168Y242905D02*
X824108Y242905D01*
X824108Y245952D02*
X821313Y245952D01*
X821313Y248999D02*
X824108Y248999D01*
X824108Y252046D02*
X820430Y252046D01*
X818432Y255093D02*
X824108Y255093D01*
X824108Y258140D02*
X813542Y258140D01*
X812869Y262018D02*
X811123Y262018D01*
X811123Y272711D01*
X810169Y272711D01*
X810169Y262018D01*
X808422Y262018D01*
X804315Y263719D01*
X801171Y266863D01*
X799470Y270970D01*
X799470Y272716D01*
X810163Y272716D01*
X810163Y273670D01*
X799470Y273670D01*
X799470Y275417D01*
X801171Y279524D01*
X804315Y282668D01*
X805102Y282994D01*
X804603Y283200D01*
X801602Y286201D01*
X799978Y290121D01*
X799978Y294366D01*
X801602Y298286D01*
X804603Y301287D01*
X808523Y302911D01*
X812768Y302911D01*
X816688Y301287D01*
X819689Y298286D01*
X821313Y294366D01*
X821313Y290121D01*
X819689Y286201D01*
X816688Y283200D01*
X816189Y282994D01*
X816976Y282668D01*
X820120Y279524D01*
X821821Y275417D01*
X821821Y273670D01*
X811128Y273670D01*
X811128Y272716D01*
X821821Y272716D01*
X821821Y270970D01*
X820120Y266863D01*
X816976Y263719D01*
X812869Y262018D01*
X811123Y264234D02*
X810169Y264234D01*
X810169Y267281D02*
X811123Y267281D01*
X811123Y270328D02*
X810169Y270328D01*
X810645Y273194D02*
X778895Y273194D01*
X766195Y273194D01*
X766195Y301769D01*
X778895Y301769D01*
X778419Y302251D02*
X779373Y302251D01*
X779373Y312944D01*
X781119Y312944D01*
X785226Y311243D01*
X788370Y308099D01*
X790071Y303992D01*
X790071Y302245D01*
X779378Y302245D01*
X779378Y301291D01*
X790071Y301291D01*
X790071Y299545D01*
X788370Y295438D01*
X785226Y292294D01*
X781119Y290593D01*
X779373Y290593D01*
X779373Y301286D01*
X778419Y301286D01*
X778419Y290593D01*
X776672Y290593D01*
X772565Y292294D01*
X769421Y295438D01*
X767720Y299545D01*
X767720Y301291D01*
X778413Y301291D01*
X778413Y302245D01*
X767720Y302245D01*
X767720Y303992D01*
X769421Y308099D01*
X772565Y311243D01*
X776672Y312944D01*
X778419Y312944D01*
X778419Y302251D01*
X778419Y300798D02*
X779373Y300798D01*
X779373Y303845D02*
X778419Y303845D01*
X778419Y306892D02*
X779373Y306892D01*
X779373Y309939D02*
X778419Y309939D01*
X771261Y309939D02*
X760411Y309939D01*
X759538Y310812D02*
X762539Y307811D01*
X764163Y303891D01*
X764163Y299646D01*
X762539Y295726D01*
X759538Y292725D01*
X755618Y291101D01*
X751373Y291101D01*
X747453Y292725D01*
X744452Y295726D01*
X742828Y299646D01*
X742828Y303891D01*
X744452Y307811D01*
X747453Y310812D01*
X751373Y312436D01*
X755618Y312436D01*
X759538Y310812D01*
X762919Y306892D02*
X768921Y306892D01*
X767720Y303845D02*
X764163Y303845D01*
X766195Y301769D02*
X766195Y317644D01*
X772545Y317644D01*
X810645Y317644D01*
X810645Y343044D01*
X810163Y343456D02*
X642906Y343456D01*
X643513Y340409D02*
X799641Y340409D01*
X800903Y337362D02*
X779745Y337362D01*
X778876Y338231D02*
X782020Y335087D01*
X783721Y330980D01*
X783721Y329233D01*
X773028Y329233D01*
X773028Y328279D01*
X783721Y328279D01*
X783721Y326533D01*
X782020Y322426D01*
X778876Y319282D01*
X774769Y317581D01*
X773023Y317581D01*
X773023Y328274D01*
X772069Y328274D01*
X772069Y317581D01*
X770322Y317581D01*
X766215Y319282D01*
X763071Y322426D01*
X761370Y326533D01*
X761370Y328279D01*
X772063Y328279D01*
X772063Y329233D01*
X761370Y329233D01*
X761370Y330980D01*
X763071Y335087D01*
X766215Y338231D01*
X770322Y339932D01*
X772069Y339932D01*
X772069Y329239D01*
X773023Y329239D01*
X773023Y339932D01*
X774769Y339932D01*
X778876Y338231D01*
X782339Y334315D02*
X803569Y334315D01*
X810169Y334315D02*
X811123Y334315D01*
X811123Y337362D02*
X810169Y337362D01*
X810169Y340409D02*
X811123Y340409D01*
X811128Y343456D02*
X824108Y343456D01*
X824108Y340409D02*
X821651Y340409D01*
X820389Y337362D02*
X824108Y337362D01*
X824108Y334315D02*
X817722Y334315D01*
X814312Y328221D02*
X824108Y328221D01*
X824108Y331268D02*
X783601Y331268D01*
X783721Y328221D02*
X806978Y328221D01*
X808422Y328819D02*
X804315Y327118D01*
X801171Y323974D01*
X799470Y319867D01*
X799470Y318120D01*
X810163Y318120D01*
X810163Y317166D01*
X799470Y317166D01*
X799470Y315420D01*
X801171Y311313D01*
X804315Y308169D01*
X808422Y306468D01*
X810169Y306468D01*
X810169Y317161D01*
X811123Y317161D01*
X811123Y306468D01*
X812869Y306468D01*
X816976Y308169D01*
X820120Y311313D01*
X821821Y315420D01*
X821821Y317166D01*
X811128Y317166D01*
X811128Y318120D01*
X821821Y318120D01*
X821821Y319867D01*
X820120Y323974D01*
X816976Y327118D01*
X812869Y328819D01*
X811123Y328819D01*
X811123Y318126D01*
X810169Y318126D01*
X810169Y328819D01*
X808422Y328819D01*
X810169Y328221D02*
X811123Y328221D01*
X811123Y325174D02*
X810169Y325174D01*
X810169Y322127D02*
X811123Y322127D01*
X811123Y319080D02*
X810169Y319080D01*
X810169Y316033D02*
X811123Y316033D01*
X811123Y312986D02*
X810169Y312986D01*
X810169Y309939D02*
X811123Y309939D01*
X811123Y306892D02*
X810169Y306892D01*
X807399Y306892D02*
X788869Y306892D01*
X790071Y303845D02*
X824108Y303845D01*
X824108Y300798D02*
X817177Y300798D01*
X819910Y297751D02*
X824108Y297751D01*
X824108Y294704D02*
X821172Y294704D01*
X821313Y291657D02*
X824108Y291657D01*
X824108Y288610D02*
X820688Y288610D01*
X819051Y285563D02*
X824108Y285563D01*
X824108Y282516D02*
X817128Y282516D01*
X820142Y279469D02*
X824108Y279469D01*
X824108Y276422D02*
X821404Y276422D01*
X824108Y273375D02*
X811128Y273375D01*
X810163Y273375D02*
X779378Y273375D01*
X779378Y273670D02*
X779378Y272716D01*
X789499Y272716D01*
X789499Y271084D01*
X787885Y267187D01*
X784902Y264204D01*
X781005Y262590D01*
X779373Y262590D01*
X779373Y272711D01*
X778419Y272711D01*
X778419Y262590D01*
X776786Y262590D01*
X772889Y264204D01*
X769906Y267187D01*
X768292Y271084D01*
X768292Y272716D01*
X778413Y272716D01*
X778413Y273670D01*
X768292Y273670D01*
X768292Y275303D01*
X769906Y279200D01*
X772889Y282183D01*
X776786Y283797D01*
X778419Y283797D01*
X778419Y273676D01*
X779373Y273676D01*
X779373Y283797D01*
X781005Y283797D01*
X784902Y282183D01*
X787885Y279200D01*
X789499Y275303D01*
X789499Y273670D01*
X779378Y273670D01*
X778413Y273375D02*
X763591Y273375D01*
X763591Y275202D02*
X762054Y278912D01*
X759214Y281752D01*
X755504Y283289D01*
X751487Y283289D01*
X747777Y281752D01*
X744937Y278912D01*
X743400Y275202D01*
X743400Y271185D01*
X744937Y267475D01*
X747777Y264635D01*
X751487Y263098D01*
X755504Y263098D01*
X759214Y264635D01*
X762054Y267475D01*
X763591Y271185D01*
X763591Y275202D01*
X763085Y276422D02*
X768755Y276422D01*
X770175Y279469D02*
X761497Y279469D01*
X757369Y282516D02*
X773693Y282516D01*
X778419Y282516D02*
X779373Y282516D01*
X779373Y279469D02*
X778419Y279469D01*
X778419Y276422D02*
X779373Y276422D01*
X779373Y270328D02*
X778419Y270328D01*
X778419Y267281D02*
X779373Y267281D01*
X779373Y264234D02*
X778419Y264234D01*
X772859Y264234D02*
X758247Y264234D01*
X761860Y267281D02*
X769868Y267281D01*
X768606Y270328D02*
X763236Y270328D01*
X766195Y273194D02*
X766195Y254144D01*
X680470Y254144D01*
X680470Y279544D01*
X648720Y279544D01*
X648720Y317644D01*
X661420Y317644D01*
X660944Y319080D02*
X661898Y319080D01*
X661898Y322127D02*
X660944Y322127D01*
X660944Y325174D02*
X661898Y325174D01*
X661898Y328221D02*
X660944Y328221D01*
X657753Y328221D02*
X493409Y328221D01*
X496095Y331268D02*
X517691Y331268D01*
X518565Y330394D02*
X515421Y333538D01*
X513720Y337645D01*
X513720Y339391D01*
X524413Y339391D01*
X524413Y340345D01*
X513720Y340345D01*
X513720Y342092D01*
X515421Y346199D01*
X518565Y349343D01*
X522672Y351044D01*
X524419Y351044D01*
X524419Y340351D01*
X525373Y340351D01*
X525373Y351044D01*
X527119Y351044D01*
X531226Y349343D01*
X534370Y346199D01*
X536071Y342092D01*
X536071Y340345D01*
X525378Y340345D01*
X525378Y339391D01*
X536071Y339391D01*
X536071Y337645D01*
X534370Y333538D01*
X531226Y330394D01*
X527119Y328693D01*
X525373Y328693D01*
X525373Y339386D01*
X524419Y339386D01*
X524419Y328693D01*
X522672Y328693D01*
X518565Y330394D01*
X515100Y334315D02*
X497357Y334315D01*
X497463Y337362D02*
X513838Y337362D01*
X513720Y340409D02*
X496803Y340409D01*
X495119Y343456D02*
X514284Y343456D01*
X515725Y346503D02*
X490989Y346503D01*
X497227Y364785D02*
X568821Y364785D01*
X565774Y367832D02*
X495964Y367832D01*
X519064Y349550D02*
X050283Y349550D01*
X050283Y346503D02*
X057447Y346503D01*
X057758Y346814D02*
X062146Y348631D01*
X066895Y348631D01*
X071283Y346814D01*
X074641Y343456D01*
X287972Y343456D01*
X287252Y342736D02*
X290253Y345737D01*
X294173Y347361D01*
X298418Y347361D01*
X302338Y345737D01*
X305339Y342736D01*
X306963Y338816D01*
X306963Y334571D01*
X305339Y330651D01*
X302338Y327650D01*
X298418Y326026D01*
X294173Y326026D01*
X290253Y327650D01*
X287252Y330651D01*
X285628Y334571D01*
X285628Y338816D01*
X287252Y342736D01*
X286287Y340409D02*
X075902Y340409D01*
X076458Y339068D02*
X074641Y343456D01*
X071594Y346503D02*
X292101Y346503D01*
X300489Y346503D02*
X349418Y346503D01*
X345212Y343456D02*
X304619Y343456D01*
X306303Y340409D02*
X343507Y340409D01*
X342842Y337362D02*
X306963Y337362D01*
X306857Y334315D02*
X342954Y334315D01*
X344216Y331268D02*
X305595Y331268D01*
X302909Y328221D02*
X346922Y328221D01*
X346955Y319080D02*
X303595Y319080D01*
X305878Y316033D02*
X344481Y316033D01*
X343350Y312986D02*
X306963Y312986D01*
X306963Y309939D02*
X343350Y309939D01*
X344342Y306892D02*
X306019Y306892D01*
X303933Y303845D02*
X346617Y303845D01*
X360729Y279469D02*
X373359Y279469D01*
X377012Y276422D02*
X362485Y276422D01*
X390026Y245952D02*
X799978Y245952D01*
X799978Y248999D02*
X674537Y248999D01*
X677133Y252046D02*
X800860Y252046D01*
X802859Y255093D02*
X678396Y255093D01*
X680470Y254144D02*
X680470Y206519D01*
X667770Y206519D01*
X667770Y231919D01*
X667294Y230717D02*
X668248Y230717D01*
X668248Y233764D02*
X667294Y233764D01*
X667294Y236811D02*
X668248Y236811D01*
X668248Y239858D02*
X667294Y239858D01*
X667294Y227670D02*
X668248Y227670D01*
X668248Y224623D02*
X667294Y224623D01*
X667294Y221576D02*
X668248Y221576D01*
X672006Y221576D02*
X799978Y221576D01*
X799978Y220271D02*
X799978Y224516D01*
X801602Y228436D01*
X804603Y231437D01*
X808523Y233061D01*
X812768Y233061D01*
X816688Y231437D01*
X819689Y228436D01*
X821313Y224516D01*
X821313Y220271D01*
X819689Y216351D01*
X816688Y213350D01*
X812768Y211726D01*
X808523Y211726D01*
X804603Y213350D01*
X801602Y216351D01*
X799978Y220271D01*
X800700Y218529D02*
X477471Y218529D01*
X480518Y215482D02*
X660929Y215482D01*
X661440Y215993D02*
X665547Y217694D01*
X667294Y217694D01*
X667294Y207001D01*
X668248Y207001D01*
X668248Y217694D01*
X669994Y217694D01*
X674101Y215993D01*
X677245Y212849D01*
X678946Y208742D01*
X678946Y206995D01*
X668253Y206995D01*
X668253Y206041D01*
X678946Y206041D01*
X678946Y204295D01*
X677245Y200188D01*
X674101Y197044D01*
X669994Y195343D01*
X668248Y195343D01*
X668248Y206036D01*
X667294Y206036D01*
X667294Y195343D01*
X665547Y195343D01*
X661440Y197044D01*
X658296Y200188D01*
X656595Y204295D01*
X656595Y206041D01*
X667288Y206041D01*
X667288Y206995D01*
X656595Y206995D01*
X656595Y208742D01*
X658296Y212849D01*
X661440Y215993D01*
X658124Y212435D02*
X483565Y212435D01*
X486612Y209388D02*
X656862Y209388D01*
X651895Y206519D02*
X667770Y206519D01*
X667288Y206341D02*
X489659Y206341D01*
X492706Y203294D02*
X657010Y203294D01*
X658272Y200247D02*
X495753Y200247D01*
X498800Y197200D02*
X661284Y197200D01*
X667294Y197200D02*
X668248Y197200D01*
X668248Y200247D02*
X667294Y200247D01*
X667294Y203294D02*
X668248Y203294D01*
X668253Y206341D02*
X698881Y206341D01*
X700687Y207089D02*
X704704Y207089D01*
X708414Y205552D01*
X711254Y202712D01*
X712791Y199002D01*
X712791Y194985D01*
X711254Y191275D01*
X708414Y188435D01*
X704704Y186898D01*
X700687Y186898D01*
X696977Y188435D01*
X694137Y191275D01*
X692600Y194985D01*
X692600Y199002D01*
X694137Y202712D01*
X696977Y205552D01*
X700687Y207089D01*
X706509Y206341D02*
X724281Y206341D01*
X726087Y207089D02*
X730104Y207089D01*
X733814Y205552D01*
X736654Y202712D01*
X738191Y199002D01*
X738191Y194985D01*
X736654Y191275D01*
X733814Y188435D01*
X730104Y186898D01*
X726087Y186898D01*
X722377Y188435D01*
X719537Y191275D01*
X718000Y194985D01*
X718000Y199002D01*
X719537Y202712D01*
X722377Y205552D01*
X726087Y207089D01*
X731909Y206341D02*
X749681Y206341D01*
X751487Y207089D02*
X755504Y207089D01*
X759214Y205552D01*
X762054Y202712D01*
X763591Y199002D01*
X763591Y194985D01*
X762054Y191275D01*
X759214Y188435D01*
X755504Y186898D01*
X751487Y186898D01*
X747777Y188435D01*
X744937Y191275D01*
X743400Y194985D01*
X743400Y199002D01*
X744937Y202712D01*
X747777Y205552D01*
X751487Y207089D01*
X757309Y206341D02*
X775081Y206341D01*
X776887Y207089D02*
X780904Y207089D01*
X784614Y205552D01*
X787454Y202712D01*
X788991Y199002D01*
X788991Y194985D01*
X787454Y191275D01*
X784614Y188435D01*
X780904Y186898D01*
X776887Y186898D01*
X773177Y188435D01*
X770337Y191275D01*
X768800Y194985D01*
X768800Y199002D01*
X770337Y202712D01*
X773177Y205552D01*
X776887Y207089D01*
X782709Y206341D02*
X805336Y206341D01*
X804603Y206037D02*
X808523Y207661D01*
X812768Y207661D01*
X816688Y206037D01*
X819689Y203036D01*
X821313Y199116D01*
X821313Y194871D01*
X819689Y190951D01*
X816688Y187950D01*
X812768Y186326D01*
X808523Y186326D01*
X804603Y187950D01*
X801602Y190951D01*
X799978Y194871D01*
X799978Y199116D01*
X801602Y203036D01*
X804603Y206037D01*
X801860Y203294D02*
X786872Y203294D01*
X788475Y200247D02*
X800446Y200247D01*
X799978Y197200D02*
X788991Y197200D01*
X788647Y194153D02*
X800276Y194153D01*
X801538Y191106D02*
X787285Y191106D01*
X783707Y188059D02*
X804494Y188059D01*
X816797Y188059D02*
X824108Y188059D01*
X824108Y191106D02*
X819754Y191106D01*
X821016Y194153D02*
X824108Y194153D01*
X824108Y197200D02*
X821313Y197200D01*
X820844Y200247D02*
X824108Y200247D01*
X824108Y203294D02*
X819431Y203294D01*
X815954Y206341D02*
X824108Y206341D01*
X824108Y209388D02*
X678678Y209388D01*
X677416Y212435D02*
X806812Y212435D01*
X802471Y215482D02*
X674612Y215482D01*
X668248Y215482D02*
X667294Y215482D01*
X667294Y212435D02*
X668248Y212435D01*
X668248Y209388D02*
X667294Y209388D01*
X651895Y206519D02*
X651895Y158894D01*
X677295Y158894D01*
X683645Y158894D01*
X683645Y173182D01*
X683646Y173182D01*
X683164Y172824D02*
X508131Y172824D01*
X508131Y169777D02*
X672961Y169777D01*
X672471Y170958D02*
X672471Y172704D01*
X683164Y172704D01*
X683164Y173658D01*
X672471Y173658D01*
X672471Y175405D01*
X674172Y179512D01*
X677316Y182656D01*
X681423Y184357D01*
X683170Y184357D01*
X683170Y173664D01*
X684124Y173664D01*
X684124Y184357D01*
X685870Y184357D01*
X689977Y182656D01*
X693121Y179512D01*
X694822Y175405D01*
X694822Y173658D01*
X684129Y173658D01*
X684129Y172704D01*
X694822Y172704D01*
X694822Y170958D01*
X693121Y166851D01*
X689977Y163707D01*
X685870Y162006D01*
X684124Y162006D01*
X684124Y172699D01*
X683170Y172699D01*
X683170Y162006D01*
X681423Y162006D01*
X677316Y163707D01*
X674172Y166851D01*
X672471Y170958D01*
X674293Y166730D02*
X659055Y166730D01*
X657902Y167883D02*
X660885Y164900D01*
X662499Y161003D01*
X662499Y159370D01*
X652378Y159370D01*
X652378Y158416D01*
X662499Y158416D01*
X662499Y156784D01*
X660885Y152887D01*
X657902Y149904D01*
X654005Y148290D01*
X652373Y148290D01*
X652373Y158411D01*
X651419Y158411D01*
X651419Y148290D01*
X649786Y148290D01*
X645889Y149904D01*
X642906Y152887D01*
X641292Y156784D01*
X641292Y158416D01*
X651413Y158416D01*
X651413Y159370D01*
X641292Y159370D01*
X641292Y161003D01*
X642906Y164900D01*
X645889Y167883D01*
X649786Y169497D01*
X651419Y169497D01*
X651419Y159376D01*
X652373Y159376D01*
X652373Y169497D01*
X654005Y169497D01*
X657902Y167883D01*
X661389Y163683D02*
X677374Y163683D01*
X677295Y158894D02*
X677295Y108094D01*
X797945Y108094D01*
X797945Y063644D01*
X810645Y063644D01*
X809663Y063132D02*
X790834Y063132D01*
X790767Y066179D02*
X798224Y066179D01*
X799486Y069226D02*
X789505Y069226D01*
X787150Y072273D02*
X801674Y072273D01*
X806313Y075320D02*
X781901Y075320D01*
X775891Y075320D02*
X756501Y075320D01*
X750491Y075320D02*
X717983Y075320D01*
X717983Y072273D02*
X745243Y072273D01*
X742887Y069226D02*
X717457Y069226D01*
X716195Y066179D02*
X741625Y066179D01*
X741559Y063132D02*
X714933Y063132D01*
X712003Y060085D02*
X742050Y060085D01*
X743311Y057038D02*
X708812Y057038D01*
X685980Y057038D02*
X194012Y057038D01*
X197203Y060085D02*
X321071Y060085D01*
X321283Y059873D02*
X317925Y063231D01*
X316108Y067619D01*
X316108Y072368D01*
X317925Y076756D01*
X321283Y080114D01*
X325671Y081931D01*
X330420Y081931D01*
X334808Y080114D01*
X338166Y076756D01*
X339983Y072368D01*
X339983Y067619D01*
X338166Y063231D01*
X334808Y059873D01*
X330420Y058056D01*
X325671Y058056D01*
X321283Y059873D01*
X318024Y063132D02*
X200133Y063132D01*
X201395Y066179D02*
X219790Y066179D01*
X216680Y069226D02*
X202657Y069226D01*
X203183Y072273D02*
X215211Y072273D01*
X214508Y075320D02*
X203183Y075320D01*
X203183Y078367D02*
X214508Y078367D01*
X215624Y081414D02*
X202054Y081414D01*
X200792Y084461D02*
X217680Y084461D01*
X222204Y087508D02*
X198797Y087508D01*
X195750Y090555D02*
X233474Y090555D01*
X236521Y093602D02*
X190503Y093602D01*
X174687Y093602D02*
X069381Y093602D01*
X073543Y090555D02*
X169441Y090555D01*
X166394Y087508D02*
X075448Y087508D01*
X076459Y084461D02*
X164398Y084461D01*
X163136Y081414D02*
X076459Y081414D01*
X075651Y078367D02*
X162008Y078367D01*
X162008Y075320D02*
X074031Y075320D01*
X070560Y072273D02*
X162008Y072273D01*
X226445Y076344D02*
X251845Y101744D01*
X251845Y171594D01*
X232795Y190644D01*
X243463Y191106D02*
X363860Y191106D01*
X363860Y188059D02*
X243272Y188059D01*
X245610Y185012D02*
X363860Y185012D01*
X363784Y181965D02*
X248657Y181965D01*
X251704Y178918D02*
X362908Y178918D01*
X362977Y175871D02*
X254751Y175871D01*
X256925Y172824D02*
X364239Y172824D01*
X367159Y169777D02*
X256925Y169777D01*
X256925Y166730D02*
X289855Y166730D01*
X290577Y167452D02*
X287737Y164612D01*
X286200Y160902D01*
X286200Y156885D01*
X287737Y153175D01*
X290577Y150335D01*
X294287Y148798D01*
X298304Y148798D01*
X302014Y150335D01*
X304854Y153175D01*
X306391Y156885D01*
X306391Y160902D01*
X304854Y164612D01*
X302014Y167452D01*
X298304Y168989D01*
X294287Y168989D01*
X290577Y167452D01*
X287352Y163683D02*
X256925Y163683D01*
X256925Y160636D02*
X286200Y160636D01*
X286200Y157589D02*
X256925Y157589D01*
X256925Y154542D02*
X287171Y154542D01*
X289417Y151495D02*
X256925Y151495D01*
X256925Y148448D02*
X446205Y148448D01*
X446586Y148290D02*
X442689Y149904D01*
X439706Y152887D01*
X438092Y156784D01*
X438092Y158416D01*
X448213Y158416D01*
X448213Y159370D01*
X438092Y159370D01*
X438092Y161003D01*
X439706Y164900D01*
X442689Y167883D01*
X446586Y169497D01*
X448219Y169497D01*
X448219Y159376D01*
X449173Y159376D01*
X449173Y169497D01*
X450805Y169497D01*
X454702Y167883D01*
X457685Y164900D01*
X459299Y161003D01*
X459299Y159370D01*
X449178Y159370D01*
X449178Y158416D01*
X459299Y158416D01*
X459299Y156784D01*
X457685Y152887D01*
X454702Y149904D01*
X450805Y148290D01*
X449173Y148290D01*
X449173Y158411D01*
X448219Y158411D01*
X448219Y148290D01*
X446586Y148290D01*
X448219Y148448D02*
X449173Y148448D01*
X451187Y148448D02*
X528159Y148448D01*
X527544Y149063D02*
X526904Y148798D01*
X522887Y148798D01*
X519177Y150335D01*
X516337Y153175D01*
X514800Y156885D01*
X514800Y160902D01*
X516337Y164612D01*
X519177Y167452D01*
X522887Y168989D01*
X526904Y168989D01*
X530614Y167452D01*
X533454Y164612D01*
X534991Y160902D01*
X534991Y156885D01*
X534726Y156245D01*
X555375Y135597D01*
X555375Y131390D01*
X555375Y115558D01*
X556953Y117137D01*
X560873Y118761D01*
X565118Y118761D01*
X569038Y117137D01*
X572039Y114136D01*
X573663Y110216D01*
X573663Y105971D01*
X572039Y102051D01*
X569038Y099050D01*
X565118Y097426D01*
X560873Y097426D01*
X556953Y099050D01*
X555375Y100629D01*
X555375Y086940D01*
X552399Y083964D01*
X542485Y074051D01*
X543183Y072368D01*
X543183Y067619D01*
X541366Y063231D01*
X538008Y059873D01*
X533620Y058056D01*
X528871Y058056D01*
X524483Y059873D01*
X521125Y063231D01*
X519308Y067619D01*
X519308Y072368D01*
X521125Y076756D01*
X524483Y080114D01*
X528871Y081931D01*
X533620Y081931D01*
X535303Y081233D01*
X545216Y091147D01*
X545216Y131390D01*
X527544Y149063D01*
X531206Y145401D02*
X493149Y145401D01*
X493246Y145304D02*
X499094Y145304D01*
X506247Y145304D01*
X508776Y142775D01*
X509766Y141784D01*
X511306Y140245D01*
X532790Y118760D01*
X533368Y118760D01*
X537288Y117136D01*
X540289Y114135D01*
X541913Y110215D01*
X541913Y105970D01*
X540289Y102050D01*
X537288Y099049D01*
X533368Y097425D01*
X529123Y097425D01*
X525203Y099049D01*
X522202Y102050D01*
X520578Y105970D01*
X520578Y106548D01*
X516230Y110897D01*
X516513Y110215D01*
X516513Y105970D01*
X514889Y102050D01*
X511888Y099049D01*
X507968Y097425D01*
X503723Y097425D01*
X499803Y099049D01*
X496802Y102050D01*
X495178Y105970D01*
X495178Y110215D01*
X496802Y114135D01*
X499803Y117136D01*
X503723Y118760D01*
X507968Y118760D01*
X508651Y118477D01*
X499094Y128033D01*
X493246Y128033D01*
X492838Y127625D01*
X488918Y126001D01*
X484673Y126001D01*
X480753Y127625D01*
X477752Y130626D01*
X476128Y134546D01*
X476128Y138791D01*
X477752Y142711D01*
X480753Y145712D01*
X484673Y147336D01*
X488918Y147336D01*
X492838Y145712D01*
X493246Y145304D01*
X492617Y151495D02*
X480974Y151495D01*
X479814Y150335D02*
X476104Y148798D01*
X472087Y148798D01*
X468377Y150335D01*
X465537Y153175D01*
X464000Y156885D01*
X464000Y160902D01*
X465537Y164612D01*
X468377Y167452D01*
X472087Y168989D01*
X476104Y168989D01*
X479814Y167452D01*
X482654Y164612D01*
X484191Y160902D01*
X484191Y156885D01*
X482654Y153175D01*
X479814Y150335D01*
X480442Y145401D02*
X468468Y145401D01*
X467726Y146143D02*
X470870Y142999D01*
X472571Y138892D01*
X472571Y137145D01*
X461878Y137145D01*
X461878Y136191D01*
X472571Y136191D01*
X472571Y134445D01*
X470870Y130338D01*
X467726Y127194D01*
X463619Y125493D01*
X461873Y125493D01*
X461873Y136186D01*
X460919Y136186D01*
X460919Y125493D01*
X459172Y125493D01*
X455065Y127194D01*
X451921Y130338D01*
X450220Y134445D01*
X450220Y136191D01*
X460913Y136191D01*
X460913Y137145D01*
X450220Y137145D01*
X450220Y138892D01*
X451921Y142999D01*
X455065Y146143D01*
X459172Y147844D01*
X460919Y147844D01*
X460919Y137151D01*
X461873Y137151D01*
X461873Y147844D01*
X463619Y147844D01*
X467726Y146143D01*
X471137Y142354D02*
X477604Y142354D01*
X476341Y139307D02*
X472399Y139307D01*
X476128Y136260D02*
X461878Y136260D01*
X461395Y136669D02*
X461395Y125557D01*
X493145Y125557D01*
X493145Y095394D01*
X505845Y095394D01*
X505845Y069994D01*
X505845Y057294D01*
X582045Y057294D01*
X582045Y069994D01*
X582045Y089044D01*
X588395Y089044D01*
X588395Y108094D01*
X588395Y127144D01*
X639195Y127144D01*
X639195Y158894D01*
X651895Y158894D01*
X652373Y157589D02*
X651419Y157589D01*
X651419Y154542D02*
X652373Y154542D01*
X652373Y151495D02*
X651419Y151495D01*
X651419Y148448D02*
X652373Y148448D01*
X654387Y148448D02*
X697108Y148448D01*
X697108Y148568D02*
X698925Y152956D01*
X702283Y156314D01*
X706671Y158131D01*
X711420Y158131D01*
X715808Y156314D01*
X719166Y152956D01*
X720983Y148568D01*
X720983Y143819D01*
X719166Y139431D01*
X715808Y136073D01*
X711420Y134256D01*
X706671Y134256D01*
X702283Y136073D01*
X698925Y139431D01*
X697108Y143819D01*
X697108Y148568D01*
X697108Y145401D02*
X629389Y145401D01*
X629189Y145886D02*
X630813Y141966D01*
X630813Y137721D01*
X629189Y133801D01*
X626188Y130800D01*
X622268Y129176D01*
X618023Y129176D01*
X614103Y130800D01*
X611102Y133801D01*
X609478Y137721D01*
X609478Y141966D01*
X611102Y145886D01*
X614103Y148887D01*
X618023Y150511D01*
X620602Y150511D01*
X617937Y153175D01*
X616400Y156885D01*
X616400Y160902D01*
X617937Y164612D01*
X620777Y167452D01*
X624487Y168989D01*
X628504Y168989D01*
X632214Y167452D01*
X635054Y164612D01*
X636591Y160902D01*
X636591Y156885D01*
X635054Y153175D01*
X632214Y150335D01*
X628504Y148798D01*
X626276Y148798D01*
X629189Y145886D01*
X626626Y148448D02*
X649405Y148448D01*
X649887Y143589D02*
X653904Y143589D01*
X657614Y142052D01*
X660454Y139212D01*
X661991Y135502D01*
X661991Y131485D01*
X660454Y127775D01*
X657614Y124935D01*
X653904Y123398D01*
X649887Y123398D01*
X646177Y124935D01*
X643337Y127775D01*
X641800Y131485D01*
X641800Y135502D01*
X643337Y139212D01*
X646177Y142052D01*
X649887Y143589D01*
X646905Y142354D02*
X630652Y142354D01*
X630813Y139307D02*
X643432Y139307D01*
X642114Y136260D02*
X630208Y136260D01*
X628601Y133213D02*
X641800Y133213D01*
X642347Y130166D02*
X624658Y130166D01*
X622268Y125111D02*
X626188Y123487D01*
X629189Y120486D01*
X630813Y116566D01*
X630813Y112321D01*
X629189Y108401D01*
X626188Y105400D01*
X622268Y103776D01*
X618023Y103776D01*
X614103Y105400D01*
X611102Y108401D01*
X609478Y112321D01*
X609478Y116566D01*
X611102Y120486D01*
X614103Y123487D01*
X618023Y125111D01*
X622268Y125111D01*
X624775Y124072D02*
X648261Y124072D01*
X643993Y127119D02*
X555375Y127119D01*
X555375Y130166D02*
X615634Y130166D01*
X611690Y133213D02*
X555375Y133213D01*
X554711Y136260D02*
X610084Y136260D01*
X609478Y139307D02*
X551664Y139307D01*
X548617Y142354D02*
X609638Y142354D01*
X610901Y145401D02*
X545570Y145401D01*
X542523Y148448D02*
X613664Y148448D01*
X609654Y153175D02*
X606814Y150335D01*
X603104Y148798D01*
X599087Y148798D01*
X595377Y150335D01*
X592537Y153175D01*
X591000Y156885D01*
X591000Y160902D01*
X592537Y164612D01*
X595377Y167452D01*
X599087Y168989D01*
X603104Y168989D01*
X606814Y167452D01*
X609654Y164612D01*
X611191Y160902D01*
X611191Y156885D01*
X609654Y153175D01*
X610221Y154542D02*
X617371Y154542D01*
X616400Y157589D02*
X611191Y157589D01*
X611191Y160636D02*
X616400Y160636D01*
X617552Y163683D02*
X610038Y163683D01*
X607536Y166730D02*
X620055Y166730D01*
X632936Y166730D02*
X644736Y166730D01*
X642401Y163683D02*
X635438Y163683D01*
X636591Y160636D02*
X641292Y160636D01*
X641292Y157589D02*
X636591Y157589D01*
X635621Y154542D02*
X642221Y154542D01*
X644298Y151495D02*
X633374Y151495D01*
X619618Y151495D02*
X607974Y151495D01*
X594217Y151495D02*
X582574Y151495D01*
X581414Y150335D02*
X577704Y148798D01*
X573687Y148798D01*
X569977Y150335D01*
X567137Y153175D01*
X565600Y156885D01*
X565600Y160902D01*
X567137Y164612D01*
X569977Y167452D01*
X573687Y168989D01*
X577704Y168989D01*
X581414Y167452D01*
X584254Y164612D01*
X585791Y160902D01*
X585791Y156885D01*
X584254Y153175D01*
X581414Y150335D01*
X584821Y154542D02*
X591971Y154542D01*
X591000Y157589D02*
X585791Y157589D01*
X585791Y160636D02*
X591000Y160636D01*
X592152Y163683D02*
X584638Y163683D01*
X582136Y166730D02*
X594655Y166730D01*
X569255Y166730D02*
X556736Y166730D01*
X556014Y167452D02*
X558854Y164612D01*
X560391Y160902D01*
X560391Y156885D01*
X558854Y153175D01*
X556014Y150335D01*
X552304Y148798D01*
X548287Y148798D01*
X544577Y150335D01*
X541737Y153175D01*
X540200Y156885D01*
X540200Y160902D01*
X541737Y164612D01*
X544577Y167452D01*
X548287Y168989D01*
X552304Y168989D01*
X556014Y167452D01*
X559238Y163683D02*
X566752Y163683D01*
X565600Y160636D02*
X560391Y160636D01*
X560391Y157589D02*
X565600Y157589D01*
X566571Y154542D02*
X559421Y154542D01*
X557174Y151495D02*
X568817Y151495D01*
X543417Y151495D02*
X539476Y151495D01*
X541171Y154542D02*
X536429Y154542D01*
X534991Y157589D02*
X540200Y157589D01*
X540200Y160636D02*
X534991Y160636D01*
X533838Y163683D02*
X541352Y163683D01*
X543855Y166730D02*
X531336Y166730D01*
X524895Y158894D02*
X550295Y133494D01*
X550295Y089044D01*
X531245Y069994D01*
X519308Y069226D02*
X506828Y069226D01*
X506828Y069016D02*
X518291Y069016D01*
X518291Y067518D01*
X516396Y062943D01*
X512896Y059443D01*
X508321Y057548D01*
X506823Y057547D01*
X506823Y069011D01*
X504869Y069011D01*
X504869Y057548D01*
X503370Y057548D01*
X498795Y059443D01*
X495295Y062943D01*
X493400Y067518D01*
X493400Y069016D01*
X504863Y069016D01*
X504863Y070970D01*
X493400Y070970D01*
X493400Y072469D01*
X495295Y077044D01*
X498795Y080544D01*
X503370Y082439D01*
X504869Y082439D01*
X504869Y070976D01*
X506823Y070976D01*
X506823Y082439D01*
X508321Y082439D01*
X512896Y080544D01*
X516396Y077044D01*
X518291Y072469D01*
X518291Y070970D01*
X506828Y070970D01*
X506828Y069016D01*
X504863Y069226D02*
X492383Y069226D01*
X492383Y067619D02*
X490566Y063231D01*
X487208Y059873D01*
X482820Y058056D01*
X478071Y058056D01*
X473683Y059873D01*
X470325Y063231D01*
X468508Y067619D01*
X468508Y072368D01*
X470325Y076756D01*
X473683Y080114D01*
X475366Y080810D01*
X475366Y090314D01*
X440462Y090314D01*
X439766Y088631D01*
X436408Y085273D01*
X432020Y083456D01*
X427271Y083456D01*
X422883Y085273D01*
X419525Y088631D01*
X417708Y093019D01*
X417708Y097768D01*
X419525Y102156D01*
X422883Y105514D01*
X427271Y107331D01*
X432020Y107331D01*
X436408Y105514D01*
X439766Y102156D01*
X440462Y100473D01*
X475366Y100473D01*
X475366Y106171D01*
X475014Y106316D01*
X472318Y109012D01*
X470858Y112536D01*
X470858Y116351D01*
X472318Y119875D01*
X475014Y122571D01*
X478538Y124031D01*
X482353Y124031D01*
X485877Y122571D01*
X488573Y119875D01*
X490033Y116351D01*
X490033Y112536D01*
X488573Y109012D01*
X485877Y106316D01*
X485525Y106171D01*
X485525Y097497D01*
X485525Y093290D01*
X485525Y080810D01*
X487208Y080114D01*
X490566Y076756D01*
X492383Y072368D01*
X492383Y067619D01*
X491787Y066179D02*
X493955Y066179D01*
X495217Y063132D02*
X490467Y063132D01*
X487420Y060085D02*
X498153Y060085D01*
X504869Y060085D02*
X506823Y060085D01*
X505845Y057294D02*
X429645Y057294D01*
X429645Y069994D01*
X404245Y069994D01*
X378845Y069994D01*
X353445Y069994D01*
X352463Y069226D02*
X339983Y069226D01*
X341000Y069016D02*
X352463Y069016D01*
X352463Y070970D01*
X341000Y070970D01*
X341000Y072469D01*
X342895Y077044D01*
X346395Y080544D01*
X350970Y082439D01*
X352469Y082439D01*
X352469Y070976D01*
X354423Y070976D01*
X354423Y082439D01*
X355921Y082439D01*
X360496Y080544D01*
X363996Y077044D01*
X365891Y072469D01*
X365891Y070970D01*
X354428Y070970D01*
X354428Y069016D01*
X365891Y069016D01*
X365891Y067518D01*
X363996Y062943D01*
X360496Y059443D01*
X355921Y057548D01*
X354423Y057548D01*
X354423Y069011D01*
X352469Y069011D01*
X352469Y057548D01*
X350970Y057548D01*
X346395Y059443D01*
X342895Y062943D01*
X341000Y067518D01*
X341000Y069016D01*
X341555Y066179D02*
X339387Y066179D01*
X338067Y063132D02*
X342817Y063132D01*
X345753Y060085D02*
X335020Y060085D01*
X352469Y060085D02*
X354423Y060085D01*
X354423Y063132D02*
X352469Y063132D01*
X352469Y066179D02*
X354423Y066179D01*
X354428Y069226D02*
X377863Y069226D01*
X377863Y069016D02*
X377863Y070970D01*
X366400Y070970D01*
X366400Y072469D01*
X368295Y077044D01*
X371795Y080544D01*
X376370Y082439D01*
X377869Y082439D01*
X377869Y070976D01*
X379823Y070976D01*
X379823Y082439D01*
X381321Y082439D01*
X385896Y080544D01*
X389396Y077044D01*
X391291Y072469D01*
X391291Y070970D01*
X379828Y070970D01*
X379828Y069016D01*
X391291Y069016D01*
X391291Y067518D01*
X389396Y062943D01*
X385896Y059443D01*
X381321Y057548D01*
X379823Y057548D01*
X379823Y069011D01*
X377869Y069011D01*
X377869Y057548D01*
X376370Y057548D01*
X371795Y059443D01*
X368295Y062943D01*
X366400Y067518D01*
X366400Y069016D01*
X377863Y069016D01*
X379828Y069226D02*
X403263Y069226D01*
X403263Y069016D02*
X403263Y070970D01*
X391800Y070970D01*
X391800Y072469D01*
X393695Y077044D01*
X397195Y080544D01*
X401770Y082439D01*
X403269Y082439D01*
X403269Y070976D01*
X405223Y070976D01*
X405223Y082439D01*
X406721Y082439D01*
X411296Y080544D01*
X414796Y077044D01*
X416691Y072469D01*
X416691Y070970D01*
X405228Y070970D01*
X405228Y069016D01*
X416691Y069016D01*
X416691Y067518D01*
X414796Y062943D01*
X411296Y059443D01*
X406721Y057548D01*
X405223Y057548D01*
X405223Y069011D01*
X403269Y069011D01*
X403269Y057548D01*
X401770Y057548D01*
X397195Y059443D01*
X393695Y062943D01*
X391800Y067518D01*
X391800Y069016D01*
X403263Y069016D01*
X405228Y069226D02*
X428663Y069226D01*
X428663Y069016D02*
X428663Y070970D01*
X417200Y070970D01*
X417200Y072469D01*
X419095Y077044D01*
X422595Y080544D01*
X427170Y082439D01*
X428669Y082439D01*
X428669Y070976D01*
X430623Y070976D01*
X430623Y082439D01*
X432121Y082439D01*
X436696Y080544D01*
X440196Y077044D01*
X442091Y072469D01*
X442091Y070970D01*
X430628Y070970D01*
X430628Y069016D01*
X442091Y069016D01*
X442091Y067518D01*
X440196Y062943D01*
X436696Y059443D01*
X432121Y057548D01*
X430623Y057548D01*
X430623Y069011D01*
X428669Y069011D01*
X428669Y057548D01*
X427170Y057548D01*
X422595Y059443D01*
X419095Y062943D01*
X417200Y067518D01*
X417200Y069016D01*
X428663Y069016D01*
X430628Y069226D02*
X468508Y069226D01*
X468508Y072273D02*
X442091Y072273D01*
X440910Y075320D02*
X469730Y075320D01*
X471936Y078367D02*
X438873Y078367D01*
X434595Y081414D02*
X475366Y081414D01*
X475366Y084461D02*
X434448Y084461D01*
X430623Y081414D02*
X428669Y081414D01*
X428669Y078367D02*
X430623Y078367D01*
X430623Y075320D02*
X428669Y075320D01*
X428669Y072273D02*
X430623Y072273D01*
X430623Y066179D02*
X428669Y066179D01*
X428669Y063132D02*
X430623Y063132D01*
X430623Y060085D02*
X428669Y060085D01*
X421953Y060085D02*
X411938Y060085D01*
X414875Y063132D02*
X419017Y063132D01*
X417755Y066179D02*
X416137Y066179D01*
X416691Y072273D02*
X417200Y072273D01*
X418380Y075320D02*
X415510Y075320D01*
X413473Y078367D02*
X420418Y078367D01*
X424695Y081414D02*
X409195Y081414D01*
X409048Y084461D02*
X424844Y084461D01*
X420648Y087508D02*
X413243Y087508D01*
X414366Y088631D02*
X416183Y093019D01*
X416183Y097768D01*
X414366Y102156D01*
X411008Y105514D01*
X406620Y107331D01*
X401871Y107331D01*
X397483Y105514D01*
X394125Y102156D01*
X392308Y097768D01*
X392308Y093019D01*
X394125Y088631D01*
X397483Y085273D01*
X401871Y083456D01*
X406620Y083456D01*
X411008Y085273D01*
X414366Y088631D01*
X415163Y090555D02*
X418729Y090555D01*
X417708Y093602D02*
X416183Y093602D01*
X416183Y096649D02*
X417708Y096649D01*
X418506Y099696D02*
X415384Y099696D01*
X413779Y102743D02*
X420112Y102743D01*
X423549Y105790D02*
X410341Y105790D01*
X398149Y105790D02*
X384941Y105790D01*
X388379Y102743D02*
X394712Y102743D01*
X393106Y099696D02*
X389984Y099696D01*
X390783Y096649D02*
X392308Y096649D01*
X392308Y093602D02*
X390783Y093602D01*
X389763Y090555D02*
X393329Y090555D01*
X395248Y087508D02*
X387843Y087508D01*
X383648Y084461D02*
X399444Y084461D01*
X399295Y081414D02*
X383795Y081414D01*
X379823Y081414D02*
X377869Y081414D01*
X377869Y078367D02*
X379823Y078367D01*
X379823Y075320D02*
X377869Y075320D01*
X377869Y072273D02*
X379823Y072273D01*
X379823Y066179D02*
X377869Y066179D01*
X377869Y063132D02*
X379823Y063132D01*
X379823Y060085D02*
X377869Y060085D01*
X371153Y060085D02*
X361138Y060085D01*
X364075Y063132D02*
X368217Y063132D01*
X366955Y066179D02*
X365337Y066179D01*
X365891Y072273D02*
X366400Y072273D01*
X367580Y075320D02*
X364710Y075320D01*
X362673Y078367D02*
X369618Y078367D01*
X373895Y081414D02*
X358395Y081414D01*
X358248Y084461D02*
X374044Y084461D01*
X369848Y087508D02*
X362443Y087508D01*
X363566Y088631D02*
X360208Y085273D01*
X355820Y083456D01*
X351071Y083456D01*
X346683Y085273D01*
X343325Y088631D01*
X341508Y093019D01*
X341508Y097768D01*
X343325Y102156D01*
X346683Y105514D01*
X351071Y107331D01*
X355820Y107331D01*
X360208Y105514D01*
X363566Y102156D01*
X365383Y097768D01*
X365383Y093019D01*
X363566Y088631D01*
X364363Y090555D02*
X367929Y090555D01*
X366908Y093602D02*
X365383Y093602D01*
X365383Y096649D02*
X366908Y096649D01*
X367361Y099696D02*
X364584Y099696D01*
X364314Y102743D02*
X362979Y102743D01*
X361267Y105790D02*
X359541Y105790D01*
X358220Y108837D02*
X312435Y108837D01*
X313891Y105790D02*
X321949Y105790D01*
X321283Y105514D02*
X325671Y107331D01*
X330420Y107331D01*
X334808Y105514D01*
X338166Y102156D01*
X339983Y097768D01*
X339983Y093019D01*
X338166Y088631D01*
X334808Y085273D01*
X330420Y083456D01*
X325671Y083456D01*
X321283Y085273D01*
X317925Y088631D01*
X316108Y093019D01*
X316108Y097768D01*
X317925Y102156D01*
X321283Y105514D01*
X318512Y102743D02*
X314584Y102743D01*
X314584Y099696D02*
X316906Y099696D01*
X316108Y096649D02*
X313458Y096649D01*
X311388Y093602D02*
X316108Y093602D01*
X317129Y090555D02*
X306830Y090555D01*
X305021Y088281D02*
X309409Y086464D01*
X312767Y083106D01*
X314584Y078718D01*
X314584Y073969D01*
X312767Y069581D01*
X309409Y066223D01*
X305021Y064406D01*
X300272Y064406D01*
X295884Y066223D01*
X292526Y069581D01*
X290709Y073969D01*
X290709Y078718D01*
X292526Y083106D01*
X295884Y086464D01*
X300272Y088281D01*
X305021Y088281D01*
X306887Y087508D02*
X319048Y087508D01*
X323244Y084461D02*
X311412Y084461D01*
X313467Y081414D02*
X324422Y081414D01*
X319536Y078367D02*
X314584Y078367D01*
X314584Y075320D02*
X317330Y075320D01*
X316108Y072273D02*
X313882Y072273D01*
X312412Y069226D02*
X316108Y069226D01*
X316705Y066179D02*
X309303Y066179D01*
X295991Y066179D02*
X283903Y066179D01*
X284009Y066223D02*
X279621Y064406D01*
X274872Y064406D01*
X270484Y066223D01*
X267126Y069581D01*
X265309Y073969D01*
X265309Y078718D01*
X267126Y083106D01*
X270484Y086464D01*
X274872Y088281D01*
X279621Y088281D01*
X284009Y086464D01*
X287367Y083106D01*
X289184Y078718D01*
X289184Y073969D01*
X287367Y069581D01*
X284009Y066223D01*
X287012Y069226D02*
X292881Y069226D01*
X291412Y072273D02*
X288482Y072273D01*
X289184Y075320D02*
X290709Y075320D01*
X290709Y078367D02*
X289184Y078367D01*
X288067Y081414D02*
X291825Y081414D01*
X293881Y084461D02*
X286012Y084461D01*
X281487Y087508D02*
X298405Y087508D01*
X298464Y090555D02*
X247840Y090555D01*
X249471Y088281D02*
X254220Y088281D01*
X258608Y086464D01*
X261966Y083106D01*
X263783Y078718D01*
X263783Y073969D01*
X261966Y069581D01*
X258608Y066223D01*
X254220Y064406D01*
X249471Y064406D01*
X245083Y066223D01*
X241725Y069581D01*
X239908Y073969D01*
X239908Y078718D01*
X241725Y083106D01*
X245083Y086464D01*
X249471Y088281D01*
X247604Y087508D02*
X244793Y087508D01*
X243080Y084461D02*
X241746Y084461D01*
X241024Y081414D02*
X238699Y081414D01*
X238383Y078367D02*
X239908Y078367D01*
X239908Y075320D02*
X238383Y075320D01*
X237681Y072273D02*
X240611Y072273D01*
X242080Y069226D02*
X236211Y069226D01*
X233102Y066179D02*
X245190Y066179D01*
X258502Y066179D02*
X270591Y066179D01*
X267481Y069226D02*
X261611Y069226D01*
X263081Y072273D02*
X266012Y072273D01*
X265309Y075320D02*
X263783Y075320D01*
X263783Y078367D02*
X265309Y078367D01*
X266425Y081414D02*
X262666Y081414D01*
X260611Y084461D02*
X268481Y084461D01*
X273005Y087508D02*
X256086Y087508D01*
X250887Y093602D02*
X293905Y093602D01*
X291836Y096649D02*
X269635Y096649D01*
X272760Y099696D02*
X290709Y099696D01*
X290709Y102743D02*
X280665Y102743D01*
X283711Y105790D02*
X291401Y105790D01*
X292857Y108837D02*
X286758Y108837D01*
X285182Y114444D02*
X275657Y104919D01*
X264545Y104919D01*
X257952Y111884D02*
X256925Y111884D01*
X256925Y114931D02*
X278488Y114931D01*
X281534Y117978D02*
X256925Y117978D01*
X256925Y121025D02*
X309907Y121025D01*
X309303Y121275D02*
X306302Y124276D01*
X304678Y128196D01*
X304678Y132441D01*
X306302Y136361D01*
X309303Y139362D01*
X313223Y140986D01*
X317468Y140986D01*
X321388Y139362D01*
X324389Y136361D01*
X326013Y132441D01*
X326013Y128196D01*
X324389Y124276D01*
X321388Y121275D01*
X317468Y119651D01*
X313223Y119651D01*
X309303Y121275D01*
X306506Y124072D02*
X256925Y124072D01*
X256925Y127119D02*
X305125Y127119D01*
X304678Y130166D02*
X256925Y130166D01*
X256925Y133213D02*
X304997Y133213D01*
X306260Y136260D02*
X256925Y136260D01*
X256925Y139307D02*
X309248Y139307D01*
X321443Y139307D02*
X336582Y139307D01*
X336975Y140256D02*
X340333Y143614D01*
X344721Y145431D01*
X349470Y145431D01*
X353858Y143614D01*
X357216Y140256D01*
X359033Y135868D01*
X359033Y131119D01*
X357216Y126731D01*
X353858Y123373D01*
X349470Y121556D01*
X344721Y121556D01*
X340333Y123373D01*
X336975Y126731D01*
X335158Y131119D01*
X335158Y135868D01*
X336975Y140256D01*
X339073Y142354D02*
X256925Y142354D01*
X256925Y145401D02*
X344648Y145401D01*
X345087Y148798D02*
X341377Y150335D01*
X338537Y153175D01*
X337000Y156885D01*
X337000Y160902D01*
X338537Y164612D01*
X341377Y167452D01*
X345087Y168989D01*
X349104Y168989D01*
X352814Y167452D01*
X355654Y164612D01*
X357191Y160902D01*
X357191Y156885D01*
X355654Y153175D01*
X352814Y150335D01*
X349104Y148798D01*
X345087Y148798D01*
X340217Y151495D02*
X328574Y151495D01*
X327414Y150335D02*
X323704Y148798D01*
X319687Y148798D01*
X315977Y150335D01*
X313137Y153175D01*
X311600Y156885D01*
X311600Y160902D01*
X313137Y164612D01*
X315977Y167452D01*
X319687Y168989D01*
X323704Y168989D01*
X327414Y167452D01*
X330254Y164612D01*
X331791Y160902D01*
X331791Y156885D01*
X330254Y153175D01*
X327414Y150335D01*
X330821Y154542D02*
X337971Y154542D01*
X337000Y157589D02*
X331791Y157589D01*
X331791Y160636D02*
X337000Y160636D01*
X338152Y163683D02*
X330638Y163683D01*
X328136Y166730D02*
X340655Y166730D01*
X353536Y166730D02*
X366055Y166730D01*
X363552Y163683D02*
X356038Y163683D01*
X357191Y160636D02*
X362400Y160636D01*
X362400Y157589D02*
X357191Y157589D01*
X356221Y154542D02*
X363371Y154542D01*
X365617Y151495D02*
X353974Y151495D01*
X349542Y145401D02*
X370048Y145401D01*
X370121Y145431D02*
X374870Y145431D01*
X379258Y143614D01*
X382616Y140256D01*
X384433Y135868D01*
X384433Y131119D01*
X382616Y126731D01*
X379258Y123373D01*
X374870Y121556D01*
X370121Y121556D01*
X365733Y123373D01*
X362375Y126731D01*
X360558Y131119D01*
X360558Y135868D01*
X362375Y140256D01*
X365733Y143614D01*
X370121Y145431D01*
X374942Y145401D02*
X395448Y145401D01*
X395521Y145431D02*
X400270Y145431D01*
X404658Y143614D01*
X408016Y140256D01*
X409833Y135868D01*
X409833Y131119D01*
X408016Y126731D01*
X404658Y123373D01*
X400270Y121556D01*
X395521Y121556D01*
X391133Y123373D01*
X387775Y126731D01*
X385958Y131119D01*
X385958Y135868D01*
X387775Y140256D01*
X391133Y143614D01*
X395521Y145431D01*
X395887Y148798D02*
X392177Y150335D01*
X389337Y153175D01*
X387800Y156885D01*
X387800Y160902D01*
X389337Y164612D01*
X392177Y167452D01*
X395887Y168989D01*
X399904Y168989D01*
X403614Y167452D01*
X406454Y164612D01*
X407991Y160902D01*
X407991Y156885D01*
X406454Y153175D01*
X403614Y150335D01*
X399904Y148798D01*
X395887Y148798D01*
X391017Y151495D02*
X379374Y151495D01*
X381621Y154542D02*
X388771Y154542D01*
X387800Y157589D02*
X382591Y157589D01*
X382591Y160636D02*
X387800Y160636D01*
X388952Y163683D02*
X381438Y163683D01*
X378936Y166730D02*
X391455Y166730D01*
X380753Y172824D02*
X490860Y172824D01*
X490860Y169777D02*
X377833Y169777D01*
X382015Y175871D02*
X490860Y175871D01*
X490860Y178918D02*
X382083Y178918D01*
X381206Y181965D02*
X489613Y181965D01*
X486566Y185012D02*
X381131Y185012D01*
X381131Y188059D02*
X483519Y188059D01*
X480472Y191106D02*
X381131Y191106D01*
X381131Y194153D02*
X477425Y194153D01*
X474378Y197200D02*
X381131Y197200D01*
X381131Y200247D02*
X471331Y200247D01*
X468284Y203294D02*
X381131Y203294D01*
X381131Y206341D02*
X465237Y206341D01*
X462190Y209388D02*
X381131Y209388D01*
X381131Y212435D02*
X459143Y212435D01*
X456096Y215482D02*
X381273Y215482D01*
X384320Y218529D02*
X453049Y218529D01*
X450002Y221576D02*
X387367Y221576D01*
X390414Y224623D02*
X446955Y224623D01*
X441842Y227670D02*
X430149Y227670D01*
X429014Y226535D02*
X425304Y224998D01*
X421287Y224998D01*
X417577Y226535D01*
X414737Y229375D01*
X413200Y233085D01*
X413200Y237102D01*
X414737Y240812D01*
X417577Y243652D01*
X421287Y245189D01*
X425304Y245189D01*
X429014Y243652D01*
X431854Y240812D01*
X433391Y237102D01*
X433391Y233085D01*
X431854Y229375D01*
X429014Y226535D01*
X432410Y230717D02*
X439582Y230717D01*
X438600Y233764D02*
X433391Y233764D01*
X433391Y236811D02*
X438600Y236811D01*
X439741Y239858D02*
X432249Y239858D01*
X429761Y242905D02*
X442230Y242905D01*
X435995Y247794D02*
X435995Y196994D01*
X448695Y196994D01*
X448695Y158894D01*
X448695Y136669D01*
X461395Y136669D01*
X460913Y136260D02*
X409670Y136260D01*
X409833Y133213D02*
X450731Y133213D01*
X452093Y130166D02*
X409439Y130166D01*
X408177Y127119D02*
X455247Y127119D01*
X460919Y127119D02*
X461873Y127119D01*
X461873Y130166D02*
X460919Y130166D01*
X460919Y133213D02*
X461873Y133213D01*
X461873Y139307D02*
X460919Y139307D01*
X460919Y142354D02*
X461873Y142354D01*
X461873Y145401D02*
X460919Y145401D01*
X454323Y145401D02*
X400342Y145401D01*
X405918Y142354D02*
X451653Y142354D01*
X450391Y139307D02*
X408408Y139307D01*
X404774Y151495D02*
X416417Y151495D01*
X417577Y150335D02*
X414737Y153175D01*
X413200Y156885D01*
X413200Y160902D01*
X414737Y164612D01*
X417577Y167452D01*
X421287Y168989D01*
X425304Y168989D01*
X429014Y167452D01*
X431854Y164612D01*
X433391Y160902D01*
X433391Y156885D01*
X431854Y153175D01*
X429014Y150335D01*
X425304Y148798D01*
X421287Y148798D01*
X417577Y150335D01*
X414171Y154542D02*
X407021Y154542D01*
X407991Y157589D02*
X413200Y157589D01*
X413200Y160636D02*
X407991Y160636D01*
X406838Y163683D02*
X414352Y163683D01*
X416855Y166730D02*
X404336Y166730D01*
X429736Y166730D02*
X441536Y166730D01*
X439201Y163683D02*
X432238Y163683D01*
X433391Y160636D02*
X438092Y160636D01*
X438092Y157589D02*
X433391Y157589D01*
X432421Y154542D02*
X439021Y154542D01*
X441098Y151495D02*
X430174Y151495D01*
X448219Y151495D02*
X449173Y151495D01*
X449173Y154542D02*
X448219Y154542D01*
X448219Y157589D02*
X449173Y157589D01*
X449173Y160636D02*
X448219Y160636D01*
X448219Y163683D02*
X449173Y163683D01*
X449173Y166730D02*
X448219Y166730D01*
X455855Y166730D02*
X467655Y166730D01*
X465152Y163683D02*
X458189Y163683D01*
X459299Y160636D02*
X464000Y160636D01*
X464000Y157589D02*
X459299Y157589D01*
X458371Y154542D02*
X464971Y154542D01*
X467217Y151495D02*
X456293Y151495D01*
X472061Y133213D02*
X476681Y133213D01*
X478212Y130166D02*
X470698Y130166D01*
X467545Y127119D02*
X481975Y127119D01*
X487423Y121025D02*
X506103Y121025D01*
X503056Y124072D02*
X405357Y124072D01*
X390434Y124072D02*
X379957Y124072D01*
X382777Y127119D02*
X387615Y127119D01*
X386353Y130166D02*
X384039Y130166D01*
X384433Y133213D02*
X385958Y133213D01*
X386120Y136260D02*
X384270Y136260D01*
X383008Y139307D02*
X387382Y139307D01*
X389873Y142354D02*
X380518Y142354D01*
X364473Y142354D02*
X355118Y142354D01*
X357608Y139307D02*
X361982Y139307D01*
X360720Y136260D02*
X358870Y136260D01*
X359033Y133213D02*
X360558Y133213D01*
X360953Y130166D02*
X358639Y130166D01*
X357377Y127119D02*
X362215Y127119D01*
X365034Y124072D02*
X354557Y124072D01*
X363444Y117978D02*
X471532Y117978D01*
X470858Y114931D02*
X366490Y114931D01*
X369537Y111884D02*
X471129Y111884D01*
X472493Y108837D02*
X372584Y108837D01*
X359795Y114444D02*
X378845Y095394D01*
X388073Y078367D02*
X395018Y078367D01*
X392980Y075320D02*
X390110Y075320D01*
X391291Y072273D02*
X391800Y072273D01*
X392355Y066179D02*
X390737Y066179D01*
X389475Y063132D02*
X393617Y063132D01*
X396553Y060085D02*
X386538Y060085D01*
X403269Y060085D02*
X405223Y060085D01*
X405223Y063132D02*
X403269Y063132D01*
X403269Y066179D02*
X405223Y066179D01*
X405223Y072273D02*
X403269Y072273D01*
X403269Y075320D02*
X405223Y075320D01*
X405223Y078367D02*
X403269Y078367D01*
X403269Y081414D02*
X405223Y081414D01*
X429645Y095394D02*
X480445Y095394D01*
X480445Y114444D01*
X489358Y117978D02*
X501835Y117978D01*
X497598Y114931D02*
X490033Y114931D01*
X489763Y111884D02*
X495869Y111884D01*
X495178Y108837D02*
X488398Y108837D01*
X485525Y105790D02*
X495253Y105790D01*
X496515Y102743D02*
X485525Y102743D01*
X485525Y099696D02*
X499156Y099696D01*
X485525Y096649D02*
X545216Y096649D01*
X545216Y093602D02*
X485525Y093602D01*
X485525Y090555D02*
X544624Y090555D01*
X541577Y087508D02*
X485525Y087508D01*
X485525Y084461D02*
X538530Y084461D01*
X535483Y081414D02*
X534866Y081414D01*
X527622Y081414D02*
X510795Y081414D01*
X506823Y081414D02*
X504869Y081414D01*
X504869Y078367D02*
X506823Y078367D01*
X506823Y075320D02*
X504869Y075320D01*
X504869Y072273D02*
X506823Y072273D01*
X506823Y066179D02*
X504869Y066179D01*
X504869Y063132D02*
X506823Y063132D01*
X513538Y060085D02*
X524271Y060085D01*
X521224Y063132D02*
X516475Y063132D01*
X517737Y066179D02*
X519905Y066179D01*
X519308Y072273D02*
X518291Y072273D01*
X517110Y075320D02*
X520530Y075320D01*
X522736Y078367D02*
X515073Y078367D01*
X500895Y081414D02*
X485525Y081414D01*
X488955Y078367D02*
X496618Y078367D01*
X494580Y075320D02*
X491160Y075320D01*
X492383Y072273D02*
X493400Y072273D01*
X480445Y069994D02*
X480445Y095394D01*
X475366Y102743D02*
X439179Y102743D01*
X435741Y105790D02*
X475366Y105790D01*
X473468Y121025D02*
X320785Y121025D01*
X324185Y124072D02*
X339634Y124072D01*
X336815Y127119D02*
X325567Y127119D01*
X326013Y130166D02*
X335553Y130166D01*
X335158Y133213D02*
X325693Y133213D01*
X324430Y136260D02*
X335320Y136260D01*
X314817Y151495D02*
X303174Y151495D01*
X305421Y154542D02*
X312571Y154542D01*
X311600Y157589D02*
X306391Y157589D01*
X306391Y160636D02*
X311600Y160636D01*
X312752Y163683D02*
X305238Y163683D01*
X302736Y166730D02*
X315255Y166730D01*
X363860Y194153D02*
X242888Y194153D01*
X241325Y197200D02*
X363860Y197200D01*
X363860Y200247D02*
X237486Y200247D01*
X228104Y200247D02*
X198541Y200247D01*
X197198Y197200D02*
X224266Y197200D01*
X222702Y194153D02*
X193867Y194153D01*
X188823Y194153D02*
X187869Y194153D01*
X187869Y197200D02*
X188823Y197200D01*
X188823Y200247D02*
X187869Y200247D01*
X188828Y203294D02*
X363860Y203294D01*
X363860Y206341D02*
X198581Y206341D01*
X197297Y209388D02*
X363860Y209388D01*
X363860Y212435D02*
X194105Y212435D01*
X188823Y212435D02*
X187869Y212435D01*
X187869Y209388D02*
X188823Y209388D01*
X188823Y206341D02*
X187869Y206341D01*
X178109Y206341D02*
X149040Y206341D01*
X154196Y194153D02*
X182825Y194153D01*
X195554Y185012D02*
X223582Y185012D01*
X226388Y181965D02*
X197607Y181965D01*
X198441Y178918D02*
X237338Y178918D01*
X235014Y175871D02*
X240385Y175871D01*
X240301Y172824D02*
X243432Y172824D01*
X242464Y169777D02*
X246479Y169777D01*
X246766Y166730D02*
X243463Y166730D01*
X243463Y163683D02*
X246766Y163683D01*
X246766Y160636D02*
X242434Y160636D01*
X240227Y157589D02*
X246766Y157589D01*
X246766Y154542D02*
X198441Y154542D01*
X198441Y151495D02*
X246766Y151495D01*
X246766Y148448D02*
X197577Y148448D01*
X195480Y145401D02*
X246766Y145401D01*
X246766Y121025D02*
X244585Y121025D01*
X246766Y117978D02*
X172157Y117978D01*
X170642Y114931D02*
X246766Y114931D01*
X271139Y111884D02*
X275441Y111884D01*
X285182Y114444D02*
X359795Y114444D01*
X347349Y105790D02*
X334141Y105790D01*
X337579Y102743D02*
X343912Y102743D01*
X342306Y099696D02*
X339184Y099696D01*
X339983Y096649D02*
X341508Y096649D01*
X341508Y093602D02*
X339983Y093602D01*
X338963Y090555D02*
X342529Y090555D01*
X344448Y087508D02*
X337043Y087508D01*
X332848Y084461D02*
X348644Y084461D01*
X348495Y081414D02*
X331668Y081414D01*
X336555Y078367D02*
X344218Y078367D01*
X342180Y075320D02*
X338760Y075320D01*
X339983Y072273D02*
X341000Y072273D01*
X352469Y072273D02*
X354423Y072273D01*
X354423Y075320D02*
X352469Y075320D01*
X352469Y078367D02*
X354423Y078367D01*
X354423Y081414D02*
X352469Y081414D01*
X438643Y087508D02*
X475366Y087508D01*
X469105Y066179D02*
X441537Y066179D01*
X440275Y063132D02*
X470424Y063132D01*
X473471Y060085D02*
X437338Y060085D01*
X512535Y099696D02*
X524556Y099696D01*
X521915Y102743D02*
X515177Y102743D01*
X516439Y105790D02*
X520653Y105790D01*
X518290Y108837D02*
X516513Y108837D01*
X535255Y117978D02*
X545216Y117978D01*
X545216Y114931D02*
X539493Y114931D01*
X541221Y111884D02*
X545216Y111884D01*
X545216Y108837D02*
X541913Y108837D01*
X541839Y105790D02*
X545216Y105790D01*
X545216Y102743D02*
X540577Y102743D01*
X537935Y099696D02*
X545216Y099696D01*
X555375Y099696D02*
X556308Y099696D01*
X555375Y096649D02*
X728566Y096649D01*
X728577Y096674D02*
X731578Y099675D01*
X735498Y101299D01*
X739743Y101299D01*
X743663Y099675D01*
X746664Y096674D01*
X748288Y092754D01*
X748288Y088509D01*
X746664Y084589D01*
X743663Y081588D01*
X739743Y079964D01*
X735498Y079964D01*
X731578Y081588D01*
X728577Y084589D01*
X726953Y088509D01*
X726953Y092754D01*
X728577Y096674D01*
X727304Y093602D02*
X705303Y093602D01*
X710550Y090555D02*
X726953Y090555D01*
X727368Y087508D02*
X713597Y087508D01*
X715592Y084461D02*
X728705Y084461D01*
X731998Y081414D02*
X716854Y081414D01*
X717983Y078367D02*
X805226Y078367D01*
X803883Y078923D02*
X800525Y082281D01*
X798708Y086669D01*
X798708Y091418D01*
X800525Y095806D01*
X803883Y099164D01*
X808271Y100981D01*
X813020Y100981D01*
X817408Y099164D01*
X820766Y095806D01*
X822583Y091418D01*
X822583Y086669D01*
X820766Y082281D01*
X817408Y078923D01*
X813020Y077106D01*
X808271Y077106D01*
X803883Y078923D01*
X801392Y081414D02*
X768643Y081414D01*
X769063Y081588D02*
X765143Y079964D01*
X760898Y079964D01*
X756978Y081588D01*
X753977Y084589D01*
X752353Y088509D01*
X752353Y092754D01*
X753977Y096674D01*
X756978Y099675D01*
X760898Y101299D01*
X765143Y101299D01*
X769063Y099675D01*
X772064Y096674D01*
X773688Y092754D01*
X773688Y088509D01*
X772064Y084589D01*
X769063Y081588D01*
X771936Y084461D02*
X799623Y084461D01*
X798708Y087508D02*
X773274Y087508D01*
X773688Y090555D02*
X798708Y090555D01*
X799612Y093602D02*
X773336Y093602D01*
X772074Y096649D02*
X801368Y096649D01*
X805167Y099696D02*
X769012Y099696D01*
X757028Y099696D02*
X743612Y099696D01*
X746674Y096649D02*
X753966Y096649D01*
X752704Y093602D02*
X747936Y093602D01*
X748288Y090555D02*
X752353Y090555D01*
X752768Y087508D02*
X747874Y087508D01*
X746536Y084461D02*
X754105Y084461D01*
X757398Y081414D02*
X743243Y081414D01*
X761750Y072273D02*
X770643Y072273D01*
X768287Y069226D02*
X764105Y069226D01*
X765367Y066179D02*
X767025Y066179D01*
X766959Y063132D02*
X765434Y063132D01*
X764944Y060085D02*
X767450Y060085D01*
X768711Y057038D02*
X763683Y057038D01*
X789083Y057038D02*
X799911Y057038D01*
X798649Y060085D02*
X790344Y060085D01*
X809669Y066179D02*
X811623Y066179D01*
X811623Y069226D02*
X809669Y069226D01*
X809669Y072273D02*
X811623Y072273D01*
X811623Y075320D02*
X809669Y075320D01*
X814977Y075320D02*
X824108Y075320D01*
X824108Y072273D02*
X819617Y072273D01*
X821804Y069226D02*
X824108Y069226D01*
X824108Y066179D02*
X823066Y066179D01*
X824108Y063132D02*
X811628Y063132D01*
X822643Y060085D02*
X824108Y060085D01*
X824108Y057038D02*
X821381Y057038D01*
X824108Y078367D02*
X816066Y078367D01*
X819899Y081414D02*
X824108Y081414D01*
X824108Y084461D02*
X821669Y084461D01*
X822583Y087508D02*
X824108Y087508D01*
X824108Y090555D02*
X822583Y090555D01*
X821678Y093602D02*
X824108Y093602D01*
X824108Y096649D02*
X819923Y096649D01*
X816123Y099696D02*
X824108Y099696D01*
X824108Y102743D02*
X660607Y102743D01*
X660454Y102375D02*
X657614Y099535D01*
X653904Y097998D01*
X649887Y097998D01*
X646177Y099535D01*
X643337Y102375D01*
X641800Y106085D01*
X641800Y110102D01*
X643337Y113812D01*
X646177Y116652D01*
X649887Y118189D01*
X653904Y118189D01*
X657614Y116652D01*
X660454Y113812D01*
X661991Y110102D01*
X661991Y106085D01*
X660454Y102375D01*
X661869Y105790D02*
X824108Y105790D01*
X824108Y108837D02*
X661991Y108837D01*
X661252Y111884D02*
X701072Y111884D01*
X702283Y110673D02*
X698925Y114031D01*
X697108Y118419D01*
X697108Y123168D01*
X698925Y127556D01*
X702283Y130914D01*
X706671Y132731D01*
X711420Y132731D01*
X715808Y130914D01*
X719166Y127556D01*
X720983Y123168D01*
X720983Y118419D01*
X719166Y114031D01*
X715808Y110673D01*
X711420Y108856D01*
X706671Y108856D01*
X702283Y110673D01*
X698553Y114931D02*
X659335Y114931D01*
X654413Y117978D02*
X697291Y117978D01*
X697108Y121025D02*
X628650Y121025D01*
X630228Y117978D02*
X649377Y117978D01*
X644456Y114931D02*
X630813Y114931D01*
X630632Y111884D02*
X642538Y111884D01*
X641800Y108837D02*
X629370Y108837D01*
X626578Y105790D02*
X641923Y105790D01*
X643185Y102743D02*
X598276Y102743D01*
X597870Y101763D02*
X599571Y105870D01*
X599571Y107616D01*
X588878Y107616D01*
X588878Y108570D01*
X599571Y108570D01*
X599571Y110317D01*
X597870Y114424D01*
X594726Y117568D01*
X590619Y119269D01*
X588873Y119269D01*
X588873Y108576D01*
X587919Y108576D01*
X587919Y119269D01*
X586172Y119269D01*
X582065Y117568D01*
X578921Y114424D01*
X577220Y110317D01*
X577220Y108570D01*
X587913Y108570D01*
X587913Y107616D01*
X577220Y107616D01*
X577220Y105870D01*
X578921Y101763D01*
X582065Y098619D01*
X586172Y096918D01*
X587919Y096918D01*
X587919Y107611D01*
X588873Y107611D01*
X588873Y096918D01*
X590619Y096918D01*
X594726Y098619D01*
X597870Y101763D01*
X595803Y099696D02*
X646016Y099696D01*
X657775Y099696D02*
X731628Y099696D01*
X717019Y111884D02*
X824108Y111884D01*
X824108Y114931D02*
X719539Y114931D01*
X720801Y117978D02*
X824108Y117978D01*
X824108Y121025D02*
X720983Y121025D01*
X720608Y124072D02*
X824108Y124072D01*
X824108Y127119D02*
X802039Y127119D01*
X801179Y126763D02*
X794712Y126763D01*
X788737Y129238D01*
X784165Y133810D01*
X781690Y139785D01*
X781690Y146252D01*
X784165Y152227D01*
X788737Y156799D01*
X794712Y159274D01*
X801179Y159274D01*
X807154Y156799D01*
X811726Y152227D01*
X814201Y146252D01*
X814201Y139785D01*
X811726Y133810D01*
X807154Y129238D01*
X801179Y126763D01*
X793853Y127119D02*
X751239Y127119D01*
X750379Y126763D02*
X743912Y126763D01*
X737937Y129238D01*
X733365Y133810D01*
X730890Y139785D01*
X730890Y146252D01*
X733365Y152227D01*
X737937Y156799D01*
X743912Y159274D01*
X750379Y159274D01*
X756354Y156799D01*
X760926Y152227D01*
X763401Y146252D01*
X763401Y139785D01*
X760926Y133810D01*
X756354Y129238D01*
X750379Y126763D01*
X743053Y127119D02*
X719346Y127119D01*
X716556Y130166D02*
X737009Y130166D01*
X733962Y133213D02*
X661991Y133213D01*
X661676Y136260D02*
X702096Y136260D01*
X699049Y139307D02*
X660359Y139307D01*
X656885Y142354D02*
X697715Y142354D01*
X698320Y151495D02*
X659493Y151495D01*
X661571Y154542D02*
X700511Y154542D01*
X705362Y157589D02*
X662499Y157589D01*
X662499Y160636D02*
X824108Y160636D01*
X824108Y163683D02*
X713991Y163683D01*
X715089Y164138D02*
X711169Y162514D01*
X706924Y162514D01*
X703004Y164138D01*
X700003Y167139D01*
X698379Y171059D01*
X698379Y175304D01*
X700003Y179224D01*
X703004Y182225D01*
X706924Y183849D01*
X711169Y183849D01*
X715089Y182225D01*
X718090Y179224D01*
X719714Y175304D01*
X719714Y171059D01*
X718090Y167139D01*
X715089Y164138D01*
X717681Y166730D02*
X824108Y166730D01*
X824108Y169777D02*
X719183Y169777D01*
X719714Y172824D02*
X824108Y172824D01*
X824108Y175871D02*
X719479Y175871D01*
X718216Y178918D02*
X824108Y178918D01*
X824108Y181965D02*
X715349Y181965D01*
X707507Y188059D02*
X723285Y188059D01*
X719706Y191106D02*
X711085Y191106D01*
X712447Y194153D02*
X718345Y194153D01*
X718000Y197200D02*
X712791Y197200D01*
X712275Y200247D02*
X718515Y200247D01*
X720119Y203294D02*
X710672Y203294D01*
X694719Y203294D02*
X678532Y203294D01*
X677270Y200247D02*
X693115Y200247D01*
X692600Y197200D02*
X674257Y197200D01*
X692945Y194153D02*
X501847Y194153D01*
X504895Y191106D02*
X694306Y191106D01*
X697885Y188059D02*
X507942Y188059D01*
X508131Y185012D02*
X824108Y185012D01*
X824108Y157589D02*
X805246Y157589D01*
X809411Y154542D02*
X824108Y154542D01*
X824108Y151495D02*
X812029Y151495D01*
X813291Y148448D02*
X824108Y148448D01*
X824108Y145401D02*
X814201Y145401D01*
X814201Y142354D02*
X824108Y142354D01*
X824108Y139307D02*
X814003Y139307D01*
X812741Y136260D02*
X824108Y136260D01*
X824108Y133213D02*
X811129Y133213D01*
X808082Y130166D02*
X824108Y130166D01*
X787809Y130166D02*
X757282Y130166D01*
X760329Y133213D02*
X784762Y133213D01*
X783151Y136260D02*
X761941Y136260D01*
X763203Y139307D02*
X781888Y139307D01*
X781690Y142354D02*
X763401Y142354D01*
X763401Y145401D02*
X781690Y145401D01*
X782599Y148448D02*
X762491Y148448D01*
X761229Y151495D02*
X783861Y151495D01*
X786480Y154542D02*
X758611Y154542D01*
X754446Y157589D02*
X790644Y157589D01*
X739844Y157589D02*
X712728Y157589D01*
X717580Y154542D02*
X735680Y154542D01*
X733061Y151495D02*
X719770Y151495D01*
X720983Y148448D02*
X731799Y148448D01*
X730890Y145401D02*
X720983Y145401D01*
X720377Y142354D02*
X730890Y142354D01*
X731088Y139307D02*
X719042Y139307D01*
X715995Y136260D02*
X732351Y136260D01*
X701535Y130166D02*
X661445Y130166D01*
X659798Y127119D02*
X698744Y127119D01*
X697482Y124072D02*
X655531Y124072D01*
X615515Y124072D02*
X555375Y124072D01*
X555375Y121025D02*
X611641Y121025D01*
X610062Y117978D02*
X593736Y117978D01*
X597363Y114931D02*
X609478Y114931D01*
X609660Y111884D02*
X598921Y111884D01*
X599571Y108837D02*
X610922Y108837D01*
X613713Y105790D02*
X599538Y105790D01*
X588873Y105790D02*
X587919Y105790D01*
X587919Y108837D02*
X588873Y108837D01*
X588873Y111884D02*
X587919Y111884D01*
X587919Y114931D02*
X588873Y114931D01*
X588873Y117978D02*
X587919Y117978D01*
X583054Y117978D02*
X567008Y117978D01*
X571244Y114931D02*
X579428Y114931D01*
X577869Y111884D02*
X572971Y111884D01*
X573663Y108837D02*
X577220Y108837D01*
X577254Y105790D02*
X573589Y105790D01*
X572326Y102743D02*
X578516Y102743D01*
X580988Y099696D02*
X569684Y099696D01*
X555375Y093602D02*
X689487Y093602D01*
X684241Y090555D02*
X555375Y090555D01*
X555375Y087508D02*
X681194Y087508D01*
X679198Y084461D02*
X552896Y084461D01*
X554271Y081931D02*
X559020Y081931D01*
X563408Y080114D01*
X566766Y076756D01*
X568583Y072368D01*
X568583Y067619D01*
X566766Y063231D01*
X563408Y059873D01*
X559020Y058056D01*
X554271Y058056D01*
X549883Y059873D01*
X546525Y063231D01*
X544708Y067619D01*
X544708Y072368D01*
X546525Y076756D01*
X549883Y080114D01*
X554271Y081931D01*
X553022Y081414D02*
X549849Y081414D01*
X548136Y078367D02*
X546802Y078367D01*
X545930Y075320D02*
X543755Y075320D01*
X543183Y072273D02*
X544708Y072273D01*
X544708Y069226D02*
X543183Y069226D01*
X542587Y066179D02*
X545305Y066179D01*
X546624Y063132D02*
X541267Y063132D01*
X538220Y060085D02*
X549671Y060085D01*
X563620Y060085D02*
X574353Y060085D01*
X574995Y059443D02*
X571495Y062943D01*
X569600Y067518D01*
X569600Y069016D01*
X581063Y069016D01*
X581063Y070970D01*
X569600Y070970D01*
X569600Y072469D01*
X571495Y077044D01*
X574995Y080544D01*
X579570Y082439D01*
X581069Y082439D01*
X581069Y070976D01*
X583023Y070976D01*
X583023Y082439D01*
X584521Y082439D01*
X589096Y080544D01*
X592596Y077044D01*
X594491Y072469D01*
X594491Y070970D01*
X583028Y070970D01*
X583028Y069016D01*
X594491Y069016D01*
X594491Y067518D01*
X592596Y062943D01*
X589096Y059443D01*
X584521Y057548D01*
X583023Y057547D01*
X583023Y069011D01*
X581069Y069011D01*
X581069Y057548D01*
X579570Y057548D01*
X574995Y059443D01*
X571417Y063132D02*
X566667Y063132D01*
X567987Y066179D02*
X570155Y066179D01*
X568583Y069226D02*
X581063Y069226D01*
X583028Y069226D02*
X595508Y069226D01*
X595508Y067619D02*
X595508Y072368D01*
X597325Y076756D01*
X600683Y080114D01*
X605071Y081931D01*
X609820Y081931D01*
X614208Y080114D01*
X617566Y076756D01*
X619383Y072368D01*
X619383Y067619D01*
X617566Y063231D01*
X614208Y059873D01*
X609820Y058056D01*
X605071Y058056D01*
X600683Y059873D01*
X597325Y063231D01*
X595508Y067619D01*
X596105Y066179D02*
X593937Y066179D01*
X592675Y063132D02*
X597424Y063132D01*
X600471Y060085D02*
X589738Y060085D01*
X583023Y060085D02*
X581069Y060085D01*
X581069Y063132D02*
X583023Y063132D01*
X583023Y066179D02*
X581069Y066179D01*
X581069Y072273D02*
X583023Y072273D01*
X583023Y075320D02*
X581069Y075320D01*
X581069Y078367D02*
X583023Y078367D01*
X583023Y081414D02*
X581069Y081414D01*
X577095Y081414D02*
X560268Y081414D01*
X565155Y078367D02*
X572818Y078367D01*
X570780Y075320D02*
X567360Y075320D01*
X568583Y072273D02*
X569600Y072273D01*
X586995Y081414D02*
X603822Y081414D01*
X598936Y078367D02*
X591273Y078367D01*
X593310Y075320D02*
X596730Y075320D01*
X595508Y072273D02*
X594491Y072273D01*
X611068Y081414D02*
X629222Y081414D01*
X630471Y081931D02*
X635220Y081931D01*
X639608Y080114D01*
X642966Y076756D01*
X644783Y072368D01*
X644783Y067619D01*
X642966Y063231D01*
X639608Y059873D01*
X635220Y058056D01*
X630471Y058056D01*
X626083Y059873D01*
X622725Y063231D01*
X620908Y067619D01*
X620908Y072368D01*
X622725Y076756D01*
X626083Y080114D01*
X630471Y081931D01*
X636468Y081414D02*
X677936Y081414D01*
X676808Y078367D02*
X641355Y078367D01*
X643560Y075320D02*
X676808Y075320D01*
X676808Y072273D02*
X644783Y072273D01*
X644783Y069226D02*
X677335Y069226D01*
X678597Y066179D02*
X644187Y066179D01*
X642867Y063132D02*
X679859Y063132D01*
X682788Y060085D02*
X639820Y060085D01*
X625871Y060085D02*
X614420Y060085D01*
X617467Y063132D02*
X622824Y063132D01*
X621505Y066179D02*
X618787Y066179D01*
X619383Y069226D02*
X620908Y069226D01*
X620908Y072273D02*
X619383Y072273D01*
X618160Y075320D02*
X622130Y075320D01*
X624336Y078367D02*
X615955Y078367D01*
X588873Y099696D02*
X587919Y099696D01*
X587919Y102743D02*
X588873Y102743D01*
X558983Y117978D02*
X555375Y117978D01*
X545216Y121025D02*
X530525Y121025D01*
X527478Y124072D02*
X545216Y124072D01*
X545216Y127119D02*
X524431Y127119D01*
X521384Y130166D02*
X545216Y130166D01*
X543394Y133213D02*
X518337Y133213D01*
X515290Y136260D02*
X540347Y136260D01*
X537300Y139307D02*
X512243Y139307D01*
X509196Y142354D02*
X534253Y142354D01*
X518017Y151495D02*
X506374Y151495D01*
X508621Y154542D02*
X515771Y154542D01*
X514800Y157589D02*
X509591Y157589D01*
X509591Y160636D02*
X514800Y160636D01*
X515952Y163683D02*
X508438Y163683D01*
X508131Y166730D02*
X518455Y166730D01*
X508131Y175871D02*
X672664Y175871D01*
X673925Y178918D02*
X508131Y178918D01*
X508131Y181965D02*
X676625Y181965D01*
X683170Y181965D02*
X684124Y181965D01*
X684124Y178918D02*
X683170Y178918D01*
X683170Y175871D02*
X684124Y175871D01*
X684129Y172824D02*
X698379Y172824D01*
X698613Y175871D02*
X694628Y175871D01*
X693367Y178918D02*
X699876Y178918D01*
X702744Y181965D02*
X690668Y181965D01*
X694333Y169777D02*
X698911Y169777D01*
X700412Y166730D02*
X693000Y166730D01*
X689920Y163683D02*
X704103Y163683D01*
X684124Y163683D02*
X683170Y163683D01*
X683170Y166730D02*
X684124Y166730D01*
X684124Y169777D02*
X683170Y169777D01*
X652373Y166730D02*
X651419Y166730D01*
X651419Y163683D02*
X652373Y163683D01*
X652373Y160636D02*
X651419Y160636D01*
X732907Y188059D02*
X748685Y188059D01*
X745106Y191106D02*
X736485Y191106D01*
X737847Y194153D02*
X743745Y194153D01*
X743400Y197200D02*
X738191Y197200D01*
X737675Y200247D02*
X743915Y200247D01*
X745519Y203294D02*
X736072Y203294D01*
X761472Y203294D02*
X770919Y203294D01*
X769315Y200247D02*
X763075Y200247D01*
X763591Y197200D02*
X768800Y197200D01*
X769145Y194153D02*
X763247Y194153D01*
X761885Y191106D02*
X770506Y191106D01*
X774085Y188059D02*
X758307Y188059D01*
X814480Y212435D02*
X824108Y212435D01*
X824108Y215482D02*
X818820Y215482D01*
X820592Y218529D02*
X824108Y218529D01*
X824108Y221576D02*
X821313Y221576D01*
X821268Y224623D02*
X824108Y224623D01*
X824108Y227670D02*
X820006Y227670D01*
X817408Y230717D02*
X824108Y230717D01*
X824108Y233764D02*
X678946Y233764D01*
X678946Y230717D02*
X803883Y230717D01*
X801284Y227670D02*
X678108Y227670D01*
X676280Y224623D02*
X800022Y224623D01*
X807748Y258140D02*
X678438Y258140D01*
X677714Y261187D02*
X824108Y261187D01*
X824108Y264234D02*
X817491Y264234D01*
X820294Y267281D02*
X824108Y267281D01*
X824108Y270328D02*
X821556Y270328D01*
X803800Y264234D02*
X784932Y264234D01*
X787924Y267281D02*
X800998Y267281D01*
X799736Y270328D02*
X789186Y270328D01*
X789035Y276422D02*
X799886Y276422D01*
X801148Y279469D02*
X787616Y279469D01*
X784097Y282516D02*
X804163Y282516D01*
X802240Y285563D02*
X669826Y285563D01*
X671463Y288610D02*
X800604Y288610D01*
X799978Y291657D02*
X783688Y291657D01*
X779373Y291657D02*
X778419Y291657D01*
X778419Y294704D02*
X779373Y294704D01*
X779373Y297751D02*
X778419Y297751D01*
X774104Y291657D02*
X756961Y291657D01*
X761517Y294704D02*
X770155Y294704D01*
X768464Y297751D02*
X763378Y297751D01*
X764163Y300798D02*
X767720Y300798D01*
X750031Y291657D02*
X734732Y291657D01*
X733392Y291102D02*
X729147Y291102D01*
X725227Y292726D01*
X722226Y295727D01*
X720602Y299647D01*
X720602Y303892D01*
X722226Y307812D01*
X725227Y310813D01*
X729147Y312437D01*
X733392Y312437D01*
X737312Y310813D01*
X740313Y307812D01*
X741937Y303892D01*
X741937Y299647D01*
X740313Y295727D01*
X737312Y292726D01*
X733392Y291102D01*
X727808Y291657D02*
X709332Y291657D01*
X707992Y291102D02*
X703747Y291102D01*
X699827Y292726D01*
X696826Y295727D01*
X695202Y299647D01*
X695202Y303892D01*
X696826Y307812D01*
X699827Y310813D01*
X703747Y312437D01*
X707992Y312437D01*
X711912Y310813D01*
X714913Y307812D01*
X716537Y303892D01*
X716537Y299647D01*
X714913Y295727D01*
X711912Y292726D01*
X707992Y291102D01*
X702408Y291657D02*
X687111Y291657D01*
X685768Y291101D02*
X689688Y292725D01*
X692689Y295726D01*
X694313Y299646D01*
X694313Y303891D01*
X692689Y307811D01*
X689688Y310812D01*
X685768Y312436D01*
X681523Y312436D01*
X677603Y310812D01*
X674602Y307811D01*
X672978Y303891D01*
X672978Y299646D01*
X674602Y295726D01*
X677603Y292725D01*
X681523Y291101D01*
X685768Y291101D01*
X680181Y291657D02*
X672088Y291657D01*
X671947Y294704D02*
X675624Y294704D01*
X673764Y297751D02*
X670685Y297751D01*
X672978Y300798D02*
X667952Y300798D01*
X672978Y303845D02*
X645245Y303845D01*
X647331Y306892D02*
X658174Y306892D01*
X660944Y306892D02*
X661898Y306892D01*
X664668Y306892D02*
X674221Y306892D01*
X676730Y309939D02*
X669521Y309939D01*
X671588Y312986D02*
X800479Y312986D01*
X799470Y316033D02*
X672596Y316033D01*
X672596Y319080D02*
X676648Y319080D01*
X677603Y318125D02*
X674602Y321126D01*
X672978Y325046D01*
X672978Y329291D01*
X674602Y333211D01*
X677603Y336212D01*
X681523Y337836D01*
X685768Y337836D01*
X689688Y336212D01*
X692689Y333211D01*
X694313Y329291D01*
X694313Y325046D01*
X692689Y321126D01*
X689688Y318125D01*
X685768Y316501D01*
X681523Y316501D01*
X677603Y318125D01*
X674188Y322127D02*
X671659Y322127D01*
X672978Y325174D02*
X669695Y325174D01*
X672978Y328221D02*
X665087Y328221D01*
X673797Y331268D02*
X639331Y331268D01*
X642092Y334315D02*
X675706Y334315D01*
X680378Y337362D02*
X643354Y337362D01*
X641297Y346503D02*
X799981Y346503D01*
X801347Y349550D02*
X637346Y349550D01*
X628344Y349550D02*
X611946Y349550D01*
X615897Y346503D02*
X624394Y346503D01*
X622784Y343456D02*
X617506Y343456D01*
X618113Y340409D02*
X622178Y340409D01*
X622338Y337362D02*
X617954Y337362D01*
X616692Y334315D02*
X623600Y334315D01*
X626360Y331268D02*
X613931Y331268D01*
X619507Y319080D02*
X630308Y319080D01*
X628024Y316033D02*
X621790Y316033D01*
X622875Y312986D02*
X626940Y312986D01*
X626940Y309939D02*
X622875Y309939D01*
X621931Y306892D02*
X627885Y306892D01*
X629970Y303845D02*
X619845Y303845D01*
X613870Y294704D02*
X601021Y294704D01*
X603904Y291657D02*
X610986Y291657D01*
X609724Y288610D02*
X605166Y288610D01*
X605413Y285563D02*
X609478Y285563D01*
X609998Y282516D02*
X604894Y282516D01*
X603407Y279469D02*
X611484Y279469D01*
X615137Y276422D02*
X599755Y276422D01*
X598878Y270328D02*
X616012Y270328D01*
X611847Y267281D02*
X603044Y267281D01*
X604742Y264234D02*
X610148Y264234D01*
X609478Y261187D02*
X605413Y261187D01*
X605318Y258140D02*
X609574Y258140D01*
X610837Y255093D02*
X604055Y255093D01*
X601384Y252046D02*
X613507Y252046D01*
X607561Y242905D02*
X620030Y242905D01*
X617541Y239858D02*
X610049Y239858D01*
X611191Y236811D02*
X616400Y236811D01*
X616400Y233764D02*
X611191Y233764D01*
X610210Y230717D02*
X617382Y230717D01*
X619642Y227670D02*
X607949Y227670D01*
X663536Y221576D02*
X474424Y221576D01*
X474573Y224623D02*
X473619Y224623D01*
X471666Y224623D02*
X471377Y224623D01*
X473619Y227670D02*
X474573Y227670D01*
X474573Y230717D02*
X473619Y230717D01*
X473619Y233764D02*
X474573Y233764D01*
X474095Y235094D02*
X474095Y247794D01*
X435995Y247794D01*
X435995Y285894D01*
X463934Y300798D02*
X482931Y300798D01*
X478439Y303845D02*
X469033Y303845D01*
X471119Y306892D02*
X476523Y306892D01*
X475620Y309939D02*
X472063Y309939D01*
X472063Y312986D02*
X475620Y312986D01*
X476662Y316033D02*
X470978Y316033D01*
X468695Y319080D02*
X478777Y319080D01*
X454096Y319080D02*
X434319Y319080D01*
X432397Y316033D02*
X451812Y316033D01*
X450728Y312986D02*
X428248Y312986D01*
X423773Y312986D02*
X422819Y312986D01*
X422819Y316033D02*
X423773Y316033D01*
X423773Y319080D02*
X422819Y319080D01*
X422819Y322127D02*
X423773Y322127D01*
X423773Y325174D02*
X422819Y325174D01*
X422819Y328221D02*
X423773Y328221D01*
X423773Y331268D02*
X422819Y331268D01*
X422819Y334315D02*
X423773Y334315D01*
X429903Y334315D02*
X444485Y334315D01*
X444378Y337362D02*
X364049Y337362D01*
X363938Y334315D02*
X392614Y334315D01*
X388826Y331268D02*
X362676Y331268D01*
X363383Y340409D02*
X445037Y340409D01*
X446722Y343456D02*
X361679Y343456D01*
X357472Y346503D02*
X450851Y346503D01*
X445747Y331268D02*
X433083Y331268D01*
X434603Y328221D02*
X448432Y328221D01*
X416687Y334315D02*
X403176Y334315D01*
X406965Y331268D02*
X413508Y331268D01*
X411987Y328221D02*
X408653Y328221D01*
X409452Y325174D02*
X411231Y325174D01*
X411231Y322127D02*
X409452Y322127D01*
X408370Y319080D02*
X412273Y319080D01*
X414194Y316033D02*
X406279Y316033D01*
X401521Y312986D02*
X418344Y312986D01*
X392949Y352597D02*
X356900Y352597D01*
X361273Y355644D02*
X389260Y355644D01*
X387759Y358691D02*
X362964Y358691D01*
X363541Y361738D02*
X387228Y361738D01*
X387463Y364785D02*
X363258Y364785D01*
X361984Y367832D02*
X388725Y367832D01*
X391594Y370879D02*
X358616Y370879D01*
X404197Y370879D02*
X416275Y370879D01*
X413575Y367832D02*
X407065Y367832D01*
X408327Y364785D02*
X412313Y364785D01*
X422819Y364785D02*
X423773Y364785D01*
X423773Y367832D02*
X422819Y367832D01*
X422819Y370879D02*
X423773Y370879D01*
X430316Y370879D02*
X448745Y370879D01*
X445876Y367832D02*
X433015Y367832D01*
X434277Y364785D02*
X444613Y364785D01*
X494923Y410490D02*
X513203Y410490D01*
X497970Y413537D02*
X564589Y413537D01*
X574719Y422678D02*
X576673Y422678D01*
X576673Y425725D02*
X574719Y425725D01*
X574719Y428772D02*
X576673Y428772D01*
X583768Y428772D02*
X589108Y428772D01*
X589108Y425725D02*
X586481Y425725D01*
X587743Y422678D02*
X589108Y422678D01*
X567086Y383067D02*
X295283Y383067D01*
X295283Y380020D02*
X564938Y380020D01*
X563758Y376973D02*
X295283Y376973D01*
X285628Y337362D02*
X076458Y337362D01*
X076458Y339068D02*
X076458Y334319D01*
X074641Y329931D01*
X071283Y326573D01*
X066895Y324756D01*
X062146Y324756D01*
X057758Y326573D01*
X054400Y329931D01*
X052583Y334319D01*
X052583Y339068D01*
X054400Y343456D01*
X050283Y343456D01*
X050283Y340409D02*
X053138Y340409D01*
X052583Y337362D02*
X050283Y337362D01*
X050283Y334315D02*
X052585Y334315D01*
X053847Y331268D02*
X050283Y331268D01*
X050283Y328221D02*
X056110Y328221D01*
X061137Y325174D02*
X050283Y325174D01*
X050283Y322127D02*
X093550Y322127D01*
X092525Y319080D02*
X050283Y319080D01*
X050283Y316033D02*
X060098Y316033D01*
X062146Y316881D02*
X057758Y315064D01*
X054400Y311706D01*
X052583Y307318D01*
X052583Y302569D01*
X054400Y298181D01*
X057758Y294823D01*
X062146Y293006D01*
X066895Y293006D01*
X071283Y294823D01*
X074641Y298181D01*
X076458Y302569D01*
X076458Y307318D01*
X074641Y311706D01*
X071283Y315064D01*
X066895Y316881D01*
X062146Y316881D01*
X068942Y316033D02*
X092525Y316033D01*
X093623Y312986D02*
X073361Y312986D01*
X075372Y309939D02*
X096048Y309939D01*
X106423Y300798D02*
X075725Y300798D01*
X076458Y303845D02*
X210793Y303845D01*
X213398Y306892D02*
X076458Y306892D01*
X074211Y297751D02*
X103499Y297751D01*
X102237Y294704D02*
X070996Y294704D01*
X058046Y294704D02*
X050283Y294704D01*
X050283Y291657D02*
X102050Y291657D01*
X102724Y288610D02*
X050283Y288610D01*
X050283Y285563D02*
X104549Y285563D01*
X115401Y276422D02*
X132534Y276422D01*
X096548Y258140D02*
X076459Y258140D01*
X075206Y255093D02*
X091659Y255093D01*
X089660Y252046D02*
X072957Y252046D01*
X067966Y248999D02*
X088778Y248999D01*
X088778Y245952D02*
X069501Y245952D01*
X073593Y242905D02*
X089924Y242905D01*
X092295Y239858D02*
X075469Y239858D01*
X075631Y230717D02*
X092683Y230717D01*
X090084Y227670D02*
X073981Y227670D01*
X070439Y224623D02*
X088822Y224623D01*
X107620Y215482D02*
X110321Y215482D01*
X114662Y212435D02*
X103280Y212435D01*
X065499Y206341D02*
X063545Y206341D01*
X063545Y203294D02*
X065499Y203294D01*
X065499Y200247D02*
X063545Y200247D01*
X052186Y212435D02*
X050283Y212435D01*
X050283Y215482D02*
X053448Y215482D01*
X055756Y218529D02*
X050283Y218529D01*
X050283Y221576D02*
X060686Y221576D01*
X058605Y224623D02*
X050283Y224623D01*
X050283Y227670D02*
X055062Y227670D01*
X053413Y230717D02*
X050283Y230717D01*
X050283Y233764D02*
X052584Y233764D01*
X052584Y236811D02*
X050283Y236811D01*
X050283Y239858D02*
X053573Y239858D01*
X055450Y242905D02*
X050283Y242905D01*
X050283Y245952D02*
X059541Y245952D01*
X061078Y248999D02*
X050283Y248999D01*
X050283Y252046D02*
X056086Y252046D01*
X053838Y255093D02*
X050283Y255093D01*
X050283Y258140D02*
X052584Y258140D01*
X052584Y261187D02*
X050283Y261187D01*
X050283Y264234D02*
X053149Y264234D01*
X054426Y267281D02*
X050283Y267281D01*
X050283Y270328D02*
X057473Y270328D01*
X054830Y297751D02*
X050283Y297751D01*
X050283Y300798D02*
X053317Y300798D01*
X052583Y303845D02*
X050283Y303845D01*
X050283Y306892D02*
X052583Y306892D01*
X053668Y309939D02*
X050283Y309939D01*
X050283Y312986D02*
X055680Y312986D01*
X067905Y325174D02*
X095874Y325174D01*
X076457Y334315D02*
X285735Y334315D01*
X286997Y331268D02*
X075195Y331268D01*
X072931Y328221D02*
X289682Y328221D01*
X288996Y319080D02*
X211141Y319080D01*
X211141Y316033D02*
X286712Y316033D01*
X285628Y312986D02*
X210044Y312986D01*
X207618Y309939D02*
X285628Y309939D01*
X286573Y306892D02*
X276874Y306892D01*
X279647Y303845D02*
X288658Y303845D01*
X264917Y306892D02*
X251474Y306892D01*
X254247Y303845D02*
X262143Y303845D01*
X260881Y300798D02*
X255509Y300798D01*
X255591Y297751D02*
X260800Y297751D01*
X261580Y294704D02*
X254812Y294704D01*
X252836Y291657D02*
X263555Y291657D01*
X238155Y291657D02*
X228155Y291657D01*
X229962Y294704D02*
X236180Y294704D01*
X235400Y297751D02*
X230699Y297751D01*
X230659Y300798D02*
X235481Y300798D01*
X236743Y303845D02*
X229397Y303845D01*
X226793Y306892D02*
X239517Y306892D01*
X220573Y306892D02*
X219619Y306892D01*
X219619Y303845D02*
X220573Y303845D01*
X220573Y300798D02*
X219619Y300798D01*
X210230Y294704D02*
X187105Y294704D01*
X190509Y291657D02*
X212036Y291657D01*
X194473Y309939D02*
X182218Y309939D01*
X181364Y309085D02*
X177654Y307548D01*
X173637Y307548D01*
X169927Y309085D01*
X167087Y311925D01*
X165550Y315635D01*
X165550Y319652D01*
X167087Y323362D01*
X169927Y326202D01*
X173637Y327739D01*
X177654Y327739D01*
X181364Y326202D01*
X184204Y323362D01*
X185741Y319652D01*
X185741Y315635D01*
X184204Y311925D01*
X181364Y309085D01*
X184644Y312986D02*
X192048Y312986D01*
X190950Y316033D02*
X185741Y316033D01*
X185741Y319080D02*
X190950Y319080D01*
X191975Y322127D02*
X184715Y322127D01*
X182392Y325174D02*
X194299Y325174D01*
X168899Y325174D02*
X160167Y325174D01*
X162490Y322127D02*
X166575Y322127D01*
X165550Y319080D02*
X163516Y319080D01*
X163516Y316033D02*
X165550Y316033D01*
X166648Y312986D02*
X162419Y312986D01*
X159993Y309939D02*
X169073Y309939D01*
X185511Y276422D02*
X272494Y276422D01*
X302761Y242905D02*
X315230Y242905D01*
X315977Y243652D02*
X319687Y245189D01*
X323704Y245189D01*
X327414Y243652D01*
X330254Y240812D01*
X331791Y237102D01*
X331791Y233085D01*
X330254Y229375D01*
X327414Y226535D01*
X323704Y224998D01*
X319687Y224998D01*
X315977Y226535D01*
X313137Y229375D01*
X311600Y233085D01*
X311600Y237102D01*
X313137Y240812D01*
X315977Y243652D01*
X312741Y239858D02*
X305249Y239858D01*
X306391Y236811D02*
X311600Y236811D01*
X311600Y233764D02*
X306391Y233764D01*
X305410Y230717D02*
X312582Y230717D01*
X314842Y227670D02*
X303149Y227670D01*
X289442Y227670D02*
X249813Y227670D01*
X249813Y230717D02*
X287182Y230717D01*
X286200Y233764D02*
X248612Y233764D01*
X246164Y236811D02*
X286200Y236811D01*
X248986Y224623D02*
X354577Y224623D01*
X357624Y221576D02*
X247064Y221576D01*
X231227Y221576D02*
X221664Y221576D01*
X223586Y224623D02*
X229306Y224623D01*
X228478Y227670D02*
X224413Y227670D01*
X224413Y230717D02*
X228478Y230717D01*
X229678Y233764D02*
X223212Y233764D01*
X220764Y236811D02*
X232127Y236811D01*
X230576Y175871D02*
X198415Y175871D01*
X197153Y172824D02*
X225290Y172824D01*
X223126Y169777D02*
X194456Y169777D01*
X157866Y130166D02*
X050283Y130166D01*
X050283Y127119D02*
X155712Y127119D01*
X105778Y163683D02*
X093113Y163683D01*
X092464Y163034D02*
X088754Y161497D01*
X084737Y161497D01*
X081027Y163034D01*
X078187Y165874D01*
X076650Y169584D01*
X076650Y173601D01*
X078187Y177311D01*
X081027Y180151D01*
X084737Y181688D01*
X088754Y181688D01*
X092464Y180151D01*
X095304Y177311D01*
X096841Y173601D01*
X096841Y169584D01*
X095304Y165874D01*
X092464Y163034D01*
X095659Y166730D02*
X103233Y166730D01*
X102050Y169777D02*
X096841Y169777D01*
X096841Y172824D02*
X102050Y172824D01*
X102990Y175871D02*
X095900Y175871D01*
X093697Y178918D02*
X105194Y178918D01*
X079794Y178918D02*
X071472Y178918D01*
X073675Y175871D02*
X077590Y175871D01*
X076650Y172824D02*
X074616Y172824D01*
X074616Y169777D02*
X076650Y169777D01*
X077833Y166730D02*
X073434Y166730D01*
X070888Y163683D02*
X080378Y163683D01*
X057267Y124072D02*
X050283Y124072D01*
X050283Y121025D02*
X054326Y121025D01*
X053064Y117978D02*
X050283Y117978D01*
X050283Y114931D02*
X052584Y114931D01*
X052661Y111884D02*
X050283Y111884D01*
X050283Y108837D02*
X053923Y108837D01*
X056292Y105790D02*
X050283Y105790D01*
X253934Y096649D02*
X259457Y096649D01*
X328549Y227670D02*
X340242Y227670D01*
X337982Y230717D02*
X330810Y230717D01*
X331791Y233764D02*
X337000Y233764D01*
X337000Y236811D02*
X331791Y236811D01*
X330649Y239858D02*
X338141Y239858D01*
X340630Y242905D02*
X328161Y242905D01*
X404361Y242905D02*
X416830Y242905D01*
X414341Y239858D02*
X406849Y239858D01*
X407991Y236811D02*
X413200Y236811D01*
X413200Y233764D02*
X407991Y233764D01*
X407010Y230717D02*
X414182Y230717D01*
X416442Y227670D02*
X404749Y227670D01*
X455161Y242905D02*
X466911Y242905D01*
X464591Y239858D02*
X457649Y239858D01*
X459189Y236811D02*
X463492Y236811D01*
X463492Y233764D02*
X462236Y233764D01*
X473619Y236811D02*
X474573Y236811D01*
X474573Y239858D02*
X473619Y239858D01*
X473619Y242905D02*
X474573Y242905D01*
X520552Y303845D02*
X529958Y303845D01*
X527873Y306892D02*
X522469Y306892D01*
X523371Y309939D02*
X526928Y309939D01*
X526928Y312986D02*
X523371Y312986D01*
X522328Y316033D02*
X528012Y316033D01*
X530296Y319080D02*
X520214Y319080D01*
X524419Y331268D02*
X525373Y331268D01*
X525373Y334315D02*
X524419Y334315D01*
X524419Y337362D02*
X525373Y337362D01*
X525373Y340409D02*
X524419Y340409D01*
X524419Y343456D02*
X525373Y343456D01*
X525373Y346503D02*
X524419Y346503D01*
X524419Y349550D02*
X525373Y349550D01*
X530726Y349550D02*
X544464Y349550D01*
X543965Y349343D02*
X548072Y351044D01*
X549819Y351044D01*
X549819Y340351D01*
X550773Y340351D01*
X550773Y351044D01*
X552519Y351044D01*
X556626Y349343D01*
X559770Y346199D01*
X561471Y342092D01*
X561471Y340345D01*
X550778Y340345D01*
X550778Y339391D01*
X561471Y339391D01*
X561471Y337645D01*
X559770Y333538D01*
X556626Y330394D01*
X552519Y328693D01*
X550773Y328693D01*
X550773Y339386D01*
X549819Y339386D01*
X549819Y328693D01*
X548072Y328693D01*
X543965Y330394D01*
X540821Y333538D01*
X539120Y337645D01*
X539120Y339391D01*
X549813Y339391D01*
X549813Y340345D01*
X539120Y340345D01*
X539120Y342092D01*
X540821Y346199D01*
X543965Y349343D01*
X541125Y346503D02*
X534066Y346503D01*
X535506Y343456D02*
X539684Y343456D01*
X539120Y340409D02*
X536071Y340409D01*
X537595Y339869D02*
X550295Y339869D01*
X549819Y340409D02*
X550773Y340409D01*
X550773Y343456D02*
X549819Y343456D01*
X549819Y346503D02*
X550773Y346503D01*
X550773Y349550D02*
X549819Y349550D01*
X556126Y349550D02*
X571193Y349550D01*
X567244Y346503D02*
X559466Y346503D01*
X560906Y343456D02*
X565634Y343456D01*
X565028Y340409D02*
X561471Y340409D01*
X561354Y337362D02*
X565188Y337362D01*
X566450Y334315D02*
X560092Y334315D01*
X557500Y331268D02*
X569210Y331268D01*
X555696Y319080D02*
X544895Y319080D01*
X547178Y316033D02*
X553412Y316033D01*
X552328Y312986D02*
X548263Y312986D01*
X548263Y309939D02*
X552328Y309939D01*
X553273Y306892D02*
X547319Y306892D01*
X545233Y303845D02*
X555358Y303845D01*
X596033Y303845D02*
X604570Y303845D01*
X602485Y306892D02*
X598119Y306892D01*
X599063Y309939D02*
X601540Y309939D01*
X601540Y312986D02*
X599063Y312986D01*
X597978Y316033D02*
X602624Y316033D01*
X604908Y319080D02*
X595695Y319080D01*
X602944Y349550D02*
X580198Y349550D01*
X550773Y337362D02*
X549819Y337362D01*
X549819Y334315D02*
X550773Y334315D01*
X550773Y331268D02*
X549819Y331268D01*
X543091Y331268D02*
X532100Y331268D01*
X534692Y334315D02*
X540500Y334315D01*
X539238Y337362D02*
X535954Y337362D01*
X626421Y294704D02*
X650893Y294704D01*
X650753Y291657D02*
X629304Y291657D01*
X630566Y288610D02*
X651379Y288610D01*
X653015Y285563D02*
X630813Y285563D01*
X630294Y282516D02*
X657030Y282516D01*
X665812Y282516D02*
X698821Y282516D01*
X694694Y279469D02*
X628807Y279469D01*
X648275Y309939D02*
X653320Y309939D01*
X651254Y312986D02*
X648275Y312986D01*
X647190Y316033D02*
X650245Y316033D01*
X650245Y319080D02*
X644907Y319080D01*
X660944Y316033D02*
X661898Y316033D01*
X661898Y312986D02*
X660944Y312986D01*
X660944Y309939D02*
X661898Y309939D01*
X690561Y309939D02*
X698953Y309939D01*
X696444Y306892D02*
X693069Y306892D01*
X694313Y303845D02*
X695202Y303845D01*
X695202Y300798D02*
X694313Y300798D01*
X693528Y297751D02*
X695988Y297751D01*
X697849Y294704D02*
X691667Y294704D01*
X706569Y282516D02*
X724221Y282516D01*
X722377Y281752D02*
X726087Y283289D01*
X730104Y283289D01*
X733814Y281752D01*
X736654Y278912D01*
X738191Y275202D01*
X738191Y271185D01*
X736654Y267475D01*
X733814Y264635D01*
X730104Y263098D01*
X726087Y263098D01*
X722377Y264635D01*
X719537Y267475D01*
X718000Y271185D01*
X718000Y275202D01*
X719537Y278912D01*
X722377Y281752D01*
X720094Y279469D02*
X710697Y279469D01*
X712285Y276422D02*
X718505Y276422D01*
X718000Y273375D02*
X712791Y273375D01*
X712436Y270328D02*
X718356Y270328D01*
X719731Y267281D02*
X711060Y267281D01*
X707447Y264234D02*
X723345Y264234D01*
X732847Y264234D02*
X748745Y264234D01*
X745131Y267281D02*
X736460Y267281D01*
X737836Y270328D02*
X743756Y270328D01*
X743400Y273375D02*
X738191Y273375D01*
X737685Y276422D02*
X743905Y276422D01*
X745494Y279469D02*
X736097Y279469D01*
X731969Y282516D02*
X749621Y282516D01*
X745474Y294704D02*
X739290Y294704D01*
X741152Y297751D02*
X743614Y297751D01*
X742828Y300798D02*
X741937Y300798D01*
X741937Y303845D02*
X742828Y303845D01*
X744071Y306892D02*
X740694Y306892D01*
X738186Y309939D02*
X746580Y309939D01*
X746669Y317581D02*
X744922Y317581D01*
X740815Y319282D01*
X737671Y322426D01*
X735970Y326533D01*
X735970Y328279D01*
X746663Y328279D01*
X746663Y329233D01*
X735970Y329233D01*
X735970Y330980D01*
X737671Y335087D01*
X740815Y338231D01*
X744922Y339932D01*
X746669Y339932D01*
X746669Y329239D01*
X747623Y329239D01*
X747623Y339932D01*
X749369Y339932D01*
X753476Y338231D01*
X756620Y335087D01*
X758321Y330980D01*
X758321Y329233D01*
X747628Y329233D01*
X747628Y328279D01*
X758321Y328279D01*
X758321Y326533D01*
X756620Y322426D01*
X753476Y319282D01*
X749369Y317581D01*
X747623Y317581D01*
X747623Y328274D01*
X746669Y328274D01*
X746669Y317581D01*
X746669Y319080D02*
X747623Y319080D01*
X747623Y322127D02*
X746669Y322127D01*
X746669Y325174D02*
X747623Y325174D01*
X747623Y328221D02*
X746669Y328221D01*
X747145Y328757D02*
X772545Y328757D01*
X772545Y317644D01*
X772069Y319080D02*
X773023Y319080D01*
X773023Y322127D02*
X772069Y322127D01*
X772069Y325174D02*
X773023Y325174D01*
X773023Y328221D02*
X772069Y328221D01*
X772069Y331268D02*
X773023Y331268D01*
X773023Y334315D02*
X772069Y334315D01*
X772069Y337362D02*
X773023Y337362D01*
X765346Y337362D02*
X754345Y337362D01*
X756939Y334315D02*
X762751Y334315D01*
X761489Y331268D02*
X758201Y331268D01*
X758321Y328221D02*
X761370Y328221D01*
X761933Y325174D02*
X757759Y325174D01*
X756321Y322127D02*
X763370Y322127D01*
X766703Y319080D02*
X752989Y319080D01*
X741303Y319080D02*
X726261Y319080D01*
X727788Y319713D02*
X723868Y318089D01*
X719623Y318089D01*
X715703Y319713D01*
X712702Y322714D01*
X711078Y326634D01*
X711078Y330879D01*
X712702Y334799D01*
X715703Y337800D01*
X719623Y339424D01*
X723868Y339424D01*
X727788Y337800D01*
X730789Y334799D01*
X732413Y330879D01*
X732413Y326634D01*
X730789Y322714D01*
X727788Y319713D01*
X730202Y322127D02*
X737970Y322127D01*
X736533Y325174D02*
X731809Y325174D01*
X732413Y328221D02*
X735970Y328221D01*
X736089Y331268D02*
X732251Y331268D01*
X730989Y334315D02*
X737351Y334315D01*
X739946Y337362D02*
X728226Y337362D01*
X715265Y337362D02*
X686912Y337362D01*
X691585Y334315D02*
X712501Y334315D01*
X711239Y331268D02*
X693493Y331268D01*
X694313Y328221D02*
X711078Y328221D01*
X711683Y325174D02*
X694313Y325174D01*
X693104Y322127D02*
X713289Y322127D01*
X717231Y319080D02*
X690643Y319080D01*
X712786Y309939D02*
X724353Y309939D01*
X721844Y306892D02*
X715294Y306892D01*
X716537Y303845D02*
X720602Y303845D01*
X720602Y300798D02*
X716537Y300798D01*
X715752Y297751D02*
X721388Y297751D01*
X723249Y294704D02*
X713890Y294704D01*
X697945Y264234D02*
X675941Y264234D01*
X746669Y331268D02*
X747623Y331268D01*
X747623Y334315D02*
X746669Y334315D01*
X746669Y337362D02*
X747623Y337362D01*
X778389Y319080D02*
X799470Y319080D01*
X800406Y322127D02*
X781721Y322127D01*
X783159Y325174D02*
X802371Y325174D01*
X818920Y325174D02*
X824108Y325174D01*
X824108Y322127D02*
X820884Y322127D01*
X821821Y319080D02*
X824108Y319080D01*
X824108Y316033D02*
X821821Y316033D01*
X820813Y312986D02*
X824108Y312986D01*
X824108Y309939D02*
X818746Y309939D01*
X813893Y306892D02*
X824108Y306892D01*
X804114Y300798D02*
X790071Y300798D01*
X789328Y297751D02*
X801380Y297751D01*
X800118Y294704D02*
X787636Y294704D01*
X786530Y309939D02*
X802545Y309939D01*
X821309Y346503D02*
X824108Y346503D01*
X824108Y349550D02*
X819943Y349550D01*
X490860Y166730D02*
X480536Y166730D01*
X483038Y163683D02*
X490552Y163683D01*
X489400Y160636D02*
X484191Y160636D01*
X484191Y157589D02*
X489400Y157589D01*
X490371Y154542D02*
X483221Y154542D01*
X491617Y127119D02*
X500009Y127119D01*
X057758Y346814D02*
X054400Y343456D01*
X295283Y477524D02*
X464695Y477524D01*
X467742Y480571D02*
X295283Y480571D01*
X479469Y440960D02*
X481423Y440960D01*
X481423Y437913D02*
X479469Y437913D01*
X479469Y434866D02*
X481423Y434866D01*
D17*
X353445Y273194D02*
X321695Y273194D01*
X315345Y266844D01*
X302645Y266844D01*
X353445Y273194D02*
X359795Y266844D01*
X359795Y247794D01*
X372495Y216044D02*
X372495Y177944D01*
X448695Y235094D02*
X499495Y184294D01*
X499495Y158894D01*
X502670Y136669D02*
X531245Y108093D01*
X502670Y136669D02*
X486795Y136669D01*
D18*
X480445Y114444D03*
X372495Y177944D03*
X264545Y104919D03*
X162945Y120794D03*
X353445Y273194D03*
D19*
X359795Y247794D02*
X378845Y247794D01*
X385195Y241444D01*
X385195Y228744D01*
X372495Y216044D01*
X359795Y228744D01*
X359795Y247794D01*
M02*
