G75*
G70*
%OFA0B0*%
%FSLAX24Y24*%
%IPPOS*%
%LPD*%
%AMOC8*
5,1,8,0,0,1.08239X$1,22.5*
%
%ADD10C,0.0000*%
%ADD11R,0.0800X0.0800*%
%ADD12R,0.3400X0.3100*%
%ADD13R,0.1000X0.6000*%
%ADD14R,0.0350X0.5350*%
%ADD15R,0.0800X0.1850*%
%ADD16R,0.0750X0.0800*%
%ADD17R,0.0700X0.0700*%
%ADD18R,0.0650X0.0700*%
%ADD19C,0.0070*%
%ADD20R,0.0500X0.0220*%
%ADD21R,0.0220X0.0500*%
%ADD22R,0.0790X0.0590*%
%ADD23R,0.0790X0.1500*%
%ADD24R,0.0590X0.0790*%
%ADD25R,0.1500X0.0790*%
%ADD26R,0.0866X0.0236*%
%ADD27R,0.2100X0.0760*%
%ADD28R,0.0551X0.0394*%
%ADD29R,0.0394X0.0551*%
%ADD30R,0.0310X0.0350*%
%ADD31R,0.0551X0.0551*%
%ADD32R,0.0630X0.0710*%
%ADD33R,0.0710X0.0630*%
%ADD34R,0.0709X0.0630*%
%ADD35R,0.0630X0.0709*%
%ADD36R,0.1024X0.0866*%
%ADD37C,0.0600*%
%ADD38OC8,0.0600*%
%ADD39R,0.0787X0.0866*%
%ADD40R,0.0866X0.0787*%
%ADD41C,0.0157*%
%ADD42C,0.0305*%
%ADD43C,0.0276*%
%ADD44C,0.0160*%
%ADD45C,0.0100*%
%ADD46R,0.0356X0.0356*%
%ADD47C,0.0240*%
D10*
X004050Y005187D02*
X004050Y005729D01*
X004050Y006122D02*
X004050Y006664D01*
X004050Y007058D02*
X004050Y007599D01*
X003575Y007599D01*
X003181Y007599D02*
X002706Y007599D01*
X002312Y007599D02*
X001837Y007599D01*
X001444Y007599D02*
X000969Y007599D01*
X000575Y007599D02*
X000100Y007599D01*
X000100Y008042D01*
X000100Y008436D02*
X000100Y008879D01*
X000100Y009273D02*
X000100Y009715D01*
X000100Y010109D02*
X000100Y010552D01*
X000100Y010946D02*
X000100Y011389D01*
X000100Y011782D02*
X000100Y012225D01*
X000100Y012619D02*
X000100Y013062D01*
X000100Y013456D02*
X000100Y013899D01*
X000575Y013899D01*
X000969Y013899D02*
X001444Y013899D01*
X001837Y013899D02*
X002312Y013899D01*
X002706Y013899D02*
X003181Y013899D01*
X003575Y013899D02*
X004050Y013899D01*
X004050Y014440D01*
X004050Y014834D02*
X004050Y015375D01*
X004050Y015769D02*
X004050Y016311D01*
X004449Y016311D01*
X004843Y016311D02*
X005242Y016311D01*
X005636Y016311D02*
X006035Y016311D01*
X006428Y016311D02*
X006828Y016311D01*
X007221Y016311D02*
X007621Y016311D01*
X008014Y016311D02*
X008414Y016311D01*
X008807Y016311D02*
X009207Y016311D01*
X009600Y016311D02*
X010000Y016311D01*
X010393Y016311D02*
X010793Y016311D01*
X010793Y016822D01*
X010793Y017216D02*
X010793Y017727D01*
X010793Y018121D02*
X010793Y018632D01*
X010793Y019026D02*
X010793Y019537D01*
X010843Y019560D02*
X011236Y019560D01*
X011630Y019560D02*
X012024Y019560D01*
X012417Y019560D02*
X012811Y019560D01*
X013205Y019560D02*
X013598Y019560D01*
X013992Y019560D02*
X014386Y019560D01*
X014780Y019560D02*
X015173Y019560D01*
X015567Y019560D02*
X015961Y019560D01*
X016354Y019560D02*
X016748Y019560D01*
X017142Y019560D02*
X017535Y019560D01*
X017929Y019560D02*
X018323Y019560D01*
X018717Y019560D02*
X019110Y019560D01*
X019504Y019560D02*
X019898Y019560D01*
X020291Y019560D02*
X020685Y019560D01*
X021079Y019560D02*
X021472Y019560D01*
X021866Y019560D02*
X022260Y019560D01*
X022654Y019560D02*
X023047Y019560D01*
X023441Y019560D02*
X023835Y019560D01*
X024228Y019560D02*
X024622Y019560D01*
X024622Y019025D01*
X024622Y018631D02*
X024622Y018096D01*
X024622Y017702D02*
X024622Y017167D01*
X024622Y016773D02*
X024622Y016238D01*
X024650Y016261D02*
X025043Y016261D01*
X025437Y016261D02*
X025831Y016261D01*
X026224Y016261D02*
X026618Y016261D01*
X027012Y016261D02*
X027406Y016261D01*
X027799Y016261D02*
X028193Y016261D01*
X028587Y016261D02*
X028980Y016261D01*
X029374Y016261D02*
X029768Y016261D01*
X030161Y016261D02*
X030555Y016261D01*
X030949Y016261D02*
X031343Y016261D01*
X031372Y016260D02*
X031372Y015842D01*
X031372Y015448D02*
X031372Y015030D01*
X031372Y014637D02*
X031372Y014218D01*
X031372Y013825D02*
X031372Y013406D01*
X031372Y013013D02*
X031372Y012595D01*
X031372Y012201D02*
X031372Y011783D01*
X031372Y011389D02*
X031372Y010971D01*
X031372Y010577D02*
X031372Y010159D01*
X031372Y009765D02*
X031372Y009347D01*
X031372Y008953D02*
X031372Y008535D01*
X031372Y008141D02*
X031372Y007723D01*
X031372Y007329D02*
X031372Y006911D01*
X031372Y006518D02*
X031372Y006099D01*
X031372Y005706D02*
X031372Y005288D01*
X031343Y005261D02*
X030949Y005261D01*
X030555Y005261D02*
X030161Y005261D01*
X029768Y005261D02*
X029374Y005261D01*
X028980Y005261D02*
X028587Y005261D01*
X028193Y005261D02*
X027799Y005261D01*
X027406Y005261D02*
X027012Y005261D01*
X026618Y005261D02*
X026224Y005261D01*
X025831Y005261D02*
X025437Y005261D01*
X025043Y005261D02*
X024650Y005261D01*
X024622Y005210D02*
X024622Y004675D01*
X024622Y004281D02*
X024622Y003746D01*
X024622Y003352D02*
X024622Y002817D01*
X024622Y002423D02*
X024622Y001888D01*
X024226Y001888D01*
X023832Y001888D02*
X023435Y001888D01*
X023042Y001888D02*
X022645Y001888D01*
X022252Y001888D02*
X021855Y001888D01*
X021461Y001888D02*
X021065Y001888D01*
X020671Y001888D02*
X020275Y001888D01*
X019881Y001888D02*
X019484Y001888D01*
X019091Y001888D02*
X018694Y001888D01*
X018301Y001888D02*
X017904Y001888D01*
X017510Y001888D02*
X017114Y001888D01*
X016720Y001888D02*
X016324Y001888D01*
X015930Y001888D02*
X015534Y001888D01*
X015140Y001888D02*
X014743Y001888D01*
X014350Y001888D02*
X013953Y001888D01*
X013560Y001888D02*
X013163Y001888D01*
X012769Y001888D02*
X012373Y001888D01*
X011979Y001888D02*
X011583Y001888D01*
X011189Y001888D02*
X010793Y001888D01*
X010793Y002417D01*
X010793Y002811D02*
X010793Y003340D01*
X010793Y003734D02*
X010793Y004264D01*
X010793Y004657D02*
X010793Y005187D01*
X010393Y005187D01*
X010000Y005187D02*
X009600Y005187D01*
X009207Y005187D02*
X008807Y005187D01*
X008414Y005187D02*
X008014Y005187D01*
X007621Y005187D02*
X007221Y005187D01*
X006828Y005187D02*
X006428Y005187D01*
X006035Y005187D02*
X005636Y005187D01*
X005242Y005187D02*
X004843Y005187D01*
X004449Y005187D02*
X004050Y005187D01*
X004750Y010745D02*
X004752Y010815D01*
X004758Y010885D01*
X004768Y010954D01*
X004781Y011023D01*
X004799Y011091D01*
X004820Y011158D01*
X004845Y011223D01*
X004874Y011287D01*
X004906Y011350D01*
X004942Y011410D01*
X004981Y011468D01*
X005023Y011524D01*
X005068Y011578D01*
X005116Y011629D01*
X005167Y011677D01*
X005221Y011722D01*
X005277Y011764D01*
X005335Y011803D01*
X005395Y011839D01*
X005458Y011871D01*
X005522Y011900D01*
X005587Y011925D01*
X005654Y011946D01*
X005722Y011964D01*
X005791Y011977D01*
X005860Y011987D01*
X005930Y011993D01*
X006000Y011995D01*
X006070Y011993D01*
X006140Y011987D01*
X006209Y011977D01*
X006278Y011964D01*
X006346Y011946D01*
X006413Y011925D01*
X006478Y011900D01*
X006542Y011871D01*
X006605Y011839D01*
X006665Y011803D01*
X006723Y011764D01*
X006779Y011722D01*
X006833Y011677D01*
X006884Y011629D01*
X006932Y011578D01*
X006977Y011524D01*
X007019Y011468D01*
X007058Y011410D01*
X007094Y011350D01*
X007126Y011287D01*
X007155Y011223D01*
X007180Y011158D01*
X007201Y011091D01*
X007219Y011023D01*
X007232Y010954D01*
X007242Y010885D01*
X007248Y010815D01*
X007250Y010745D01*
X007248Y010675D01*
X007242Y010605D01*
X007232Y010536D01*
X007219Y010467D01*
X007201Y010399D01*
X007180Y010332D01*
X007155Y010267D01*
X007126Y010203D01*
X007094Y010140D01*
X007058Y010080D01*
X007019Y010022D01*
X006977Y009966D01*
X006932Y009912D01*
X006884Y009861D01*
X006833Y009813D01*
X006779Y009768D01*
X006723Y009726D01*
X006665Y009687D01*
X006605Y009651D01*
X006542Y009619D01*
X006478Y009590D01*
X006413Y009565D01*
X006346Y009544D01*
X006278Y009526D01*
X006209Y009513D01*
X006140Y009503D01*
X006070Y009497D01*
X006000Y009495D01*
X005930Y009497D01*
X005860Y009503D01*
X005791Y009513D01*
X005722Y009526D01*
X005654Y009544D01*
X005587Y009565D01*
X005522Y009590D01*
X005458Y009619D01*
X005395Y009651D01*
X005335Y009687D01*
X005277Y009726D01*
X005221Y009768D01*
X005167Y009813D01*
X005116Y009861D01*
X005068Y009912D01*
X005023Y009966D01*
X004981Y010022D01*
X004942Y010080D01*
X004906Y010140D01*
X004874Y010203D01*
X004845Y010267D01*
X004820Y010332D01*
X004799Y010399D01*
X004781Y010467D01*
X004768Y010536D01*
X004758Y010605D01*
X004752Y010675D01*
X004750Y010745D01*
X010400Y010745D02*
X010402Y010794D01*
X010408Y010842D01*
X010418Y010890D01*
X010432Y010937D01*
X010449Y010983D01*
X010470Y011027D01*
X010495Y011069D01*
X010523Y011109D01*
X010555Y011147D01*
X010589Y011182D01*
X010626Y011214D01*
X010665Y011243D01*
X010707Y011269D01*
X010751Y011291D01*
X010796Y011309D01*
X010843Y011324D01*
X010890Y011335D01*
X010939Y011342D01*
X010988Y011345D01*
X011037Y011344D01*
X011085Y011339D01*
X011134Y011330D01*
X011181Y011317D01*
X011227Y011300D01*
X011271Y011280D01*
X011314Y011256D01*
X011355Y011229D01*
X011393Y011198D01*
X011429Y011165D01*
X011461Y011129D01*
X011491Y011090D01*
X011518Y011049D01*
X011541Y011005D01*
X011560Y010960D01*
X011576Y010914D01*
X011588Y010867D01*
X011596Y010818D01*
X011600Y010769D01*
X011600Y010721D01*
X011596Y010672D01*
X011588Y010623D01*
X011576Y010576D01*
X011560Y010530D01*
X011541Y010485D01*
X011518Y010441D01*
X011491Y010400D01*
X011461Y010361D01*
X011429Y010325D01*
X011393Y010292D01*
X011355Y010261D01*
X011314Y010234D01*
X011271Y010210D01*
X011227Y010190D01*
X011181Y010173D01*
X011134Y010160D01*
X011085Y010151D01*
X011037Y010146D01*
X010988Y010145D01*
X010939Y010148D01*
X010890Y010155D01*
X010843Y010166D01*
X010796Y010181D01*
X010751Y010199D01*
X010707Y010221D01*
X010665Y010247D01*
X010626Y010276D01*
X010589Y010308D01*
X010555Y010343D01*
X010523Y010381D01*
X010495Y010421D01*
X010470Y010463D01*
X010449Y010507D01*
X010432Y010553D01*
X010418Y010600D01*
X010408Y010648D01*
X010402Y010696D01*
X010400Y010745D01*
D11*
X010600Y006395D03*
X009600Y006395D03*
X008600Y006395D03*
X011600Y006395D03*
X012600Y006395D03*
X013600Y006395D03*
X013700Y003395D03*
X012700Y003395D03*
X011700Y003395D03*
X014700Y003395D03*
X023350Y012045D03*
X023350Y013045D03*
X023350Y014045D03*
X023350Y015045D03*
X023350Y016045D03*
X023350Y017045D03*
X023350Y018045D03*
X016850Y018445D03*
X015850Y018445D03*
X014850Y018445D03*
X013850Y018445D03*
X012850Y018445D03*
X011850Y018445D03*
X011850Y017445D03*
X012600Y015495D03*
X001800Y012345D03*
X000800Y012345D03*
D12*
X005750Y010695D03*
D13*
X025900Y010495D03*
X029700Y010595D03*
D14*
X030375Y010120D03*
X025575Y010220D03*
D15*
X025200Y009570D03*
D16*
X025175Y011945D03*
D17*
X018200Y016645D03*
X021450Y017495D03*
X018200Y005545D03*
D18*
X014525Y017495D03*
D19*
X010250Y010745D02*
X010252Y010799D01*
X010258Y010853D01*
X010268Y010906D01*
X010281Y010959D01*
X010298Y011010D01*
X010319Y011060D01*
X010344Y011108D01*
X010372Y011155D01*
X010403Y011199D01*
X010437Y011241D01*
X010474Y011280D01*
X010514Y011317D01*
X010557Y011350D01*
X010602Y011381D01*
X010649Y011408D01*
X010697Y011431D01*
X010748Y011451D01*
X010799Y011468D01*
X010852Y011480D01*
X010905Y011489D01*
X010959Y011494D01*
X011014Y011495D01*
X011068Y011492D01*
X011121Y011485D01*
X011174Y011474D01*
X011227Y011460D01*
X011278Y011442D01*
X011327Y011420D01*
X011375Y011395D01*
X011421Y011366D01*
X011465Y011334D01*
X011506Y011299D01*
X011544Y011261D01*
X011580Y011220D01*
X011613Y011177D01*
X011643Y011132D01*
X011669Y011084D01*
X011692Y011035D01*
X011711Y010984D01*
X011726Y010933D01*
X011738Y010880D01*
X011746Y010826D01*
X011750Y010772D01*
X011750Y010718D01*
X011746Y010664D01*
X011738Y010610D01*
X011726Y010557D01*
X011711Y010506D01*
X011692Y010455D01*
X011669Y010406D01*
X011643Y010358D01*
X011613Y010313D01*
X011580Y010270D01*
X011544Y010229D01*
X011506Y010191D01*
X011465Y010156D01*
X011421Y010124D01*
X011375Y010095D01*
X011327Y010070D01*
X011278Y010048D01*
X011227Y010030D01*
X011174Y010016D01*
X011121Y010005D01*
X011068Y009998D01*
X011014Y009995D01*
X010959Y009996D01*
X010905Y010001D01*
X010852Y010010D01*
X010799Y010022D01*
X010748Y010039D01*
X010697Y010059D01*
X010649Y010082D01*
X010602Y010109D01*
X010557Y010140D01*
X010514Y010173D01*
X010474Y010210D01*
X010437Y010249D01*
X010403Y010291D01*
X010372Y010335D01*
X010344Y010382D01*
X010319Y010430D01*
X010298Y010480D01*
X010281Y010531D01*
X010268Y010584D01*
X010258Y010637D01*
X010252Y010691D01*
X010250Y010745D01*
D20*
G36*
X018580Y013827D02*
X018228Y013475D01*
X018072Y013631D01*
X018424Y013983D01*
X018580Y013827D01*
G37*
G36*
X018802Y013604D02*
X018450Y013252D01*
X018294Y013408D01*
X018646Y013760D01*
X018802Y013604D01*
G37*
G36*
X019025Y013382D02*
X018673Y013030D01*
X018517Y013186D01*
X018869Y013538D01*
X019025Y013382D01*
G37*
G36*
X019248Y013159D02*
X018896Y012807D01*
X018740Y012963D01*
X019092Y013315D01*
X019248Y013159D01*
G37*
G36*
X019470Y012936D02*
X019118Y012584D01*
X018962Y012740D01*
X019314Y013092D01*
X019470Y012936D01*
G37*
G36*
X019693Y012714D02*
X019341Y012362D01*
X019185Y012518D01*
X019537Y012870D01*
X019693Y012714D01*
G37*
G36*
X019916Y012491D02*
X019564Y012139D01*
X019408Y012295D01*
X019760Y012647D01*
X019916Y012491D01*
G37*
G36*
X020138Y012268D02*
X019786Y011916D01*
X019630Y012072D01*
X019982Y012424D01*
X020138Y012268D01*
G37*
G36*
X022528Y014658D02*
X022176Y014306D01*
X022020Y014462D01*
X022372Y014814D01*
X022528Y014658D01*
G37*
G36*
X022306Y014881D02*
X021954Y014529D01*
X021798Y014685D01*
X022150Y015037D01*
X022306Y014881D01*
G37*
G36*
X022083Y015104D02*
X021731Y014752D01*
X021575Y014908D01*
X021927Y015260D01*
X022083Y015104D01*
G37*
G36*
X021860Y015326D02*
X021508Y014974D01*
X021352Y015130D01*
X021704Y015482D01*
X021860Y015326D01*
G37*
G36*
X021638Y015549D02*
X021286Y015197D01*
X021130Y015353D01*
X021482Y015705D01*
X021638Y015549D01*
G37*
G36*
X021415Y015772D02*
X021063Y015420D01*
X020907Y015576D01*
X021259Y015928D01*
X021415Y015772D01*
G37*
G36*
X021192Y015994D02*
X020840Y015642D01*
X020684Y015798D01*
X021036Y016150D01*
X021192Y015994D01*
G37*
G36*
X020970Y016217D02*
X020618Y015865D01*
X020462Y016021D01*
X020814Y016373D01*
X020970Y016217D01*
G37*
D21*
G36*
X020138Y016021D02*
X019982Y015865D01*
X019630Y016217D01*
X019786Y016373D01*
X020138Y016021D01*
G37*
G36*
X019916Y015798D02*
X019760Y015642D01*
X019408Y015994D01*
X019564Y016150D01*
X019916Y015798D01*
G37*
G36*
X019693Y015576D02*
X019537Y015420D01*
X019185Y015772D01*
X019341Y015928D01*
X019693Y015576D01*
G37*
G36*
X019470Y015353D02*
X019314Y015197D01*
X018962Y015549D01*
X019118Y015705D01*
X019470Y015353D01*
G37*
G36*
X019248Y015130D02*
X019092Y014974D01*
X018740Y015326D01*
X018896Y015482D01*
X019248Y015130D01*
G37*
G36*
X019025Y014908D02*
X018869Y014752D01*
X018517Y015104D01*
X018673Y015260D01*
X019025Y014908D01*
G37*
G36*
X018802Y014685D02*
X018646Y014529D01*
X018294Y014881D01*
X018450Y015037D01*
X018802Y014685D01*
G37*
G36*
X018580Y014462D02*
X018424Y014306D01*
X018072Y014658D01*
X018228Y014814D01*
X018580Y014462D01*
G37*
G36*
X021415Y012518D02*
X021259Y012362D01*
X020907Y012714D01*
X021063Y012870D01*
X021415Y012518D01*
G37*
G36*
X021638Y012740D02*
X021482Y012584D01*
X021130Y012936D01*
X021286Y013092D01*
X021638Y012740D01*
G37*
G36*
X021860Y012963D02*
X021704Y012807D01*
X021352Y013159D01*
X021508Y013315D01*
X021860Y012963D01*
G37*
G36*
X022083Y013186D02*
X021927Y013030D01*
X021575Y013382D01*
X021731Y013538D01*
X022083Y013186D01*
G37*
G36*
X022306Y013408D02*
X022150Y013252D01*
X021798Y013604D01*
X021954Y013760D01*
X022306Y013408D01*
G37*
G36*
X022528Y013631D02*
X022372Y013475D01*
X022020Y013827D01*
X022176Y013983D01*
X022528Y013631D01*
G37*
G36*
X021192Y012295D02*
X021036Y012139D01*
X020684Y012491D01*
X020840Y012647D01*
X021192Y012295D01*
G37*
G36*
X020970Y012072D02*
X020814Y011916D01*
X020462Y012268D01*
X020618Y012424D01*
X020970Y012072D01*
G37*
D22*
X005010Y007435D03*
X005010Y006535D03*
X005010Y005635D03*
D23*
X007490Y006545D03*
D24*
X006310Y013305D03*
X005410Y013305D03*
X004510Y013305D03*
D25*
X005400Y015785D03*
D26*
X018576Y004595D03*
X018576Y004095D03*
X018576Y003595D03*
X018576Y003095D03*
X020624Y003095D03*
X020624Y003595D03*
X020624Y004095D03*
X020624Y004595D03*
D27*
X017800Y010295D03*
X014000Y010295D03*
D28*
X011317Y008519D03*
X012183Y008145D03*
X011317Y007771D03*
X008483Y014621D03*
X007617Y014995D03*
X008483Y015369D03*
D29*
X009026Y011378D03*
X009774Y011378D03*
X009400Y010512D03*
X023526Y003212D03*
X024274Y003212D03*
X023900Y004078D03*
D30*
X013670Y016895D03*
X012910Y016895D03*
X013290Y017695D03*
D31*
X013452Y016345D03*
X014948Y016345D03*
X015702Y016695D03*
X015702Y017445D03*
X017198Y017445D03*
X017198Y016695D03*
D32*
X017040Y015795D03*
X018160Y015795D03*
X017260Y014095D03*
X016140Y014095D03*
X011010Y013345D03*
X009890Y013345D03*
X009440Y014895D03*
X010560Y014895D03*
X010160Y009345D03*
X009040Y009345D03*
X009040Y008395D03*
X010160Y008395D03*
X015640Y003395D03*
X016760Y003395D03*
X021690Y002745D03*
X022810Y002745D03*
D33*
X022550Y003585D03*
X022550Y004704D03*
X022750Y005635D03*
X021900Y005635D03*
X020200Y005385D03*
X020200Y006504D03*
X021900Y006754D03*
X021800Y007535D03*
X022750Y006754D03*
X021800Y008654D03*
X021800Y009535D03*
X020950Y009535D03*
X020000Y009535D03*
X020000Y010654D03*
X020950Y010654D03*
X021800Y010654D03*
X020000Y017435D03*
X019100Y017435D03*
X019100Y018554D03*
X020000Y018554D03*
X012250Y013604D03*
X012250Y012485D03*
X009000Y012785D03*
X009000Y013904D03*
D34*
X007450Y013896D03*
X007450Y012793D03*
X003500Y011046D03*
X003500Y009943D03*
X017600Y004496D03*
X017600Y003393D03*
X019250Y005393D03*
X019250Y006496D03*
X018850Y007493D03*
X018850Y008596D03*
X021650Y004696D03*
X021650Y003593D03*
X022300Y016443D03*
X022300Y017546D03*
D35*
X015751Y015545D03*
X014649Y015545D03*
X014899Y011945D03*
X016001Y011945D03*
X016899Y011945D03*
X018001Y011945D03*
X019899Y008645D03*
X021001Y008645D03*
X021001Y007445D03*
X019899Y007445D03*
X010151Y007595D03*
X009049Y007595D03*
D36*
X014466Y004795D03*
X014816Y006345D03*
X016784Y006345D03*
X016784Y007895D03*
X014816Y007895D03*
X016434Y004795D03*
D37*
X023050Y012045D02*
X023650Y012045D01*
X023650Y013045D02*
X023050Y013045D01*
X023050Y014045D02*
X023650Y014045D01*
X023650Y015045D02*
X023050Y015045D01*
X023050Y016045D02*
X023650Y016045D01*
X023650Y017045D02*
X023050Y017045D01*
X023050Y018045D02*
X023650Y018045D01*
D38*
X016850Y018445D03*
X015850Y018445D03*
X014850Y018445D03*
X013850Y018445D03*
X012850Y018445D03*
X011850Y018445D03*
X011850Y017445D03*
X012600Y015495D03*
X001800Y012345D03*
X000800Y012345D03*
X008600Y006395D03*
X009600Y006395D03*
X010600Y006395D03*
X011600Y006395D03*
X012600Y006395D03*
X013600Y006395D03*
X013700Y003395D03*
X012700Y003395D03*
X011700Y003395D03*
X014700Y003395D03*
D39*
X006341Y008445D03*
X005159Y008445D03*
X003091Y008895D03*
X001909Y008895D03*
D40*
X002450Y009954D03*
X002450Y011135D03*
D41*
X025689Y007253D02*
X025847Y007253D01*
X025847Y006779D01*
X025689Y006779D01*
X025689Y007253D01*
X025689Y006935D02*
X025847Y006935D01*
X025847Y007091D02*
X025689Y007091D01*
X025689Y007247D02*
X025847Y007247D01*
X026122Y007253D02*
X026280Y007253D01*
X026280Y006779D01*
X026122Y006779D01*
X026122Y007253D01*
X026122Y006935D02*
X026280Y006935D01*
X026280Y007091D02*
X026122Y007091D01*
X026122Y007247D02*
X026280Y007247D01*
X026555Y007253D02*
X026713Y007253D01*
X026713Y006779D01*
X026555Y006779D01*
X026555Y007253D01*
X026555Y006935D02*
X026713Y006935D01*
X026713Y007091D02*
X026555Y007091D01*
X026555Y007247D02*
X026713Y007247D01*
X026988Y007253D02*
X027146Y007253D01*
X027146Y006779D01*
X026988Y006779D01*
X026988Y007253D01*
X026988Y006935D02*
X027146Y006935D01*
X027146Y007091D02*
X026988Y007091D01*
X026988Y007247D02*
X027146Y007247D01*
X027421Y007253D02*
X027579Y007253D01*
X027579Y006779D01*
X027421Y006779D01*
X027421Y007253D01*
X027421Y006935D02*
X027579Y006935D01*
X027579Y007091D02*
X027421Y007091D01*
X027421Y007247D02*
X027579Y007247D01*
X027854Y007253D02*
X028012Y007253D01*
X028012Y006779D01*
X027854Y006779D01*
X027854Y007253D01*
X027854Y006935D02*
X028012Y006935D01*
X028012Y007091D02*
X027854Y007091D01*
X027854Y007247D02*
X028012Y007247D01*
X028287Y007253D02*
X028445Y007253D01*
X028445Y006779D01*
X028287Y006779D01*
X028287Y007253D01*
X028287Y006935D02*
X028445Y006935D01*
X028445Y007091D02*
X028287Y007091D01*
X028287Y007247D02*
X028445Y007247D01*
X028720Y006779D02*
X028878Y006779D01*
X028720Y006779D02*
X028720Y007253D01*
X028878Y007253D01*
X028878Y006779D01*
X028878Y006935D02*
X028720Y006935D01*
X028720Y007091D02*
X028878Y007091D01*
X028878Y007247D02*
X028720Y007247D01*
D42*
X029581Y007356D02*
X029907Y007356D01*
X029907Y007050D01*
X029581Y007050D01*
X029581Y007356D01*
X029581Y007354D02*
X029907Y007354D01*
X025108Y008399D02*
X024802Y008399D01*
X025108Y008399D02*
X025108Y007601D01*
X024802Y007601D01*
X024802Y008399D01*
X024802Y007905D02*
X025108Y007905D01*
X025108Y008209D02*
X024802Y008209D01*
X024802Y011293D02*
X025108Y011293D01*
X025108Y010771D01*
X024802Y010771D01*
X024802Y011293D01*
X024802Y011075D02*
X025108Y011075D01*
D43*
X025062Y013138D02*
X024788Y013138D01*
X025062Y013138D02*
X025062Y012666D01*
X024788Y012666D01*
X024788Y013138D01*
X024788Y012941D02*
X025062Y012941D01*
X030536Y013532D02*
X030810Y013532D01*
X030810Y013060D01*
X030536Y013060D01*
X030536Y013532D01*
X030536Y013335D02*
X030810Y013335D01*
X030812Y011858D02*
X031086Y011858D01*
X031086Y010954D01*
X030812Y010954D01*
X030812Y011858D01*
X030812Y011229D02*
X031086Y011229D01*
X031086Y011504D02*
X030812Y011504D01*
X030812Y011779D02*
X031086Y011779D01*
X031086Y008098D02*
X030812Y008098D01*
X031086Y008098D02*
X031086Y007194D01*
X030812Y007194D01*
X030812Y008098D01*
X030812Y007469D02*
X031086Y007469D01*
X031086Y007744D02*
X030812Y007744D01*
X030812Y008019D02*
X031086Y008019D01*
D44*
X030850Y007945D02*
X030600Y007945D01*
X030550Y007495D02*
X030850Y007495D01*
X031000Y007195D02*
X031000Y013345D01*
X030100Y013345D01*
X030600Y012995D02*
X030600Y012695D01*
X030550Y011695D02*
X030850Y011695D01*
X030750Y011095D02*
X030600Y011095D01*
X027100Y014045D02*
X027100Y014345D01*
X024100Y014345D01*
X024100Y015045D01*
X023350Y015045D01*
X022750Y015045D01*
X022274Y014569D01*
X022052Y014783D02*
X023314Y016045D01*
X023350Y016045D02*
X024350Y016045D01*
X024350Y014645D01*
X027500Y014645D01*
X027500Y007045D01*
X027100Y006995D02*
X027100Y014045D01*
X025650Y012945D02*
X025650Y012895D01*
X025650Y012945D02*
X025150Y012945D01*
X024100Y013045D02*
X024100Y006145D01*
X027933Y006145D01*
X027950Y006145D02*
X027950Y006995D01*
X028400Y006945D02*
X028400Y005845D01*
X028366Y005845D02*
X023750Y005845D01*
X023750Y011045D01*
X023750Y012045D01*
X023350Y012045D01*
X023100Y012045D01*
X021850Y013295D01*
X022052Y013506D02*
X022514Y013045D01*
X023350Y013045D01*
X024000Y013045D01*
X024100Y013045D01*
X024400Y014045D02*
X023350Y014045D01*
X022590Y014045D01*
X022274Y013729D01*
X021606Y013061D02*
X021606Y013038D01*
X022200Y012445D01*
X022800Y011095D01*
X022800Y006695D01*
X022750Y006754D01*
X021900Y006754D02*
X021800Y006854D01*
X021800Y007535D01*
X021051Y007535D01*
X021001Y007445D01*
X020000Y007443D02*
X019899Y007445D01*
X018800Y007445D01*
X018850Y007493D01*
X019100Y007745D01*
X017950Y007745D01*
X017950Y008595D01*
X015650Y008595D01*
X015650Y003395D01*
X015640Y003395D01*
X014700Y003395D01*
X014050Y003745D02*
X013700Y003395D01*
X014050Y003745D02*
X014050Y004795D01*
X014600Y004795D01*
X014466Y004795D01*
X014700Y005029D01*
X014700Y006245D01*
X014800Y006345D01*
X014816Y006345D01*
X014816Y007895D01*
X013650Y007045D02*
X013050Y007045D01*
X012600Y006395D01*
X012600Y007045D02*
X012050Y007045D01*
X011600Y006395D01*
X011600Y007045D02*
X011050Y007045D01*
X010600Y006395D01*
X010600Y007045D02*
X009600Y007045D01*
X009600Y009995D01*
X008900Y009995D01*
X008900Y011352D01*
X009026Y011378D01*
X009050Y011402D01*
X009050Y012195D01*
X010450Y012195D01*
X010450Y014195D01*
X010460Y014995D01*
X010560Y014895D01*
X010600Y015104D01*
X010800Y015145D01*
X011750Y015145D01*
X011750Y016745D01*
X012500Y016745D01*
X012500Y018095D01*
X012850Y018445D01*
X012850Y019045D01*
X011850Y019045D01*
X011850Y018445D01*
X011850Y019045D02*
X011250Y019045D01*
X011250Y015795D01*
X007050Y015795D01*
X007000Y015745D01*
X007000Y014895D01*
X007000Y014745D01*
X004600Y014745D01*
X004600Y013545D01*
X004510Y013305D01*
X004600Y013545D02*
X001650Y013545D01*
X001650Y012345D01*
X001800Y012345D01*
X001650Y012345D02*
X001650Y009954D01*
X002450Y009954D01*
X003409Y009954D01*
X003450Y010045D01*
X003500Y009943D01*
X004349Y009943D01*
X004350Y009595D01*
X004350Y009245D01*
X004350Y009235D01*
X005159Y009235D01*
X005159Y008445D01*
X005159Y008495D01*
X004950Y008495D01*
X004950Y007435D01*
X005010Y007435D01*
X006350Y007445D01*
X006350Y005445D01*
X011050Y005445D01*
X011050Y002145D01*
X022250Y002145D01*
X022250Y003595D01*
X022540Y003595D01*
X022550Y003585D01*
X022500Y003585D01*
X022500Y003545D01*
X021650Y003545D01*
X021650Y003593D01*
X021650Y004095D02*
X021650Y004696D01*
X021750Y004696D01*
X021750Y004845D01*
X021900Y004845D01*
X021900Y004795D01*
X021900Y005635D01*
X022750Y005635D02*
X022750Y005695D01*
X023150Y005695D01*
X023150Y003345D01*
X023500Y003345D01*
X023500Y003212D01*
X023550Y003212D01*
X023526Y003212D01*
X022810Y002745D02*
X022800Y002645D01*
X022800Y002445D01*
X023900Y002445D01*
X023900Y004078D01*
X023450Y004395D02*
X024400Y004395D01*
X024400Y003045D01*
X024324Y003045D01*
X024274Y003212D01*
X024400Y003045D02*
X024400Y002145D01*
X022250Y002145D01*
X021690Y002445D02*
X021690Y002745D01*
X021690Y002445D02*
X011750Y002445D01*
X011700Y002445D01*
X011700Y003395D01*
X012700Y003395D02*
X012700Y002745D01*
X019450Y002745D01*
X019450Y004095D01*
X018576Y004095D01*
X018576Y004595D02*
X017250Y004595D01*
X017600Y004496D01*
X017250Y004595D02*
X016650Y004595D01*
X016550Y004695D01*
X016550Y006345D01*
X016784Y006345D01*
X016784Y007895D01*
X016934Y007895D01*
X018250Y008095D02*
X018250Y008945D01*
X013950Y008945D01*
X013950Y006795D01*
X013600Y006395D01*
X013650Y007045D02*
X013650Y009245D01*
X019400Y009245D01*
X019400Y011245D01*
X020300Y012095D01*
X020300Y012845D01*
X020600Y013145D01*
X021161Y012616D01*
X021384Y012838D02*
X021850Y012345D01*
X022450Y010945D01*
X022450Y008095D01*
X018250Y008095D01*
X018850Y008596D02*
X019050Y008645D01*
X019899Y008645D01*
X019899Y009735D01*
X020000Y009535D01*
X020950Y009535D01*
X021800Y009535D01*
X021800Y008654D02*
X021051Y008654D01*
X021001Y008645D01*
X020000Y007443D02*
X020000Y006495D01*
X019899Y006496D01*
X019250Y006496D01*
X020341Y006496D01*
X020200Y006504D01*
X021000Y006495D01*
X021000Y006195D01*
X021000Y004595D01*
X020624Y004595D01*
X020624Y004095D02*
X021650Y004095D01*
X021650Y004696D02*
X022550Y004696D01*
X022550Y004704D01*
X023450Y004395D02*
X023450Y006195D01*
X021000Y006195D01*
X020200Y005385D02*
X020050Y005393D01*
X019250Y005393D01*
X019950Y005395D01*
X018300Y005395D01*
X018200Y005545D01*
X019800Y005395D02*
X019950Y005395D01*
X019950Y003595D01*
X020624Y003595D01*
X017600Y003393D02*
X016760Y003395D01*
X016650Y004595D02*
X016284Y004595D01*
X016434Y004745D01*
X016434Y004795D01*
X013350Y007345D02*
X012800Y007345D01*
X012600Y007045D01*
X012400Y007345D02*
X011800Y007345D01*
X011600Y007045D01*
X011317Y007771D02*
X011150Y007695D01*
X011100Y007745D01*
X010600Y007045D01*
X010151Y007595D02*
X010151Y008395D01*
X010160Y008395D01*
X010160Y008519D01*
X011317Y008519D01*
X012050Y008145D02*
X012050Y011245D01*
X012050Y011645D01*
X012100Y011695D01*
X013650Y011695D01*
X013650Y013395D01*
X013700Y013445D01*
X016700Y013445D01*
X016700Y014685D01*
X016700Y014695D01*
X015500Y014695D01*
X015500Y013995D01*
X013150Y013995D01*
X013150Y013895D01*
X013150Y012485D01*
X012250Y012485D01*
X012850Y013045D02*
X011010Y013045D01*
X011010Y013345D01*
X009890Y013345D02*
X008100Y013345D01*
X008100Y013896D01*
X007450Y013896D01*
X006310Y013896D01*
X006310Y013305D01*
X006310Y012995D01*
X006352Y013345D01*
X006310Y013305D02*
X006350Y013265D01*
X006310Y013305D02*
X006300Y013595D01*
X005410Y013305D02*
X005450Y012995D01*
X005450Y012545D01*
X003700Y012545D01*
X003650Y012545D01*
X003650Y011845D01*
X003650Y011045D01*
X003500Y011046D01*
X002311Y011046D01*
X002450Y011135D01*
X000800Y012145D02*
X000800Y012345D01*
X000800Y012145D02*
X000800Y008895D01*
X001909Y008895D01*
X002050Y009045D01*
X002050Y007995D01*
X004300Y007995D01*
X004300Y005595D01*
X005010Y005595D01*
X005010Y005635D01*
X007300Y006545D02*
X007490Y006545D01*
X007300Y006545D01*
X007300Y006595D01*
X007350Y006645D02*
X008100Y007395D01*
X008100Y007845D01*
X008100Y008195D01*
X007750Y008195D01*
X006400Y008195D01*
X006341Y008195D01*
X006341Y008445D01*
X005010Y007435D02*
X005010Y007385D01*
X003091Y008895D02*
X003100Y009245D01*
X004350Y009245D01*
X004350Y009235D01*
X004350Y009245D01*
X004350Y009595D01*
X004350Y012145D01*
X007250Y012145D02*
X007250Y012796D01*
X007450Y012793D01*
X008100Y012843D02*
X008100Y013345D01*
X008100Y012843D02*
X008100Y008195D01*
X009040Y008153D02*
X009049Y007595D01*
X009049Y007046D01*
X009600Y006395D01*
X008600Y006395D02*
X008450Y006545D01*
X008450Y010445D01*
X008450Y012385D01*
X009000Y012785D01*
X009774Y011945D02*
X009774Y011378D01*
X009774Y011945D02*
X013400Y011945D01*
X013400Y013695D01*
X016000Y013695D01*
X016000Y013821D01*
X016166Y013821D01*
X016140Y014095D01*
X016700Y014685D02*
X018201Y014685D01*
X018326Y014560D01*
X018512Y014783D02*
X018300Y014995D01*
X015850Y014995D01*
X015200Y014995D01*
X015200Y016095D01*
X015036Y016282D01*
X015173Y016145D01*
X016350Y016145D01*
X016350Y017495D01*
X016550Y017795D01*
X016550Y018145D01*
X016850Y018445D01*
X015850Y018445D02*
X015850Y017493D01*
X015702Y017445D01*
X015150Y017095D02*
X015150Y018145D01*
X014850Y018445D01*
X013850Y018445D02*
X013850Y018095D01*
X013450Y017695D01*
X013290Y017695D01*
X012910Y017295D02*
X012900Y017295D01*
X014550Y017295D01*
X014550Y017495D01*
X015150Y017095D02*
X015500Y016745D01*
X015702Y016695D01*
X015200Y016095D02*
X015036Y016282D01*
X014850Y016495D01*
X014948Y016345D01*
X014850Y016495D01*
X015036Y016282D01*
X014649Y015545D02*
X014599Y015495D01*
X012600Y015495D01*
X012850Y016395D02*
X012000Y016395D01*
X012000Y013804D01*
X012250Y013604D01*
X012850Y013045D02*
X012850Y014245D01*
X015200Y014245D01*
X015200Y014995D01*
X015751Y015545D02*
X015801Y015495D01*
X017050Y015495D01*
X017190Y015635D01*
X017040Y015795D01*
X017600Y015245D02*
X017600Y016495D01*
X017148Y016495D01*
X017198Y016695D01*
X017198Y016795D01*
X017198Y017445D01*
X018200Y017695D02*
X018200Y018554D01*
X019100Y018554D01*
X020000Y018554D01*
X020600Y018795D02*
X020600Y016545D01*
X020300Y016245D01*
X020300Y015745D01*
X019400Y014845D01*
X019377Y014845D01*
X018994Y015228D01*
X019194Y015451D02*
X018950Y015695D01*
X018950Y017235D01*
X019100Y017435D01*
X020000Y017435D02*
X020000Y016895D01*
X019200Y016095D01*
X019200Y015895D01*
X019421Y015674D01*
X019439Y015674D01*
X019216Y015451D02*
X019194Y015451D01*
X018771Y015006D02*
X018739Y015006D01*
X018500Y015245D01*
X017600Y015245D01*
X018160Y015795D02*
X018160Y016695D01*
X018200Y016645D01*
X018200Y017695D01*
X020600Y018795D02*
X023350Y018795D01*
X023350Y018045D01*
X023350Y017345D02*
X022200Y017345D01*
X022300Y017546D01*
X022300Y018495D01*
X020900Y018495D01*
X020900Y016695D01*
X021750Y015845D01*
X021384Y015478D01*
X021384Y015451D01*
X021384Y015428D01*
X019400Y013445D01*
X019500Y013345D01*
X019500Y013122D01*
X019216Y012838D01*
X018994Y013061D02*
X018700Y012795D01*
X018650Y012595D01*
X018900Y012345D01*
X019150Y012345D01*
X019439Y012616D01*
X019800Y012976D01*
X019800Y013445D01*
X021584Y015228D01*
X021606Y015228D01*
X021973Y015595D01*
X022000Y015595D01*
X022000Y015645D01*
X022450Y016095D01*
X022450Y016295D01*
X022449Y016395D01*
X022300Y016443D01*
X022100Y016245D01*
X021450Y016895D01*
X021450Y017495D01*
X023350Y017345D02*
X023350Y017045D01*
X024100Y017045D01*
X024100Y019045D01*
X012850Y019045D01*
X013450Y019345D02*
X024350Y019345D01*
X024350Y016045D01*
X022450Y015195D02*
X022400Y015195D01*
X022000Y015595D01*
X022450Y015195D02*
X022052Y014796D01*
X020938Y015896D02*
X020902Y015896D01*
X019150Y014145D01*
X017260Y014145D01*
X017260Y014095D01*
X017750Y013195D02*
X013900Y013195D01*
X013900Y011345D01*
X012300Y011345D01*
X012300Y009245D01*
X013050Y009245D01*
X013050Y007645D01*
X012600Y007645D01*
X012400Y007345D01*
X013350Y007345D02*
X013350Y009545D01*
X012600Y009545D01*
X012600Y010995D01*
X014250Y010995D01*
X014250Y012895D01*
X017950Y012895D01*
X018548Y013493D01*
X018548Y013506D01*
X018739Y013284D02*
X018050Y012595D01*
X016900Y012595D01*
X016899Y012443D01*
X016899Y011945D01*
X016001Y011945D01*
X014899Y011945D02*
X014899Y010284D01*
X014476Y010311D01*
X014000Y010295D01*
X014476Y010311D02*
X014500Y009545D01*
X019100Y009545D01*
X019100Y010245D01*
X019100Y010895D01*
X019100Y011395D01*
X019300Y011595D01*
X019876Y012170D01*
X019884Y012170D01*
X019662Y012393D02*
X019648Y012393D01*
X019150Y011895D01*
X018700Y011895D01*
X017851Y011895D01*
X018001Y011945D01*
X018001Y010296D01*
X017800Y010295D01*
X018100Y010295D01*
X018250Y010345D01*
X020000Y010654D02*
X020000Y011395D01*
X020750Y012145D01*
X020700Y012145D01*
X020716Y012170D01*
X020938Y012393D02*
X021300Y012045D01*
X021300Y010654D01*
X020950Y010654D01*
X021300Y010654D02*
X021800Y010654D01*
X021900Y010795D01*
X021800Y010654D01*
X025100Y011045D02*
X025650Y011045D01*
X025650Y010995D01*
X024400Y014045D02*
X024400Y006445D01*
X026201Y006445D01*
X026200Y006445D02*
X026200Y007045D01*
X026650Y006995D02*
X026650Y007595D01*
X025100Y007595D01*
X025100Y007645D01*
X025150Y007595D02*
X025600Y007595D01*
X024400Y005545D02*
X024400Y004395D01*
X024400Y005545D02*
X029800Y005545D01*
X029800Y007195D01*
X031000Y007195D01*
X029750Y007295D02*
X029750Y007695D01*
X019400Y013445D02*
X019250Y013595D01*
X019050Y013595D01*
X018771Y013316D01*
X018771Y013284D01*
X018739Y013284D01*
X018326Y013729D02*
X018284Y013729D01*
X017750Y013195D01*
X018512Y014783D02*
X018548Y014783D01*
X013670Y016415D02*
X013650Y016395D01*
X013402Y016395D01*
X013452Y016345D01*
X013430Y016467D01*
X013670Y016415D02*
X013670Y016895D01*
X012910Y016895D02*
X012910Y017295D01*
X012900Y017295D02*
X012900Y016395D01*
X012850Y016395D01*
X011850Y017445D02*
X011500Y017095D01*
X011500Y015495D01*
X009800Y015495D01*
X008733Y015495D01*
X008483Y015369D01*
X007767Y014995D02*
X007750Y014995D01*
X007767Y014995D02*
X007617Y014995D01*
X007500Y014995D01*
X007450Y014945D01*
X007450Y014146D01*
X007450Y013896D01*
X008483Y014621D02*
X008483Y014645D01*
X008950Y014645D01*
X009407Y014645D01*
X009407Y014745D01*
X009440Y014895D01*
X008950Y014645D02*
X008950Y013904D01*
X009000Y013904D01*
X010990Y016045D02*
X011000Y016045D01*
X011000Y019345D01*
X013450Y019345D01*
X010990Y016045D02*
X005700Y016045D01*
X005400Y015785D01*
X012050Y011445D02*
X012050Y011245D01*
X009950Y010345D02*
X009950Y009545D01*
X010000Y009545D01*
X010160Y009385D01*
X010160Y009345D01*
X009950Y010345D02*
X009400Y010345D01*
X009400Y010512D01*
X009040Y009445D02*
X009040Y008395D01*
X009040Y008153D01*
X009040Y009345D02*
X009040Y009445D01*
X012050Y008145D02*
X012183Y008145D01*
X011350Y005745D02*
X008550Y005745D01*
X007500Y005745D01*
X007490Y006545D01*
X007350Y006645D01*
X004350Y009235D02*
X004350Y009245D01*
X004350Y009235D01*
X011350Y005745D02*
X011350Y004245D01*
X012700Y004245D01*
X012700Y003395D01*
D45*
X007250Y012145D02*
X004350Y012145D01*
D46*
X014550Y017495D03*
X018200Y016645D03*
X021450Y017495D03*
X025850Y010545D03*
X029800Y010545D03*
X018200Y005545D03*
D47*
X022274Y014560D02*
X022274Y014569D01*
X022052Y014783D02*
X022052Y014796D01*
M02*
