%
M48
M72
T01C0.0236
T02C0.0400
T03C0.1200
T04C0.2500
%
T01
X18300Y5545
X25850Y10545
X29800Y10545
X21350Y17495
X18300Y16695
X14550Y17495
T02
X8600Y6395
X9600Y6395
X10600Y6395
X11600Y6395
X12600Y6395
X13600Y6395
X13700Y3395
X12700Y3395
X11700Y3395
X14700Y3395
X23350Y12045
X23350Y13045
X23350Y14045
X23350Y15045
X23350Y16045
X23350Y17045
X23350Y18045
X16850Y18445
X15850Y18445
X14850Y18445
X13850Y18445
X12850Y18445
X11850Y18445
X11850Y17445
X12600Y15495
X1800Y12345
X800Y12345
T03
X11000Y10745
T04
X6000Y10745
M30
