G75*
G70*
%OFA0B0*%
%FSLAX24Y24*%
%IPPOS*%
%LPD*%
%AMOC8*
5,1,8,0,0,1.08239X$1,22.5*
%
%ADD10C,0.0000*%
%ADD11C,0.0020*%
%ADD12C,0.0120*%
%ADD13C,0.0030*%
%ADD14C,0.0010*%
%ADD15C,0.0050*%
%ADD16C,0.0060*%
%ADD17C,0.0080*%
D10*
X004050Y005187D02*
X004050Y005729D01*
X004050Y006122D02*
X004050Y006664D01*
X004050Y007058D02*
X004050Y007599D01*
X003575Y007599D01*
X003181Y007599D02*
X002706Y007599D01*
X002312Y007599D02*
X001837Y007599D01*
X001444Y007599D02*
X000969Y007599D01*
X000575Y007599D02*
X000100Y007599D01*
X000100Y008042D01*
X000100Y008436D02*
X000100Y008879D01*
X000100Y009273D02*
X000100Y009715D01*
X000100Y010109D02*
X000100Y010552D01*
X000100Y010946D02*
X000100Y011389D01*
X000100Y011782D02*
X000100Y012225D01*
X000100Y012619D02*
X000100Y013062D01*
X000100Y013456D02*
X000100Y013899D01*
X000575Y013899D01*
X000969Y013899D02*
X001444Y013899D01*
X001837Y013899D02*
X002312Y013899D01*
X002706Y013899D02*
X003181Y013899D01*
X003575Y013899D02*
X004050Y013899D01*
X004050Y014440D01*
X004050Y014834D02*
X004050Y015375D01*
X004050Y015769D02*
X004050Y016311D01*
X004449Y016311D01*
X004843Y016311D02*
X005242Y016311D01*
X005636Y016311D02*
X006035Y016311D01*
X006428Y016311D02*
X006828Y016311D01*
X007221Y016311D02*
X007621Y016311D01*
X008014Y016311D02*
X008414Y016311D01*
X008807Y016311D02*
X009207Y016311D01*
X009600Y016311D02*
X010000Y016311D01*
X010393Y016311D02*
X010793Y016311D01*
X010793Y016822D01*
X010793Y017216D02*
X010793Y017727D01*
X010793Y018121D02*
X010793Y018632D01*
X010793Y019026D02*
X010793Y019537D01*
X010843Y019560D02*
X011236Y019560D01*
X011630Y019560D02*
X012024Y019560D01*
X012417Y019560D02*
X012811Y019560D01*
X013205Y019560D02*
X013598Y019560D01*
X013992Y019560D02*
X014386Y019560D01*
X014780Y019560D02*
X015173Y019560D01*
X015567Y019560D02*
X015961Y019560D01*
X016354Y019560D02*
X016748Y019560D01*
X017142Y019560D02*
X017535Y019560D01*
X017929Y019560D02*
X018323Y019560D01*
X018717Y019560D02*
X019110Y019560D01*
X019504Y019560D02*
X019898Y019560D01*
X020291Y019560D02*
X020685Y019560D01*
X021079Y019560D02*
X021472Y019560D01*
X021866Y019560D02*
X022260Y019560D01*
X022654Y019560D02*
X023047Y019560D01*
X023441Y019560D02*
X023835Y019560D01*
X024228Y019560D02*
X024622Y019560D01*
X024622Y019025D01*
X024622Y018631D02*
X024622Y018096D01*
X024622Y017702D02*
X024622Y017167D01*
X024622Y016773D02*
X024622Y016238D01*
X024650Y016261D02*
X025043Y016261D01*
X025437Y016261D02*
X025831Y016261D01*
X026224Y016261D02*
X026618Y016261D01*
X027012Y016261D02*
X027406Y016261D01*
X027799Y016261D02*
X028193Y016261D01*
X028587Y016261D02*
X028980Y016261D01*
X029374Y016261D02*
X029768Y016261D01*
X030161Y016261D02*
X030555Y016261D01*
X030949Y016261D02*
X031343Y016261D01*
X031372Y016260D02*
X031372Y015842D01*
X031372Y015448D02*
X031372Y015030D01*
X031372Y014637D02*
X031372Y014218D01*
X031372Y013825D02*
X031372Y013406D01*
X031372Y013013D02*
X031372Y012595D01*
X031372Y012201D02*
X031372Y011783D01*
X031372Y011389D02*
X031372Y010971D01*
X031372Y010577D02*
X031372Y010159D01*
X031372Y009765D02*
X031372Y009347D01*
X031372Y008953D02*
X031372Y008535D01*
X031372Y008141D02*
X031372Y007723D01*
X031372Y007329D02*
X031372Y006911D01*
X031372Y006518D02*
X031372Y006099D01*
X031372Y005706D02*
X031372Y005288D01*
X031343Y005261D02*
X030949Y005261D01*
X030555Y005261D02*
X030161Y005261D01*
X029768Y005261D02*
X029374Y005261D01*
X028980Y005261D02*
X028587Y005261D01*
X028193Y005261D02*
X027799Y005261D01*
X027406Y005261D02*
X027012Y005261D01*
X026618Y005261D02*
X026224Y005261D01*
X025831Y005261D02*
X025437Y005261D01*
X025043Y005261D02*
X024650Y005261D01*
X024622Y005210D02*
X024622Y004675D01*
X024622Y004281D02*
X024622Y003746D01*
X024622Y003352D02*
X024622Y002817D01*
X024622Y002423D02*
X024622Y001888D01*
X024226Y001888D01*
X023832Y001888D02*
X023435Y001888D01*
X023042Y001888D02*
X022645Y001888D01*
X022252Y001888D02*
X021855Y001888D01*
X021461Y001888D02*
X021065Y001888D01*
X020671Y001888D02*
X020275Y001888D01*
X019881Y001888D02*
X019484Y001888D01*
X019091Y001888D02*
X018694Y001888D01*
X018301Y001888D02*
X017904Y001888D01*
X017510Y001888D02*
X017114Y001888D01*
X016720Y001888D02*
X016324Y001888D01*
X015930Y001888D02*
X015534Y001888D01*
X015140Y001888D02*
X014743Y001888D01*
X014350Y001888D02*
X013953Y001888D01*
X013560Y001888D02*
X013163Y001888D01*
X012769Y001888D02*
X012373Y001888D01*
X011979Y001888D02*
X011583Y001888D01*
X011189Y001888D02*
X010793Y001888D01*
X010793Y002417D01*
X010793Y002811D02*
X010793Y003340D01*
X010793Y003734D02*
X010793Y004264D01*
X010793Y004657D02*
X010793Y005187D01*
X010393Y005187D01*
X010000Y005187D02*
X009600Y005187D01*
X009207Y005187D02*
X008807Y005187D01*
X008414Y005187D02*
X008014Y005187D01*
X007621Y005187D02*
X007221Y005187D01*
X006828Y005187D02*
X006428Y005187D01*
X006035Y005187D02*
X005636Y005187D01*
X005242Y005187D02*
X004843Y005187D01*
X004449Y005187D02*
X004050Y005187D01*
X004750Y010745D02*
X004752Y010815D01*
X004758Y010885D01*
X004768Y010954D01*
X004781Y011023D01*
X004799Y011091D01*
X004820Y011158D01*
X004845Y011223D01*
X004874Y011287D01*
X004906Y011350D01*
X004942Y011410D01*
X004981Y011468D01*
X005023Y011524D01*
X005068Y011578D01*
X005116Y011629D01*
X005167Y011677D01*
X005221Y011722D01*
X005277Y011764D01*
X005335Y011803D01*
X005395Y011839D01*
X005458Y011871D01*
X005522Y011900D01*
X005587Y011925D01*
X005654Y011946D01*
X005722Y011964D01*
X005791Y011977D01*
X005860Y011987D01*
X005930Y011993D01*
X006000Y011995D01*
X006070Y011993D01*
X006140Y011987D01*
X006209Y011977D01*
X006278Y011964D01*
X006346Y011946D01*
X006413Y011925D01*
X006478Y011900D01*
X006542Y011871D01*
X006605Y011839D01*
X006665Y011803D01*
X006723Y011764D01*
X006779Y011722D01*
X006833Y011677D01*
X006884Y011629D01*
X006932Y011578D01*
X006977Y011524D01*
X007019Y011468D01*
X007058Y011410D01*
X007094Y011350D01*
X007126Y011287D01*
X007155Y011223D01*
X007180Y011158D01*
X007201Y011091D01*
X007219Y011023D01*
X007232Y010954D01*
X007242Y010885D01*
X007248Y010815D01*
X007250Y010745D01*
X007248Y010675D01*
X007242Y010605D01*
X007232Y010536D01*
X007219Y010467D01*
X007201Y010399D01*
X007180Y010332D01*
X007155Y010267D01*
X007126Y010203D01*
X007094Y010140D01*
X007058Y010080D01*
X007019Y010022D01*
X006977Y009966D01*
X006932Y009912D01*
X006884Y009861D01*
X006833Y009813D01*
X006779Y009768D01*
X006723Y009726D01*
X006665Y009687D01*
X006605Y009651D01*
X006542Y009619D01*
X006478Y009590D01*
X006413Y009565D01*
X006346Y009544D01*
X006278Y009526D01*
X006209Y009513D01*
X006140Y009503D01*
X006070Y009497D01*
X006000Y009495D01*
X005930Y009497D01*
X005860Y009503D01*
X005791Y009513D01*
X005722Y009526D01*
X005654Y009544D01*
X005587Y009565D01*
X005522Y009590D01*
X005458Y009619D01*
X005395Y009651D01*
X005335Y009687D01*
X005277Y009726D01*
X005221Y009768D01*
X005167Y009813D01*
X005116Y009861D01*
X005068Y009912D01*
X005023Y009966D01*
X004981Y010022D01*
X004942Y010080D01*
X004906Y010140D01*
X004874Y010203D01*
X004845Y010267D01*
X004820Y010332D01*
X004799Y010399D01*
X004781Y010467D01*
X004768Y010536D01*
X004758Y010605D01*
X004752Y010675D01*
X004750Y010745D01*
X010400Y010745D02*
X010402Y010794D01*
X010408Y010842D01*
X010418Y010890D01*
X010432Y010937D01*
X010449Y010983D01*
X010470Y011027D01*
X010495Y011069D01*
X010523Y011109D01*
X010555Y011147D01*
X010589Y011182D01*
X010626Y011214D01*
X010665Y011243D01*
X010707Y011269D01*
X010751Y011291D01*
X010796Y011309D01*
X010843Y011324D01*
X010890Y011335D01*
X010939Y011342D01*
X010988Y011345D01*
X011037Y011344D01*
X011085Y011339D01*
X011134Y011330D01*
X011181Y011317D01*
X011227Y011300D01*
X011271Y011280D01*
X011314Y011256D01*
X011355Y011229D01*
X011393Y011198D01*
X011429Y011165D01*
X011461Y011129D01*
X011491Y011090D01*
X011518Y011049D01*
X011541Y011005D01*
X011560Y010960D01*
X011576Y010914D01*
X011588Y010867D01*
X011596Y010818D01*
X011600Y010769D01*
X011600Y010721D01*
X011596Y010672D01*
X011588Y010623D01*
X011576Y010576D01*
X011560Y010530D01*
X011541Y010485D01*
X011518Y010441D01*
X011491Y010400D01*
X011461Y010361D01*
X011429Y010325D01*
X011393Y010292D01*
X011355Y010261D01*
X011314Y010234D01*
X011271Y010210D01*
X011227Y010190D01*
X011181Y010173D01*
X011134Y010160D01*
X011085Y010151D01*
X011037Y010146D01*
X010988Y010145D01*
X010939Y010148D01*
X010890Y010155D01*
X010843Y010166D01*
X010796Y010181D01*
X010751Y010199D01*
X010707Y010221D01*
X010665Y010247D01*
X010626Y010276D01*
X010589Y010308D01*
X010555Y010343D01*
X010523Y010381D01*
X010495Y010421D01*
X010470Y010463D01*
X010449Y010507D01*
X010432Y010553D01*
X010418Y010600D01*
X010408Y010648D01*
X010402Y010696D01*
X010400Y010745D01*
D11*
X010036Y010715D02*
X009889Y010715D01*
X010036Y010861D01*
X010036Y010898D01*
X009999Y010935D01*
X009926Y010935D01*
X009889Y010898D01*
X009815Y010898D02*
X009815Y010751D01*
X009778Y010715D01*
X009705Y010715D01*
X009668Y010751D01*
X009668Y010898D01*
X009705Y010935D01*
X009778Y010935D01*
X009815Y010898D01*
X009741Y010788D02*
X009815Y010715D01*
X010518Y009435D02*
X010628Y009435D01*
X010665Y009398D01*
X010665Y009325D01*
X010628Y009288D01*
X010518Y009288D01*
X010518Y009215D02*
X010518Y009435D01*
X010591Y009288D02*
X010665Y009215D01*
X010739Y009215D02*
X010886Y009215D01*
X010812Y009215D02*
X010812Y009435D01*
X010739Y009361D01*
X011710Y008707D02*
X011930Y008707D01*
X011930Y008634D02*
X011930Y008780D01*
X011783Y008634D02*
X011710Y008707D01*
X011747Y008559D02*
X011893Y008559D01*
X011930Y008523D01*
X011930Y008449D01*
X011893Y008413D01*
X011747Y008413D01*
X011710Y008449D01*
X011710Y008523D01*
X011747Y008559D01*
X011857Y008486D02*
X011930Y008559D01*
X010886Y008561D02*
X010849Y008525D01*
X010886Y008488D01*
X010886Y008451D01*
X010849Y008415D01*
X010776Y008415D01*
X010739Y008451D01*
X010665Y008415D02*
X010591Y008488D01*
X010628Y008488D02*
X010518Y008488D01*
X010518Y008415D02*
X010518Y008635D01*
X010628Y008635D01*
X010665Y008598D01*
X010665Y008525D01*
X010628Y008488D01*
X010739Y008598D02*
X010776Y008635D01*
X010849Y008635D01*
X010886Y008598D01*
X010886Y008561D01*
X010849Y008525D02*
X010812Y008525D01*
X009886Y007285D02*
X009739Y007285D01*
X009886Y007285D02*
X009886Y007248D01*
X009739Y007101D01*
X009739Y007065D01*
X009665Y007065D02*
X009518Y007065D01*
X009591Y007065D02*
X009591Y007285D01*
X009518Y007211D01*
X009444Y007248D02*
X009407Y007285D01*
X009334Y007285D01*
X009297Y007248D01*
X009297Y007101D01*
X009334Y007065D01*
X009407Y007065D01*
X009444Y007101D01*
X009190Y005920D02*
X009268Y005842D01*
X009268Y005791D01*
X009216Y005739D01*
X009164Y005739D01*
X009086Y005816D01*
X009034Y005765D02*
X009190Y005920D01*
X009346Y005764D02*
X009424Y005686D01*
X009424Y005634D01*
X009398Y005608D01*
X009346Y005608D01*
X009268Y005686D01*
X009190Y005608D02*
X009346Y005764D01*
X009346Y005608D02*
X009346Y005556D01*
X009320Y005530D01*
X009268Y005530D01*
X009190Y005608D01*
X009347Y005452D02*
X009373Y005478D01*
X009580Y005478D01*
X009606Y005504D01*
X009502Y005608D01*
X010034Y005765D02*
X010138Y005661D01*
X010216Y005634D02*
X010320Y005738D01*
X010372Y005738D01*
X010424Y005686D01*
X010424Y005634D01*
X010502Y005608D02*
X010580Y005530D01*
X010580Y005478D01*
X010476Y005374D01*
X010425Y005374D01*
X010347Y005452D01*
X010502Y005608D01*
X010320Y005530D02*
X010268Y005530D01*
X010216Y005582D01*
X010216Y005634D01*
X010034Y005765D02*
X010190Y005920D01*
X010633Y005426D02*
X010685Y005426D01*
X010736Y005374D01*
X010736Y005322D01*
X010529Y005322D01*
X010529Y005270D01*
X010581Y005218D01*
X010633Y005218D01*
X010736Y005322D01*
X010633Y005426D02*
X010529Y005322D01*
X011034Y005765D02*
X011138Y005661D01*
X011216Y005634D02*
X011320Y005738D01*
X011372Y005738D01*
X011424Y005686D01*
X011424Y005634D01*
X011502Y005608D02*
X011580Y005530D01*
X011580Y005478D01*
X011476Y005374D01*
X011425Y005374D01*
X011347Y005452D01*
X011502Y005608D01*
X011320Y005530D02*
X011268Y005530D01*
X011216Y005582D01*
X011216Y005634D01*
X011034Y005765D02*
X011190Y005920D01*
X011607Y005400D02*
X011711Y005400D01*
X011555Y005244D01*
X011503Y005296D02*
X011607Y005192D01*
X012216Y005582D02*
X012268Y005530D01*
X012320Y005530D01*
X012347Y005452D02*
X012425Y005374D01*
X012476Y005374D01*
X012580Y005478D01*
X012580Y005530D01*
X012502Y005608D01*
X012347Y005452D01*
X012216Y005582D02*
X012216Y005634D01*
X012320Y005738D01*
X012372Y005738D01*
X012424Y005686D01*
X012424Y005634D01*
X012138Y005661D02*
X012034Y005765D01*
X012190Y005920D01*
X012633Y005426D02*
X012685Y005426D01*
X012736Y005374D01*
X012736Y005322D01*
X012711Y005296D01*
X012503Y005296D01*
X012607Y005192D01*
X013216Y005582D02*
X013268Y005530D01*
X013320Y005530D01*
X013347Y005452D02*
X013425Y005374D01*
X013476Y005374D01*
X013580Y005478D01*
X013580Y005530D01*
X013502Y005608D01*
X013347Y005452D01*
X013216Y005582D02*
X013216Y005634D01*
X013320Y005738D01*
X013372Y005738D01*
X013424Y005686D01*
X013424Y005634D01*
X013138Y005661D02*
X013034Y005765D01*
X013190Y005920D01*
X013633Y005426D02*
X013685Y005426D01*
X013736Y005374D01*
X013736Y005322D01*
X013711Y005296D01*
X013659Y005296D01*
X013659Y005244D01*
X013633Y005218D01*
X013581Y005218D01*
X013529Y005270D01*
X013529Y005322D01*
X013633Y005322D02*
X013659Y005296D01*
X013641Y004925D02*
X013568Y004925D01*
X013531Y004888D01*
X013531Y004851D01*
X013568Y004815D01*
X013678Y004815D01*
X013678Y004888D02*
X013641Y004925D01*
X013678Y004888D02*
X013678Y004741D01*
X013641Y004705D01*
X013568Y004705D01*
X013531Y004741D01*
X013457Y004741D02*
X013420Y004705D01*
X013347Y004705D01*
X013310Y004741D01*
X013310Y004888D01*
X013347Y004925D01*
X013420Y004925D01*
X013457Y004888D01*
X012650Y002830D02*
X012728Y002752D01*
X012728Y002701D01*
X012702Y002675D01*
X012650Y002675D01*
X012572Y002752D01*
X012650Y002675D02*
X012650Y002623D01*
X012624Y002597D01*
X012572Y002597D01*
X012494Y002675D01*
X012650Y002830D01*
X012806Y002674D02*
X012650Y002518D01*
X012754Y002415D01*
X012885Y002440D02*
X012988Y002336D01*
X012885Y002336D02*
X012988Y002440D01*
X013460Y002639D02*
X013460Y002691D01*
X013460Y002639D02*
X013512Y002587D01*
X013564Y002587D01*
X013590Y002613D01*
X013590Y002665D01*
X013538Y002716D01*
X013538Y002768D01*
X013564Y002794D01*
X013616Y002794D01*
X013668Y002742D01*
X013668Y002691D01*
X013746Y002664D02*
X013824Y002586D01*
X013824Y002534D01*
X013772Y002482D01*
X013720Y002482D01*
X013642Y002560D01*
X013590Y002508D02*
X013746Y002664D01*
X013825Y002430D02*
X013928Y002326D01*
X013825Y002326D02*
X013928Y002430D01*
X014510Y002639D02*
X014562Y002587D01*
X014614Y002587D01*
X014640Y002613D01*
X014640Y002665D01*
X014588Y002716D01*
X014588Y002768D01*
X014614Y002794D01*
X014666Y002794D01*
X014718Y002742D01*
X014718Y002691D01*
X014796Y002664D02*
X014640Y002508D01*
X014692Y002560D02*
X014770Y002482D01*
X014822Y002482D01*
X014874Y002534D01*
X014874Y002586D01*
X014796Y002664D01*
X014875Y002430D02*
X014978Y002326D01*
X014510Y002639D02*
X014510Y002691D01*
X015960Y002705D02*
X015960Y002925D01*
X016070Y002925D01*
X016107Y002888D01*
X016107Y002815D01*
X016070Y002778D01*
X015960Y002778D01*
X016033Y002778D02*
X016107Y002705D01*
X016181Y002705D02*
X016328Y002705D01*
X016254Y002705D02*
X016254Y002925D01*
X016181Y002851D01*
X016402Y002851D02*
X016475Y002925D01*
X016475Y002705D01*
X016402Y002705D02*
X016549Y002705D01*
X017520Y002649D02*
X017593Y002576D01*
X017557Y002501D02*
X017520Y002465D01*
X017520Y002391D01*
X017557Y002355D01*
X017703Y002355D01*
X017740Y002391D01*
X017740Y002465D01*
X017703Y002501D01*
X017740Y002576D02*
X017740Y002722D01*
X017740Y002649D02*
X017520Y002649D01*
X017557Y002797D02*
X017520Y002833D01*
X017520Y002907D01*
X017557Y002943D01*
X017593Y002943D01*
X017740Y002797D01*
X017740Y002943D01*
X019318Y003701D02*
X019355Y003665D01*
X019428Y003665D01*
X019465Y003701D01*
X019465Y003885D01*
X019539Y003775D02*
X019686Y003775D01*
X019649Y003885D02*
X019539Y003775D01*
X019649Y003665D02*
X019649Y003885D01*
X019318Y003885D02*
X019318Y003701D01*
X021160Y005128D02*
X021197Y005092D01*
X021343Y005092D01*
X021380Y005128D01*
X021380Y005202D01*
X021343Y005238D01*
X021380Y005313D02*
X021380Y005459D01*
X021380Y005386D02*
X021160Y005386D01*
X021233Y005313D01*
X021197Y005238D02*
X021160Y005202D01*
X021160Y005128D01*
X021197Y005534D02*
X021233Y005534D01*
X021270Y005570D01*
X021270Y005644D01*
X021307Y005680D01*
X021343Y005680D01*
X021380Y005644D01*
X021380Y005570D01*
X021343Y005534D01*
X021307Y005534D01*
X021270Y005570D01*
X021270Y005644D02*
X021233Y005680D01*
X021197Y005680D01*
X021160Y005644D01*
X021160Y005570D01*
X021197Y005534D01*
X020980Y005642D02*
X020760Y005642D01*
X020760Y005752D01*
X020797Y005788D01*
X020870Y005788D01*
X020907Y005752D01*
X020907Y005642D01*
X020907Y005715D02*
X020980Y005788D01*
X020980Y005863D02*
X020980Y006009D01*
X020980Y005936D02*
X020760Y005936D01*
X020833Y005863D01*
X020870Y006084D02*
X020760Y006194D01*
X020980Y006194D01*
X020870Y006230D02*
X020870Y006084D01*
X021270Y006115D02*
X021270Y006005D01*
X021490Y006005D01*
X021417Y006005D02*
X021417Y006115D01*
X021380Y006151D01*
X021307Y006151D01*
X021270Y006115D01*
X021307Y006226D02*
X021343Y006226D01*
X021380Y006262D01*
X021380Y006372D01*
X021453Y006372D02*
X021307Y006372D01*
X021270Y006336D01*
X021270Y006262D01*
X021307Y006226D01*
X021453Y006226D02*
X021490Y006262D01*
X021490Y006336D01*
X021453Y006372D01*
X021490Y006151D02*
X021417Y006078D01*
X021149Y006815D02*
X021076Y006815D01*
X021039Y006851D01*
X021039Y006925D01*
X021149Y006925D01*
X021186Y006888D01*
X021186Y006851D01*
X021149Y006815D01*
X021039Y006925D02*
X021112Y006998D01*
X021186Y007035D01*
X020965Y006998D02*
X020928Y007035D01*
X020855Y007035D01*
X020818Y006998D01*
X020818Y006851D01*
X020855Y006815D01*
X020928Y006815D01*
X020965Y006851D01*
X020599Y007965D02*
X020526Y007965D01*
X020489Y008001D01*
X020489Y008038D01*
X020526Y008075D01*
X020599Y008075D01*
X020636Y008038D01*
X020636Y008001D01*
X020599Y007965D01*
X020599Y008075D02*
X020636Y008111D01*
X020636Y008148D01*
X020599Y008185D01*
X020526Y008185D01*
X020489Y008148D01*
X020489Y008111D01*
X020526Y008075D01*
X020415Y008148D02*
X020378Y008185D01*
X020305Y008185D01*
X020268Y008148D01*
X020268Y008001D01*
X020305Y007965D01*
X020378Y007965D01*
X020415Y008001D01*
X022270Y008155D02*
X022270Y008265D01*
X022307Y008301D01*
X022380Y008301D01*
X022417Y008265D01*
X022417Y008155D01*
X022417Y008228D02*
X022490Y008301D01*
X022490Y008376D02*
X022343Y008522D01*
X022307Y008522D01*
X022270Y008486D01*
X022270Y008412D01*
X022307Y008376D01*
X022490Y008376D02*
X022490Y008522D01*
X022453Y008597D02*
X022307Y008743D01*
X022453Y008743D01*
X022490Y008707D01*
X022490Y008633D01*
X022453Y008597D01*
X022307Y008597D01*
X022270Y008633D01*
X022270Y008707D01*
X022307Y008743D01*
X022270Y008155D02*
X022490Y008155D01*
X023170Y006372D02*
X023170Y006226D01*
X023280Y006226D01*
X023243Y006299D01*
X023243Y006336D01*
X023280Y006372D01*
X023353Y006372D01*
X023390Y006336D01*
X023390Y006262D01*
X023353Y006226D01*
X023390Y006151D02*
X023317Y006078D01*
X023317Y006115D02*
X023317Y006005D01*
X023390Y006005D02*
X023170Y006005D01*
X023170Y006115D01*
X023207Y006151D01*
X023280Y006151D01*
X023317Y006115D01*
X023153Y004493D02*
X023190Y004457D01*
X023190Y004383D01*
X023153Y004347D01*
X023007Y004493D01*
X023153Y004493D01*
X023153Y004347D02*
X023007Y004347D01*
X022970Y004383D01*
X022970Y004457D01*
X023007Y004493D01*
X023190Y004272D02*
X023190Y004126D01*
X023190Y004199D02*
X022970Y004199D01*
X023043Y004126D01*
X023007Y004051D02*
X022970Y004015D01*
X022970Y003905D01*
X023190Y003905D01*
X023117Y003905D02*
X023117Y004015D01*
X023080Y004051D01*
X023007Y004051D01*
X023117Y003978D02*
X023190Y004051D01*
X023297Y003825D02*
X023260Y003788D01*
X023260Y003641D01*
X023297Y003605D01*
X023370Y003605D01*
X023407Y003641D01*
X023407Y003788D01*
X023370Y003825D01*
X023297Y003825D01*
X023333Y003678D02*
X023407Y003605D01*
X023481Y003641D02*
X023518Y003605D01*
X023591Y003605D01*
X023628Y003641D01*
X023628Y003678D01*
X023591Y003715D01*
X023554Y003715D01*
X023591Y003715D02*
X023628Y003751D01*
X023628Y003788D01*
X023591Y003825D01*
X023518Y003825D01*
X023481Y003788D01*
X022428Y002325D02*
X022354Y002288D01*
X022281Y002215D01*
X022391Y002215D01*
X022428Y002178D01*
X022428Y002141D01*
X022391Y002105D01*
X022318Y002105D01*
X022281Y002141D01*
X022281Y002215D01*
X022207Y002215D02*
X022170Y002178D01*
X022060Y002178D01*
X022133Y002178D02*
X022207Y002105D01*
X022207Y002215D02*
X022207Y002288D01*
X022170Y002325D01*
X022060Y002325D01*
X022060Y002105D01*
X019053Y005705D02*
X019090Y005741D01*
X019090Y005815D01*
X019053Y005851D01*
X019090Y005926D02*
X018943Y006072D01*
X018907Y006072D01*
X018870Y006036D01*
X018870Y005962D01*
X018907Y005926D01*
X018907Y005851D02*
X018870Y005815D01*
X018870Y005741D01*
X018907Y005705D01*
X019053Y005705D01*
X019090Y005926D02*
X019090Y006072D01*
X019053Y006147D02*
X018907Y006293D01*
X019053Y006293D01*
X019090Y006257D01*
X019090Y006183D01*
X019053Y006147D01*
X018907Y006147D01*
X018870Y006183D01*
X018870Y006257D01*
X018907Y006293D01*
X018149Y006491D02*
X018112Y006455D01*
X018039Y006455D01*
X018002Y006491D01*
X018149Y006638D01*
X018149Y006491D01*
X018002Y006491D02*
X018002Y006638D01*
X018039Y006675D01*
X018112Y006675D01*
X018149Y006638D01*
X017928Y006455D02*
X017781Y006455D01*
X017854Y006455D02*
X017854Y006675D01*
X017781Y006601D01*
X017707Y006638D02*
X017670Y006675D01*
X017597Y006675D01*
X017560Y006638D01*
X017560Y006491D01*
X017597Y006455D01*
X017670Y006455D01*
X017707Y006491D01*
X018247Y007642D02*
X018393Y007642D01*
X018430Y007678D01*
X018430Y007752D01*
X018393Y007788D01*
X018430Y007863D02*
X018430Y008009D01*
X018430Y007936D02*
X018210Y007936D01*
X018283Y007863D01*
X018247Y007788D02*
X018210Y007752D01*
X018210Y007678D01*
X018247Y007642D01*
X018062Y007905D02*
X018099Y007941D01*
X018099Y007978D01*
X018062Y008015D01*
X017952Y008015D01*
X017952Y007941D01*
X017989Y007905D01*
X018062Y007905D01*
X017952Y008015D02*
X018025Y008088D01*
X018099Y008125D01*
X018210Y008157D02*
X018430Y008157D01*
X018430Y008084D02*
X018430Y008230D01*
X018283Y008084D02*
X018210Y008157D01*
X017804Y008125D02*
X017804Y007905D01*
X017731Y007905D02*
X017878Y007905D01*
X017731Y008051D02*
X017804Y008125D01*
X017657Y008088D02*
X017620Y008125D01*
X017547Y008125D01*
X017510Y008088D01*
X017510Y007941D01*
X017547Y007905D01*
X017620Y007905D01*
X017657Y007941D01*
X017250Y009495D02*
X014550Y009495D01*
X014550Y009795D02*
X017250Y009795D01*
X017288Y009796D01*
X017325Y009801D01*
X017362Y009808D01*
X017398Y009817D01*
X017434Y009830D01*
X017468Y009845D01*
X017911Y010745D02*
X017879Y010790D01*
X017843Y010832D01*
X017804Y010872D01*
X017762Y010909D01*
X017719Y010943D01*
X017672Y010974D01*
X017624Y011002D01*
X017574Y011026D01*
X017523Y011047D01*
X017470Y011064D01*
X017416Y011078D01*
X017361Y011087D01*
X017306Y011093D01*
X017250Y011095D01*
X014550Y011095D01*
X014550Y010795D02*
X017250Y010795D01*
X017911Y009845D02*
X017879Y009800D01*
X017843Y009758D01*
X017804Y009718D01*
X017763Y009681D01*
X017719Y009647D01*
X017672Y009616D01*
X017624Y009588D01*
X017574Y009564D01*
X017523Y009543D01*
X017470Y009526D01*
X017416Y009512D01*
X017361Y009503D01*
X017306Y009497D01*
X017250Y009495D01*
X017468Y010745D02*
X017434Y010760D01*
X017398Y010773D01*
X017362Y010782D01*
X017325Y010789D01*
X017288Y010794D01*
X017250Y010795D01*
X016300Y010295D02*
X016150Y010295D01*
X015650Y010295D02*
X015500Y010295D01*
X015504Y010455D02*
X015504Y010675D01*
X015431Y010601D01*
X015357Y010675D02*
X015210Y010455D01*
X015357Y010455D02*
X015210Y010675D01*
X015431Y010455D02*
X015578Y010455D01*
X014550Y011095D02*
X014494Y011093D01*
X014439Y011087D01*
X014384Y011078D01*
X014330Y011064D01*
X014277Y011047D01*
X014226Y011026D01*
X014176Y011002D01*
X014128Y010974D01*
X014081Y010943D01*
X014037Y010909D01*
X013996Y010872D01*
X013957Y010832D01*
X013921Y010790D01*
X013889Y010745D01*
X013889Y009845D02*
X013921Y009800D01*
X013957Y009758D01*
X013996Y009718D01*
X014038Y009681D01*
X014081Y009647D01*
X014128Y009616D01*
X014176Y009588D01*
X014226Y009564D01*
X014277Y009543D01*
X014330Y009526D01*
X014384Y009512D01*
X014439Y009503D01*
X014494Y009497D01*
X014550Y009495D01*
X014550Y009795D02*
X014512Y009796D01*
X014475Y009801D01*
X014438Y009808D01*
X014402Y009817D01*
X014366Y009830D01*
X014332Y009845D01*
X014332Y010745D02*
X014366Y010760D01*
X014402Y010773D01*
X014438Y010782D01*
X014475Y010789D01*
X014512Y010794D01*
X014550Y010795D01*
X015134Y012365D02*
X015097Y012401D01*
X015097Y012548D01*
X015134Y012585D01*
X015207Y012585D01*
X015244Y012548D01*
X015318Y012548D02*
X015355Y012585D01*
X015428Y012585D01*
X015465Y012548D01*
X015465Y012511D01*
X015318Y012365D01*
X015465Y012365D01*
X015539Y012365D02*
X015686Y012365D01*
X015612Y012365D02*
X015612Y012585D01*
X015539Y012511D01*
X015244Y012401D02*
X015207Y012365D01*
X015134Y012365D01*
X016418Y013415D02*
X016418Y013635D01*
X016528Y013635D01*
X016565Y013598D01*
X016565Y013525D01*
X016528Y013488D01*
X016418Y013488D01*
X016491Y013488D02*
X016565Y013415D01*
X016639Y013525D02*
X016786Y013525D01*
X016749Y013635D02*
X016639Y013525D01*
X016749Y013415D02*
X016749Y013635D01*
X017147Y012575D02*
X017110Y012538D01*
X017110Y012391D01*
X017147Y012355D01*
X017220Y012355D01*
X017257Y012391D01*
X017331Y012355D02*
X017478Y012501D01*
X017478Y012538D01*
X017441Y012575D01*
X017368Y012575D01*
X017331Y012538D01*
X017257Y012538D02*
X017220Y012575D01*
X017147Y012575D01*
X017331Y012355D02*
X017478Y012355D01*
X017552Y012355D02*
X017699Y012501D01*
X017699Y012538D01*
X017662Y012575D01*
X017589Y012575D01*
X017552Y012538D01*
X017552Y012355D02*
X017699Y012355D01*
X019920Y011472D02*
X019957Y011472D01*
X020103Y011326D01*
X020140Y011326D01*
X020140Y011251D02*
X020067Y011178D01*
X020067Y011215D02*
X020067Y011105D01*
X020140Y011105D02*
X019920Y011105D01*
X019920Y011215D01*
X019957Y011251D01*
X020030Y011251D01*
X020067Y011215D01*
X019920Y011326D02*
X019920Y011472D01*
X020770Y011533D02*
X020807Y011497D01*
X020770Y011533D02*
X020770Y011607D01*
X020807Y011643D01*
X020843Y011643D01*
X020990Y011497D01*
X020990Y011643D01*
X020990Y011422D02*
X020990Y011276D01*
X020990Y011349D02*
X020770Y011349D01*
X020843Y011276D01*
X020807Y011201D02*
X020880Y011201D01*
X020917Y011165D01*
X020917Y011055D01*
X020917Y011128D02*
X020990Y011201D01*
X020990Y011055D02*
X020770Y011055D01*
X020770Y011165D01*
X020807Y011201D01*
X021670Y011215D02*
X021707Y011251D01*
X021780Y011251D01*
X021817Y011215D01*
X021817Y011105D01*
X021817Y011178D02*
X021890Y011251D01*
X021853Y011326D02*
X021817Y011326D01*
X021780Y011362D01*
X021780Y011436D01*
X021817Y011472D01*
X021853Y011472D01*
X021890Y011436D01*
X021890Y011362D01*
X021853Y011326D01*
X021780Y011362D02*
X021743Y011326D01*
X021707Y011326D01*
X021670Y011362D01*
X021670Y011436D01*
X021707Y011472D01*
X021743Y011472D01*
X021780Y011436D01*
X021670Y011215D02*
X021670Y011105D01*
X021890Y011105D01*
X023870Y012488D02*
X023896Y012463D01*
X023948Y012463D01*
X024000Y012514D01*
X024052Y012514D01*
X024078Y012488D01*
X024078Y012437D01*
X024026Y012385D01*
X023974Y012385D01*
X023870Y012488D02*
X023870Y012540D01*
X023922Y012592D01*
X023974Y012592D01*
X024027Y012645D02*
X024052Y012619D01*
X024104Y012619D01*
X024156Y012671D01*
X024208Y012671D01*
X024234Y012645D01*
X024234Y012593D01*
X024182Y012541D01*
X024130Y012541D01*
X024027Y012645D02*
X024027Y012697D01*
X024078Y012749D01*
X024130Y012749D01*
X023950Y013359D02*
X023794Y013514D01*
X023898Y013514D01*
X023898Y013618D01*
X024054Y013463D01*
X024080Y013541D02*
X024132Y013541D01*
X024184Y013593D01*
X024184Y013645D01*
X024080Y013749D01*
X024028Y013749D01*
X023977Y013697D01*
X023977Y013645D01*
X024080Y013541D01*
X024237Y013697D02*
X024288Y013697D01*
X024340Y013749D01*
X024340Y013801D01*
X024314Y013827D01*
X024263Y013827D01*
X024211Y013775D01*
X024159Y013775D01*
X024133Y013801D01*
X024133Y013853D01*
X024185Y013905D01*
X024237Y013905D01*
X024263Y013983D02*
X024315Y014035D01*
X024289Y014009D02*
X024445Y013853D01*
X024419Y013828D02*
X024471Y013879D01*
X024000Y014359D02*
X023844Y014514D01*
X023948Y014514D01*
X023948Y014618D01*
X024104Y014463D01*
X024156Y014515D02*
X024208Y014567D01*
X024182Y014541D02*
X024027Y014697D01*
X024001Y014671D02*
X024052Y014723D01*
X024131Y014749D02*
X024157Y014723D01*
X024209Y014723D01*
X024260Y014775D01*
X024312Y014775D01*
X024338Y014749D01*
X024338Y014697D01*
X024286Y014645D01*
X024234Y014645D01*
X024131Y014749D02*
X024131Y014801D01*
X024183Y014853D01*
X024234Y014853D01*
X024287Y014905D02*
X024391Y014801D01*
X024443Y014801D01*
X024495Y014853D01*
X024495Y014905D01*
X024391Y015009D01*
X024339Y015009D01*
X024287Y014957D01*
X024287Y014905D01*
X023976Y015335D02*
X023924Y015335D01*
X023976Y015335D02*
X024028Y015387D01*
X024028Y015438D01*
X024002Y015464D01*
X023950Y015464D01*
X023898Y015413D01*
X023846Y015413D01*
X023820Y015438D01*
X023820Y015490D01*
X023872Y015542D01*
X023924Y015542D01*
X023977Y015595D02*
X024080Y015491D01*
X024132Y015491D01*
X024184Y015543D01*
X024184Y015595D01*
X024211Y015673D02*
X024211Y015881D01*
X024107Y015777D02*
X024263Y015621D01*
X024211Y015725D02*
X024366Y015725D01*
X024080Y015699D02*
X024028Y015699D01*
X023977Y015647D01*
X023977Y015595D01*
X023948Y016511D02*
X023844Y016614D01*
X023948Y016511D02*
X024052Y016511D01*
X024052Y016614D01*
X023948Y016718D01*
X024027Y016745D02*
X024130Y016641D01*
X024182Y016641D01*
X024234Y016693D01*
X024234Y016745D01*
X024287Y016797D02*
X024338Y016797D01*
X024390Y016849D01*
X024390Y016901D01*
X024287Y017005D02*
X024235Y017005D01*
X024183Y016953D01*
X024183Y016901D01*
X024287Y016797D01*
X024130Y016849D02*
X024078Y016849D01*
X024027Y016797D01*
X024027Y016745D01*
X023976Y017385D02*
X024028Y017437D01*
X024028Y017488D01*
X023976Y017540D01*
X023924Y017488D01*
X023924Y017385D02*
X023976Y017385D01*
X023924Y017385D02*
X023820Y017488D01*
X023820Y017540D01*
X023872Y017592D01*
X023924Y017592D01*
X023951Y017671D02*
X024210Y017619D01*
X024054Y017774D01*
X024107Y017827D02*
X024185Y017905D01*
X024237Y017905D01*
X024340Y017801D01*
X024340Y017749D01*
X024263Y017671D01*
X024107Y017827D01*
X023951Y017671D02*
X024106Y017515D01*
X023900Y018459D02*
X023744Y018614D01*
X023822Y018692D01*
X023874Y018692D01*
X023926Y018640D01*
X023926Y018588D01*
X023848Y018511D01*
X023900Y018563D02*
X024004Y018563D01*
X024056Y018615D02*
X024160Y018719D01*
X024187Y018797D02*
X024238Y018797D01*
X024290Y018849D01*
X024290Y018901D01*
X024264Y018927D01*
X024213Y018927D01*
X024161Y018875D01*
X024109Y018875D01*
X024083Y018901D01*
X024083Y018953D01*
X024135Y019005D01*
X024187Y019005D01*
X024004Y018874D02*
X023901Y018771D01*
X024056Y018615D01*
X023978Y018693D02*
X024030Y018745D01*
X022321Y018267D02*
X022321Y018194D01*
X022285Y018157D01*
X022211Y018157D02*
X022175Y018230D01*
X022175Y018267D01*
X022211Y018304D01*
X022285Y018304D01*
X022321Y018267D01*
X022211Y018157D02*
X022101Y018157D01*
X022101Y018304D01*
X022138Y018083D02*
X022101Y018046D01*
X022101Y017973D01*
X022138Y017936D01*
X022285Y017936D01*
X022321Y017973D01*
X022321Y018046D01*
X022285Y018083D01*
X019536Y018901D02*
X019536Y018938D01*
X019499Y018975D01*
X019389Y018975D01*
X019389Y018901D01*
X019426Y018865D01*
X019499Y018865D01*
X019536Y018901D01*
X019462Y019048D02*
X019389Y018975D01*
X019462Y019048D02*
X019536Y019085D01*
X019241Y019085D02*
X019241Y018865D01*
X019168Y018865D02*
X019315Y018865D01*
X019168Y019011D02*
X019241Y019085D01*
X019094Y019048D02*
X019094Y018975D01*
X019057Y018938D01*
X018947Y018938D01*
X018947Y018865D02*
X018947Y019085D01*
X019057Y019085D01*
X019094Y019048D01*
X019020Y018938D02*
X019094Y018865D01*
X017169Y019061D02*
X017132Y019025D01*
X017059Y019025D01*
X017022Y019061D01*
X016948Y019061D02*
X016948Y019208D01*
X016911Y019245D01*
X016801Y019245D01*
X016801Y019025D01*
X016911Y019025D01*
X016948Y019061D01*
X017022Y019208D02*
X017059Y019245D01*
X017132Y019245D01*
X017169Y019208D01*
X017169Y019171D01*
X017132Y019135D01*
X017169Y019098D01*
X017169Y019061D01*
X017132Y019135D02*
X017095Y019135D01*
X016727Y019135D02*
X016690Y019098D01*
X016580Y019098D01*
X016580Y019025D02*
X016580Y019245D01*
X016690Y019245D01*
X016727Y019208D01*
X016727Y019135D01*
X016219Y019171D02*
X016072Y019025D01*
X016219Y019025D01*
X016219Y019171D02*
X016219Y019208D01*
X016182Y019245D01*
X016109Y019245D01*
X016072Y019208D01*
X015998Y019208D02*
X015998Y019061D01*
X015961Y019025D01*
X015851Y019025D01*
X015851Y019245D01*
X015961Y019245D01*
X015998Y019208D01*
X015777Y019208D02*
X015777Y019135D01*
X015740Y019098D01*
X015630Y019098D01*
X015630Y019025D02*
X015630Y019245D01*
X015740Y019245D01*
X015777Y019208D01*
X014948Y019245D02*
X014801Y019025D01*
X014727Y019025D02*
X014653Y019098D01*
X014690Y019098D02*
X014580Y019098D01*
X014580Y019025D02*
X014580Y019245D01*
X014690Y019245D01*
X014727Y019208D01*
X014727Y019135D01*
X014690Y019098D01*
X014801Y019245D02*
X014948Y019025D01*
X014048Y019025D02*
X013901Y019245D01*
X013827Y019245D02*
X013680Y019245D01*
X013753Y019245D02*
X013753Y019025D01*
X013901Y019025D02*
X014048Y019245D01*
X013219Y019208D02*
X013219Y019061D01*
X013182Y019025D01*
X013072Y019025D01*
X013072Y019245D01*
X013182Y019245D01*
X013219Y019208D01*
X012998Y019245D02*
X012998Y019025D01*
X012851Y019245D01*
X012851Y019025D01*
X012777Y019061D02*
X012777Y019135D01*
X012703Y019135D01*
X012630Y019208D02*
X012630Y019061D01*
X012667Y019025D01*
X012740Y019025D01*
X012777Y019061D01*
X012777Y019208D02*
X012740Y019245D01*
X012667Y019245D01*
X012630Y019208D01*
X011250Y019024D02*
X011213Y019060D01*
X011140Y019060D01*
X011140Y018987D01*
X011213Y018914D02*
X011250Y018950D01*
X011250Y019024D01*
X011213Y018914D02*
X011067Y018914D01*
X011030Y018950D01*
X011030Y019024D01*
X011067Y019060D01*
X011067Y018839D02*
X011140Y018839D01*
X011177Y018803D01*
X011177Y018693D01*
X011250Y018693D02*
X011030Y018693D01*
X011030Y018803D01*
X011067Y018839D01*
X011103Y018618D02*
X011250Y018618D01*
X011140Y018618D02*
X011140Y018472D01*
X011103Y018472D02*
X011030Y018545D01*
X011103Y018618D01*
X011103Y018472D02*
X011250Y018472D01*
X011250Y018397D02*
X011030Y018397D01*
X011140Y018397D02*
X011140Y018251D01*
X011250Y018251D02*
X011030Y018251D01*
X011140Y017710D02*
X011140Y017564D01*
X011140Y017489D02*
X011177Y017453D01*
X011177Y017343D01*
X011250Y017343D02*
X011030Y017343D01*
X011030Y017453D01*
X011067Y017489D01*
X011140Y017489D01*
X011067Y017637D02*
X011213Y017637D01*
X011250Y017268D02*
X011103Y017268D01*
X011030Y017195D01*
X011103Y017122D01*
X011250Y017122D01*
X011250Y017047D02*
X011030Y017047D01*
X011140Y017047D02*
X011140Y016901D01*
X011250Y016901D02*
X011030Y016901D01*
X011140Y017122D02*
X011140Y017268D01*
X010312Y015525D02*
X010239Y015525D01*
X010202Y015488D01*
X010202Y015451D01*
X010239Y015415D01*
X010349Y015415D01*
X010349Y015488D02*
X010312Y015525D01*
X010349Y015488D02*
X010349Y015341D01*
X010312Y015305D01*
X010239Y015305D01*
X010202Y015341D01*
X010128Y015305D02*
X009981Y015305D01*
X010054Y015305D02*
X010054Y015525D01*
X009981Y015451D01*
X009907Y015415D02*
X009870Y015378D01*
X009760Y015378D01*
X009833Y015378D02*
X009907Y015305D01*
X009907Y015415D02*
X009907Y015488D01*
X009870Y015525D01*
X009760Y015525D01*
X009760Y015305D01*
X008090Y015291D02*
X008053Y015255D01*
X007907Y015255D01*
X007870Y015291D01*
X007870Y015365D01*
X007907Y015401D01*
X008053Y015401D01*
X008090Y015365D01*
X008090Y015291D01*
X008017Y015328D02*
X008090Y015401D01*
X008053Y015476D02*
X008090Y015512D01*
X008090Y015586D01*
X008053Y015622D01*
X007980Y015622D01*
X007943Y015586D01*
X007943Y015549D01*
X007980Y015476D01*
X007870Y015476D01*
X007870Y015622D01*
X005628Y014888D02*
X005591Y014925D01*
X005518Y014925D01*
X005481Y014888D01*
X005407Y014925D02*
X005407Y014741D01*
X005370Y014705D01*
X005297Y014705D01*
X005260Y014741D01*
X005260Y014925D01*
X005481Y014705D02*
X005628Y014851D01*
X005628Y014888D01*
X005628Y014705D02*
X005481Y014705D01*
X006847Y013330D02*
X006810Y013294D01*
X006810Y013220D01*
X006847Y013184D01*
X006847Y013109D02*
X006810Y013073D01*
X006810Y012999D01*
X006847Y012963D01*
X006993Y012963D01*
X007030Y012999D01*
X007030Y013073D01*
X006993Y013109D01*
X007030Y013184D02*
X006883Y013330D01*
X006847Y013330D01*
X007030Y013330D02*
X007030Y013184D01*
X008360Y013152D02*
X008397Y013188D01*
X008470Y013188D01*
X008507Y013152D01*
X008507Y013042D01*
X008580Y013042D02*
X008360Y013042D01*
X008360Y013152D01*
X008433Y013263D02*
X008360Y013336D01*
X008580Y013336D01*
X008580Y013263D02*
X008580Y013409D01*
X008543Y013484D02*
X008507Y013484D01*
X008470Y013520D01*
X008470Y013594D01*
X008507Y013630D01*
X008543Y013630D01*
X008580Y013594D01*
X008580Y013520D01*
X008543Y013484D01*
X008470Y013520D02*
X008433Y013484D01*
X008397Y013484D01*
X008360Y013520D01*
X008360Y013594D01*
X008397Y013630D01*
X008433Y013630D01*
X008470Y013594D01*
X008580Y013188D02*
X008507Y013115D01*
X010047Y012935D02*
X010047Y012715D01*
X010047Y012788D02*
X010157Y012788D01*
X010194Y012825D01*
X010194Y012898D01*
X010157Y012935D01*
X010047Y012935D01*
X010120Y012788D02*
X010194Y012715D01*
X010268Y012715D02*
X010415Y012715D01*
X010341Y012715D02*
X010341Y012935D01*
X010268Y012861D01*
X010489Y012935D02*
X010636Y012935D01*
X010636Y012898D01*
X010489Y012751D01*
X010489Y012715D01*
X011610Y012813D02*
X011610Y012923D01*
X011647Y012959D01*
X011720Y012959D01*
X011757Y012923D01*
X011757Y012813D01*
X011830Y012813D02*
X011610Y012813D01*
X011757Y012886D02*
X011830Y012959D01*
X011830Y013034D02*
X011683Y013180D01*
X011647Y013180D01*
X011610Y013144D01*
X011610Y013070D01*
X011647Y013034D01*
X011830Y013034D02*
X011830Y013180D01*
X012280Y014675D02*
X012390Y014675D01*
X012427Y014711D01*
X012427Y014748D01*
X012390Y014785D01*
X012280Y014785D01*
X012280Y014895D02*
X012390Y014895D01*
X012427Y014858D01*
X012427Y014821D01*
X012390Y014785D01*
X012501Y014785D02*
X012574Y014785D01*
X012501Y014895D02*
X012501Y014675D01*
X012648Y014675D01*
X012722Y014675D02*
X012722Y014895D01*
X012832Y014895D01*
X012869Y014858D01*
X012869Y014785D01*
X012832Y014748D01*
X012722Y014748D01*
X012648Y014895D02*
X012501Y014895D01*
X012280Y014895D02*
X012280Y014675D01*
X013951Y016221D02*
X014061Y016221D01*
X014098Y016258D01*
X014098Y016404D01*
X014061Y016441D01*
X013951Y016441D01*
X013951Y016221D01*
X014172Y016221D02*
X014319Y016221D01*
X014245Y016221D02*
X014245Y016441D01*
X014172Y016368D01*
X013949Y017565D02*
X013949Y017785D01*
X013839Y017675D01*
X013986Y017675D01*
X013765Y017748D02*
X013728Y017785D01*
X013655Y017785D01*
X013618Y017748D01*
X013618Y017601D01*
X013655Y017565D01*
X013728Y017565D01*
X013765Y017601D01*
X013765Y017748D01*
X013691Y017638D02*
X013765Y017565D01*
X016277Y017518D02*
X016277Y017298D01*
X016387Y017298D01*
X016424Y017335D01*
X016424Y017482D01*
X016387Y017518D01*
X016277Y017518D01*
X016498Y017482D02*
X016535Y017518D01*
X016608Y017518D01*
X016645Y017482D01*
X016645Y017445D01*
X016498Y017298D01*
X016645Y017298D01*
X016582Y016791D02*
X016619Y016754D01*
X016619Y016718D01*
X016582Y016681D01*
X016619Y016644D01*
X016619Y016608D01*
X016582Y016571D01*
X016509Y016571D01*
X016472Y016608D01*
X016398Y016608D02*
X016398Y016754D01*
X016361Y016791D01*
X016251Y016791D01*
X016251Y016571D01*
X016361Y016571D01*
X016398Y016608D01*
X016472Y016754D02*
X016509Y016791D01*
X016582Y016791D01*
X016582Y016681D02*
X016545Y016681D01*
X017310Y015325D02*
X017420Y015325D01*
X017457Y015288D01*
X017457Y015215D01*
X017420Y015178D01*
X017310Y015178D01*
X017383Y015178D02*
X017457Y015105D01*
X017531Y015105D02*
X017678Y015105D01*
X017604Y015105D02*
X017604Y015325D01*
X017531Y015251D01*
X017752Y015288D02*
X017789Y015325D01*
X017862Y015325D01*
X017899Y015288D01*
X017899Y015251D01*
X017862Y015215D01*
X017899Y015178D01*
X017899Y015141D01*
X017862Y015105D01*
X017789Y015105D01*
X017752Y015141D01*
X017825Y015215D02*
X017862Y015215D01*
X017310Y015105D02*
X017310Y015325D01*
X015599Y015088D02*
X015599Y014941D01*
X015562Y014905D01*
X015489Y014905D01*
X015452Y014941D01*
X015489Y015015D02*
X015599Y015015D01*
X015599Y015088D02*
X015562Y015125D01*
X015489Y015125D01*
X015452Y015088D01*
X015452Y015051D01*
X015489Y015015D01*
X015378Y014905D02*
X015231Y014905D01*
X015304Y014905D02*
X015304Y015125D01*
X015231Y015051D01*
X015157Y015088D02*
X015120Y015125D01*
X015047Y015125D01*
X015010Y015088D01*
X015010Y014941D01*
X015047Y014905D01*
X015120Y014905D01*
X015157Y014941D01*
X018747Y016865D02*
X018747Y017085D01*
X018857Y017085D01*
X018894Y017048D01*
X018894Y016975D01*
X018857Y016938D01*
X018747Y016938D01*
X018820Y016938D02*
X018894Y016865D01*
X018968Y016865D02*
X019115Y016865D01*
X019041Y016865D02*
X019041Y017085D01*
X018968Y017011D01*
X019189Y016975D02*
X019262Y017011D01*
X019299Y017011D01*
X019336Y016975D01*
X019336Y016901D01*
X019299Y016865D01*
X019226Y016865D01*
X019189Y016901D01*
X019189Y016975D02*
X019189Y017085D01*
X019336Y017085D01*
X019733Y014828D02*
X019733Y014645D01*
X019770Y014608D01*
X019843Y014608D01*
X019880Y014645D01*
X019880Y014828D01*
X019954Y014792D02*
X019991Y014828D01*
X020064Y014828D01*
X020101Y014792D01*
X020101Y014755D01*
X020064Y014718D01*
X020101Y014681D01*
X020101Y014645D01*
X020064Y014608D01*
X019991Y014608D01*
X019954Y014645D01*
X020027Y014718D02*
X020064Y014718D01*
X008178Y005902D02*
X008178Y005851D01*
X008126Y005799D01*
X008074Y005799D01*
X007996Y005876D01*
X007944Y005825D02*
X008100Y005980D01*
X008178Y005902D01*
X008230Y005798D02*
X008126Y005694D01*
X008126Y005642D01*
X008178Y005590D01*
X008230Y005590D01*
X008282Y005642D01*
X008230Y005694D01*
X008334Y005694D02*
X008334Y005746D01*
X008282Y005798D01*
X008230Y005798D01*
X008386Y005642D02*
X008438Y005642D01*
X008490Y005590D01*
X008490Y005538D01*
X008464Y005512D01*
X008257Y005512D01*
X008360Y005408D01*
X006730Y006399D02*
X006730Y006473D01*
X006693Y006509D01*
X006510Y006509D01*
X006583Y006584D02*
X006510Y006657D01*
X006730Y006657D01*
X006730Y006584D02*
X006730Y006730D01*
X006730Y006399D02*
X006693Y006363D01*
X006510Y006363D01*
X004591Y008405D02*
X004518Y008405D01*
X004481Y008441D01*
X004407Y008441D02*
X004370Y008405D01*
X004297Y008405D01*
X004260Y008441D01*
X004260Y008588D01*
X004297Y008625D01*
X004370Y008625D01*
X004407Y008588D01*
X004481Y008588D02*
X004518Y008625D01*
X004591Y008625D01*
X004628Y008588D01*
X004628Y008551D01*
X004591Y008515D01*
X004628Y008478D01*
X004628Y008441D01*
X004591Y008405D01*
X004591Y008515D02*
X004554Y008515D01*
X002636Y008015D02*
X002489Y008015D01*
X002562Y008015D02*
X002562Y008235D01*
X002489Y008161D01*
X002415Y008198D02*
X002378Y008235D01*
X002305Y008235D01*
X002268Y008198D01*
X002268Y008051D01*
X002305Y008015D01*
X002378Y008015D01*
X002415Y008051D01*
X003997Y010092D02*
X004143Y010092D01*
X004180Y010128D01*
X004180Y010202D01*
X004143Y010238D01*
X004180Y010313D02*
X004180Y010459D01*
X004180Y010386D02*
X003960Y010386D01*
X004033Y010313D01*
X003997Y010238D02*
X003960Y010202D01*
X003960Y010128D01*
X003997Y010092D01*
X003960Y010534D02*
X004070Y010534D01*
X004033Y010607D01*
X004033Y010644D01*
X004070Y010680D01*
X004143Y010680D01*
X004180Y010644D01*
X004180Y010570D01*
X004143Y010534D01*
X003960Y010534D02*
X003960Y010680D01*
X001840Y010686D02*
X001620Y010686D01*
X001730Y010576D01*
X001730Y010722D01*
X001803Y010501D02*
X001840Y010465D01*
X001840Y010391D01*
X001803Y010355D01*
X001657Y010355D01*
X001620Y010391D01*
X001620Y010465D01*
X001657Y010501D01*
X001640Y012975D02*
X001567Y012975D01*
X001530Y013011D01*
X001530Y013195D01*
X001677Y013195D02*
X001677Y013011D01*
X001640Y012975D01*
X001751Y013011D02*
X001788Y012975D01*
X001861Y012975D01*
X001898Y013011D01*
X001898Y013085D01*
X001824Y013085D01*
X001751Y013158D02*
X001751Y013011D01*
X001751Y013158D02*
X001788Y013195D01*
X001861Y013195D01*
X001898Y013158D01*
X001972Y013195D02*
X002119Y012975D01*
X002119Y013195D01*
X002193Y013195D02*
X002303Y013195D01*
X002340Y013158D01*
X002340Y013011D01*
X002303Y012975D01*
X002193Y012975D01*
X002193Y013195D01*
X001972Y013195D02*
X001972Y012975D01*
X001219Y013085D02*
X001072Y013085D01*
X000998Y013121D02*
X000961Y013085D01*
X000851Y013085D01*
X000777Y013011D02*
X000777Y013195D01*
X000851Y013195D02*
X000961Y013195D01*
X000998Y013158D01*
X000998Y013121D01*
X000961Y013085D02*
X000998Y013048D01*
X000998Y013011D01*
X000961Y012975D01*
X000851Y012975D01*
X000851Y013195D01*
X000777Y013011D02*
X000740Y012975D01*
X000667Y012975D01*
X000630Y013011D01*
X000630Y013195D01*
X001145Y013158D02*
X001145Y013011D01*
X011494Y002675D02*
X011650Y002830D01*
X011728Y002752D01*
X011728Y002701D01*
X011702Y002675D01*
X011650Y002675D01*
X011572Y002752D01*
X011650Y002675D02*
X011650Y002623D01*
X011624Y002597D01*
X011572Y002597D01*
X011494Y002675D01*
X011650Y002518D02*
X011754Y002415D01*
X011885Y002440D02*
X011988Y002336D01*
X011806Y002674D02*
X011650Y002518D01*
D12*
X024650Y005095D02*
X024650Y005543D01*
X024650Y005937D02*
X024650Y006386D01*
X024650Y006779D02*
X024650Y007228D01*
X024650Y007622D02*
X024650Y008071D01*
X024650Y008464D02*
X024650Y008913D01*
X024650Y009307D02*
X024650Y009755D01*
X024650Y010149D02*
X024650Y010598D01*
X024650Y010991D02*
X024650Y011440D01*
X024650Y011834D02*
X024650Y012283D01*
X024650Y012676D02*
X024650Y013125D01*
X024650Y013519D02*
X024650Y013967D01*
X024650Y014361D02*
X024650Y014810D01*
X024650Y015203D02*
X024650Y015652D01*
X024650Y016046D02*
X024650Y016495D01*
D13*
X024288Y007571D02*
X024288Y007377D01*
X024240Y007377D02*
X024192Y007426D01*
X024192Y007523D01*
X024240Y007571D01*
X024288Y007571D01*
X024385Y007523D02*
X024385Y007426D01*
X024337Y007377D01*
X024240Y007377D01*
X024240Y007276D02*
X024192Y007228D01*
X024192Y007083D01*
X024385Y007083D01*
X024385Y006983D02*
X024385Y006886D01*
X024385Y006935D02*
X024192Y006935D01*
X024192Y006886D01*
X024095Y006935D02*
X024046Y006935D01*
X024095Y006738D02*
X024385Y006738D01*
X024385Y006690D02*
X024385Y006787D01*
X024095Y006738D02*
X024095Y006690D01*
X024192Y006296D02*
X024192Y006199D01*
X024143Y006247D02*
X024337Y006247D01*
X024385Y006296D01*
X024385Y006098D02*
X024192Y006098D01*
X024385Y006098D02*
X024385Y005953D01*
X024337Y005904D01*
X024192Y005904D01*
X024143Y005803D02*
X024095Y005755D01*
X024095Y005658D01*
X024143Y005610D01*
X024337Y005610D01*
X024385Y005658D01*
X024385Y005755D01*
X024337Y005803D01*
X024385Y007276D02*
X024240Y007276D01*
D14*
X024045Y016220D02*
X023974Y016220D01*
X023939Y016256D01*
X023939Y016327D01*
X023991Y016343D02*
X023991Y016378D01*
X024026Y016414D01*
X024061Y016414D01*
X024079Y016396D01*
X024079Y016361D01*
X024114Y016361D01*
X024132Y016343D01*
X024132Y016308D01*
X024097Y016272D01*
X024061Y016272D01*
X024061Y016343D02*
X024079Y016361D01*
X024166Y016376D02*
X024183Y016394D01*
X024201Y016376D01*
X024183Y016359D01*
X024166Y016376D01*
X024218Y016428D02*
X024253Y016428D01*
X024288Y016464D01*
X024288Y016499D01*
X024271Y016517D01*
X024235Y016517D01*
X024218Y016499D01*
X024235Y016517D02*
X024235Y016552D01*
X024218Y016570D01*
X024182Y016570D01*
X024147Y016535D01*
X024147Y016499D01*
X024269Y016586D02*
X024375Y016550D01*
X024340Y016656D01*
X024338Y016725D02*
X024408Y016725D01*
X024444Y016690D01*
X024444Y016619D01*
X016575Y019300D02*
X016575Y019450D01*
X016500Y019375D01*
X016600Y019375D01*
X016452Y019350D02*
X016427Y019375D01*
X016352Y019375D01*
X016352Y019325D01*
X016377Y019300D01*
X016427Y019300D01*
X016452Y019325D01*
X016452Y019350D01*
X016402Y019425D02*
X016352Y019375D01*
X016305Y019375D02*
X016305Y019300D01*
X016255Y019300D02*
X016255Y019375D01*
X016280Y019400D01*
X016305Y019375D01*
X016255Y019375D02*
X016230Y019400D01*
X016205Y019400D01*
X016205Y019300D01*
X016402Y019425D02*
X016452Y019450D01*
X014854Y019400D02*
X014804Y019400D01*
X014829Y019425D02*
X014829Y019325D01*
X014854Y019300D01*
X014756Y019400D02*
X014731Y019400D01*
X014681Y019350D01*
X014634Y019350D02*
X014559Y019350D01*
X014534Y019325D01*
X014559Y019300D01*
X014634Y019300D01*
X014634Y019375D01*
X014609Y019400D01*
X014559Y019400D01*
X014486Y019400D02*
X014486Y019300D01*
X014411Y019300D01*
X014386Y019325D01*
X014386Y019400D01*
X014192Y019400D02*
X014142Y019300D01*
X014092Y019400D01*
X014044Y019375D02*
X014044Y019325D01*
X014019Y019300D01*
X013969Y019300D01*
X013944Y019325D01*
X013944Y019375D02*
X013994Y019400D01*
X014019Y019400D01*
X014044Y019375D01*
X014044Y019450D02*
X013944Y019450D01*
X013944Y019375D01*
X013750Y019300D02*
X013650Y019300D01*
X013650Y019450D01*
X013602Y019450D02*
X013502Y019450D01*
X013455Y019450D02*
X013355Y019450D01*
X013405Y019450D02*
X013405Y019300D01*
X013552Y019300D02*
X013552Y019450D01*
X014681Y019400D02*
X014681Y019300D01*
D15*
X024925Y013552D02*
X024925Y007331D01*
X030949Y007331D01*
X030949Y013552D01*
X024925Y013552D01*
X025634Y013552D02*
X025634Y012922D01*
X025636Y012883D01*
X025642Y012845D01*
X025651Y012808D01*
X025664Y012771D01*
X025681Y012736D01*
X025700Y012703D01*
X025723Y012672D01*
X025749Y012643D01*
X025778Y012617D01*
X025809Y012594D01*
X025842Y012575D01*
X025877Y012558D01*
X025914Y012545D01*
X025951Y012536D01*
X025989Y012530D01*
X026028Y012528D01*
X028705Y012528D01*
X028744Y012530D01*
X028782Y012536D01*
X028819Y012545D01*
X028856Y012558D01*
X028891Y012575D01*
X028924Y012594D01*
X028955Y012617D01*
X028984Y012643D01*
X029010Y012672D01*
X029033Y012703D01*
X029052Y012736D01*
X029069Y012771D01*
X029082Y012808D01*
X029091Y012845D01*
X029097Y012883D01*
X029099Y012922D01*
X029098Y012922D02*
X029098Y013552D01*
X020100Y004695D02*
X019100Y004695D01*
X019100Y002945D01*
X019400Y002945D01*
X019800Y002945D01*
X020100Y002945D01*
X020100Y004695D01*
X019800Y002945D02*
X019798Y002972D01*
X019793Y002999D01*
X019783Y003025D01*
X019771Y003049D01*
X019755Y003071D01*
X019737Y003091D01*
X019715Y003108D01*
X019692Y003123D01*
X019667Y003133D01*
X019641Y003141D01*
X019614Y003145D01*
X019586Y003145D01*
X019559Y003141D01*
X019533Y003133D01*
X019508Y003123D01*
X019485Y003108D01*
X019463Y003091D01*
X019445Y003071D01*
X019429Y003049D01*
X019417Y003025D01*
X019407Y002999D01*
X019402Y002972D01*
X019400Y002945D01*
D16*
X015200Y003145D02*
X014950Y002895D01*
X014450Y002895D01*
X014200Y003145D01*
X014200Y003645D01*
X014450Y003895D01*
X014950Y003895D01*
X015200Y003645D01*
X015200Y003145D01*
X014200Y003145D02*
X013950Y002895D01*
X013450Y002895D01*
X013200Y003145D01*
X013200Y003645D01*
X013450Y003895D01*
X013950Y003895D01*
X014200Y003645D01*
X014200Y003145D01*
X013200Y003145D02*
X012950Y002895D01*
X012450Y002895D01*
X012200Y003145D01*
X011950Y002895D01*
X011450Y002895D01*
X011200Y003145D01*
X011200Y003645D01*
X011450Y003895D01*
X011950Y003895D01*
X012200Y003645D01*
X012200Y003145D01*
X012200Y003645D01*
X012450Y003895D01*
X012950Y003895D01*
X013200Y003645D01*
X013200Y003145D01*
X013350Y005895D02*
X013850Y005895D01*
X014100Y006145D01*
X014100Y006645D01*
X013850Y006895D01*
X013350Y006895D01*
X013100Y006645D01*
X013100Y006145D01*
X013350Y005895D01*
X013100Y006145D02*
X012850Y005895D01*
X012350Y005895D01*
X012100Y006145D01*
X012100Y006645D01*
X012350Y006895D01*
X012850Y006895D01*
X013100Y006645D01*
X013100Y006145D01*
X012100Y006145D02*
X011850Y005895D01*
X011350Y005895D01*
X011100Y006145D01*
X011100Y006645D01*
X011350Y006895D01*
X011850Y006895D01*
X012100Y006645D01*
X012100Y006145D01*
X011100Y006145D02*
X010850Y005895D01*
X010350Y005895D01*
X010100Y006145D01*
X010100Y006645D01*
X010350Y006895D01*
X010850Y006895D01*
X011100Y006645D01*
X011100Y006145D01*
X010100Y006145D02*
X009850Y005895D01*
X009350Y005895D01*
X009100Y006145D01*
X008850Y005895D01*
X008350Y005895D01*
X008100Y006145D01*
X008100Y006645D01*
X008350Y006895D01*
X008850Y006895D01*
X009100Y006645D01*
X009100Y006145D01*
X009100Y006645D01*
X009350Y006895D01*
X009850Y006895D01*
X010100Y006645D01*
X010100Y006145D01*
X006931Y005315D02*
X006931Y007775D01*
X005569Y007775D01*
X005569Y005315D01*
X006931Y005315D01*
X013650Y009445D02*
X013650Y009845D01*
X013650Y009445D02*
X013652Y009428D01*
X013656Y009411D01*
X013663Y009395D01*
X013673Y009381D01*
X013686Y009368D01*
X013700Y009358D01*
X013716Y009351D01*
X013733Y009347D01*
X013750Y009345D01*
X018050Y009345D01*
X018067Y009347D01*
X018084Y009351D01*
X018100Y009358D01*
X018114Y009368D01*
X018127Y009381D01*
X018137Y009395D01*
X018144Y009411D01*
X018148Y009428D01*
X018150Y009445D01*
X018150Y009845D01*
X018150Y010745D02*
X018150Y011145D01*
X018148Y011162D01*
X018144Y011179D01*
X018137Y011195D01*
X018127Y011209D01*
X018114Y011222D01*
X018100Y011232D01*
X018084Y011239D01*
X018067Y011243D01*
X018050Y011245D01*
X013750Y011245D01*
X013733Y011243D01*
X013716Y011239D01*
X013700Y011232D01*
X013686Y011222D01*
X013673Y011209D01*
X013663Y011195D01*
X013656Y011179D01*
X013652Y011162D01*
X013650Y011145D01*
X013650Y010745D01*
X015650Y010545D02*
X015650Y010295D01*
X015650Y010045D01*
X015800Y010045D02*
X016000Y010045D01*
X016000Y010545D01*
X015800Y010545D01*
X015800Y010045D01*
X016150Y010045D02*
X016150Y010295D01*
X016150Y010545D01*
X018447Y014046D02*
X020300Y012193D01*
X022252Y014145D01*
X020300Y016096D01*
X018447Y014243D01*
X018447Y014046D01*
X018632Y014145D02*
X018634Y014168D01*
X018640Y014191D01*
X018649Y014212D01*
X018662Y014232D01*
X018678Y014249D01*
X018696Y014263D01*
X018716Y014274D01*
X018738Y014282D01*
X018761Y014286D01*
X018785Y014286D01*
X018808Y014282D01*
X018830Y014274D01*
X018850Y014263D01*
X018868Y014249D01*
X018884Y014232D01*
X018897Y014212D01*
X018906Y014191D01*
X018912Y014168D01*
X018914Y014145D01*
X018912Y014122D01*
X018906Y014099D01*
X018897Y014078D01*
X018884Y014058D01*
X018868Y014041D01*
X018850Y014027D01*
X018830Y014016D01*
X018808Y014008D01*
X018785Y014004D01*
X018761Y014004D01*
X018738Y014008D01*
X018716Y014016D01*
X018696Y014027D01*
X018678Y014041D01*
X018662Y014058D01*
X018649Y014078D01*
X018640Y014099D01*
X018634Y014122D01*
X018632Y014145D01*
X022850Y014295D02*
X022850Y013795D01*
X023100Y013545D01*
X023600Y013545D01*
X023850Y013295D01*
X023850Y012795D01*
X023600Y012545D01*
X023850Y012295D01*
X023850Y011795D01*
X023600Y011545D01*
X023100Y011545D01*
X022850Y011795D01*
X022850Y012295D01*
X023100Y012545D01*
X022850Y012795D01*
X022850Y013295D01*
X023100Y013545D01*
X023600Y013545D02*
X023850Y013795D01*
X023850Y014295D01*
X023600Y014545D01*
X023850Y014795D01*
X023850Y015295D01*
X023600Y015545D01*
X023850Y015795D01*
X023850Y016295D01*
X023600Y016545D01*
X023100Y016545D01*
X022850Y016295D01*
X022850Y015795D01*
X023100Y015545D01*
X023600Y015545D01*
X023100Y015545D02*
X022850Y015295D01*
X022850Y014795D01*
X023100Y014545D01*
X023600Y014545D01*
X023100Y014545D02*
X022850Y014295D01*
X023100Y012545D02*
X023600Y012545D01*
X023600Y016545D02*
X023850Y016795D01*
X023850Y017295D01*
X023600Y017545D01*
X023850Y017795D01*
X023850Y018295D01*
X023600Y018545D01*
X023100Y018545D01*
X022850Y018295D01*
X022850Y017795D01*
X023100Y017545D01*
X023600Y017545D01*
X023100Y017545D02*
X022850Y017295D01*
X022850Y016795D01*
X023100Y016545D01*
X017350Y018195D02*
X017100Y017945D01*
X016600Y017945D01*
X016350Y018195D01*
X016350Y018695D01*
X016600Y018945D01*
X017100Y018945D01*
X017350Y018695D01*
X017350Y018195D01*
X016350Y018195D02*
X016100Y017945D01*
X015600Y017945D01*
X015350Y018195D01*
X015100Y017945D01*
X014600Y017945D01*
X014350Y018195D01*
X014350Y018695D01*
X014600Y018945D01*
X015100Y018945D01*
X015350Y018695D01*
X015350Y018195D01*
X015350Y018695D01*
X015600Y018945D01*
X016100Y018945D01*
X016350Y018695D01*
X016350Y018195D01*
X014350Y018195D02*
X014100Y017945D01*
X013600Y017945D01*
X013350Y018195D01*
X013100Y017945D01*
X012600Y017945D01*
X012350Y018195D01*
X012100Y017945D01*
X011600Y017945D01*
X011350Y018195D01*
X011350Y018695D01*
X011600Y018945D01*
X012100Y018945D01*
X012350Y018695D01*
X012350Y018195D01*
X012350Y018695D01*
X012600Y018945D01*
X013100Y018945D01*
X013350Y018695D01*
X013350Y018195D01*
X013350Y018695D01*
X013600Y018945D01*
X014100Y018945D01*
X014350Y018695D01*
X014350Y018195D01*
X013860Y017445D02*
X013860Y017145D01*
X012720Y017145D01*
X012720Y017445D01*
X013860Y017445D01*
X012350Y017695D02*
X012350Y017195D01*
X012100Y016945D01*
X011600Y016945D01*
X011350Y017195D01*
X011350Y017695D01*
X011600Y017945D01*
X012100Y017945D01*
X012350Y017695D01*
X012350Y015995D02*
X012100Y015745D01*
X012100Y015245D01*
X012350Y014995D01*
X012850Y014995D01*
X013100Y015245D01*
X013100Y015745D01*
X012850Y015995D01*
X012350Y015995D01*
X006630Y015226D02*
X006630Y013864D01*
X004170Y013864D01*
X004170Y015226D01*
X006630Y015226D01*
X002300Y012595D02*
X002300Y012095D01*
X002050Y011845D01*
X001550Y011845D01*
X001300Y012095D01*
X001300Y012595D01*
X001550Y012845D01*
X002050Y012845D01*
X002300Y012595D01*
X001300Y012595D02*
X001300Y012095D01*
X001050Y011845D01*
X000550Y011845D01*
X000300Y012095D01*
X000300Y012595D01*
X000550Y012845D01*
X001050Y012845D01*
X001300Y012595D01*
D17*
X001906Y011189D02*
X001906Y009900D01*
X001856Y009439D02*
X003144Y009439D01*
X002994Y009900D02*
X002994Y011189D01*
X005106Y008989D02*
X006394Y008989D01*
X006394Y007900D02*
X005106Y007900D01*
X003144Y008350D02*
X001856Y008350D01*
X014286Y005439D02*
X016604Y005439D01*
X016954Y005700D02*
X014636Y005700D01*
X014636Y006989D02*
X016954Y006989D01*
X016954Y007250D02*
X014636Y007250D01*
X014636Y008539D02*
X016954Y008539D01*
X016604Y004150D02*
X014286Y004150D01*
M02*
